<svg width="30" height="26" viewBox="0 0 30 26" fill="none" xmlns="http://www.w3.org/2000/svg">
<path d="M11.505 6.9707V23.4781C11.505 23.8761 11.3468 24.2578 11.0654 24.5393C10.784 24.8207 10.4023 24.9788 10.0043 24.9788H8.5036C8.1056 24.9788 7.7239 24.8207 7.44247 24.5393C7.16104 24.2578 7.00293 23.8761 7.00293 23.4781V15.9747M23.5103 6.9707C24.7044 6.9707 25.8495 7.44502 26.6938 8.28931C27.538 9.13361 28.0124 10.2787 28.0124 11.4727C28.0124 12.6667 27.538 13.8118 26.6938 14.6561C25.8495 15.5004 24.7044 15.9747 23.5103 15.9747V6.9707Z" stroke="white" stroke-width="2" stroke-linecap="round" stroke-linejoin="round"/>
<path d="M14.5061 6.97038L21.2951 1.31284C21.4924 1.14852 21.7324 1.04384 21.987 1.01106C22.2417 0.978273 22.5004 1.01874 22.7328 1.12773C22.9653 1.23671 23.1619 1.40969 23.2995 1.6264C23.4372 1.84311 23.5102 2.09456 23.5101 2.3513V20.5935C23.5102 20.8502 23.4372 21.1017 23.2995 21.3184C23.1619 21.5351 22.9653 21.7081 22.7328 21.8171C22.5004 21.926 22.2417 21.9665 21.987 21.9337C21.7324 21.901 21.4924 21.7963 21.2951 21.632L14.5061 15.9744H2.50067C2.10267 15.9744 1.72097 15.8163 1.43954 15.5349C1.15811 15.2535 1 14.8717 1 14.4737V8.47105C1 8.07305 1.15811 7.69134 1.43954 7.40991C1.72097 7.12848 2.10267 6.97038 2.50067 6.97038H14.5061Z" stroke="white" stroke-width="2" stroke-linecap="round" stroke-linejoin="round"/>
</svg>
