<svg width="16" height="11" viewBox="0 0 16 11" fill="none" xmlns="http://www.w3.org/2000/svg">
<path fill-rule="evenodd" clip-rule="evenodd" d="M-2.40413e-07 5.5C-2.47496e-07 5.33795 0.0601998 5.18253 0.167357 5.06794C0.274513 4.95335 0.419849 4.88898 0.571392 4.88898L14.0482 4.88897L10.4519 1.0444C10.3446 0.929669 10.2843 0.774056 10.2843 0.611798C10.2843 0.449539 10.3446 0.293926 10.4519 0.179191C10.5592 0.0644574 10.7047 4.85756e-07 10.8564 4.79124e-07C11.0082 4.72491e-07 11.1537 0.0644574 11.261 0.179191L15.8321 5.06739C15.8853 5.12415 15.9276 5.19158 15.9564 5.26581C15.9852 5.34005 16 5.41963 16 5.5C16 5.58037 15.9852 5.65995 15.9564 5.73419C15.9276 5.80842 15.8853 5.87585 15.8321 5.93261L11.261 10.8208C11.1537 10.9355 11.0082 11 10.8565 11C10.7047 11 10.5592 10.9355 10.4519 10.8208C10.3446 10.7061 10.2843 10.5505 10.2843 10.3882C10.2843 10.2259 10.3446 10.0703 10.4519 9.9556L14.0482 6.11103L0.571392 6.11103C0.419849 6.11103 0.274513 6.04665 0.167357 5.93206C0.0601998 5.81747 -2.33329e-07 5.66205 -2.40413e-07 5.5Z" fill="white"/>
</svg>
