<svg width="11" height="11" viewBox="0 0 11 11" fill="none" xmlns="http://www.w3.org/2000/svg">
<path d="M9.99971 9.09319V7.73835C10.0052 7.51685 9.92896 7.30105 9.78541 7.132C9.38071 6.6553 7.99271 6.3504 7.44251 6.4675C7.01366 6.5588 6.71356 6.9894 6.42021 7.2822C5.28731 6.63925 4.34929 5.7031 3.7051 4.5724C3.99845 4.27964 4.42993 3.98018 4.52141 3.55214C4.63856 3.00388 4.33406 1.62474 3.86066 1.21842C3.69414 1.0755 3.48123 0.997884 3.26162 1.00004H1.90405C1.38679 1.00053 0.956437 1.46447 1.00353 1.98459C0.999997 6.4675 4.50002 9.99999 9.01321 9.99644C9.53611 10.0436 10.0018 9.61114 9.99971 9.09319Z" stroke="white" stroke-width="0.7" stroke-linecap="round" stroke-linejoin="round"/>
<path d="M6.75 2.75C7.1186 2.82191 7.48445 2.98446 7.75 3.25C8.01555 3.51554 8.1781 3.88142 8.25 4.25" stroke="white" stroke-width="0.7" stroke-linecap="round" stroke-linejoin="round"/>
<path d="M6.99951 1C7.76526 1.08507 8.45436 1.45553 8.99951 2C9.54466 2.54446 9.91346 3.23434 9.99951 4" stroke="white" stroke-width="0.7" stroke-linecap="round" stroke-linejoin="round"/>
</svg>
