<svg xmlns="http://www.w3.org/2000/svg" width="28" height="28" fill="none" viewBox="0 0 28 28"><path fill="#fff" d="M14 0C6.26801 0 0 6.26801 0 14C0 21.732 6.26801 28 14 28C21.732 28 28 21.732 28 14C28 6.26801 21.732 0 14 0ZM6.9436 5.91479L9.4353 6.69751C9.76516 6.80584 9.98487 7.11216 10.0232 7.42553L10.1633 8.79781L21.446 10.0573C21.9305 10.1512 22.2709 10.5886 22.2031 11.0383L21.5024 14.986C21.4133 15.3989 21.0713 15.682 20.6907 15.6867H10.6675L10.471 16.8061H19.99C20.4877 16.8236 20.8523 17.2026 20.8582 17.6452C20.8375 18.1501 20.4306 18.4805 19.99 18.486H9.46265C8.93167 18.4421 8.54187 18.0213 8.62353 17.5067L9.07128 15.0424L8.3706 8.15355L6.43944 7.53835C6.21544 7.46368 6.0473 7.32324 5.9353 7.1179C5.72339 6.67382 5.92132 6.18214 6.29932 5.96946C6.51506 5.85732 6.72576 5.84334 6.9436 5.91479ZM10.7376 18.9697C11.4624 18.9697 12.0501 19.5573 12.0501 20.2822C12.0501 21.0071 11.4624 21.5947 10.7376 21.5947C10.0127 21.5947 9.42506 21.0071 9.42506 20.2822C9.42506 19.5573 10.0127 18.9697 10.7376 18.9697ZM18.4416 18.9697C19.1665 18.9697 19.7541 19.5573 19.7541 20.2822C19.7541 21.0071 19.1665 21.5947 18.4416 21.5947C17.7168 21.5947 17.1291 21.0071 17.1291 20.2822C17.1291 19.5573 17.7168 18.9697 18.4416 18.9697Z"/></svg>