<svg xmlns="http://www.w3.org/2000/svg" width="17" height="20" fill="none" viewBox="0 0 17 20"><path fill="#fff" d="M10 0.375V5.1875C10 5.73451 10.2173 6.25911 10.6041 6.64591C10.9909 7.0327 11.5155 7.25 12.0625 7.25H16.875V17.5625C16.875 18.1095 16.6577 18.6341 16.2709 19.0209C15.8841 19.4077 15.3595 19.625 14.8125 19.625H14.0081C14.1377 19.258 14.1607 18.8618 14.0745 18.4822C13.9884 18.1026 13.7966 17.7552 13.5214 17.48L10.7714 14.73C11.2997 13.6256 11.4885 12.3892 11.3139 11.1774C11.1393 9.96564 10.6091 8.83289 9.79049 7.92254C8.97185 7.01219 7.90155 6.36515 6.71503 6.06333C5.52852 5.76151 4.27913 5.81847 3.125 6.227V2.4375C3.125 1.89049 3.3423 1.36589 3.72909 0.979092C4.11589 0.592299 4.64049 0.375 5.1875 0.375H10ZM11.375 0.71875V5.1875C11.375 5.36984 11.4474 5.5447 11.5764 5.67364C11.7053 5.80257 11.8802 5.875 12.0625 5.875H16.5312L11.375 0.71875ZM8.0695 15.9166C7.09509 16.6453 5.88087 16.9778 4.67118 16.8472C3.4615 16.7167 2.34616 16.1328 1.54963 15.2131C0.753099 14.2933 0.334505 13.106 0.378092 11.8901C0.421679 10.6742 0.924211 9.51989 1.78455 8.65955C2.64489 7.79921 3.79918 7.29668 5.0151 7.25309C6.23103 7.20951 7.41833 7.6281 8.33806 8.42463C9.2578 9.22116 9.84169 10.3365 9.97223 11.5462C10.1028 12.7559 9.77026 13.9701 9.04163 14.9445L12.5479 18.4508C12.677 18.5797 12.7496 18.7546 12.7497 18.937C12.7498 19.1195 12.6775 19.2945 12.5486 19.4236C12.4197 19.5527 12.2447 19.6253 12.0623 19.6254C11.8799 19.6255 11.7048 19.5532 11.5757 19.4242L8.0695 15.918V15.9166ZM8.625 12.0625C8.625 11.1508 8.26284 10.2765 7.61818 9.63182C6.97352 8.98716 6.09918 8.625 5.1875 8.625C4.27582 8.625 3.40148 8.98716 2.75682 9.63182C2.11216 10.2765 1.75 11.1508 1.75 12.0625C1.75 12.9742 2.11216 13.8485 2.75682 14.4932C3.40148 15.1378 4.27582 15.5 5.1875 15.5C6.09918 15.5 6.97352 15.1378 7.61818 14.4932C8.26284 13.8485 8.625 12.9742 8.625 12.0625Z"/></svg>