<svg xmlns="http://www.w3.org/2000/svg" width="30" height="24" fill="none" viewBox="0 0 30 24"><path fill="#fff" d="M0 22.5C0 23.3283 0.671719 24 1.5 24H4.5C5.32828 24 6 23.3283 6 22.5V7.5H0V22.5ZM27.1481 13.5C27.9853 12.6848 28.5 11.7497 28.5 10.7386C28.5 8.26078 26.5411 6.34219 24.3787 4.97766C22.4128 3.73688 20.5992 2.26969 19.1306 0.467344L18.75 0L18.3694 0.467344C16.9008 2.26969 15.0877 3.73734 13.1213 4.97766C10.9589 6.34219 9 8.26078 9 10.7386C9 11.7497 9.51469 12.6848 10.3519 13.5H27.1481ZM28.5 15H9C8.17172 15 7.5 15.6717 7.5 16.5V22.5C7.5 23.3283 8.17172 24 9 24H10.5V21C10.5 20.1717 11.1717 19.5 12 19.5C12.8283 19.5 13.5 20.1717 13.5 21V24H16.5V20.625C16.5 18.375 18.75 17.25 18.75 17.25C18.75 17.25 21 18.375 21 20.625V24H24V21C24 20.1717 24.6717 19.5 25.5 19.5C26.3283 19.5 27 20.1717 27 21V24H28.5C29.3283 24 30 23.3283 30 22.5V16.5C30 15.6717 29.3283 15 28.5 15ZM3 0C3 0 0 1.5 0 4.5V6H6V4.5C6 1.5 3 0 3 0Z"/></svg>