<svg width="22" height="27" viewBox="0 0 22 27" fill="none" xmlns="http://www.w3.org/2000/svg">
<path d="M0 3.08634C0 2.26779 0.331262 1.48277 0.920912 0.903967C1.51056 0.325166 2.3103 0 3.14419 0H15.7209C16.5548 0 17.3546 0.325166 17.9442 0.903967C18.5339 1.48277 18.8651 2.26779 18.8651 3.08634V18.3375L14.9428 22.2262L13.4744 20.7556C13.2589 20.5335 13.0005 20.3557 12.7143 20.2325C12.4281 20.1093 12.1198 20.0431 11.8073 20.0379C11.4949 20.0327 11.1844 20.0885 10.8941 20.202C10.6038 20.3156 10.3394 20.4847 10.1163 20.6994C9.89311 20.9142 9.71567 21.1703 9.59425 21.453C9.47283 21.7357 9.40986 22.0392 9.409 22.3459C9.40814 22.6527 9.4694 22.9566 9.58923 23.2399C9.70905 23.5232 9.88505 23.7803 10.107 23.9963L10.8003 24.6907H3.14419C2.3103 24.6907 1.51056 24.3655 0.920912 23.7867C0.331262 23.2079 0 22.4229 0 21.6044V3.08634ZM7.86047 11.5738C7.86047 11.7784 7.94329 11.9747 8.0907 12.1194C8.23811 12.2641 8.43805 12.3453 8.64652 12.3453H14.9349C15.1434 12.3453 15.3433 12.2641 15.4907 12.1194C15.6381 11.9747 15.7209 11.7784 15.7209 11.5738C15.7209 11.3691 15.6381 11.1729 15.4907 11.0282C15.3433 10.8835 15.1434 10.8022 14.9349 10.8022H8.64652C8.43805 10.8022 8.23811 10.8835 8.0907 11.0282C7.94329 11.1729 7.86047 11.3691 7.86047 11.5738ZM8.64652 4.6295C8.43805 4.6295 8.23811 4.7108 8.0907 4.8555C7.94329 5.0002 7.86047 5.19645 7.86047 5.40109C7.86047 5.60572 7.94329 5.80198 8.0907 5.94668C8.23811 6.09138 8.43805 6.17267 8.64652 6.17267H14.9349C15.1434 6.17267 15.3433 6.09138 15.4907 5.94668C15.6381 5.80198 15.7209 5.60572 15.7209 5.40109C15.7209 5.19645 15.6381 5.0002 15.4907 4.8555C15.3433 4.7108 15.1434 4.6295 14.9349 4.6295H8.64652ZM7.86047 17.7464C7.86047 17.9511 7.94329 18.1473 8.0907 18.292C8.23811 18.4367 8.43805 18.518 8.64652 18.518H14.9349C15.1434 18.518 15.3433 18.4367 15.4907 18.292C15.6381 18.1473 15.7209 17.9511 15.7209 17.7464C15.7209 17.5418 15.6381 17.3455 15.4907 17.2008C15.3433 17.0561 15.1434 16.9748 14.9349 16.9748H8.64652C8.43805 16.9748 8.23811 17.0561 8.0907 17.2008C7.94329 17.3455 7.86047 17.5418 7.86047 17.7464ZM4.71628 13.1169C5.13323 13.1169 5.5331 12.9543 5.82792 12.6649C6.12275 12.3755 6.28838 11.983 6.28838 11.5738C6.28838 11.1645 6.12275 10.772 5.82792 10.4826C5.5331 10.1932 5.13323 10.0306 4.71628 10.0306C4.29934 10.0306 3.89947 10.1932 3.60465 10.4826C3.30982 10.772 3.14419 11.1645 3.14419 11.5738C3.14419 11.983 3.30982 12.3755 3.60465 12.6649C3.89947 12.9543 4.29934 13.1169 4.71628 13.1169ZM6.28838 5.40109C6.28838 4.99181 6.12275 4.5993 5.82792 4.3099C5.5331 4.0205 5.13323 3.85792 4.71628 3.85792C4.29934 3.85792 3.89947 4.0205 3.60465 4.3099C3.30982 4.5993 3.14419 4.99181 3.14419 5.40109C3.14419 5.81036 3.30982 6.20287 3.60465 6.49227C3.89947 6.78167 4.29934 6.94426 4.71628 6.94426C5.13323 6.94426 5.5331 6.78167 5.82792 6.49227C6.12275 6.20287 6.28838 5.81036 6.28838 5.40109ZM4.71628 19.2896C5.13323 19.2896 5.5331 19.127 5.82792 18.8376C6.12275 18.5482 6.28838 18.1557 6.28838 17.7464C6.28838 17.3372 6.12275 16.9446 5.82792 16.6552C5.5331 16.3658 5.13323 16.2033 4.71628 16.2033C4.29934 16.2033 3.89947 16.3658 3.60465 16.6552C3.30982 16.9446 3.14419 17.3372 3.14419 17.7464C3.14419 18.1557 3.30982 18.5482 3.60465 18.8376C3.89947 19.127 4.29934 19.2896 4.71628 19.2896ZM21.7814 19.8328C21.9241 19.6867 22.0026 19.4914 21.9999 19.2891C21.9973 19.0867 21.9138 18.8934 21.7674 18.7509C21.621 18.6084 21.4234 18.5281 21.2172 18.5273C21.0111 18.5264 20.8128 18.6051 20.6652 18.7464L14.938 24.4253L12.352 21.8358C12.2801 21.7618 12.194 21.7025 12.0986 21.6615C12.0032 21.6204 11.9004 21.5983 11.7962 21.5966C11.6921 21.5949 11.5886 21.6134 11.4919 21.6513C11.3951 21.6892 11.3069 21.7455 11.2326 21.8171C11.1582 21.8887 11.099 21.9741 11.0586 22.0683C11.0181 22.1625 10.9971 22.2637 10.9968 22.3659C10.9965 22.4682 11.0169 22.5695 11.0569 22.6639C11.0968 22.7584 11.1555 22.8441 11.2295 22.916L14.262 25.953C14.3496 26.0407 14.4541 26.1104 14.5693 26.1581C14.6846 26.2058 14.8084 26.2305 14.9335 26.2308C15.0585 26.2311 15.1824 26.2069 15.2979 26.1598C15.4134 26.1126 15.5182 26.0434 15.6062 25.9561L21.7814 19.8328Z" fill="white"/>
</svg>
