<svg width="16" height="16" viewBox="0 0 16 16" fill="none" xmlns="http://www.w3.org/2000/svg">
<path d="M4.52833 11.45L5.92246 11.0478L14.3165 2.55326C14.3827 2.48541 14.4196 2.39424 14.4191 2.29944C14.4187 2.20464 14.381 2.11382 14.3141 2.04659L13.8114 1.53834C13.7789 1.50496 13.7401 1.47839 13.6973 1.46017C13.6544 1.44195 13.6083 1.43246 13.5617 1.43224C13.5152 1.43202 13.469 1.44107 13.426 1.45888C13.3829 1.47669 13.3439 1.5029 13.3111 1.53597L4.93921 10.0084L4.52754 11.4492L4.52833 11.45ZM14.8065 0.531343L15.3092 1.04039C16.0028 1.74259 16.0091 2.87547 15.3219 3.57055L6.67217 12.3248L3.69233 13.183C3.51041 13.2339 3.31571 13.2106 3.15096 13.1181C2.98622 13.0256 2.86488 12.8716 2.81358 12.6898C2.77541 12.559 2.77486 12.4202 2.812 12.2892L3.67887 9.24918L12.3057 0.517885C12.4697 0.35271 12.665 0.221851 12.8801 0.132939C13.0953 0.0440274 13.326 -0.00115655 13.5588 2.24935e-05C13.7915 0.00120154 14.0218 0.04872 14.236 0.139806C14.4502 0.230893 14.6442 0.364515 14.8065 0.531343ZM5.68733 1.44413C6.08 1.44413 6.39825 1.76634 6.39825 2.16376C6.39888 2.25771 6.38098 2.35085 6.34558 2.43788C6.31018 2.5249 6.25798 2.60409 6.19195 2.67093C6.12593 2.73776 6.04737 2.79093 5.96079 2.82738C5.8742 2.86384 5.78128 2.88287 5.68733 2.88338H2.84367C2.05833 2.88338 1.42183 3.5278 1.42183 4.32184V12.9558C1.42183 13.7506 2.05833 14.395 2.84367 14.395H11.3747C12.16 14.395 12.7973 13.7506 12.7973 12.9558V10.0781C12.7973 9.68063 13.1155 9.35843 13.5082 9.35843C13.9009 9.35843 14.2191 9.68063 14.2191 10.0788V12.9558C14.2191 14.5454 12.9453 15.8343 11.3747 15.8343H2.84367C1.273 15.8343 0 14.5454 0 12.9558V4.32184C0 2.73297 1.273 1.44413 2.84367 1.44413H5.68733Z" fill="white"/>
</svg>
