<svg width="26" height="24" viewBox="0 0 26 24" fill="none" xmlns="http://www.w3.org/2000/svg">
<path d="M21.4737 0H3.78947C1.70021 0 0 1.70021 0 3.78947V7.36547C0 8.69558 0.482526 9.90442 1.26316 10.8341V22.7368C1.26316 23.0719 1.39624 23.3931 1.63313 23.63C1.87002 23.8669 2.19131 24 2.52632 24H12.6316C12.9666 24 13.2879 23.8669 13.5248 23.63C13.7617 23.3931 13.8947 23.0719 13.8947 22.7368V16.4211H18.9474V22.7368C18.9474 23.0719 19.0804 23.3931 19.3173 23.63C19.5542 23.8669 19.8755 24 20.2105 24H22.7368C23.0719 24 23.3931 23.8669 23.63 23.63C23.8669 23.3931 24 23.0719 24 22.7368V10.8328C24.7806 9.90442 25.2632 8.69558 25.2632 7.36421V3.78947C25.2632 1.70021 23.5629 0 21.4737 0ZM22.7368 3.78947V7.36547C22.7368 8.80547 21.6644 10.0333 20.3482 10.1027L20.2105 10.1053C18.8173 10.1053 17.6842 8.97221 17.6842 7.57895V2.52632H21.4737C22.1709 2.52632 22.7368 3.09347 22.7368 3.78947ZM10.1053 7.57895V2.52632H15.1579V7.57895C15.1579 8.97221 14.0248 10.1053 12.6316 10.1053C11.2383 10.1053 10.1053 8.97221 10.1053 7.57895ZM2.52632 3.78947C2.52632 3.09347 3.09221 2.52632 3.78947 2.52632H7.57895V7.57895C7.57895 8.97221 6.44589 10.1053 5.05263 10.1053L4.91495 10.1015C3.59874 10.0333 2.52632 8.80547 2.52632 7.36547V3.78947ZM10.1053 17.6842H5.05263V13.8947H10.1053V17.6842Z" fill="white"/>
</svg>
