<svg width="21" height="20" viewBox="0 0 21 20" fill="none" xmlns="http://www.w3.org/2000/svg">
<path d="M20.4338 9.07081C20.6692 8.89576 20.8439 8.65157 20.9333 8.37247C21.0226 8.09337 21.0222 7.79335 20.9321 7.51449C20.842 7.23563 20.6667 6.99191 20.4307 6.81749C20.1948 6.64308 19.9101 6.54673 19.6165 6.54195L13.9147 6.32699C13.8867 6.32506 13.8598 6.31508 13.8373 6.29826C13.8149 6.28143 13.7977 6.25848 13.788 6.23216L11.8177 0.92155C11.7188 0.651366 11.539 0.418065 11.3027 0.253232C11.0664 0.0884004 10.7851 0 10.4968 0C10.2086 0 9.92724 0.0884004 9.69098 0.253232C9.45471 0.418065 9.27491 0.651366 9.17592 0.92155L7.21197 6.25113C7.20226 6.27744 7.18513 6.3004 7.16265 6.31722C7.14017 6.33405 7.1133 6.34403 7.08526 6.34596L1.38347 6.56091C1.0899 6.5657 0.805185 6.66205 0.569254 6.83646C0.333324 7.01087 0.158007 7.2546 0.0678874 7.53346C-0.0222326 7.81232 -0.0226369 8.11233 0.0667311 8.39144C0.156099 8.67054 0.330758 8.91473 0.566218 9.08977L5.03895 12.5986C5.06134 12.6161 5.07807 12.6399 5.08708 12.6669C5.09609 12.6938 5.09697 12.7228 5.08964 12.7503L3.55015 18.1937C3.47038 18.4709 3.47811 18.7659 3.57229 19.0385C3.66647 19.3112 3.84253 19.5482 4.07652 19.7175C4.31051 19.8867 4.59107 19.98 4.88003 19.9845C5.169 19.989 5.45233 19.9045 5.69149 19.7426L10.4176 16.5815C10.4409 16.5655 10.4685 16.5569 10.4968 16.5569C10.5251 16.5569 10.5527 16.5655 10.576 16.5815L15.3022 19.7426C15.5381 19.91 15.8204 20 16.1099 20C16.3994 20 16.6818 19.91 16.9177 19.7426C17.1517 19.5749 17.328 19.339 17.4221 19.0673C17.5163 18.7956 17.5238 18.5014 17.4435 18.2253L15.8914 12.7629C15.8831 12.7355 15.8836 12.7062 15.8927 12.6791C15.9017 12.6519 15.919 12.6282 15.942 12.6112L20.4338 9.07081Z" fill="#FFFDFD"/>
</svg>
