<svg width="25" height="25" viewBox="0 0 25 25" fill="none" xmlns="http://www.w3.org/2000/svg">
<path d="M8.92857 0C5.4875 0 2.67857 2.80893 2.67857 6.25C2.67857 8.40179 3.77679 10.3143 5.44107 11.4402C2.25625 12.8062 0 15.9643 0 19.6429H1.78571C1.78571 15.6875 4.97321 12.5 8.92857 12.5C10.1571 12.5 11.2982 12.8196 12.3036 13.3661C11.275 14.6369 10.714 16.2223 10.7143 17.8571C10.7143 21.7911 13.9232 25 17.8571 25C21.7911 25 25 21.7911 25 17.8571C25 13.9232 21.7911 10.7143 17.8571 10.7143C16.3527 10.7163 14.8874 11.1945 13.6714 12.0804C13.2768 11.833 12.85 11.625 12.4161 11.4393C13.2658 10.8662 13.962 10.0934 14.4437 9.18872C14.9253 8.28399 15.1776 7.27493 15.1786 6.25C15.1786 2.80893 12.3696 0 8.92857 0ZM8.92857 1.78571C11.4045 1.78571 13.3929 3.77411 13.3929 6.25C13.3929 8.72589 11.4045 10.7143 8.92857 10.7143C6.45268 10.7143 4.46429 8.72589 4.46429 6.25C4.46429 3.77411 6.45268 1.78571 8.92857 1.78571ZM17.8571 12.5C20.8268 12.5 23.2143 14.8875 23.2143 17.8571C23.2143 20.8268 20.8268 23.2143 17.8571 23.2143C14.8875 23.2143 12.5 20.8268 12.5 17.8571C12.5 14.8875 14.8875 12.5 17.8571 12.5ZM16.9643 14.2857V16.9643H14.2857V18.75H16.9643V21.4286H18.75V18.75H21.4286V16.9643H18.75V14.2857H16.9643Z" fill="white"/>
</svg>
