<svg xmlns="http://www.w3.org/2000/svg" width="25" height="16" fill="none" viewBox="0 0 25 16"><path fill="#fff" d="M17.9034 0.283482C17.7676 0.175903 17.6117 0.0962982 17.4449 0.0492627C17.2781 0.00222724 17.1036 -0.011308 16.9316 0.00943773C16.7595 0.0301835 16.5932 0.0847999 16.4424 0.170135C16.2915 0.255469 16.1591 0.369833 16.0527 0.506627L6.86435 12.3202L2.36208 6.83343C2.25648 6.69285 2.1237 6.57493 1.97165 6.48665C1.81959 6.39837 1.65135 6.34154 1.4769 6.31954C1.30246 6.29753 1.12538 6.31079 0.956158 6.35854C0.786941 6.40629 0.629041 6.48754 0.49183 6.59749C0.35462 6.70743 0.240896 6.84382 0.15741 6.99856C0.0739235 7.1533 0.022376 7.32324 0.00582712 7.49828C-0.0107218 7.67333 0.00806554 7.84991 0.0610734 8.01756C0.114081 8.1852 0.200229 8.34049 0.314404 8.4742L5.78801 15.2735C5.91155 15.4258 6.06764 15.5485 6.24482 15.6325C6.42199 15.7166 6.61575 15.7599 6.81185 15.7592C7.02 15.7685 7.22737 15.7281 7.41682 15.6414C7.60626 15.5546 7.77234 15.4241 7.90132 15.2604L18.1791 2.13427C18.2839 1.99516 18.3599 1.8366 18.4028 1.66781C18.4457 1.49903 18.4546 1.32339 18.4289 1.15114C18.4033 0.978882 18.3436 0.813456 18.2534 0.664494C18.1632 0.515532 18.0442 0.386013 17.9034 0.283482ZM24.4665 0.283482C24.3306 0.175903 24.1748 0.0962982 24.008 0.0492627C23.8412 0.00222724 23.6667 -0.011308 23.4946 0.00943773C23.3226 0.0301835 23.1563 0.0847999 23.0055 0.170135C22.8546 0.255469 22.7221 0.369833 22.6157 0.506627L13.4274 12.3202L12.6267 11.3357L10.9728 13.4621L12.4167 15.2604C12.5403 15.4127 12.6963 15.5354 12.8735 15.6194C13.0507 15.7035 13.2445 15.7467 13.4405 15.7461C13.6377 15.7452 13.8321 15.6999 14.0094 15.6135C14.1866 15.5272 14.3421 15.402 14.4644 15.2473L24.7422 2.12114C24.8449 1.98245 24.9193 1.82485 24.961 1.65737C25.0028 1.4899 25.0111 1.31583 24.9855 1.14514C24.9599 0.974449 24.9009 0.810482 24.8118 0.662627C24.7228 0.514772 24.6054 0.385932 24.4665 0.283482Z"/></svg>