<svg xmlns="http://www.w3.org/2000/svg" width="25" height="25" fill="none" viewBox="0 0 25 25"><path stroke="#fff" stroke-linecap="round" stroke-linejoin="round" stroke-width="2" d="M1 5.6C1 4.38 1.48464 3.20998 2.34731 2.34731C3.20998 1.48464 4.38 1 5.6 1H19.4C20.62 1 21.79 1.48464 22.6527 2.34731C23.5154 3.20998 24 4.38 24 5.6V19.4C24 20.62 23.5154 21.79 22.6527 22.6527C21.79 23.5154 20.62 24 19.4 24H5.6C4.38 24 3.20998 23.5154 2.34731 22.6527C1.48464 21.79 1 20.62 1 19.4V5.6Z"/><path stroke="#fff" stroke-linecap="round" stroke-linejoin="round" stroke-width="2" d="M8.4751 11.35C10.0629 11.35 11.3501 10.0629 11.3501 8.47504C11.3501 6.88722 10.0629 5.60004 8.4751 5.60004C6.88728 5.60004 5.6001 6.88722 5.6001 8.47504C5.6001 10.0629 6.88728 11.35 8.4751 11.35Z"/><path stroke="#fff" stroke-linecap="round" stroke-linejoin="round" stroke-width="2" d="M15.405 13.2143L5.6001 24.0002H19.553C20.7325 24.0002 21.8636 23.5316 22.6976 22.6977C23.5316 21.8637 24.0001 20.7325 24.0001 19.5531V19.4002C24.0001 18.8643 23.7988 18.6584 23.4366 18.2617L18.8021 13.2074C18.5861 12.9718 18.3234 12.7838 18.0306 12.6554C17.7379 12.527 17.4217 12.461 17.102 12.4616C16.7824 12.4623 16.4664 12.5296 16.1742 12.6592C15.882 12.7887 15.62 12.9778 15.405 13.2143V13.2143Z"/></svg>