<svg xmlns="http://www.w3.org/2000/svg" width="160" height="165" fill="none" viewBox="0 0 160 165"><g filter="url(#filter0_d_111_1058)"><path fill="#EBEBEB" d="M94.61 48.2793L94.2548 48.997L93.4609 49.113L94.0373 49.6749L93.8995 50.4651L94.61 50.0917L95.3205 50.4651L95.1864 49.6749L95.7591 49.113L94.9652 48.997L94.61 48.2793Z"/><path fill="#EBEBEB" d="M92.6381 77.4844L92.2829 78.2057L91.489 78.3217L92.0654 78.8799L91.9276 79.6701L92.6381 79.2968L93.3522 79.6701L93.2144 78.8799L93.7908 78.3217L92.9969 78.2057L92.6381 77.4844Z"/><path fill="#EBEBEB" d="M115.188 65.9285L114.833 66.6498L114.039 66.7622L114.615 67.324L114.478 68.1142L115.188 67.7409L115.899 68.1142L115.764 67.324L116.341 66.7622L115.543 66.6498L115.188 65.9285Z"/><path fill="#EBEBEB" d="M125.319 55.8042L125.102 56.2464L124.609 56.3189L124.964 56.6669L124.881 57.1563L125.319 56.9243L125.762 57.1563L125.675 56.6669L126.03 56.3189L125.54 56.2464L125.319 55.8042Z"/><path fill="#EBEBEB" d="M85.8016 56.8088L85.6675 57.0843L85.363 57.1278L85.5842 57.3417L85.5298 57.6462L85.8016 57.5012L86.0735 57.6462L86.0228 57.3417L86.2439 57.1278L85.9394 57.0843L85.8016 56.8088Z"/><path fill="#EBEBEB" d="M108.913 22.4084L108.779 22.6839L108.475 22.7274L108.696 22.9413L108.642 23.2421L108.913 23.1008L109.185 23.2421L109.135 22.9413L109.352 22.7274L109.051 22.6839L108.913 22.4084Z"/><path fill="#EBEBEB" d="M121.042 70.5393L120.908 70.8148L120.604 70.8583L120.825 71.0722L120.77 71.373L121.042 71.2317L121.314 71.373L121.263 71.0722L121.481 70.8583L121.18 70.8148L121.042 70.5393Z"/><path fill="#EBEBEB" d="M81.8541 39.4268L81.72 39.7022L81.4155 39.7457L81.6366 39.9596L81.5823 40.2641L81.8541 40.1191L82.126 40.2641L82.0752 39.9596L82.2927 39.7457L81.9919 39.7022L81.8541 39.4268Z"/><path fill="#EBEBEB" d="M91.5506 22.9237L91.3294 23.3659L90.8401 23.4384L91.1953 23.7864L91.112 24.2721L91.5506 24.0438L91.9892 24.2721L91.9058 23.7864L92.261 23.4384L91.7717 23.3659L91.5506 22.9237Z"/><path fill="#EBEBEB" d="M128.477 28.6141L128.259 29.0563L127.766 29.1288L128.122 29.4768L128.038 29.9661L128.477 29.7341L128.915 29.9661L128.832 29.4768L129.187 29.1288L128.698 29.0563L128.477 28.6141Z"/><path fill="#EBEBEB" d="M117.091 79.337L116.874 79.7829L116.381 79.8518L116.736 80.1997L116.652 80.6891L117.091 80.4571L117.53 80.6891L117.446 80.1997L117.802 79.8518L117.312 79.7829L117.091 79.337Z"/><path fill="#EBEBEB" d="M116.896 50.0693H133.747C133.747 50.0693 132.91 48.9819 131.986 48.8441C131.986 48.8441 130.173 43.4939 127.183 43.4576C124.384 43.4214 123.264 46.7454 123.264 46.7454C123.264 46.7454 121.97 45.2555 120.727 45.937C119.484 46.6185 118.788 48.5686 118.788 48.5686C118.788 48.5686 117.399 49.319 116.896 50.0693Z"/><path fill="#EBEBEB" d="M85.363 66.4361H102.215C102.215 66.4361 101.378 65.3487 100.453 65.2073C100.453 65.2073 98.6589 59.8607 95.6503 59.8208C92.8519 59.7845 91.7319 63.1121 91.7319 63.1121C91.7319 63.1121 90.4378 61.6187 89.1945 62.3002C87.9512 62.9816 87.2588 64.9354 87.2588 64.9354C87.2588 64.9354 85.8705 65.6858 85.363 66.4361Z"/><path fill="#EBEBEB" d="M106.043 26.2834H91.5435C91.5435 26.2834 92.91 25.0111 93.519 25.0111C94.128 25.0111 95.9005 20.7374 98.166 20.9187C100.432 21.0999 101.653 24.2825 101.653 24.2825C101.653 24.2825 104.397 23.4053 106.043 26.2834Z"/><path fill="#EBEBEB" d="M121.952 57.1566H109.548C109.548 57.1566 110.164 56.3519 110.846 56.254C110.846 56.254 112.165 52.3211 114.376 52.2921C116.435 52.2667 117.258 54.7098 117.258 54.7098C117.258 54.7098 118.211 53.6224 119.121 54.1154C120.031 54.6083 120.546 56.051 120.546 56.051C121.079 56.3287 121.556 56.7037 121.952 57.1566Z"/><path fill="#EBEBEB" d="M97.6874 52.7917C97.2187 53.613 96.5525 54.3043 95.7491 54.8031C94.9457 55.3019 94.0306 55.5923 93.0866 55.6481C92.1426 55.704 91.1996 55.5234 90.3431 55.1227C89.4865 54.7221 88.7434 54.1141 88.1812 53.3537C87.6189 52.5934 87.2553 51.7048 87.1231 50.7685C86.991 49.8321 87.0946 48.8776 87.4245 47.9914C87.7544 47.1052 88.3002 46.3153 89.0125 45.6933C89.7247 45.0713 90.5809 44.6368 91.5035 44.4292C90.7872 44.7605 90.1538 45.2471 89.649 45.8537C89.1443 46.4603 88.7811 47.1718 88.5857 47.9363C88.3902 48.7009 88.3675 49.4994 88.5192 50.2738C88.6709 51.0482 88.9931 51.7791 89.4626 52.4135C89.932 53.0478 90.5368 53.5696 91.2331 53.941C91.9293 54.3124 92.6996 54.5241 93.4879 54.5607C94.2762 54.5972 95.0627 54.4578 95.7904 54.1524C96.518 53.8471 97.1686 53.3835 97.6947 52.7953L97.6874 52.7917Z"/><path fill="#EBEBEB" d="M19.5833 110.804L14.8275 110.905L12.4133 110.945C11.605 110.945 10.793 110.945 9.98471 110.963H9.82521V110.8L9.80347 106.744V106.559H9.98471L14.784 106.581C16.3862 106.581 17.9847 106.621 19.5833 106.639H19.6848V106.737C19.6848 107.425 19.6521 108.107 19.6376 108.785L19.5833 110.804ZM19.5833 110.804L19.5325 108.752C19.5325 108.078 19.4926 107.411 19.4854 106.748L19.5833 106.845C17.9847 106.864 16.3862 106.903 14.784 106.903L9.98471 106.929L10.1659 106.748V110.804L10.0028 110.641C10.793 110.641 11.5833 110.641 12.3771 110.662L14.7622 110.702L19.5833 110.804Z"/><path fill="#EBEBEB" d="M14.2293 115.919L9.47348 116.017L7.05934 116.06C6.251 116.06 5.43904 116.06 4.6307 116.078H4.47121V115.915L4.44946 111.852V111.667H4.6307L9.42998 111.689C11.0285 111.689 12.6307 111.728 14.2293 111.747H14.3308V111.852C14.3308 112.54 14.3018 113.222 14.2836 113.9L14.2293 115.919ZM14.2293 115.919L14.1785 113.867C14.1604 113.193 14.1386 112.526 14.1314 111.863L14.2293 111.96C12.6307 111.979 11.0285 112.018 9.42998 112.018L4.6307 112.044L4.81195 111.863L4.79382 115.919L4.6307 115.756C5.42092 115.756 6.21113 115.756 7.00497 115.777L9.39011 115.817L14.2293 115.919Z"/><path fill="#EBEBEB" d="M62.686 60.7666L57.8469 60.8681L55.4618 60.9079C54.6679 60.9079 53.8813 60.9079 53.0875 60.9297L53.2506 60.7666L53.2687 64.8228L53.0875 64.6415L57.8868 64.6633C59.4889 64.6633 61.0875 64.7068 62.686 64.7249L62.5882 64.8228C62.5882 64.1594 62.6208 63.4924 62.6353 62.8146L62.686 60.7666ZM62.686 60.7666L62.7404 62.7747C62.7404 63.4489 62.7803 64.134 62.7875 64.8228V64.9206H62.686C61.0875 64.9388 59.4889 64.9786 57.8868 64.9823L53.0875 65.004H52.9062V64.8228L52.928 60.7666V60.6035H53.0802C53.8922 60.6035 54.7005 60.6035 55.5089 60.6252L57.923 60.6651L62.686 60.7666Z"/><path fill="#EBEBEB" d="M57.2741 55.6664L52.4314 55.7678L50.0499 55.8077C49.256 55.8258 48.4658 55.8077 47.6756 55.8295L47.8387 55.6664L47.8568 59.7225L47.6756 59.5413L52.4749 59.563C54.0734 59.563 55.6756 59.6065 57.2741 59.6247L57.1763 59.7225C57.1763 59.0592 57.2053 58.3922 57.2234 57.7144L57.2741 55.6664ZM57.2741 55.6664L57.3249 57.6745C57.3249 58.3487 57.3648 59.0338 57.372 59.7225V59.8204H57.2705C55.672 59.8385 54.0698 59.8784 52.4712 59.882L47.672 59.9038H47.4907V59.7225V55.6664V55.5032H47.6502C48.4586 55.5032 49.2705 55.5032 50.0752 55.525L52.493 55.5649L57.2741 55.6664Z"/><path fill="#EBEBEB" d="M68.1016 55.6664L63.2588 55.7678L60.8737 55.8077C60.0834 55.8258 59.2932 55.8077 58.503 55.8295L58.6625 55.6664L58.6843 59.7225L58.503 59.5413L63.3023 59.563C64.9008 59.563 66.503 59.6065 68.1016 59.6247L68.0037 59.7225C68.0037 59.0592 68.0327 58.3922 68.0508 57.7144L68.1016 55.6664ZM68.1016 55.6664L68.1523 57.6745C68.1523 58.3487 68.1922 59.0338 68.1994 59.7225V59.8204H68.1016C66.503 59.8385 64.9008 59.8784 63.3023 59.882L58.503 59.9038H58.3218V59.7225V55.6664V55.5032H58.5175C59.3259 55.5032 60.1378 55.5032 60.9425 55.525L63.3567 55.5649L68.1016 55.6664Z"/><path fill="#EBEBEB" d="M155.902 115.919L151.143 116.017L148.729 116.06C147.924 116.06 147.112 116.06 146.304 116.078H146.14V115.915L146.122 111.852V111.667H146.304L151.103 111.689C152.701 111.689 154.304 111.728 155.902 111.747H156V111.852C156 112.54 155.971 113.222 155.953 113.9L155.902 115.919ZM155.902 115.919L155.851 113.867C155.851 113.193 155.808 112.526 155.804 111.863L155.902 111.96C154.304 111.979 152.701 112.018 151.103 112.018L146.304 112.044L146.485 111.863L146.463 115.919L146.304 115.756C147.094 115.756 147.884 115.756 148.674 115.777L151.059 115.817L155.902 115.919Z"/><path fill="#EBEBEB" d="M150.548 13.296L145.789 13.3939L143.375 13.4373C142.57 13.4373 141.758 13.4373 140.95 13.4373H140.801V13.2779V9.22167V9.0368H140.986L145.785 9.05855C147.384 9.05855 148.983 9.09843 150.585 9.11655H150.683V9.21442C150.683 9.89951 150.65 10.5846 150.635 11.2625L150.548 13.296ZM150.548 13.296L150.498 11.2443C150.48 10.5701 150.454 9.90314 150.447 9.23979L150.548 9.33766C148.946 9.35579 147.348 9.39566 145.749 9.39566L140.95 9.41741L141.131 9.23979L141.109 13.296L140.95 13.1329C141.74 13.1329 142.527 13.1329 143.321 13.1329L145.706 13.1764L150.548 13.296Z"/><path fill="#EBEBEB" d="M155.902 18.4111L151.143 18.5089L148.729 18.5524C147.924 18.5524 147.112 18.5524 146.304 18.5524H146.14V18.3893L146.122 14.344V14.1591H146.304L151.103 14.1809C152.701 14.1809 154.304 14.2208 155.902 14.2389H156V14.344C156 15.0291 155.971 15.7142 155.953 16.392L155.902 18.4111ZM155.902 18.4111L155.851 16.3594C155.851 15.6852 155.808 15.0182 155.804 14.3549L155.902 14.4528C154.304 14.4528 152.701 14.5108 151.103 14.5108L146.304 14.5325L146.485 14.3549L146.463 18.4075L146.304 18.248C147.094 18.248 147.884 18.248 148.674 18.248L151.059 18.2915L155.902 18.4111Z"/><path fill="#EBEBEB" d="M19.5833 13.296L14.8275 13.3939L12.4133 13.4373C11.605 13.4373 10.793 13.4373 9.98471 13.4373H9.82521V13.2779L9.80347 9.22167V9.0368H9.98471L14.784 9.05855C16.3862 9.05855 17.9847 9.09843 19.5833 9.11655H19.6848V9.21442C19.6848 9.89951 19.6521 10.5846 19.6376 11.2625L19.5833 13.296ZM19.5833 13.296L19.5325 11.2443C19.5325 10.5701 19.4926 9.90314 19.4854 9.23979L19.5833 9.33766C17.9847 9.35579 16.3862 9.39566 14.784 9.39566L9.98471 9.41741L10.1659 9.23979V13.296L10.0028 13.1329C10.793 13.1329 11.5833 13.1329 12.3771 13.1329L14.7622 13.1764L19.5833 13.296Z"/><path fill="#EBEBEB" d="M78.3598 156.321C119.428 156.321 152.72 153.147 152.72 149.231C152.72 145.315 119.428 142.141 78.3598 142.141C37.292 142.141 4 145.315 4 149.231C4 153.147 37.292 156.321 78.3598 156.321Z"/><path fill="#3EBB7F" d="M10.4087 148.938C9.37621 149.036 8.3394 149.082 7.30224 149.075C6.26388 149.082 5.22585 149.036 4.19214 148.938C5.22585 148.839 6.26388 148.793 7.30224 148.8C8.3394 148.793 9.37621 148.839 10.4087 148.938Z"/><path fill="#3EBB7F" d="M11.3548 148.049C10.3211 148.148 9.28303 148.194 8.24466 148.187C7.20751 148.194 6.17068 148.148 5.13818 148.049C6.17068 147.951 7.20751 147.905 8.24466 147.912C9.28303 147.905 10.3211 147.951 11.3548 148.049Z"/><path fill="#3EBB7F" d="M12.3443 147.161C11.3106 147.259 10.2725 147.305 9.23417 147.299C8.19701 147.305 7.16019 147.259 6.12769 147.161C7.1552 147.059 8.18716 147.01 9.21967 147.012C10.263 147.009 11.3059 147.058 12.3443 147.161Z"/><path fill="#3EBB7F" d="M13.2976 146.288C12.2639 146.386 11.2259 146.432 10.1875 146.425C9.14914 146.432 8.11111 146.386 7.07739 146.288C8.11111 146.189 9.14914 146.143 10.1875 146.15C11.2259 146.143 12.2639 146.189 13.2976 146.288Z"/><path fill="#3EBB7F" d="M14.2544 145.385C13.2219 145.483 12.1851 145.529 11.1479 145.523C10.1096 145.529 9.07156 145.483 8.03784 145.385C9.07156 145.287 10.1096 145.241 11.1479 145.247C12.1851 145.241 13.2219 145.287 14.2544 145.385Z"/><path fill="#3EBB7F" d="M15.2224 144.496C14.1899 144.595 13.1531 144.641 12.116 144.634C11.0776 144.642 10.0394 144.596 9.00586 144.496C10.0396 144.398 11.0776 144.352 12.116 144.359C13.1531 144.352 14.1899 144.398 15.2224 144.496Z"/><path fill="#3EBB7F" d="M16.1758 143.609C15.1391 143.718 14.1024 143.743 13.0657 143.75C12.0285 143.756 10.9917 143.708 9.95923 143.609C10.9917 143.51 12.0286 143.465 13.0657 143.471C14.1024 143.478 15.1391 143.5 16.1758 143.609Z"/><path fill="#3EBB7F" d="M17.1582 142.721C16.1215 142.83 15.0848 142.855 14.0481 142.862C13.0109 142.868 11.9741 142.821 10.9417 142.721C11.9742 142.623 13.011 142.577 14.0481 142.583C15.0848 142.591 16.107 142.612 17.1582 142.721Z"/><path fill="#3EBB7F" d="M18.086 141.833C17.0493 141.941 16.0126 141.967 14.9759 141.974C13.9386 141.981 12.9017 141.934 11.8694 141.833C12.9019 141.734 13.9387 141.688 14.9759 141.695C16.0126 141.702 17.0493 141.724 18.086 141.833Z"/><path fill="#3EBB7F" d="M19.0757 140.948C18.039 141.057 17.0059 141.078 15.9692 141.086C14.9309 141.092 13.8928 141.046 12.8591 140.948C13.8927 140.847 14.9308 140.799 15.9692 140.807C17.0059 140.814 18.039 140.85 19.0757 140.948Z"/><path fill="#3EBB7F" d="M20.0359 140.061C18.9992 140.169 17.9625 140.191 16.9294 140.198C15.8911 140.205 14.8531 140.159 13.8193 140.061C14.853 139.961 15.891 139.914 16.9294 139.919C17.9625 139.927 19.0065 139.952 20.0359 140.061Z"/><path fill="#3EBB7F" d="M21.0039 139.172C19.9672 139.281 18.9305 139.303 17.8938 139.31C16.8567 139.316 15.8199 139.27 14.7874 139.172C15.8198 139.073 16.8566 139.025 17.8938 139.031C18.9305 139.038 19.9672 139.063 21.0039 139.172Z"/><path fill="#3EBB7F" d="M120.386 148.937C122.454 148.753 124.534 148.753 126.603 148.937C124.534 149.121 122.454 149.121 120.386 148.937Z"/><path fill="#3EBB7F" d="M119.444 148.05C121.512 147.866 123.592 147.866 125.66 148.05C123.592 148.233 121.512 148.233 119.444 148.05Z"/><path fill="#3EBB7F" d="M118.45 147.161C120.519 146.977 122.599 146.977 124.667 147.161C122.599 147.345 120.519 147.345 118.45 147.161Z"/><path fill="#3EBB7F" d="M117.501 146.287C119.569 146.104 121.649 146.104 123.717 146.287C121.649 146.471 119.569 146.471 117.501 146.287Z"/><path fill="#3EBB7F" d="M116.54 145.386C118.608 145.202 120.688 145.202 122.757 145.386C120.688 145.569 118.608 145.569 116.54 145.386Z"/><path fill="#3EBB7F" d="M115.573 144.497C117.641 144.313 119.721 144.313 121.789 144.497C120.757 144.597 119.72 144.643 118.683 144.634C117.644 144.641 116.606 144.595 115.573 144.497Z"/><path fill="#3EBB7F" d="M114.623 143.609C115.656 143.5 116.692 143.478 117.729 143.471C118.767 143.465 119.805 143.51 120.839 143.609C119.805 143.708 118.767 143.756 117.729 143.75C116.692 143.75 115.656 143.718 114.623 143.609Z"/><path fill="#3EBB7F" d="M113.637 142.721C114.673 142.612 115.71 142.591 116.747 142.583C117.785 142.577 118.823 142.623 119.857 142.721C118.823 142.821 117.785 142.868 116.747 142.862C115.71 142.855 114.673 142.83 113.637 142.721Z"/><path fill="#3EBB7F" d="M112.709 141.833C113.745 141.724 114.782 141.702 115.819 141.695C116.856 141.688 117.893 141.734 118.925 141.833C117.893 141.934 116.856 141.981 115.819 141.974C114.782 141.967 113.745 141.938 112.709 141.833Z"/><path fill="#3EBB7F" d="M111.719 140.948C112.756 140.839 113.792 140.814 114.829 140.807C115.866 140.799 116.903 140.847 117.936 140.948C116.903 141.046 115.866 141.092 114.829 141.086C113.792 141.078 112.756 141.057 111.719 140.948Z"/><path fill="#3EBB7F" d="M110.759 140.061C111.795 139.952 112.832 139.927 113.869 139.919C114.906 139.914 115.943 139.961 116.975 140.061C115.943 140.159 114.906 140.205 113.869 140.198C112.832 140.191 111.802 140.169 110.759 140.061Z"/><path fill="#3EBB7F" d="M109.791 139.172C110.827 139.063 111.864 139.038 112.901 139.031C113.938 139.025 114.975 139.072 116.007 139.172C114.975 139.27 113.938 139.316 112.901 139.31C111.864 139.303 110.827 139.281 109.791 139.172Z"/><path fill="#3EBB7F" d="M20.1051 139.052H110.965L121.648 149.057H9.14722L20.1051 139.052Z"/><path fill="#000" d="M20.1051 139.052H110.965L121.648 149.057H9.14722L20.1051 139.052Z" opacity=".2"/><path fill="#000" d="M21.99 139.052L11.1083 149.057H9.98096L20.9388 139.052H21.99Z" opacity=".1"/><path fill="#000" d="M24.4657 139.052L14.1821 149.057H12.9641L23.487 139.052H24.4657Z" opacity=".1"/><path fill="#000" d="M28.7975 139.052L19.5469 149.057H16.1287L26.0353 139.052H28.7975Z" opacity=".1"/><path fill="#000" d="M31.2768 139.052L22.6207 149.057H21.3992L30.2909 139.052H31.2768Z" opacity=".1"/><path fill="#000" d="M35.6013 139.052L27.9856 149.057H24.5637L32.8428 139.052H35.6013Z" opacity=".1"/><path fill="#000" d="M38.0806 139.052L31.0593 149.057H29.8413L37.0982 139.052H38.0806Z" opacity=".1"/><path fill="#000" d="M42.4086 139.052L36.424 149.057H33.0022L39.6429 139.052H42.4086Z" opacity=".1"/><path fill="#000" d="M44.8845 139.052L39.498 149.057H38.28L43.9058 139.052H44.8845Z" opacity=".1"/><path fill="#000" d="M49.2123 139.052L44.8661 149.057H41.4407L46.4538 139.052H49.2123Z" opacity=".1"/><path fill="#000" d="M51.6918 139.052L47.9364 149.057H46.7185L50.7058 139.052H51.6918Z" opacity=".1"/><path fill="#000" d="M56.0163 139.052L53.3013 149.057H49.8831L53.2578 139.052H56.0163Z" opacity=".1"/><path fill="#000" d="M58.4957 139.052L56.3752 149.057H55.1572L57.517 139.052H58.4957Z" opacity=".1"/><path fill="#000" d="M62.8238 139.052L61.7436 149.057H58.3218L60.0653 139.052H62.8238Z" opacity=".1"/><path fill="#000" d="M65.303 139.052L64.8173 149.057H63.5957L64.317 139.052H65.303Z" opacity=".1"/><path fill="#000" d="M70.1785 149.057H66.7603L66.869 139.052H69.6275L70.1785 149.057Z" opacity=".1"/><path fill="#000" d="M73.2523 149.057H72.038L71.1245 139.052H72.1068L73.2523 149.057Z" opacity=".1"/><path fill="#000" d="M78.6208 149.057H75.1953L73.6729 139.052H76.4313L78.6208 149.057Z" opacity=".1"/><path fill="#000" d="M81.6947 149.057H80.4767L77.9285 139.052H78.9108L81.6947 149.057Z" opacity=".1"/><path fill="#000" d="M87.0593 149.057H83.6374L80.4802 139.052H83.2387L87.0593 149.057Z" opacity=".1"/><path fill="#000" d="M90.1296 149.057H88.9117L84.7358 139.052H85.7182L90.1296 149.057Z" opacity=".1"/><path fill="#000" d="M95.4981 149.057H92.0762L87.2842 139.052H90.0427L95.4981 149.057Z" opacity=".1"/><path fill="#000" d="M98.5718 149.057H97.3502L91.5432 139.052H92.5219L98.5718 149.057Z" opacity=".1"/><path fill="#000" d="M103.937 149.057H100.515L94.0916 139.052H96.85L103.937 149.057Z" opacity=".1"/><path fill="#000" d="M107.011 149.057H105.793L98.3472 139.052H99.3295L107.011 149.057Z" opacity=".1"/><path fill="#000" d="M112.375 149.057H108.953L100.895 139.052H103.654L112.375 149.057Z" opacity=".1"/><path fill="#000" d="M115.449 149.057H114.231L105.151 139.052H106.133L115.449 149.057Z" opacity=".1"/><path fill="#000" d="M120.814 149.057H117.392L107.703 139.052H110.461L120.814 149.057Z" opacity=".1"/><path fill="#3EBB7F" d="M121.648 149.056H9.14722V149.814H121.648V149.056Z"/><path fill="#000" d="M121.648 149.056H9.14722V149.814H121.648V149.056Z" opacity=".3"/><path fill="#263238" d="M4.59082 133.115L23.5124 133.028L42.4304 132.995L80.2664 132.934L118.102 132.995L137.02 133.028L155.938 133.115L137.02 133.205L118.102 133.234L80.2664 133.296L42.4304 133.234L23.5124 133.202L4.59082 133.115Z"/><path fill="#3EBB7F" d="M130.38 98.9837C130.38 100.577 130.222 102.166 129.909 103.729H83.3913C82.7257 100.477 82.7495 97.1213 83.4613 93.8792C84.1731 90.6371 85.557 87.5803 87.5237 84.9063C89.4903 82.2323 91.9959 80.0005 94.8787 78.3551C97.7615 76.7097 100.957 75.6872 104.26 75.3537C107.562 75.0203 110.898 75.3832 114.052 76.419C117.205 77.4549 120.107 79.1407 122.568 81.3676C125.03 83.5944 126.997 86.3128 128.342 89.3471C129.688 92.3815 130.382 95.6643 130.38 98.9837Z"/><path fill="#fff" d="M130.38 98.9837C130.38 100.577 130.222 102.166 129.909 103.729H83.3913C82.7257 100.477 82.7495 97.1213 83.4613 93.8792C84.1731 90.6371 85.557 87.5803 87.5237 84.9063C89.4903 82.2323 91.9959 80.0005 94.8787 78.3551C97.7615 76.7097 100.957 75.6872 104.26 75.3537C107.562 75.0203 110.898 75.3832 114.052 76.419C117.205 77.4549 120.107 79.1407 122.568 81.3676C125.03 83.5944 126.997 86.3128 128.342 89.3471C129.688 92.3815 130.382 95.6643 130.38 98.9837Z" opacity=".4"/><path fill="#263238" d="M117.457 89.8632C117.457 92.5347 115.728 93.314 115.728 93.314H104.582C104.582 93.314 102.856 92.5347 102.856 89.8632C102.856 87.0032 105.303 85.7273 107.79 83.8532C108.87 83.0533 109.693 81.9545 110.157 80.6924C110.619 81.954 111.441 83.0527 112.52 83.8532C115.011 85.7273 117.457 87.0032 117.457 89.8632Z"/><path fill="#263238" d="M111.303 77.2419C111.265 77.4289 111.18 77.6029 111.054 77.7465C110.929 77.89 110.768 77.9979 110.587 78.0595C110.407 78.1211 110.213 78.1341 110.026 78.0973C109.839 78.0605 109.665 77.9751 109.521 77.8497C109.377 77.7244 109.269 77.5634 109.207 77.383C109.145 77.2026 109.132 77.0091 109.169 76.822C109.205 76.6348 109.29 76.4605 109.415 76.3166C109.541 76.1728 109.701 76.0643 109.882 76.0022C110.054 75.9472 110.237 75.9347 110.414 75.9659C110.323 75.9693 110.233 75.9851 110.146 76.0131C109.997 76.0622 109.863 76.1482 109.756 76.2631C109.649 76.3781 109.573 76.5182 109.534 76.6705C109.496 76.8228 109.497 76.9823 109.536 77.1342C109.576 77.2861 109.654 77.4255 109.762 77.5394C109.87 77.6533 110.005 77.738 110.155 77.7856C110.305 77.8332 110.464 77.8423 110.618 77.8119C110.772 77.7815 110.916 77.7126 111.036 77.6117C111.157 77.5108 111.249 77.3811 111.306 77.2346L111.303 77.2419Z"/><path fill="#263238" d="M110.157 80.692C110.345 80.692 110.498 80.5395 110.498 80.3513C110.498 80.1631 110.345 80.0106 110.157 80.0106C109.969 80.0106 109.816 80.1631 109.816 80.3513C109.816 80.5395 109.969 80.692 110.157 80.692Z"/><path fill="#263238" d="M110.353 78.3682C110.353 78.424 110.33 78.4774 110.291 78.5169C110.252 78.5563 110.198 78.5784 110.142 78.5784C110.087 78.5784 110.033 78.5563 109.994 78.5169C109.954 78.4774 109.932 78.424 109.932 78.3682C109.932 78.3124 109.954 78.259 109.994 78.2195C110.033 78.1801 110.087 78.158 110.142 78.158C110.198 78.158 110.252 78.1801 110.291 78.2195C110.33 78.259 110.353 78.3124 110.353 78.3682Z"/><path fill="#263238" d="M110.157 80.0107C110.017 79.7983 109.942 79.5494 109.942 79.2948C109.942 79.0402 110.017 78.7912 110.157 78.5789C110.297 78.7912 110.372 79.0402 110.372 79.2948C110.372 79.5494 110.297 79.7983 110.157 80.0107Z"/><path fill="#263238" d="M102.204 92.9113C102.204 94.8469 100.953 95.4124 100.953 95.4124H92.8699C92.8699 95.4124 91.6194 94.8469 91.6194 92.9113C91.6194 90.8379 93.3919 89.9135 95.1971 88.5615C95.9795 87.9811 96.5754 87.1849 96.9116 86.2706C97.2479 87.1849 97.8438 87.9811 98.6262 88.5615C100.431 89.9135 102.204 90.827 102.204 92.9113Z"/><path fill="#263238" d="M97.742 83.7625C97.7171 83.9013 97.6558 84.0309 97.5644 84.1383C97.473 84.2456 97.3549 84.3268 97.2219 84.3736C97.0889 84.4204 96.9459 84.4312 96.8074 84.4047C96.669 84.3782 96.54 84.3155 96.4336 84.223C96.3273 84.1305 96.2474 84.0114 96.202 83.8779C96.1567 83.7444 96.1476 83.6013 96.1755 83.4631C96.2035 83.325 96.2676 83.1967 96.3613 83.0914C96.455 82.986 96.575 82.9074 96.7089 82.8636C96.8344 82.8247 96.9673 82.816 97.0968 82.8382C97.0314 82.8387 96.9666 82.8497 96.9047 82.8708C96.7335 82.9261 96.5914 83.0471 96.5095 83.2072C96.4276 83.3673 96.4126 83.5533 96.4679 83.7245C96.5232 83.8956 96.6441 84.0377 96.8042 84.1196C96.9643 84.2016 97.1504 84.2165 97.3215 84.1612C97.4164 84.1293 97.5031 84.0771 97.5757 84.0083C97.6484 83.9394 97.7051 83.8555 97.742 83.7625Z"/><path fill="#263238" d="M97.1583 86.0172C97.1583 86.066 97.1438 86.1137 97.1167 86.1542C97.0896 86.1947 97.0511 86.2263 97.0061 86.245C96.9611 86.2636 96.9115 86.2685 96.8637 86.259C96.8159 86.2495 96.772 86.226 96.7375 86.1915C96.703 86.1571 96.6795 86.1131 96.67 86.0653C96.6605 86.0175 96.6654 85.968 96.684 85.9229C96.7027 85.8779 96.7343 85.8394 96.7748 85.8123C96.8154 85.7852 96.863 85.7708 96.9118 85.7708C96.9772 85.7708 97.0398 85.7967 97.0861 85.843C97.1323 85.8892 97.1583 85.9519 97.1583 86.0172Z"/><path fill="#263238" d="M97.064 84.578C97.064 84.6081 97.0551 84.6376 97.0384 84.6626C97.0216 84.6876 96.9978 84.7072 96.97 84.7187C96.9422 84.7302 96.9116 84.7332 96.8821 84.7273C96.8525 84.7215 96.8254 84.707 96.8041 84.6857C96.7828 84.6644 96.7683 84.6373 96.7624 84.6077C96.7566 84.5782 96.7596 84.5476 96.7711 84.5198C96.7826 84.4919 96.8021 84.4682 96.8272 84.4514C96.8522 84.4347 96.8817 84.4258 96.9118 84.4258C96.9521 84.4258 96.9909 84.4418 97.0194 84.4704C97.048 84.4989 97.064 84.5377 97.064 84.578Z"/><path fill="#263238" d="M96.9117 85.7703C96.81 85.6159 96.7559 85.435 96.7559 85.2501C96.7559 85.0653 96.81 84.8844 96.9117 84.73C97.0133 84.8844 97.0675 85.0653 97.0675 85.2501C97.0675 85.435 97.0133 85.6159 96.9117 85.7703Z"/><path fill="#263238" d="M128.723 92.9113C128.723 94.8469 127.469 95.4124 127.469 95.4124H119.389C119.389 95.4124 118.139 94.8469 118.139 92.9113C118.139 90.8379 119.911 89.9135 121.716 88.5615C122.499 87.9811 123.095 87.1849 123.431 86.2706C123.767 87.1849 124.363 87.9811 125.145 88.5615C126.947 89.9135 128.723 90.827 128.723 92.9113Z"/><path fill="#263238" d="M124.261 83.7625C124.237 83.9056 124.174 84.0392 124.078 84.1486C123.983 84.258 123.859 84.3389 123.721 84.3824C123.52 84.4473 123.301 84.4295 123.112 84.3329C122.924 84.2364 122.782 84.069 122.717 83.8676C122.652 83.6662 122.67 83.4473 122.766 83.259C122.863 83.0707 123.03 82.9284 123.232 82.8636C123.357 82.8247 123.49 82.816 123.62 82.8382C123.554 82.8387 123.489 82.8497 123.427 82.8708C123.256 82.9261 123.114 83.0471 123.032 83.2072C122.95 83.3673 122.935 83.5533 122.991 83.7245C123.046 83.8956 123.167 84.0377 123.327 84.1196C123.487 84.2016 123.673 84.2165 123.844 84.1612C123.938 84.1289 124.024 84.0765 124.096 84.0076C124.168 83.9388 124.225 83.8552 124.261 83.7625Z"/><path fill="#263238" d="M123.678 86.0172C123.678 86.0826 123.652 86.1453 123.605 86.1915C123.559 86.2378 123.496 86.2637 123.431 86.2637C123.366 86.2637 123.303 86.2378 123.257 86.1915C123.211 86.1453 123.185 86.0826 123.185 86.0172C123.185 85.9519 123.211 85.8892 123.257 85.843C123.303 85.7967 123.366 85.7708 123.431 85.7708C123.496 85.7708 123.559 85.7967 123.605 85.843C123.652 85.8892 123.678 85.9519 123.678 86.0172Z"/><path fill="#263238" d="M123.431 84.7303C123.515 84.7303 123.583 84.6621 123.583 84.578C123.583 84.4939 123.515 84.4258 123.431 84.4258C123.347 84.4258 123.279 84.4939 123.279 84.578C123.279 84.6621 123.347 84.7303 123.431 84.7303Z"/><path fill="#263238" d="M123.431 85.7703C123.329 85.6159 123.275 85.435 123.275 85.2501C123.275 85.0653 123.329 84.8844 123.431 84.73C123.533 84.8844 123.587 85.0653 123.587 85.2501C123.587 85.435 123.533 85.6159 123.431 85.7703Z"/><path fill="#263238" d="M102.828 93.5536V103.417H107.79V99.937C107.814 99.3257 108.074 98.7474 108.515 98.3234C108.956 97.8994 109.543 97.6626 110.155 97.6626C110.767 97.6626 111.355 97.8994 111.796 98.3234C112.237 98.7474 112.497 99.3257 112.52 99.937V103.417H117.486V93.5536H102.828ZM104.22 95.8337H103.422V94.4889C103.422 94.3831 103.464 94.2817 103.539 94.2069C103.614 94.1321 103.715 94.0901 103.821 94.0901C103.927 94.0901 104.028 94.1321 104.103 94.2069C104.178 94.2817 104.22 94.3831 104.22 94.4889V95.8337ZM105.804 95.8337H105.006V94.4889C105.006 94.3831 105.048 94.2817 105.123 94.2069C105.198 94.1321 105.299 94.0901 105.405 94.0901C105.511 94.0901 105.612 94.1321 105.687 94.2069C105.762 94.2817 105.804 94.3831 105.804 94.4889V95.8337ZM107.388 95.8337H106.594V94.4889C106.603 94.3901 106.649 94.2985 106.723 94.2318C106.796 94.1651 106.892 94.1281 106.991 94.1281C107.09 94.1281 107.186 94.1651 107.259 94.2318C107.332 94.2985 107.378 94.3901 107.388 94.4889V95.8337ZM108.972 95.8337H108.178V94.4889C108.178 94.3831 108.22 94.2817 108.295 94.2069C108.369 94.1321 108.471 94.0901 108.577 94.0901C108.682 94.0901 108.784 94.1321 108.859 94.2069C108.933 94.2817 108.975 94.3831 108.975 94.4889L108.972 95.8337ZM110.556 95.8337H109.758V94.4889C109.758 94.3831 109.8 94.2817 109.875 94.2069C109.95 94.1321 110.051 94.0901 110.157 94.0901C110.263 94.0901 110.364 94.1321 110.439 94.2069C110.514 94.2817 110.556 94.3831 110.556 94.4889V95.8337ZM112.136 95.8337H111.342V94.4889C111.352 94.3901 111.398 94.2985 111.471 94.2318C111.544 94.1651 111.64 94.1281 111.739 94.1281C111.838 94.1281 111.934 94.1651 112.007 94.2318C112.081 94.2985 112.127 94.3901 112.136 94.4889V95.8337ZM113.724 95.8337H112.926V94.4889C112.926 94.3831 112.968 94.2817 113.043 94.2069C113.118 94.1321 113.219 94.0901 113.325 94.0901C113.431 94.0901 113.532 94.1321 113.607 94.2069C113.682 94.2817 113.724 94.3831 113.724 94.4889V95.8337ZM115.308 95.8337H114.51V94.4889C114.51 94.3831 114.552 94.2817 114.627 94.2069C114.702 94.1321 114.803 94.0901 114.909 94.0901C115.015 94.0901 115.116 94.1321 115.191 94.2069C115.266 94.2817 115.308 94.3831 115.308 94.4889V95.8337ZM116.892 95.8337H116.095V94.4889C116.095 94.3831 116.137 94.2817 116.211 94.2069C116.286 94.1321 116.388 94.0901 116.493 94.0901C116.599 94.0901 116.7 94.1321 116.775 94.2069C116.85 94.2817 116.892 94.3831 116.892 94.4889V95.8337Z"/><path fill="#263238" d="M102.856 95.413V103.417H98.8293V100.593C98.8293 100.084 98.6273 99.5966 98.2677 99.237C97.9081 98.8774 97.4203 98.6754 96.9118 98.6754C96.4032 98.6754 95.9155 98.8774 95.5559 99.237C95.1963 99.5966 94.9942 100.084 94.9942 100.593V103.417H90.967V95.413H102.856Z"/><path fill="#263238" d="M117.573 92.6832H102.744C102.51 92.6832 102.32 92.873 102.32 93.1073V93.129C102.32 93.3633 102.51 93.5531 102.744 93.5531H117.573C117.808 93.5531 117.997 93.3633 117.997 93.129V93.1073C117.997 92.873 117.808 92.6832 117.573 92.6832Z"/><path fill="#263238" d="M89.2271 72.9613V74.0378C89.2271 74.1039 89.2806 74.1575 89.3467 74.1575H89.3503C89.4164 74.1575 89.4699 74.1039 89.4699 74.0378V72.9613C89.4699 72.8952 89.4164 72.8417 89.3503 72.8417H89.3467C89.2806 72.8417 89.2271 72.8952 89.2271 72.9613Z"/><path fill="#263238" d="M87.7336 76.2446V77.0711H90.9597V76.2446H87.7336ZM87.7336 78.289V79.1155H90.9597V78.289H87.7336Z"/><path fill="#263238" d="M87.7336 79.1152V103.402H90.9597V79.1152H87.7336ZM89.778 82.7582H88.919V80.8842C88.9288 80.777 88.9783 80.6775 89.0578 80.605C89.1373 80.5325 89.2409 80.4923 89.3485 80.4923C89.4561 80.4923 89.5597 80.5325 89.6392 80.605C89.7187 80.6775 89.7682 80.777 89.778 80.8842V82.7582Z"/><path fill="#263238" d="M90.9597 77.0706H87.7336V78.2885H90.9597V77.0706Z"/><path fill="#263238" d="M90.9597 75.2404V76.2336H87.7336V75.2404C87.7336 75.0285 87.7754 74.8188 87.8564 74.6231C87.9375 74.4274 88.0563 74.2496 88.2061 74.0998C88.3559 73.95 88.5337 73.8312 88.7294 73.7501C88.9251 73.669 89.1349 73.6273 89.3467 73.6273C89.5585 73.6273 89.7683 73.669 89.964 73.7501C90.1597 73.8312 90.3375 73.95 90.4873 74.0998C90.6371 74.2496 90.7559 74.4274 90.837 74.6231C90.918 74.8188 90.9597 75.0285 90.9597 75.2404Z"/><path fill="#263238" d="M91.2099 78.2889H87.4836C87.2574 78.2889 87.074 78.4723 87.074 78.6985V78.7057C87.074 78.932 87.2574 79.1153 87.4836 79.1153H91.2099C91.4361 79.1153 91.6195 78.932 91.6195 78.7057V78.6985C91.6195 78.4723 91.4361 78.2889 91.2099 78.2889Z"/><path fill="#263238" d="M91.2099 76.2446H87.4836C87.2574 76.2446 87.074 76.428 87.074 76.6542V76.6615C87.074 76.8877 87.2574 77.0711 87.4836 77.0711H91.2099C91.4361 77.0711 91.6195 76.8877 91.6195 76.6615V76.6542C91.6195 76.428 91.4361 76.2446 91.2099 76.2446Z"/><path fill="#263238" d="M130.876 72.9646V74.0412C130.876 74.1072 130.93 74.1608 130.996 74.1608H131C131.066 74.1608 131.119 74.1072 131.119 74.0412V72.9646C131.119 72.8985 131.066 72.845 131 72.845H130.996C130.93 72.845 130.876 72.8985 130.876 72.9646Z"/><path fill="#263238" d="M129.383 78.289V79.1155H132.609V78.289H129.383ZM129.383 76.2446V77.0711H132.609V76.2446H129.383Z"/><path fill="#263238" d="M129.383 79.1152V103.402H132.609V79.1152H129.383ZM131.424 82.7582H130.565V80.8842C130.575 80.777 130.624 80.6775 130.704 80.605C130.783 80.5325 130.887 80.4923 130.995 80.4923C131.102 80.4923 131.206 80.5325 131.285 80.605C131.365 80.6775 131.414 80.777 131.424 80.8842V82.7582Z"/><path fill="#263238" d="M132.609 77.0706H129.383V78.2885H132.609V77.0706Z"/><path fill="#263238" d="M132.609 75.2404V76.2336H129.383V75.2404C129.383 74.8126 129.553 74.4023 129.856 74.0998C130.158 73.7973 130.568 73.6273 130.996 73.6273C131.424 73.6273 131.834 73.7973 132.137 74.0998C132.439 74.4023 132.609 74.8126 132.609 75.2404Z"/><path fill="#263238" d="M132.609 78.2889V79.1153H129.133C129.024 79.1153 128.92 79.0722 128.843 78.9954C128.767 78.9186 128.723 78.8144 128.723 78.7057C128.723 78.6518 128.733 78.5983 128.754 78.5484C128.774 78.4985 128.804 78.4532 128.842 78.415C128.88 78.3769 128.926 78.3467 128.976 78.3263C129.026 78.3059 129.079 78.2956 129.133 78.2961L132.609 78.2889Z"/><path fill="#263238" d="M132.609 76.2446V77.0711H129.133C129.024 77.0711 128.92 77.0279 128.843 76.9511C128.767 76.8743 128.723 76.7701 128.723 76.6615C128.723 76.5528 128.767 76.4487 128.843 76.3718C128.92 76.295 129.024 76.2519 129.133 76.2519L132.609 76.2446Z"/><path fill="#263238" d="M129.376 95.413V103.417H125.349V100.593C125.327 100.098 125.115 99.6311 124.758 99.2887C124.4 98.9463 123.924 98.7552 123.429 98.7552C122.934 98.7552 122.458 98.9463 122.101 99.2887C121.743 99.6311 121.531 100.098 121.51 100.593V103.417H117.486V95.413H129.376Z"/><path fill="#455A64" d="M137.119 56.2538V57.1165C137.134 57.407 137.122 57.6982 137.082 57.9864C137.024 58.273 136.903 58.5429 136.727 58.7768C136.552 59.0106 136.326 59.2025 136.067 59.3385C135.806 59.4702 135.519 59.5443 135.226 59.556H132.613L132.646 81.5261L132.696 103.5V103.59H132.606L80.68 103.768H80.4117V103.514L80.3392 59.5705L80.68 59.9076H78.4181C78.2876 59.9076 78.1824 59.9076 78.0302 59.9076C77.8824 59.903 77.7355 59.8836 77.5916 59.8496C77.0109 59.7085 76.5079 59.3472 76.1888 58.8419C76.029 58.5928 75.9205 58.3143 75.8698 58.0227C75.8471 57.8788 75.835 57.7334 75.8336 57.5877V56.2719V56.0508C75.8826 55.5333 76.107 55.0481 76.4696 54.6756C76.8322 54.3031 77.3112 54.0657 77.8272 54.0028C78.1389 53.9738 78.3637 54.0028 78.6211 54.0028H80.129L79.8825 54.5537C78.9864 53.4458 78.2359 52.2276 77.6496 50.9289C77.0523 49.6516 76.5907 48.3152 76.2722 46.9416C75.6341 44.1834 75.5112 41.3311 75.9097 38.5283C76.2763 35.729 77.1666 33.0237 78.5341 30.5537C79.2459 29.3338 80.0673 28.1811 80.9881 27.1101C81.9197 26.0564 82.9251 25.0704 83.9967 24.1595C86.1693 22.368 88.433 20.6899 90.7787 19.1319C93.0886 17.593 95.3082 15.9228 97.4267 14.1296L98.2024 13.4373C98.4598 13.2053 98.7026 12.9588 98.9527 12.7123C99.4566 12.2411 99.9169 11.7227 100.403 11.2225C101.326 10.1973 102.174 9.10705 102.94 7.96013C104.474 5.65175 105.676 3.13936 106.511 0.496602L106.67 0L106.822 0.496602C107.642 3.14698 108.828 5.67 110.346 7.99275C111.112 9.14982 111.96 10.2509 112.883 11.2877C113.358 11.7952 113.811 12.3172 114.333 12.7957C114.579 13.0349 114.822 13.285 115.076 13.5206L115.79 14.2166C117.904 16.0292 120.121 17.7175 122.431 19.2732C124.745 20.825 126.979 22.4921 129.126 24.2683C130.182 25.1796 131.175 26.1618 132.098 27.208C133.003 28.2706 133.811 29.4122 134.512 30.619C135.859 33.0692 136.732 35.7512 137.086 38.5247C137.274 39.9057 137.34 41.3007 137.282 42.6933C137.23 44.0863 137.04 45.4706 136.713 46.8256C136.397 48.1838 135.938 49.5047 135.342 50.7658C134.775 52.037 134.044 53.2288 133.168 54.3109H135.071C135.283 54.3029 135.496 54.3261 135.701 54.3797C136.116 54.4899 136.484 54.734 136.746 55.0742C137.008 55.4143 137.15 55.8315 137.151 56.261L137.119 56.2538ZM137.119 56.2538C137.117 55.8252 136.975 55.4091 136.712 55.0701C136.45 54.7312 136.083 54.4885 135.669 54.3797C135.463 54.3261 135.25 54.3029 135.038 54.3109H133.12C133.994 53.2255 134.725 52.033 135.295 50.7622C135.885 49.5013 136.341 48.1818 136.655 46.8256C136.975 45.4721 137.16 44.0904 137.209 42.7005C137.264 41.31 137.195 39.9175 137.003 38.5392C136.652 35.7739 135.784 33.0993 134.443 30.6552C133.741 29.4553 132.932 28.321 132.026 27.266C131.106 26.2248 130.115 25.2486 129.061 24.3444C126.907 22.5892 124.665 20.945 122.344 19.4182C120.023 17.8733 117.794 16.1958 115.667 14.3942L114.884 13.6946C114.627 13.4626 114.38 13.2125 114.13 12.9696C113.615 12.4948 113.155 11.9692 112.68 11.4653C111.747 10.4238 110.888 9.31792 110.11 8.15587C108.556 5.82164 107.335 3.28137 106.485 0.608972H106.797C105.972 3.28663 104.777 5.83551 103.245 8.18125C102.473 9.35208 101.619 10.4665 100.689 11.5161C100.211 12.0272 99.7502 12.5564 99.2391 13.0349C98.989 13.2778 98.7461 13.5315 98.4888 13.7599L97.7094 14.4848C95.5897 16.302 93.3677 17.9964 91.0542 19.5596C88.7489 21.1039 86.524 22.7651 84.3882 24.5365C83.3462 25.4357 82.3665 26.4046 81.4557 27.4364C80.5649 28.4824 79.7691 29.6057 79.0778 30.7929C77.751 33.2062 76.8902 35.8475 76.5404 38.5791C76.3551 39.9397 76.2909 41.3141 76.3483 42.686C76.3978 44.0582 76.5848 45.4219 76.9065 46.7567C77.2176 48.0919 77.6684 49.3907 78.2513 50.6317C78.8139 51.8711 79.5313 53.0343 80.3863 54.0934L80.8467 54.6443H78.6355C78.3927 54.6443 78.1099 54.6443 77.9106 54.6443C77.5998 54.6851 77.3074 54.815 77.0688 55.0182C76.8302 55.2215 76.6555 55.4894 76.5658 55.7898C76.5378 55.8895 76.5184 55.9913 76.5078 56.0943V56.2538V57.5696C76.5079 57.6754 76.5176 57.7809 76.5368 57.8849C76.5734 58.0893 76.6484 58.2849 76.7579 58.4613C76.9827 58.8149 77.3363 59.0671 77.7438 59.1645C77.8448 59.1888 77.9481 59.2022 78.0519 59.2044C78.1498 59.2044 78.2948 59.2044 78.4144 59.2044H81.0171V59.5451L80.9554 103.514L80.6872 103.246L132.613 103.424L132.522 103.514L132.573 81.5406L132.602 59.5705H135.226C135.666 59.5595 136.088 59.3996 136.425 59.1171C136.761 58.8346 136.992 58.4461 137.079 58.0154C137.117 57.7272 137.131 57.4361 137.119 57.1455V56.2538Z"/><path fill="#455A64" d="M80.9009 103.514C80.6399 99.8532 80.4272 96.1909 80.2629 92.5274L80.0164 87.0358L79.8207 81.5406L79.7228 78.7966L79.6503 76.0489L79.5089 70.5573C79.4546 68.7231 79.4256 66.8926 79.3893 65.0621L79.306 59.5704L80.9009 61.1654L79.3929 61.1835H78.639H78.2004C77.9683 61.1768 77.7376 61.1464 77.5117 61.0929C76.8305 60.9334 76.2107 60.5785 75.7284 60.0717C75.2461 59.5649 74.9223 58.9284 74.7967 58.2401C74.7967 58.1278 74.7568 58.0118 74.7495 57.8958V57.7218V56.2718C74.7495 56.1631 74.7495 56.0399 74.7495 55.9275C74.773 55.6946 74.8167 55.4641 74.88 55.2388C75.1444 54.3287 75.7547 53.5584 76.5801 53.0929C76.9914 52.8631 77.443 52.7142 77.9104 52.6543C78.0264 52.6543 78.1424 52.6543 78.2729 52.6289H80.3898L79.1247 55.4671C79.0232 55.3511 78.9652 55.2786 78.9 55.1953C78.8347 55.1119 78.7695 55.0358 78.7115 54.956C78.5882 54.7965 78.4686 54.637 78.349 54.4776C78.1206 54.1622 77.9249 53.836 77.7147 53.5133C77.3173 52.8634 76.9544 52.1931 76.6272 51.5052C75.9847 50.1401 75.4913 48.7097 75.1555 47.2388C74.4746 44.3157 74.3516 41.2904 74.793 38.3217C75.1976 35.3528 76.1685 32.4893 77.653 29.8867C78.4238 28.6057 79.3108 27.3984 80.3028 26.28C81.286 25.1958 82.3499 24.1876 83.4854 23.2641C85.7153 21.5187 88.0334 19.889 90.4306 18.3815C92.7687 16.9193 95.0243 15.3292 97.1872 13.6184C98.2389 12.7625 99.2455 11.8526 100.203 10.8926C101.157 9.91665 102.042 8.87628 102.853 7.77883C103.056 7.50334 103.27 7.23148 103.462 6.94874L104.024 6.08603C104.419 5.52056 104.727 4.90434 105.075 4.30987C105.423 3.71539 105.702 3.07742 106.021 2.45758L106.847 0.540039C106.666 1.21426 106.485 1.8921 106.289 2.5627L105.948 3.5559C105.829 3.88576 105.731 4.22649 105.586 4.54548C105.3 5.18708 105.057 5.85404 104.72 6.47752L104.241 7.4236C104.074 7.73533 103.879 8.03619 103.712 8.3443C102.243 10.7894 100.441 13.0183 98.3581 14.9669C97.3214 15.942 96.2448 16.8699 95.1392 17.7507C94.0336 18.6316 92.9172 19.487 91.7935 20.3135C89.5527 21.8936 87.3943 23.5874 85.3268 25.3883C84.3477 26.2746 83.4274 27.2239 82.5719 28.2301C81.7555 29.2294 81.0278 30.298 80.397 31.4236C79.1857 33.7061 78.4043 36.1917 78.0916 38.7567C77.9258 40.0388 77.8736 41.333 77.9358 42.6244C77.9849 43.9061 78.1609 45.1798 78.4614 46.4268C78.7561 47.6743 79.1763 48.8887 79.7156 50.0516C79.98 50.6277 80.2752 51.1892 80.6 51.7336C80.7704 51.9945 80.9299 52.2664 81.1075 52.5129C81.1945 52.6434 81.2851 52.7666 81.3721 52.8754C81.4192 52.9334 81.4627 52.995 81.5062 53.0457L81.6113 53.1762L83.9204 56.0254H80.3499H78.3091C78.2765 56.0282 78.2446 56.0368 78.2149 56.0507C78.1837 56.0653 78.1558 56.0859 78.1328 56.1115C78.1097 56.137 78.0921 56.1669 78.0808 56.1993C78.0792 56.2162 78.0792 56.2332 78.0808 56.2501C78.0822 56.2621 78.0822 56.2743 78.0808 56.2863V56.4712V57.2252V57.6457C78.0808 57.6457 78.0808 57.6457 78.0808 57.6747C78.0849 57.7114 78.096 57.7471 78.1134 57.7798C78.154 57.8487 78.2185 57.9003 78.2946 57.9248C78.3138 57.9286 78.3335 57.9286 78.3526 57.9248C78.3526 57.9248 78.3526 57.9248 78.3816 57.9248H78.6644H79.4183L80.9263 57.9465L82.5429 57.9683L82.5212 59.5414L82.4342 65.0331C82.4016 66.8636 82.3689 68.6941 82.3182 70.5283L82.1732 76.0199L82.1043 78.7676L82.0065 81.5116L81.8071 87.0068L81.5606 92.4984C81.3769 96.1716 81.157 99.8435 80.9009 103.514Z"/><path fill="#3EBB7F" d="M137.445 117.72C137.83 119.12 138.083 120.553 138.202 122.001C138.166 122.073 138.173 122.338 138.202 122.265C138.202 122.501 138.565 122.458 138.565 122.226C138.565 122.073 138.565 121.921 138.565 121.776C139.399 120.736 140.616 120.08 141.599 119.177C142.389 118.467 142.964 117.549 143.259 116.527C144.075 113.722 143.31 110.728 144.292 107.947C145.137 105.533 146.652 103.431 147.917 101.245C149.273 98.9324 150.269 96.5001 150.371 93.7888C150.451 91.7154 150.201 88.9496 148.62 87.3946C146.945 85.7453 144.872 86.9813 143.585 88.453C139.87 92.7231 138.148 98.1168 137.452 103.63C137.068 106.682 136.669 109.753 136.763 112.834C136.828 114.481 137.056 116.118 137.445 117.72Z"/><path fill="#263238" d="M138.188 123.125C137.984 120.245 138.018 117.354 138.289 114.48C138.289 114.48 138.289 114.462 138.289 114.447C138.242 112.109 138.057 109.782 138.148 107.44C138.262 104.91 138.607 102.394 139.177 99.9262C139.179 99.9214 139.183 99.9174 139.187 99.9146C139.191 99.9117 139.196 99.9102 139.201 99.9102C139.206 99.9102 139.211 99.9117 139.215 99.9146C139.219 99.9174 139.223 99.9214 139.225 99.9262C138.768 102.353 138.496 104.81 138.409 107.277C138.363 108.597 138.374 109.916 138.442 111.236C138.463 111.667 138.503 112.098 138.532 112.533C139.503 105.971 141.875 99.6941 145.488 94.13C145.535 94.0539 145.669 94.13 145.622 94.2134C143.037 98.4433 141.124 103.048 139.949 107.865C141.737 104.551 144.437 101.826 146.442 98.643C146.442 98.6248 146.481 98.643 146.471 98.6611C144.658 102.206 141.697 105.001 139.801 108.492C139.47 109.915 139.204 111.35 139.003 112.798C138.735 114.781 138.591 116.778 138.572 118.779C139.66 116.742 140.79 114.792 141.682 112.642C141.708 112.584 141.787 112.624 141.769 112.682C141.012 114.918 139.993 117.329 138.565 119.236C138.565 120.649 138.601 122.067 138.684 123.48C138.906 127.257 139.551 130.98 139.848 134.743C139.847 134.763 139.838 134.782 139.824 134.797C139.81 134.812 139.791 134.821 139.77 134.823C139.75 134.825 139.73 134.82 139.713 134.809C139.696 134.797 139.683 134.78 139.678 134.761C138.916 130.921 138.419 127.033 138.188 123.125Z"/><path fill="#263238" d="M142.197 94.0107C142.197 93.9853 142.248 94.0107 142.237 94.0324C141.548 95.9391 141.149 97.8675 140.66 99.8321C140.655 99.8488 140.643 99.8629 140.628 99.8719C140.613 99.8809 140.595 99.8841 140.578 99.881C140.561 99.8779 140.545 99.8687 140.535 99.8551C140.524 99.8414 140.518 99.8243 140.519 99.8068C140.722 97.8167 141.428 95.8412 142.197 94.0107Z"/><path fill="#3EBB7F" d="M124.685 102.003C125.145 103.123 125.676 104.212 126.273 105.265C127.513 107.52 128.81 109.586 129.042 112.21C129.147 113.381 129.184 114.559 129.543 115.69C129.867 116.662 130.335 117.579 130.931 118.412C132.276 120.373 133.958 122.063 135.205 124.096C136.502 126.218 137.459 128.53 138.043 130.947C138.075 131.078 138.282 131.041 138.253 130.911C138.251 130.901 138.251 130.891 138.253 130.882C138.256 130.872 138.256 130.862 138.253 130.853C138.452 125.224 138.003 119.551 136.285 114.157C135.525 111.784 134.612 109.463 133.552 107.208C132.635 105.254 131.485 103.373 129.872 101.912C128.825 100.97 126.552 99.1791 125.059 100.125C124.352 100.582 124.403 101.3 124.685 102.003Z"/><path fill="#263238" d="M130.343 114.752C131.331 116.389 132.421 117.963 133.606 119.464C134.15 120.189 134.693 120.881 135.248 121.595C135.505 121.932 135.792 122.266 136.027 122.628C135.879 122.034 135.734 121.443 135.581 120.852C134.856 118.007 134.157 115.14 133.077 112.403C131.967 109.754 130.661 107.193 129.169 104.74C129.129 104.675 129.234 104.628 129.274 104.689C130.463 106.647 131.67 108.6 132.671 110.663C133.225 111.814 133.709 112.998 134.121 114.208C133.662 111.641 133.02 109.111 132.199 106.636C132.199 106.614 132.225 106.596 132.232 106.636C133.309 109.138 133.982 111.796 134.226 114.509C134.469 115.234 134.693 115.977 134.904 116.72C135.792 119.87 136.567 123.053 137.292 126.246C137.303 124.147 137.121 122.052 136.749 119.986C136.749 119.939 136.81 119.928 136.821 119.986C137.371 122.139 137.554 124.369 137.365 126.583C137.638 127.791 137.904 129.007 138.162 130.23C138.717 132.825 139.395 135.468 139.721 138.103C139.721 138.115 139.716 138.127 139.708 138.137C139.699 138.147 139.688 138.153 139.676 138.155C139.663 138.157 139.651 138.155 139.64 138.149C139.629 138.143 139.62 138.133 139.616 138.121C139.228 136.7 138.996 135.221 138.681 133.789C138.365 132.357 138.035 130.908 137.702 129.468C137.219 127.373 136.711 125.283 136.179 123.198C135.817 122.433 135.157 121.748 134.65 121.113C134.095 120.406 133.541 119.703 133.004 118.989C131.99 117.662 131.082 116.258 130.289 114.788C130.287 114.784 130.285 114.78 130.284 114.776C130.283 114.772 130.283 114.768 130.284 114.763C130.286 114.755 130.291 114.747 130.298 114.743C130.305 114.738 130.314 114.736 130.323 114.738C130.331 114.739 130.339 114.744 130.343 114.752Z"/><path fill="#263238" d="M130.104 112.359C131.342 113.936 132.415 115.637 133.305 117.434C133.305 117.455 133.28 117.481 133.265 117.459C132.178 115.77 131.13 114.066 130.054 112.384C130.035 112.359 130.083 112.33 130.104 112.359Z"/><path fill="#3EBB7F" d="M154.068 107.339C153.343 108.597 152.506 110.104 152.821 111.616C153.017 112.569 153.716 113.345 153.843 114.32C154.126 116.47 151.984 117.891 150.432 118.906C146.568 121.443 141.265 123.705 140.562 128.885C140.536 129.066 140.218 129.022 140.243 128.841C140.241 128.829 140.241 128.817 140.243 128.805C140.243 128.805 140.221 128.805 140.221 128.776C139.716 126.161 139.74 123.472 140.294 120.867C140.874 118.195 142.037 115.792 143.411 113.45C145.738 109.485 148.203 105.418 151.719 102.38C152.694 101.539 154.688 100.024 155.464 101.923C156.221 103.768 154.963 105.809 154.068 107.339Z"/><path fill="#263238" d="M150.53 115.756C147.968 118.529 143.893 120.084 141.686 123.194C142.918 118.464 145.246 114.091 148.482 110.427C148.496 110.408 148.502 110.384 148.5 110.36C148.498 110.336 148.488 110.314 148.471 110.297C148.454 110.28 148.432 110.27 148.408 110.268C148.384 110.266 148.36 110.272 148.341 110.286C145.982 112.579 144.095 115.311 142.788 118.329C143.397 116.221 144.198 114.173 145.18 112.211C145.187 112.196 145.188 112.179 145.183 112.164C145.178 112.148 145.168 112.135 145.154 112.127C145.14 112.119 145.123 112.116 145.107 112.12C145.091 112.123 145.077 112.132 145.068 112.146C143.85 114.291 142.979 116.615 142.487 119.033C139.587 126.068 139.311 134.322 139.92 141.739C139.92 141.847 140.091 141.847 140.087 141.739C139.92 135.895 140.015 129.947 141.417 124.238C141.446 124.118 141.479 124.002 141.508 123.875C143.908 120.53 147.968 118.978 150.57 115.803C150.588 115.77 150.559 115.723 150.53 115.756Z"/><path fill="#263238" d="M151.339 108.024C150.153 109.975 148.811 111.827 147.326 113.562C147.326 113.584 147.326 113.617 147.359 113.595C149.031 112.008 150.407 110.137 151.422 108.067C151.425 108.062 151.427 108.056 151.427 108.05C151.428 108.043 151.427 108.037 151.425 108.031C151.424 108.025 151.421 108.02 151.417 108.015C151.413 108.011 151.408 108.007 151.402 108.004C151.397 108.001 151.391 107.999 151.385 107.999C151.379 107.998 151.372 107.999 151.366 108.001C151.361 108.002 151.355 108.005 151.35 108.009C151.346 108.013 151.342 108.018 151.339 108.024Z"/><path fill="#455A64" d="M145.282 146.962H133.494L135.085 131.103H143.466L145.282 146.962Z"/><path fill="#263238" d="M143.759 133.68H134.824L135.081 131.103H143.466L143.759 133.68Z"/><path fill="#455A64" d="M144.912 129.348H133.863V131.879H144.912V129.348Z"/><path fill="#D3766A" d="M18.1913 136.399C18.4341 135.439 34.1586 113.255 35.1736 112.577C35.6956 112.214 38.3163 113.914 42.2819 116.658C42.3218 116.687 58.4994 123.872 58.4994 123.872L48.919 138.647L33.0785 131.397L32.8283 131.23C32.8283 131.23 23.266 137.32 21.9792 137.755C20.6924 138.19 17.9412 137.363 18.1913 136.399Z"/><path fill="#263238" d="M40.9987 115.635C37.8777 113.218 35.199 112.137 34.8365 112.304C33.7091 112.79 18.4305 135.293 18.1622 136.257C17.894 137.221 16.8283 143.064 20.0653 144.449C21.1745 144.92 21.3738 142.821 22.6715 140.824C24.7268 137.663 27.5759 134.499 29.3593 133.419C27.8623 134.278 25.9629 134.836 27.2026 132.487C28.4858 130.062 36.3698 119.463 40.9987 115.635Z"/><path fill="#37474F" d="M32.9988 135.532C32.9988 135.532 67.0142 146.098 79.9222 144.764C86.0845 144.126 91.094 136.616 88.6218 130.388C86.3092 124.589 70.0301 117.625 65.557 113.972C64.147 112.826 64.6182 108.741 64.6182 108.741L52.2285 107.653C52.2285 107.653 47.277 114.341 48.8937 117.901C48.9181 117.963 48.9484 118.022 48.9843 118.078L43.547 115.541L32.9988 135.532Z"/><path fill="#263238" d="M41.3684 126.749C42.9742 123.85 44.7105 121.04 46.3417 118.159C46.3707 118.104 46.4613 118.159 46.4323 118.199C44.8772 121.098 43.4237 124.067 41.8215 126.952C40.2193 129.838 38.4975 132.669 36.8265 135.525C36.783 135.598 36.6598 135.551 36.7032 135.471C38.2656 132.567 39.7699 129.635 41.3684 126.749Z"/><path fill="#263238" d="M48.8899 118.202C49.7054 118.764 50.4775 119.406 51.2678 120.015C52.058 120.624 52.8301 121.189 53.6311 121.751C55.2478 122.886 56.8935 123.958 58.5935 124.984C61.9901 127.063 65.5226 128.911 69.1672 130.516C71.1971 131.408 73.2524 132.285 75.362 132.977C75.4091 132.995 75.3801 133.064 75.333 133.05C73.7997 132.557 72.2628 132.071 70.7476 131.516C71.5306 132.096 72.2954 132.694 73.0711 133.282C73.0752 133.284 73.0786 133.288 73.0813 133.292C73.0839 133.296 73.0857 133.301 73.0865 133.306C73.0874 133.311 73.0873 133.316 73.0862 133.321C73.0851 133.325 73.083 133.33 73.0802 133.334C73.0773 133.338 73.0737 133.342 73.0695 133.344C73.0653 133.347 73.0607 133.349 73.0558 133.35C73.0509 133.35 73.0459 133.35 73.0411 133.349C73.0362 133.348 73.0317 133.346 73.0276 133.343C72.1758 132.738 71.3095 132.151 70.4685 131.531C70.4598 131.523 70.4529 131.513 70.4482 131.502C70.4435 131.491 70.441 131.479 70.441 131.467C70.441 131.455 70.4435 131.444 70.4482 131.433C70.4529 131.422 70.4598 131.412 70.4685 131.404C70.2075 131.306 69.9501 131.212 69.6928 131.11C67.8224 130.385 65.9858 129.573 64.183 128.674C60.621 126.914 57.2158 124.852 54.0045 122.512C53.0983 121.849 52.1921 121.175 51.3257 120.479C50.4354 119.807 49.5879 119.081 48.7884 118.304C48.7304 118.246 48.8246 118.159 48.8899 118.202Z"/><path fill="#D3766A" d="M5.46814 138.529C5.71462 137.565 21.4392 115.381 22.4541 114.703C22.9725 114.341 25.5968 116.041 29.5588 118.785C29.6023 118.814 45.7763 125.998 45.7763 125.998L36.1958 140.773L20.3553 133.523L20.1088 133.353C20.1088 133.353 10.5465 139.443 9.25971 139.878C7.97289 140.313 5.23252 139.49 5.46814 138.529Z"/><path fill="#263238" d="M28.2792 117.763C25.1582 115.345 22.4795 114.265 22.117 114.432C20.9897 114.918 5.71462 137.421 5.44276 138.388C5.1709 139.356 4.10882 145.2 7.34942 146.577C8.45862 147.052 8.65798 144.953 9.95205 142.952C12.0073 139.795 14.8564 136.627 16.6435 135.547C15.1428 136.409 13.2434 136.964 14.4686 134.615C15.7663 132.19 23.6467 121.584 28.2792 117.763Z"/><path fill="#37474F" d="M59.2425 108.226L39.1537 106.414C39.1537 106.414 34.0789 116.948 35.5904 120.311C37.102 123.675 55.2878 129.685 55.2878 129.685L30.5556 118.086L20.5981 136.949C20.5981 136.949 51.0467 146.037 67.5941 145.602C73.8034 145.442 78.2801 137.682 75.1374 131.226C71.8315 124.429 58.7241 114.486 58.7241 114.486L59.2425 108.226Z"/><path fill="#263238" d="M31.2116 118.075C38.7367 122.229 46.3416 126.227 54.1604 129.801C55.2454 130.299 56.3329 130.792 57.4227 131.28C58.5537 131.784 59.6701 132.35 60.8337 132.774C60.8453 132.779 60.8544 132.788 60.8592 132.799C60.8639 132.811 60.8639 132.824 60.8591 132.835C60.8543 132.847 60.8451 132.856 60.8335 132.861C60.822 132.866 60.809 132.865 60.7975 132.861C59.8043 132.4 58.7603 132.045 57.7454 131.625C56.7304 131.204 55.7626 130.798 54.7766 130.37L53.5043 129.809C53.5877 129.877 53.671 129.946 53.7544 130.008C54.1169 130.309 54.5156 130.606 54.889 130.914C55.6611 131.549 56.3643 132.284 57.1799 132.857C57.2306 132.893 57.1799 132.973 57.1255 132.933C56.357 132.295 55.4762 131.795 54.6824 131.19C54.2981 130.896 53.9212 130.588 53.5514 130.28C53.1981 130.011 52.8671 129.714 52.5618 129.392C51.3149 128.838 50.074 128.272 48.8391 127.692C44.9485 125.862 41.117 123.918 37.3448 121.859C35.2388 120.707 33.1545 119.518 31.1028 118.271C30.9941 118.205 31.0992 118.013 31.2116 118.075Z"/><path fill="#263238" d="M28.0691 128.464C29.5843 125.734 31.2191 123.081 32.756 120.362C32.785 120.312 32.872 120.362 32.843 120.402C31.3931 123.146 30.0084 125.937 28.4932 128.656C26.9781 131.375 25.3578 134.046 23.781 136.743C23.7411 136.812 23.6251 136.765 23.665 136.692C25.1294 133.963 26.5467 131.186 28.0691 128.464Z"/><path fill="#263238" d="M59.072 114.726C61.1888 116.149 63.2042 117.717 65.1037 119.42C67.0104 121.069 68.8446 122.798 70.5772 124.622C71.4544 125.542 72.2954 126.499 73.1146 127.478C73.8927 128.405 74.5878 129.398 75.1917 130.447C76.2785 132.341 76.7032 134.544 76.3987 136.707C76.233 137.856 75.8764 138.97 75.3439 140.002C74.7807 141.005 74.0818 141.926 73.2669 142.738C73.2342 142.771 73.1871 142.713 73.2197 142.68C73.9859 141.933 74.5915 141.038 74.9995 140.049C75.642 138.648 75.965 137.122 75.9449 135.581C75.9248 134.04 75.5623 132.523 74.8835 131.139C73.7961 128.997 72.1178 127.152 70.5156 125.397C68.8604 123.581 67.1133 121.851 65.2814 120.214C64.2555 119.293 63.208 118.401 62.1495 117.506C61.0911 116.611 60.0072 115.766 58.9741 114.845C58.9583 114.832 58.9482 114.814 58.9462 114.793C58.9441 114.773 58.9503 114.752 58.9633 114.737C58.9762 114.721 58.995 114.711 59.0154 114.709C59.0358 114.707 59.0562 114.713 59.072 114.726Z"/><path fill="#263238" d="M53.1636 115.092C54.8739 114.702 56.622 114.503 58.3761 114.497C60.1052 114.436 61.8306 114.476 63.556 114.581C63.6031 114.581 63.5922 114.653 63.556 114.653C61.798 114.675 60.0363 114.762 58.2819 114.893C56.5855 115.016 54.8782 115.255 53.1781 115.255C53.0802 115.259 53.0802 115.114 53.1636 115.092Z"/><path fill="#263238" d="M39.4727 114.298C40.5479 114.353 41.6256 114.337 42.6988 114.25C43.5868 114.192 44.5112 114.127 45.2688 113.634C46.7767 112.674 47.498 110.836 47.9294 109.179C47.9294 109.139 48.0055 109.158 47.9983 109.179C47.6358 110.992 47.3748 113.083 45.6784 114.189C44.8315 114.68 43.8564 114.905 42.88 114.834C41.7288 114.793 40.5847 114.635 39.4654 114.363C39.4605 114.359 39.4568 114.353 39.4544 114.347C39.452 114.341 39.4512 114.335 39.4519 114.328C39.4526 114.322 39.4549 114.316 39.4585 114.31C39.4621 114.305 39.467 114.301 39.4727 114.298Z"/><path fill="#263238" d="M37.0404 117.027C37.2309 115.978 37.4986 114.945 37.8415 113.935C38.175 112.891 38.5664 111.866 38.9688 110.854C39.44 109.705 39.9692 108.581 40.5202 107.469C40.525 107.462 40.5321 107.456 40.5403 107.454C40.5485 107.452 40.5572 107.452 40.565 107.456C40.5728 107.459 40.5791 107.465 40.5829 107.473C40.5866 107.481 40.5875 107.489 40.5855 107.498C39.7771 109.386 39.0195 111.307 38.3671 113.257C38.0408 114.225 37.7436 115.2 37.4681 116.183C37.1559 117.122 37.0739 118.123 37.2289 119.101C37.4325 120.098 37.9269 121.012 38.6498 121.729C38.6498 121.729 38.6498 121.75 38.6498 121.729C38.0159 121.138 37.5374 120.399 37.2567 119.579C36.976 118.759 36.9017 117.883 37.0404 117.027Z"/><path fill="#263238" d="M33.1437 122.726C34.474 123.183 35.7681 123.752 37.0694 124.285C38.3707 124.818 39.672 125.354 40.9734 125.898C43.5687 126.985 46.1569 128.105 48.7414 129.225C50.1913 129.86 51.663 130.527 53.1202 131.19C53.1257 131.191 53.131 131.193 53.1357 131.196C53.1404 131.198 53.1444 131.203 53.1472 131.207C53.1501 131.212 53.1519 131.217 53.1524 131.223C53.1529 131.228 53.1521 131.234 53.15 131.239C53.148 131.244 53.1448 131.249 53.1407 131.253C53.1366 131.257 53.1317 131.259 53.1264 131.261C53.121 131.262 53.1154 131.263 53.1099 131.262C53.1045 131.261 53.0993 131.259 53.0948 131.255C47.8581 129.184 42.6625 127.009 37.508 124.731C36.0581 124.089 34.5574 123.484 33.1328 122.759C33.1302 122.753 33.1299 122.746 33.1319 122.74C33.1339 122.734 33.1381 122.729 33.1437 122.726Z"/><path fill="#D3766A" d="M60.783 73.7911C60.1741 79.9533 65.1329 95.116 67.5869 97.0408C68.214 97.5374 70.9652 98.4907 72.4659 98.1572C75.5144 97.5192 81.0422 91.6688 84.9824 86.1953C86.262 84.4227 78.4577 80.0838 76.1487 80.3013C75.2606 80.3847 71.9693 85.376 71.7119 85.0643C70.3889 83.4911 65.4192 74.3167 64.5891 73.2401C62.3635 70.3511 61.0549 71.2537 60.783 73.7911Z"/><path fill="#D3766A" d="M83.9494 87.5034C85.8234 85.7707 87.9367 80.8917 88.9407 77.6946C89.4627 76.0018 90.2566 71.1191 89.3649 70.7168C88.5493 70.3543 87.8497 71.7027 87.8497 71.7027C87.8497 71.7027 87.9186 69.2705 87.1247 69.0058C85.9466 68.618 85.4537 70.7639 85.4537 70.7639C85.4537 70.7639 85.7219 68.5455 84.5475 68.1431C83.373 67.7408 82.8547 70.0607 82.8547 70.0607C82.8547 70.0607 83.1845 68.038 82.0572 68.1576C80.7051 68.3026 80.484 72.0797 79.6141 73.8341C79.4183 74.2328 76.6272 81.8921 76.6272 81.8921L83.9494 87.5034Z"/><path fill="#263238" d="M87.8786 71.725C87.5146 73.7053 86.865 75.6223 85.9502 77.4159C85.6964 77.9307 85.4137 78.4273 85.1527 78.9384C85.1527 78.9601 85.1128 78.9384 85.1237 78.9202C85.5512 78.0077 85.9311 77.0737 86.2619 76.1219C86.6244 75.1903 86.9216 74.2478 87.2515 73.309C87.44 72.7798 87.614 72.2216 87.7952 71.7068C87.8097 71.667 87.8786 71.6778 87.8786 71.725Z"/><path fill="#263238" d="M85.4937 70.7097C85.4175 71.1737 85.3305 71.6268 85.2109 72.0799C85.0913 72.533 84.9391 73.0151 84.7759 73.4755C84.4586 74.371 84.0895 75.2472 83.6704 76.0999C83.4311 76.5892 83.152 77.0568 82.8801 77.5317C82.8801 77.5643 82.8185 77.5317 82.833 77.5027C83.2499 76.6508 83.6015 75.7591 83.9495 74.8783C84.2975 73.9975 84.5983 73.1166 84.8956 72.2249C85.0695 71.7138 85.258 71.2063 85.4212 70.6952C85.4231 70.6856 85.4287 70.6772 85.4369 70.6717C85.4451 70.6663 85.455 70.6643 85.4647 70.6662C85.4743 70.6682 85.4827 70.6738 85.4882 70.682C85.4936 70.6901 85.4956 70.7001 85.4937 70.7097Z"/><path fill="#263238" d="M82.8582 69.974C82.6888 71.0647 82.4319 72.1399 82.0897 73.1892C81.7515 74.2598 81.3497 75.3093 80.8863 76.332C80.8863 76.3501 80.8464 76.332 80.8537 76.332C81.169 75.2663 81.5061 74.2078 81.8215 73.1457C82.1369 72.0837 82.4631 71.0252 82.8219 69.9776C82.8292 69.9486 82.8618 69.9523 82.8582 69.974Z"/><path fill="#D3766A" d="M74.8293 81.6135C74.8293 81.6135 74.4668 78.3511 74.9344 76.9338C75.402 75.5165 78.8492 71.0834 79.7228 71.9787C80.8465 73.1495 79.2914 76.2052 78.3635 77.5718C78.3635 77.5718 80.9697 80.2796 80.2593 82.7952C79.5488 85.3108 74.8293 81.6135 74.8293 81.6135Z"/><path fill="#263238" d="M79.9512 72.4308C80.3826 74.3556 79.0632 76.0557 78.2476 77.4549C78.2342 77.476 78.2253 77.4997 78.2216 77.5244C78.2178 77.5492 78.2192 77.5744 78.2256 77.5986C78.2321 77.6228 78.2435 77.6454 78.2591 77.6649C78.2748 77.6845 78.2943 77.7006 78.3164 77.7122C79.3531 78.9338 80.5348 81 80.3391 82.7652C80.3391 82.816 80.3935 82.8377 80.4043 82.787C80.8285 80.942 79.799 78.7997 78.5919 77.5564C79.4474 76.1245 80.7052 74.3556 79.9585 72.4272C79.9621 72.4163 79.9476 72.42 79.9512 72.4308Z"/><path fill="#3EBB7F" d="M74.2784 81.9535L82.4415 91.4034C81.992 92.6471 81.2336 93.756 80.2376 94.6259C77.7002 96.7066 73.5461 98.5226 71.9367 98.4719C69.3268 98.3849 67.5035 97.475 66.6952 96.4673C65.8869 95.4596 61.0223 84.4655 60.5692 77.1542C60.1161 69.8429 62.7731 69.263 65.644 74.3305C68.5149 79.398 71.4872 84.7736 71.7047 84.6649C71.7881 84.6286 72.2666 83.9399 72.6508 83.4868C73.1443 82.926 73.6892 82.4127 74.2784 81.9535Z"/><path fill="#263238" d="M78.6027 91.9142C78.088 91.3342 77.5817 90.7446 77.0839 90.1453C76.0944 88.9636 75.1084 87.7819 74.1551 86.5712C73.6186 85.8897 73.1039 85.1901 72.571 84.505C72.5384 84.4652 72.6 84.4217 72.6326 84.4579C73.6548 85.6142 74.6879 86.7561 75.6775 87.9414C76.6671 89.1267 77.6458 90.312 78.5774 91.5227C79.1138 92.2078 79.6068 92.9255 80.1578 93.5961C80.1795 93.6179 80.1397 93.6505 80.1179 93.6251C79.6503 93.0306 79.1102 92.4797 78.6027 91.9142Z"/><path fill="#263238" d="M71.7046 84.6652C71.4531 85.2443 71.0911 85.7688 70.6389 86.2093C70.8939 85.6322 71.2554 85.1083 71.7046 84.6652Z"/><path fill="#000" d="M60.5728 77.1549C61.0259 84.4661 65.8904 95.4566 66.6988 96.468C67.5071 97.4793 69.3304 98.3855 71.9403 98.4725C72.7232 98.4979 74.1152 98.0774 75.6267 97.385L62.7948 71.1014C61.276 70.5287 60.2756 72.4498 60.5728 77.1549Z" opacity=".1"/><path fill="#3EBB7F" d="M53.2869 129.878L35.2135 116.172C31.904 120.522 28.6236 127.746 28.214 131.585C28.1342 132.364 39.5488 138.128 39.5488 138.128L27.7717 137.907C27.7844 138.916 27.8924 139.922 28.0943 140.912C66.2312 150.601 75.1628 145.758 75.1918 145.747C79.3111 146.143 83.4528 145.268 87.0595 143.239C90.9091 141.02 92.533 135.656 90.2385 129.827C88.1469 124.513 66.6771 112.326 66.7242 109.028C66.88 92.8898 66.3617 80.7031 65.296 73.4353C64.9988 71.3801 61.3087 69.2342 58.938 70.1077C52.8012 72.3588 33.5062 106.262 34.2312 115.839C35.1446 127.554 53.2797 129.917 53.2869 129.878Z"/><path fill="#000" d="M75.3186 122.106C74.0893 121.216 72.7925 120.423 71.44 119.735C70.0191 118.963 68.6018 118.187 67.17 117.433C65.546 116.583 63.9257 115.725 62.3091 114.86C62.2728 114.842 62.2366 114.896 62.2764 114.918C64.9624 116.545 67.6376 118.18 70.3344 119.797C71.6104 120.558 72.9117 121.287 74.1586 122.095C75.341 122.82 76.4222 123.699 77.3739 124.708C78.3436 125.742 79.0042 127.027 79.2805 128.417C79.2805 128.453 79.353 128.446 79.3458 128.417C79.0449 125.814 77.334 123.654 75.3186 122.106Z" opacity=".1"/><path fill="#000" d="M76.7759 121.188C74.6989 119.641 72.2884 118.651 69.8525 117.832C69.8126 117.832 69.7945 117.882 69.8343 117.897C72.2485 118.771 74.4814 120.046 76.7397 121.25C76.7477 121.253 76.7565 121.253 76.7646 121.25C76.7727 121.247 76.7795 121.242 76.7838 121.234C76.7882 121.227 76.7898 121.218 76.7883 121.21C76.7869 121.201 76.7825 121.194 76.7759 121.188Z" opacity=".1"/><path fill="#263238" d="M34.4341 117.249C34.842 118.293 35.4134 119.266 36.1269 120.131C36.2924 120.355 36.4703 120.571 36.6597 120.776L37.2143 121.403C37.6203 121.787 38.0009 122.193 38.425 122.556L39.0702 123.088C39.2877 123.262 39.4871 123.451 39.7191 123.614L41.0784 124.593L42.5283 125.463L42.8908 125.684L43.2533 125.872L44 126.256C44.9715 126.807 46.019 127.213 47.0376 127.67C47.2914 127.786 47.5524 127.884 47.817 127.975L48.6072 128.257L50.1876 128.83C51.2751 129.145 52.3335 129.483 53.4137 129.78C54.4939 130.077 55.5886 130.309 56.6761 130.588C55.5705 130.389 54.4685 130.164 53.363 129.954C52.2755 129.689 51.1881 129.381 50.1006 129.095C49.5641 128.924 49.0313 128.732 48.4984 128.555L47.701 128.276C47.4327 128.185 47.1681 128.091 46.9108 127.975C45.8777 127.525 44.8192 127.126 43.8296 126.575L43.0793 126.184L42.7168 125.988L42.3543 125.764L40.9044 124.865L39.5342 123.864C39.0847 123.523 38.6751 123.139 38.2474 122.777C37.8197 122.414 37.4499 121.972 37.0548 121.573L36.5111 120.921C36.325 120.708 36.1519 120.484 35.9928 120.25C35.3071 119.345 34.78 118.33 34.4341 117.249Z"/><path fill="#263238" d="M52.6743 129.529C53.1165 129.729 53.5441 129.959 53.9539 130.218C54.3599 130.472 54.7586 130.729 55.1573 131.016C54.6776 130.909 54.2209 130.718 53.8089 130.45C53.3907 130.196 53.0091 129.886 52.6743 129.529Z"/><path fill="#000" d="M84.6381 144.406C81.636 145.594 78.395 146.054 75.1809 145.747C77.1057 144.779 79.3966 142.122 81.1655 141.887C82.5067 141.702 84.6163 143.065 84.6381 144.406Z" opacity=".1"/><path fill="#D3766A" d="M63.2915 75.2403C61.8125 75.1206 59.8878 71.9779 59.5072 69.9806C59.4818 69.8429 60.0617 68.6721 60.6961 67.2149C61.0767 66.3268 61.4791 65.3336 61.7835 64.3984L67.1845 67.7223C66.4713 68.7833 65.8906 69.9276 65.4555 71.1297C65.4139 71.2583 65.3847 71.3906 65.3685 71.5248C65.37 71.5465 65.37 71.5683 65.3685 71.59C65.2416 72.3404 64.7197 75.3381 63.2915 75.2403Z"/><path fill="#263238" d="M65.3685 71.5072C65.3699 71.5289 65.3699 71.5507 65.3685 71.5724C65.1592 71.5354 64.9532 71.4821 64.7522 71.4129C61.392 70.2385 61.7255 65.7074 61.8886 64.4424L63.5017 65.4392L67.1881 67.7084C66.473 68.7669 65.8922 69.9103 65.4591 71.1121C65.4179 71.241 65.3876 71.3732 65.3685 71.5072Z"/><path fill="#D3766A" d="M63.4366 57.4789C62.0374 59.2913 60.8992 65.5986 61.838 67.4653C63.2227 70.1731 66.601 71.6593 69.1819 69.7417C71.6831 67.8822 73.046 59.6285 71.8752 57.8197C70.1498 55.1627 65.4991 54.8219 63.4366 57.4789Z"/><path fill="#263238" d="M67.1518 61.9884C67.3476 61.9884 67.5143 61.9449 67.7209 61.9232C67.9247 61.9261 68.1241 61.8639 68.29 61.7456C68.3343 61.697 68.3615 61.6353 68.3674 61.5698C68.3732 61.5044 68.3575 61.4388 68.3226 61.3831C68.2379 61.2835 68.1278 61.2087 68.004 61.1666C67.8802 61.1244 67.7473 61.1166 67.6194 61.1438C67.3468 61.1543 67.088 61.2669 66.8945 61.4592C66.851 61.5058 66.8227 61.5645 66.8133 61.6275C66.8039 61.6905 66.8137 61.7548 66.8416 61.8121C66.8694 61.8694 66.914 61.9169 66.9694 61.9484C67.0247 61.9798 67.0884 61.9938 67.1518 61.9884Z"/><path fill="#263238" d="M71.4254 62.8322C71.2515 62.7534 71.0821 62.665 70.9179 62.5675C70.7265 62.5012 70.5623 62.3739 70.4503 62.2051C70.4217 62.1427 70.4159 62.0723 70.4337 62.0061C70.4516 61.9399 70.4921 61.8821 70.5482 61.8426C70.6609 61.7833 70.7873 61.7548 70.9146 61.7599C71.0418 61.7649 71.1655 61.8035 71.2732 61.8716C71.518 61.9787 71.7134 62.1741 71.8205 62.4189C71.8423 62.4749 71.8477 62.5359 71.836 62.5948C71.8244 62.6537 71.7961 62.708 71.7546 62.7514C71.7131 62.7949 71.6601 62.8255 71.6018 62.8398C71.5435 62.8541 71.4823 62.8514 71.4254 62.8322Z"/><path fill="#263238" d="M66.5647 66.8707C66.6445 66.9939 66.7134 67.1534 66.8656 67.2005C67.0222 67.2332 67.1839 67.2332 67.3405 67.2005C67.3405 67.2005 67.3658 67.2005 67.3405 67.2259C67.2613 67.2949 67.165 67.3414 67.0617 67.3605C66.9584 67.3796 66.8519 67.3707 66.7532 67.3346C66.6725 67.2922 66.6061 67.227 66.5623 67.147C66.5185 67.0671 66.4991 66.976 66.5068 66.8852C66.5048 66.8775 66.506 66.8693 66.5101 66.8625C66.5142 66.8557 66.5208 66.8508 66.5285 66.8489C66.5362 66.847 66.5443 66.8482 66.5511 66.8523C66.5579 66.8564 66.5628 66.863 66.5647 66.8707Z"/><path fill="#263238" d="M67.2969 65.7106C67.3657 65.9021 67.4733 66.0772 67.613 66.225C67.7528 66.3729 67.9216 66.4902 68.1088 66.5697C68.2716 66.6408 68.4437 66.6884 68.6199 66.7111C68.6537 66.7147 68.6877 66.7147 68.7214 66.7111H68.8157C68.839 66.7114 68.8619 66.7041 68.8808 66.6904C68.8998 66.6767 68.9138 66.6573 68.9208 66.635C68.9227 66.6205 68.9227 66.6059 68.9208 66.5915V66.5552C69.0041 66.2326 69.0839 65.7324 69.0839 65.7324C69.189 65.8194 69.7327 66.229 69.7617 66.0586C70.0573 64.5873 70.203 63.0899 70.1967 61.5892C70.1967 61.5786 70.1925 61.5685 70.185 61.561C70.1776 61.5535 70.1674 61.5493 70.1568 61.5493C70.1463 61.5493 70.1361 61.5535 70.1286 61.561C70.1212 61.5685 70.117 61.5786 70.117 61.5892C69.8379 62.9485 69.7944 64.3441 69.5334 65.7143C69.3413 65.5642 69.129 65.4422 68.9026 65.3518C68.8519 65.3518 68.7613 66.3232 68.7142 66.4646C68.4422 66.4317 68.1797 66.3437 67.9429 66.206C67.7061 66.0682 67.4998 65.8836 67.3367 65.6635C67.3186 65.6526 67.2787 65.6708 67.2969 65.7106Z"/><path fill="#263238" d="M70.349 64.0362C70.349 64.0362 70.3743 64.0652 70.3707 64.0833C70.233 64.4821 70.146 64.9642 70.4722 65.2106C70.4722 65.2106 70.4722 65.2396 70.4722 65.2324C70.0336 65.033 70.1569 64.3951 70.349 64.0362Z"/><path fill="#263238" d="M70.1751 64.569C70.1617 64.6866 70.1805 64.8057 70.2295 64.9134C70.2586 64.9726 70.2998 65.0252 70.3503 65.0676C70.4009 65.11 70.4597 65.1415 70.5231 65.1599C70.5857 65.1742 70.6506 65.1744 70.7133 65.1606C70.7759 65.1468 70.8348 65.1194 70.8856 65.0801C70.9749 65.0048 71.0467 64.9107 71.0958 64.8047C71.1226 64.7396 71.1456 64.673 71.1647 64.6053C71.2044 64.4662 71.2119 64.3199 71.1864 64.1776C71.1653 64.2801 71.1325 64.3798 71.0886 64.4748C71.0492 64.5616 71.0032 64.6452 70.9508 64.7249C70.8457 64.8844 70.7007 65.004 70.5594 64.9569C70.418 64.9098 70.3346 64.7648 70.3274 64.569C70.3221 64.3686 70.3379 64.1681 70.3745 63.9709C70.2617 64.1518 70.1934 64.3567 70.1751 64.569Z"/><path fill="#263238" d="M67.8806 63.4127C67.8806 63.4127 67.8443 63.4127 67.8407 63.4417C67.7682 63.8585 67.6123 64.3261 67.21 64.3841V64.4059C67.6776 64.4385 67.8769 63.8186 67.8806 63.4127Z"/><path fill="#263238" d="M67.7788 63.9636C67.7334 64.0739 67.6596 64.1702 67.5649 64.2427C67.5122 64.278 67.4531 64.3026 67.3909 64.315C67.3287 64.3275 67.2646 64.3275 67.2024 64.3152C67.1373 64.2994 67.0768 64.2685 67.0258 64.2251C66.9748 64.1816 66.9347 64.1268 66.9088 64.0651C66.8658 63.9557 66.8484 63.8379 66.8581 63.7207C66.8636 63.6511 66.8745 63.582 66.8907 63.5141C66.9238 63.373 66.9869 63.2408 67.0756 63.1262C67.0469 63.228 67.0287 63.3325 67.0212 63.438C67.0139 63.5321 67.0139 63.6266 67.0212 63.7207C67.0212 63.9128 67.1082 64.0832 67.2532 64.1122C67.3342 64.1245 67.4171 64.109 67.4882 64.0682C67.5593 64.0274 67.6144 63.9636 67.6446 63.8874C67.7433 63.7116 67.8258 63.5272 67.8911 63.3365C67.9045 63.5515 67.8659 63.7665 67.7788 63.9636Z"/><path fill="#263238" d="M61.8994 61.6764C62.193 62.608 62.8056 62.5536 62.8745 62.7639C62.9022 63.0259 62.8661 63.2908 62.7694 63.536C62.7694 63.6338 63.2334 63.9347 63.4726 63.6991C63.7781 62.9979 64.0443 62.2803 64.2701 61.5496C65.0313 59.3964 66.0607 58.4902 67.5324 58.6497C69.0838 58.8237 69.5116 59.6574 70.2655 59.777C71.2442 59.9329 71.2624 59.5233 71.7553 59.6393C72.0743 59.7154 72.2954 60.5455 72.2773 60.966C72.3607 59.5523 72.2447 58.3706 71.8786 57.8087C70.1532 55.1445 65.5025 54.8037 63.44 57.4716C62.8274 58.28 62.2619 59.9184 61.8994 61.6764Z"/><path fill="#D3766A" d="M63.1862 62.6515C63.1862 62.6515 62.5265 60.2482 61.4825 60.4186C60.4386 60.5889 60.4567 63.7353 61.3484 64.482C61.4562 64.5849 61.5836 64.665 61.723 64.7176C61.8623 64.7702 62.0109 64.7941 62.1597 64.788C62.3086 64.7819 62.4547 64.7459 62.5893 64.6821C62.724 64.6183 62.8444 64.5281 62.9434 64.4167L63.1862 62.6515Z"/><path fill="#263238" d="M61.5116 61.3213V61.3467C62.1278 61.894 62.2692 62.6951 62.2873 63.4781C62.2709 63.3914 62.2359 63.3093 62.1849 63.2374C62.1338 63.1655 62.0678 63.1055 61.9914 63.0614C61.915 63.0174 61.83 62.9903 61.7422 62.9822C61.6543 62.974 61.5658 62.9849 61.4826 63.0141C61.4608 63.0141 61.4826 63.0576 61.4826 63.0612C61.6232 63.065 61.759 63.1129 61.8709 63.1981C61.9828 63.2833 62.065 63.4015 62.106 63.5361C62.1773 63.7598 62.2234 63.9908 62.2438 64.2248C62.2438 64.3009 62.3815 64.3081 62.3815 64.2248V64.2067C62.715 63.2968 62.4613 61.7635 61.5116 61.3213Z"/><path fill="#DBDBDB" d="M72.2919 59.7014C72.2919 59.7014 67.4528 56.9465 62.5049 59.4114C62.5049 59.4114 63.5923 54.1119 68.3554 55.1957C72.6943 56.1853 72.2919 59.7014 72.2919 59.7014Z"/><path fill="#C7C7C7" d="M72.2702 59.0888C67.6521 56.9719 64.0635 58.1463 62.6934 58.777C62.7296 58.6683 62.7695 58.5523 62.8202 58.4146C64.3717 57.7621 67.8442 56.8124 72.2448 58.777C72.2484 58.8858 72.2629 58.9909 72.2702 59.0888Z"/><path fill="#C7C7C7" d="M72.1615 58.4608C67.8951 56.565 64.5168 57.4459 62.9653 58.0983C62.9653 58.0585 63.0016 58.0186 63.0233 57.9787C64.6219 57.3408 67.9531 56.5288 72.1325 58.363C72.1434 58.3883 72.1543 58.4246 72.1615 58.4608Z"/><path fill="#3EBB7F" d="M65.0422 74.1786C65.2721 73.5087 65.4586 72.8246 65.6004 72.1306C65.6004 72.0037 64.9298 72.1814 64.8138 72.1596C64.6978 72.1379 63.8387 74.117 63.8387 74.117C63.8387 74.117 64.2193 72.0327 64.0888 71.8696C63.9583 71.7065 60.5039 67.7591 60.1994 67.6539C59.8949 67.5488 59.4092 70.2421 59.4092 70.2421C59.4092 70.2421 60.0725 74.3961 62.9216 75.3857C64.5274 75.9657 65.0422 74.1786 65.0422 74.1786Z"/><path fill="#D3766A" d="M55.5451 75.4975C54.7838 82.2578 56.7884 96.159 59.2569 97.8156C59.9202 98.265 62.1133 99.5881 63.6393 99.4286C68.2138 98.9465 74.7603 93.0018 79.0231 88.4889C80.5238 86.9012 73.2596 80.0285 71.3457 81.3189C70.1966 82.0947 65.0312 87.2129 64.792 86.9048C63.5451 85.2736 60.2972 74.7073 59.6882 73.4132C57.8722 69.5781 55.9402 71.9778 55.5451 75.4975Z"/><path fill="#D3766A" d="M70.8674 82.1968C70.8674 82.1968 72.4189 78.4668 73.5462 76.0781C74.1733 74.7478 75.4565 72.5584 76.3663 71.7899C77.7292 70.6408 84.1561 66.7151 85.1456 68.2448C86.0373 69.6367 80.0709 72.3155 80.0709 72.3155C80.0709 72.3155 85.838 69.0785 86.5956 70.9526C87.3532 72.8266 80.2666 74.9616 80.2666 74.9616C80.2666 74.9616 86.2657 71.7718 86.7514 73.8271C87.1139 75.3857 80.7741 77.6802 80.7741 77.6802C80.7741 77.6802 85.9504 74.9725 86.3962 76.5566C86.8892 78.3037 81.1656 80.7904 81.1656 80.7904C81.6259 85.006 80.2159 87.1338 78.9581 88.5692C78.6499 88.9136 70.8674 82.1968 70.8674 82.1968Z"/><path fill="#263238" d="M78.0192 73.3052C78.6825 72.9029 79.3531 72.486 80.0491 72.1417C80.745 71.7973 81.4591 71.4783 82.1841 71.2028C83.1258 70.82 84.1086 70.5475 85.113 70.3909C83.3513 70.8005 80.8357 71.993 80.1397 72.3374C79.4437 72.6818 78.7296 72.9899 78.0337 73.3342C78.0155 73.3415 78.0047 73.3161 78.0192 73.3052Z"/><path fill="#263238" d="M79.219 75.8455C80.0853 75.367 80.9335 74.8559 81.8252 74.4173C82.7169 73.9787 83.5905 73.638 84.504 73.261C84.5765 73.232 84.5692 73.2791 84.504 73.3118C83.6086 73.725 82.8076 74.1745 81.9122 74.5986C81.0169 75.0227 80.0998 75.4105 79.2335 75.8673C79.2117 75.8745 79.2045 75.8528 79.219 75.8455Z"/><path fill="#263238" d="M79.8533 78.2092C81.1689 77.442 82.5596 76.8116 84.0037 76.328C84.0762 76.3026 84.0581 76.3642 84.0037 76.3932C82.6118 76.9949 81.5135 77.4553 79.8932 78.2564C79.8533 78.2672 79.8243 78.2274 79.8533 78.2092Z"/><path fill="#263238" d="M68.8591 97.2618C69.4319 96.8377 70.0227 96.4426 70.5954 96.0185C71.1682 95.5944 71.7373 95.1703 72.2991 94.7317C73.4257 93.8582 74.5051 92.9253 75.5325 91.9369C76.5639 90.9496 77.5404 89.9065 78.4577 88.8123C79.4001 87.7418 80.1373 86.5069 80.6326 85.1694C80.8776 84.4524 81.037 83.709 81.1075 82.9546C81.163 82.1959 81.1788 81.4349 81.1546 80.6746C81.1546 80.5586 81.8795 80.3121 82.0354 80.2505C82.3254 80.1164 82.6154 79.9859 82.8981 79.8372C83.4657 79.5476 84.0142 79.2219 84.5402 78.8622C85.0907 78.5126 85.5805 78.0755 85.9901 77.5681C86.2692 77.2056 86.5012 76.5024 85.9031 76.2885C85.5597 76.2088 85.2026 76.2088 84.8592 76.2885C84.4698 76.3281 84.0835 76.3935 83.7028 76.4843C83.6811 76.4843 83.663 76.4553 83.6847 76.4444C84.1994 76.1617 84.6997 75.8499 85.189 75.5309C85.4355 75.3714 85.6784 75.2047 85.914 75.0271C86.1641 74.8651 86.3777 74.6528 86.5411 74.4036C86.6033 74.3042 86.6439 74.1927 86.6602 74.0766C86.6764 73.9604 86.6679 73.8421 86.6353 73.7294C86.5803 73.6073 86.4959 73.5007 86.3896 73.4191C86.2833 73.3375 86.1586 73.2835 86.0264 73.2618C85.4925 73.1435 84.9361 73.1774 84.4205 73.3597C84.4205 73.3597 84.3988 73.3415 84.4205 73.3343L84.5402 73.2835C84.5386 73.2808 84.5377 73.2777 84.5377 73.2745C84.5377 73.2713 84.5386 73.2682 84.5402 73.2654C84.9568 73.0691 85.3496 72.8259 85.711 72.5405C86.0735 72.2686 86.5048 71.9279 86.581 71.453C86.5992 71.3483 86.5965 71.241 86.5732 71.1372C86.5499 71.0335 86.5064 70.9354 86.4451 70.8485C86.3838 70.7617 86.306 70.6877 86.2161 70.631C86.1262 70.5742 86.026 70.5358 85.9212 70.5178C85.6888 70.4702 85.4507 70.4567 85.2144 70.4779C84.9481 70.4985 84.683 70.5335 84.4205 70.583C84.7033 70.4888 84.9933 70.4236 85.2833 70.3547C85.5357 70.2907 85.7988 70.2809 86.0554 70.3257C86.2888 70.3556 86.5024 70.4727 86.653 70.6536C86.8036 70.8345 86.8802 71.0657 86.8673 71.3008C86.8292 71.5438 86.7396 71.7759 86.6046 71.9816C86.4695 72.1872 86.2922 72.3617 86.0843 72.4933C85.7194 72.7595 85.3269 72.9855 84.9135 73.1676C85.3063 73.0443 85.7233 73.0194 86.1279 73.0951C86.2544 73.1125 86.3759 73.1565 86.4843 73.2242C86.5927 73.2919 86.6855 73.3818 86.7567 73.4879C86.8279 73.594 86.8759 73.714 86.8975 73.8399C86.919 73.9659 86.9137 74.095 86.8818 74.2188C86.7259 74.8386 86.0844 75.2192 85.5841 75.5454C85.1239 75.847 84.6388 76.1089 84.1342 76.3284C84.6642 76.1143 85.2341 76.0166 85.8052 76.042C85.9382 76.0482 86.0679 76.0856 86.1837 76.1511C86.2996 76.2167 86.3984 76.3085 86.4722 76.4194C86.5459 76.5302 86.5926 76.6568 86.6083 76.789C86.6241 76.9212 86.6085 77.0552 86.5628 77.1802C86.3368 77.7903 85.9295 78.3165 85.3956 78.6882C84.8175 79.1435 84.2014 79.5485 83.5542 79.8989C83.1917 80.0946 82.8293 80.2613 82.4668 80.439C82.1317 80.5785 81.7893 80.6995 81.4409 80.8014C81.6854 82.1119 81.5981 83.4626 81.1872 84.7308C80.8112 86.0929 80.1707 87.3677 79.3023 88.4825C78.3924 89.6467 77.4015 90.7453 76.3372 91.7702C75.2997 92.7998 74.2032 93.7681 73.0531 94.6701C72.4079 95.1775 71.7518 95.6705 71.0594 96.12C70.3743 96.5723 69.6639 96.985 68.9316 97.3561C68.9191 97.3657 68.9033 97.3699 68.8877 97.3679C68.8721 97.3658 68.8579 97.3577 68.8483 97.3452C68.8387 97.3327 68.8344 97.3169 68.8364 97.3012C68.8385 97.2856 68.8466 97.2714 68.8591 97.2618Z"/><path fill="#263238" d="M82.2457 71.1735C82.6559 70.9779 83.0416 70.7345 83.3947 70.4485C83.7586 70.1916 84.105 69.9106 84.4314 69.6076C84.6997 69.3502 85.073 69.0421 85.1274 68.6506C85.2144 68.009 84.4822 67.8568 84.0001 67.9256C84.1993 67.8593 84.4135 67.852 84.6168 67.9048C84.82 67.9575 85.0037 68.068 85.1455 68.2229C85.4428 68.5853 85.218 69.053 84.9498 69.3756C84.5997 69.7747 84.2016 70.129 83.7645 70.4304C83.5412 70.6021 83.3049 70.756 83.0576 70.8907C82.8003 71.0176 82.5248 71.101 82.2638 71.2242C82.2571 71.2266 82.2497 71.2263 82.2432 71.2232C82.2367 71.2201 82.2318 71.2146 82.2294 71.2079C82.2269 71.2012 82.2273 71.1938 82.2304 71.1873C82.2334 71.1809 82.2389 71.1759 82.2457 71.1735Z"/><path fill="#3EBB7F" d="M64.8902 86.5973C65.1947 86.5393 66.3401 84.5348 67.7574 83.2624C68.4748 82.6595 69.3203 82.228 70.2296 82.001L76.7543 92.8537C76.3162 94.0597 75.508 95.0963 74.4452 95.8152C71.0814 97.9503 65.133 100.02 63.0343 99.6721C59.8734 99.1465 58.6845 97.9611 58.0755 96.7722C57.4665 95.5832 54.8639 85.5352 55.2082 77.8397C55.5526 70.1442 58.9273 69.6005 60.5368 75.2624C61.7023 79.1443 63.1575 82.9332 64.8902 86.5973Z"/><path fill="#263238" d="M64.9698 86.7641C64.6073 86.0899 64.3064 85.4011 63.9947 84.7088C63.6829 84.0164 63.3893 83.3205 63.0885 82.6245C62.7876 81.9285 62.5194 81.2181 62.2548 80.5076C61.9901 79.7971 61.7219 79.0867 61.5298 78.3508L62.4577 80.4279L63.3531 82.5194C63.6322 83.2226 63.9258 83.9222 64.1977 84.629C64.4695 85.3359 64.7269 86.0464 64.9698 86.7641Z"/><path fill="#263238" d="M55.0667 81.9974C55.3023 83.5234 55.5596 85.0459 55.8279 86.5647C56.0961 88.0835 56.368 89.5986 56.6761 91.1102C56.9842 92.6218 57.2959 94.1333 57.7635 95.5941C57.8707 95.957 58.0089 96.3099 58.1768 96.6489C58.3552 96.9777 58.5798 97.2792 58.8437 97.5443C59.3795 98.071 60.0057 98.4971 60.6924 98.8021C61.3843 99.1223 62.1156 99.349 62.8673 99.4763C63.2351 99.5487 63.6123 99.5597 63.9837 99.5089C64.3462 99.4618 64.7413 99.4002 65.1183 99.3313C66.6273 99.0408 68.1118 98.6348 69.5587 98.117C71.0129 97.6197 72.4093 96.9671 73.7237 96.1705C74.3773 95.7692 74.9851 95.2976 75.5361 94.764C76.097 94.2359 76.5116 93.5715 76.7395 92.8356L76.0689 91.6902L76.7721 92.8175C76.5605 93.5698 76.157 94.2543 75.6013 94.8039C75.0573 95.3579 74.4488 95.8447 73.7889 96.2538C72.4752 97.0775 71.0763 97.7569 69.6167 98.2801C68.1623 98.8152 66.6678 99.2346 65.1473 99.5343C64.7667 99.6068 64.3825 99.6684 63.9982 99.7192C63.603 99.775 63.2013 99.7652 62.8093 99.6902C62.0349 99.5648 61.2812 99.3343 60.5691 99.0051C59.8485 98.6813 59.1926 98.2293 58.6335 97.6712C58.3555 97.3866 58.1188 97.0645 57.9303 96.7142C57.7568 96.3646 57.6137 96.0008 57.5025 95.6267C57.0746 94.1396 56.7261 92.6308 56.4586 91.1066C55.904 88.1125 55.4581 85.0604 55.0667 81.9974Z"/><path fill="#263238" d="M54.9434 84.0851L55.1717 84.5854C55.2515 84.7485 55.3167 84.9189 55.382 85.0892C55.5128 85.4305 55.6193 85.7806 55.7009 86.1368C55.5014 85.8288 55.3372 85.4993 55.2116 85.1545C55.15 84.9805 55.0884 84.792 55.0412 84.6289C54.9864 84.4523 54.9535 84.2697 54.9434 84.0851Z"/><path fill="#263238" d="M72.774 92.6398C72.3716 91.9729 71.9837 91.2987 71.6031 90.6208C70.8492 89.2796 70.0952 87.9348 69.3811 86.5683C68.9824 85.7998 68.5982 85.0205 68.203 84.2484C68.2007 84.2396 68.2014 84.2303 68.205 84.222C68.2086 84.2137 68.2149 84.2069 68.223 84.2026C68.231 84.1984 68.2402 84.1971 68.2491 84.1988C68.258 84.2005 68.2661 84.2052 68.2719 84.2121C69.0621 85.5352 69.8705 86.851 70.6281 88.1994C71.3857 89.5479 72.1287 90.8891 72.8392 92.2556C73.2416 93.0241 73.5932 93.8252 74.0137 94.5828C74.0137 94.6081 73.9847 94.6299 73.9702 94.6045C73.5968 93.9339 73.1691 93.2923 72.774 92.6398Z"/><path fill="#263238" d="M70.2294 82.001C69.7986 82.1396 69.3803 82.3142 68.9788 82.523C68.5815 82.7229 68.2152 82.9793 67.8914 83.2842C67.2751 83.9222 66.7024 84.6399 66.1188 85.3286C65.5352 86.0173 64.9371 86.7097 64.3064 87.3767C63.7121 88.0678 63.0435 88.6914 62.3127 89.2362C62.6573 88.9412 62.9763 88.6174 63.2661 88.2684C63.5669 87.9313 63.8605 87.5869 64.1505 87.2389L65.8977 85.1546L66.7894 84.1252C67.0858 83.7754 67.4017 83.4426 67.7355 83.1284C68.4576 82.5469 69.3158 82.159 70.2294 82.001Z"/></g><defs><filter id="filter0_d_111_1058" width="160" height="164.321" x="0" y="0" color-interpolation-filters="sRGB" filterUnits="userSpaceOnUse"><feFlood flood-opacity="0" result="BackgroundImageFix"/><feColorMatrix in="SourceAlpha" result="hardAlpha" type="matrix" values="0 0 0 0 0 0 0 0 0 0 0 0 0 0 0 0 0 0 127 0"/><feOffset dy="4"/><feGaussianBlur stdDeviation="2"/><feComposite in2="hardAlpha" operator="out"/><feColorMatrix type="matrix" values="0 0 0 0 0 0 0 0 0 0 0 0 0 0 0 0 0 0 0.25 0"/><feBlend in2="BackgroundImageFix" mode="normal" result="effect1_dropShadow_111_1058"/><feBlend in="SourceGraphic" in2="effect1_dropShadow_111_1058" mode="normal" result="shape"/></filter></defs></svg>