<svg width="25" height="17" viewBox="0 0 25 17" fill="none" xmlns="http://www.w3.org/2000/svg">
<path d="M8.66786 5.61786C8.58492 5.53471 8.48639 5.46874 8.37792 5.42373C8.26944 5.37872 8.15316 5.35555 8.03571 5.35555C7.91827 5.35555 7.80198 5.37872 7.69351 5.42373C7.58504 5.46874 7.48651 5.53471 7.40357 5.61786L6.25 6.77321L5.09643 5.61786C5.01341 5.53484 4.91486 5.46899 4.8064 5.42407C4.69794 5.37914 4.58169 5.35601 4.46429 5.35601C4.34689 5.35601 4.23064 5.37914 4.12217 5.42407C4.01371 5.46899 3.91516 5.53484 3.83214 5.61786C3.74913 5.70087 3.68328 5.79942 3.63835 5.90789C3.59342 6.01635 3.5703 6.1326 3.5703 6.25C3.5703 6.3674 3.59342 6.48365 3.63835 6.59211C3.68328 6.70058 3.74913 6.79913 3.83214 6.88214L4.9875 8.03571L3.83214 9.18929C3.74913 9.2723 3.68328 9.37085 3.63835 9.47931C3.59342 9.58778 3.5703 9.70403 3.5703 9.82143C3.5703 9.93883 3.59342 10.0551 3.63835 10.1635C3.68328 10.272 3.74913 10.3706 3.83214 10.4536C3.9998 10.6212 4.22719 10.7154 4.46429 10.7154C4.58169 10.7154 4.69794 10.6923 4.8064 10.6474C4.91486 10.6024 5.01341 10.5366 5.09643 10.4536L6.25 9.29821L7.40357 10.4536C7.48659 10.5366 7.58514 10.6024 7.6936 10.6474C7.80206 10.6923 7.91831 10.7154 8.03571 10.7154C8.15311 10.7154 8.26936 10.6923 8.37783 10.6474C8.48629 10.6024 8.58484 10.5366 8.66786 10.4536C8.75087 10.3706 8.81672 10.272 8.86165 10.1635C8.90658 10.0551 8.9297 9.93883 8.9297 9.82143C8.9297 9.70403 8.90658 9.58778 8.86165 9.47931C8.81672 9.37085 8.75087 9.2723 8.66786 9.18929L7.5125 8.03571L8.66786 6.88214C8.75101 6.7992 8.81698 6.70068 8.86199 6.5922C8.907 6.48373 8.93017 6.36744 8.93017 6.25C8.93017 6.13256 8.907 6.01627 8.86199 5.9078C8.81698 5.79932 8.75101 5.7008 8.66786 5.61786ZM14.5464 5.61786C14.6294 5.53484 14.728 5.46899 14.8365 5.42407C14.9449 5.37914 15.0612 5.35601 15.1786 5.35601C15.296 5.35601 15.4122 5.37914 15.5207 5.42407C15.6291 5.46899 15.7277 5.53484 15.8107 5.61786C15.8937 5.70087 15.9596 5.79942 16.0045 5.90789C16.0494 6.01635 16.0726 6.1326 16.0726 6.25C16.0726 6.3674 16.0494 6.48365 16.0045 6.59211C15.9596 6.70058 15.8937 6.79913 15.8107 6.88214L14.6554 8.03571L15.8107 9.18929C15.9784 9.35694 16.0726 9.58433 16.0726 9.82143C16.0726 10.0585 15.9784 10.2859 15.8107 10.4536C15.6431 10.6212 15.4157 10.7154 15.1786 10.7154C14.9415 10.7154 14.7141 10.6212 14.5464 10.4536L13.3929 9.29821L12.2393 10.4536C12.1563 10.5366 12.0577 10.6024 11.9493 10.6474C11.8408 10.6923 11.7245 10.7154 11.6071 10.7154C11.4897 10.7154 11.3735 10.6923 11.265 10.6474C11.1566 10.6024 11.058 10.5366 10.975 10.4536C10.892 10.3706 10.8261 10.272 10.7812 10.1635C10.7363 10.0551 10.7132 9.93883 10.7132 9.82143C10.7132 9.70403 10.7363 9.58778 10.7812 9.47931C10.8261 9.37085 10.892 9.2723 10.975 9.18929L12.1304 8.03571L10.975 6.88214C10.892 6.79913 10.8261 6.70058 10.7812 6.59211C10.7363 6.48365 10.7132 6.3674 10.7132 6.25C10.7132 6.1326 10.7363 6.01635 10.7812 5.90789C10.8261 5.79942 10.892 5.70087 10.975 5.61786C11.058 5.53484 11.1566 5.46899 11.265 5.42407C11.3735 5.37914 11.4897 5.35601 11.6071 5.35601C11.7245 5.35601 11.8408 5.37914 11.9493 5.42407C12.0577 5.46899 12.1563 5.53484 12.2393 5.61786L13.3929 6.77321L14.5464 5.61786V5.61786ZM18.75 8.92857C18.5132 8.92857 18.2861 9.02264 18.1187 9.19008C17.9512 9.35753 17.8571 9.58463 17.8571 9.82143C17.8571 10.0582 17.9512 10.2853 18.1187 10.4528C18.2861 10.6202 18.5132 10.7143 18.75 10.7143H20.5357C20.7725 10.7143 20.9996 10.6202 21.1671 10.4528C21.3345 10.2853 21.4286 10.0582 21.4286 9.82143C21.4286 9.58463 21.3345 9.35753 21.1671 9.19008C20.9996 9.02264 20.7725 8.92857 20.5357 8.92857H18.75ZM4.46429 0C3.28028 0 2.14477 0.470343 1.30756 1.30756C0.470343 2.14477 0 3.28028 0 4.46429V11.6071C0 12.1934 0.115472 12.7739 0.339824 13.3156C0.564175 13.8572 0.893012 14.3493 1.30756 14.7639C2.14477 15.6011 3.28028 16.0714 4.46429 16.0714H20.5357C21.122 16.0714 21.7025 15.956 22.2441 15.7316C22.7858 15.5073 23.2779 15.1784 23.6924 14.7639C24.107 14.3493 24.4358 13.8572 24.6602 13.3156C24.8845 12.7739 25 12.1934 25 11.6071V4.46429C25 3.28028 24.5297 2.14477 23.6924 1.30756C22.8552 0.470343 21.7197 0 20.5357 0H4.46429ZM1.78571 4.46429C1.78571 3.75388 2.06792 3.07258 2.57025 2.57025C3.07258 2.06792 3.75388 1.78571 4.46429 1.78571H20.5357C21.2461 1.78571 21.9274 2.06792 22.4298 2.57025C22.9321 3.07258 23.2143 3.75388 23.2143 4.46429V11.6071C23.2143 12.3175 22.9321 12.9988 22.4298 13.5012C21.9274 14.0035 21.2461 14.2857 20.5357 14.2857H4.46429C3.75388 14.2857 3.07258 14.0035 2.57025 13.5012C2.06792 12.9988 1.78571 12.3175 1.78571 11.6071V4.46429Z" fill="white"/>
</svg>
