<svg xmlns="http://www.w3.org/2000/svg" width="160" height="158" fill="none" viewBox="0 0 160 158"><g filter="url(#filter0_d_111_801)"><path fill="#EBEBEB" d="M108.517 12.3969C109.339 7.22273 105.884 2.35037 100.8 1.51415C95.7157 0.677921 90.9283 4.1945 90.1066 9.36864C89.285 14.5428 92.7403 19.4151 97.8242 20.2514C102.908 21.0876 107.696 17.571 108.517 12.3969Z"/><path fill="#DBDBDB" d="M108.56 12.935C109.351 8.01295 106.072 3.3702 101.235 2.56507C96.3991 1.75995 91.8373 5.09733 91.0462 10.0193C90.2551 14.9413 93.5343 19.5841 98.3705 20.3892C103.207 21.1943 107.769 17.857 108.56 12.935Z"/><path fill="#fff" d="M103.46 19.1496C107.729 17.3743 109.776 12.4127 108.032 8.06774C106.287 3.72276 101.412 1.63967 97.143 3.41504C92.8738 5.19042 90.827 10.1519 92.5714 14.4969C94.3158 18.8419 99.1909 20.925 103.46 19.1496Z"/><path fill="#EBEBEB" d="M99.9138 3.6311H99.7012V4.9151H99.9138V3.6311Z"/><path fill="#EBEBEB" d="M96.0486 4.63819L95.8645 4.74634L96.4951 5.85842L96.6792 5.75027L96.0486 4.63819Z"/><path fill="#EBEBEB" d="M93.2874 7.06104L93.1812 7.24927L94.2788 7.89126L94.385 7.70303L93.2874 7.06104Z"/><path fill="#EBEBEB" d="M93.3617 11.3699H92.1001V11.5863H93.3617V11.3699Z"/><path fill="#EBEBEB" d="M94.1743 14.6708L93.0818 15.313L93.1881 15.5003L94.2806 14.8582L94.1743 14.6708Z"/><path fill="#EBEBEB" d="M96.4925 17.1038L95.8623 18.2161L96.0465 18.3242L96.6767 17.2119L96.4925 17.1038Z"/><path fill="#EBEBEB" d="M99.9138 18.0416H99.7012V19.3256H99.9138V18.0416Z"/><path fill="#EBEBEB" d="M103.128 17.1167L102.944 17.2249L103.574 18.3369L103.759 18.2287L103.128 17.1167Z"/><path fill="#EBEBEB" d="M105.443 14.6662L105.336 14.8536L106.426 15.4938L106.532 15.3064L105.443 14.6662Z"/><path fill="#EBEBEB" d="M107.518 11.3699H106.257V11.5863H107.518V11.3699Z"/><path fill="#EBEBEB" d="M106.428 7.4589L105.338 8.09912L105.444 8.2865L106.534 7.64627L106.428 7.4589Z"/><path fill="#EBEBEB" d="M103.578 4.63403L102.948 5.74634L103.132 5.85442L103.762 4.74212L103.578 4.63403Z"/><path fill="#EBEBEB" d="M101.039 8.76296L97.3926 16.0596L97.5821 16.1577L101.229 8.86105L101.039 8.76296Z"/><path fill="#DBDBDB" d="M99.3828 8.56958L99.106 8.62598L100.661 16.5313L100.938 16.4749L99.3828 8.56958Z"/><path fill="#EBEBEB" d="M72.4963 72.5336H12.6638V2.21191H72.4963V72.5336ZM14.0544 71.1148H71.1023V3.63069H14.0579L14.0544 71.1148Z"/><path fill="#EBEBEB" d="M42.7334 4.00278H41.3394V71.8238H42.7334V4.00278Z"/><path fill="#EBEBEB" d="M73.7649 5.08124H11.3987V7.05689H73.7649V5.08124Z"/><path fill="#EBEBEB" d="M73.7649 7.30493H11.3987V9.28058H73.7649V7.30493Z"/><path fill="#EBEBEB" d="M73.7649 9.52542H11.3987V11.5011H73.7649V9.52542Z"/><path fill="#EBEBEB" d="M73.7649 11.7495H11.3987V13.7251H73.7649V11.7495Z"/><path fill="#EBEBEB" d="M73.7649 13.9736H11.3987V15.9493H73.7649V13.9736Z"/><path fill="#EBEBEB" d="M73.7649 16.1937H11.3987V18.1693H73.7649V16.1937Z"/><path fill="#EBEBEB" d="M73.7649 18.4177H11.3987V20.3934H73.7649V18.4177Z"/><path fill="#EBEBEB" d="M73.7649 20.6421H11.3987V22.6177H73.7649V20.6421Z"/><path fill="#EBEBEB" d="M73.7649 22.8617H11.3987V24.8373H73.7649V22.8617Z"/><path fill="#263238" d="M69.6246 4.6806H69.2761V50.2198H69.6246V4.6806Z"/><path fill="#263238" d="M70.0673 51.8722H68.8301L69.1403 50.0633H69.7571L70.0673 51.8722Z"/><path fill="#263238" d="M70.8795 4.6806H70.531V70.558H70.8795V4.6806Z"/><path fill="#263238" d="M71.3221 71.888H70.0884L70.3951 70.0791H71.0154L71.3221 71.888Z"/><path fill="#DBDBDB" d="M75.9258 1.9353H9.23462V6.06749H75.9258V1.9353Z"/><path fill="#EBEBEB" d="M153.519 18.2081H115.921V66.3933H153.519V18.2081Z"/><path fill="#DBDBDB" d="M148.733 28.1641H120.577V29.0756H148.733V28.1641Z"/><path fill="#DBDBDB" d="M144.419 30.0728H120.577V30.9844H144.419V30.0728Z"/><path fill="#DBDBDB" d="M138.759 31.9775H120.577V32.8891H138.759V31.9775Z"/><path fill="#DBDBDB" d="M147.751 33.8865H120.577V34.798H147.751V33.8865Z"/><path fill="#DBDBDB" d="M145.44 35.7903H120.577V36.7018H145.44V35.7903Z"/><path fill="#DBDBDB" d="M146.377 39.6037H120.577V40.5153H146.377V39.6037Z"/><path fill="#DBDBDB" d="M130.461 41.5125H120.577V42.424H130.461V41.5125Z"/><path fill="#DBDBDB" d="M140.509 43.4163H120.577V44.3278H140.509V43.4163Z"/><path fill="#DBDBDB" d="M147.751 45.3245H120.577V46.2361H147.751V45.3245Z"/><path fill="#DBDBDB" d="M144.008 47.2299H120.577V48.1415H144.008V47.2299Z"/><path fill="#DBDBDB" d="M145.966 51.0422H120.577V51.9538H145.966V51.0422Z"/><path fill="#DBDBDB" d="M135.947 52.9505H120.577V53.8621H135.947V52.9505Z"/><path fill="#DBDBDB" d="M135.947 58.7214H120.577V59.633H135.947V58.7214Z"/><path fill="#3EBB7F" d="M146.36 62.5306C147.933 62.5306 149.207 61.2332 149.207 59.6327C149.207 58.0323 147.933 56.7349 146.36 56.7349C144.787 56.7349 143.513 58.0323 143.513 59.6327C143.513 61.2332 144.787 62.5306 146.36 62.5306Z"/><path fill="#A6A6A6" d="M124.773 21.9224C125.115 21.9225 125.447 22.0386 125.717 22.2522C125.729 22.2606 125.738 22.2711 125.745 22.2833C125.752 22.2954 125.756 22.3089 125.758 22.3229C125.759 22.3368 125.758 22.351 125.754 22.3645C125.75 22.3779 125.744 22.3904 125.735 22.4012C125.727 22.4123 125.717 22.4216 125.705 22.4287C125.694 22.4358 125.681 22.4404 125.668 22.4424C125.654 22.4444 125.641 22.4436 125.628 22.4402C125.615 22.4368 125.603 22.4308 125.592 22.4225C125.359 22.234 125.07 22.1314 124.773 22.1316C124.434 22.1316 124.108 22.2688 123.869 22.5129C123.629 22.757 123.494 23.0881 123.494 23.4334C123.494 23.7786 123.629 24.1097 123.869 24.3538C124.108 24.5979 124.434 24.7351 124.773 24.7351C125.068 24.7396 125.356 24.6379 125.585 24.4478C125.596 24.4386 125.608 24.4318 125.622 24.428C125.636 24.4242 125.65 24.4235 125.664 24.4259C125.678 24.4282 125.691 24.4336 125.703 24.4417C125.714 24.4498 125.724 24.4603 125.731 24.4726C125.742 24.4819 125.75 24.4934 125.756 24.5062C125.761 24.5191 125.764 24.533 125.764 24.5471C125.764 24.5612 125.761 24.5751 125.756 24.588C125.75 24.6008 125.742 24.6123 125.731 24.6216C125.46 24.8317 125.128 24.9451 124.787 24.9444C124.592 24.9444 124.399 24.9053 124.219 24.8293C124.039 24.7534 123.875 24.6421 123.737 24.5018C123.599 24.3615 123.49 24.1949 123.415 24.0116C123.341 23.8283 123.302 23.6318 123.302 23.4334C123.302 23.2349 123.341 23.0384 123.415 22.8551C123.49 22.6718 123.599 22.5052 123.737 22.3649C123.875 22.2246 124.039 22.1133 124.219 22.0374C124.399 21.9614 124.592 21.9224 124.787 21.9224H124.773Z"/><path fill="#A6A6A6" d="M127.795 21.922C128.092 21.9064 128.387 21.9819 128.641 22.1387C128.896 22.2955 129.099 22.5264 129.223 22.8016C129.348 23.0769 129.388 23.3837 129.339 23.6826C129.29 23.9814 129.155 24.2585 128.95 24.4781C128.745 24.6976 128.48 24.8495 128.189 24.9142C127.898 24.9788 127.595 24.9532 127.318 24.8407C127.042 24.7282 126.805 24.5339 126.638 24.2829C126.472 24.032 126.383 23.7359 126.383 23.433C126.377 23.2391 126.409 23.046 126.477 22.8648C126.545 22.6836 126.647 22.5179 126.779 22.3773C126.91 22.2367 127.067 22.1241 127.242 22.0459C127.416 21.9678 127.604 21.9257 127.795 21.922ZM127.795 24.7347C128.05 24.7496 128.304 24.6861 128.524 24.5525C128.744 24.4188 128.919 24.2211 129.027 23.9849C129.135 23.7488 129.171 23.485 129.13 23.2278C129.09 22.9706 128.974 22.7317 128.798 22.5422C128.623 22.3526 128.395 22.221 128.145 22.1644C127.895 22.1079 127.635 22.1289 127.397 22.2249C127.159 22.3208 126.954 22.4873 126.81 22.7027C126.666 22.918 126.589 23.1725 126.589 23.433C126.579 23.7683 126.701 24.0936 126.927 24.3377C127.153 24.5817 127.465 24.7245 127.795 24.7347Z"/><path fill="#A6A6A6" d="M130.171 22.4043V24.8411C130.174 24.8559 130.174 24.8712 130.17 24.8859C130.166 24.9005 130.159 24.9141 130.15 24.9258C130.14 24.9374 130.129 24.9468 130.115 24.9532C130.102 24.9596 130.087 24.963 130.072 24.963C130.057 24.963 130.043 24.9596 130.029 24.9532C130.016 24.9468 130.004 24.9374 129.994 24.9258C129.985 24.9141 129.978 24.9005 129.974 24.8859C129.971 24.8712 129.97 24.8559 129.973 24.8411V22.1099C129.966 22.0897 129.965 22.0677 129.972 22.0473C129.978 22.0268 129.991 22.009 130.008 21.9964C130.03 21.981 130.057 21.9749 130.084 21.9795C130.111 21.9842 130.135 21.9991 130.151 22.0213L131.924 24.5041V22.0816C131.924 22.0549 131.935 22.0292 131.953 22.01C131.971 21.9909 131.996 21.9796 132.022 21.9787C132.036 21.9782 132.049 21.9805 132.062 21.9855C132.075 21.9904 132.086 21.9979 132.096 22.0075C132.106 22.0171 132.113 22.0286 132.119 22.0414C132.124 22.0541 132.127 22.0677 132.127 22.0816V24.8233C132.127 24.8371 132.124 24.8508 132.119 24.8635C132.113 24.8763 132.106 24.8878 132.096 24.8974C132.086 24.907 132.075 24.9145 132.062 24.9194C132.049 24.9244 132.036 24.9267 132.022 24.9262C132.007 24.9261 131.993 24.9225 131.979 24.9157C131.966 24.909 131.954 24.8992 131.945 24.8872C131.941 24.8858 131.938 24.8835 131.935 24.8804C131.932 24.8773 131.929 24.8736 131.928 24.8694L130.171 22.4043Z"/><path fill="#A6A6A6" d="M133.897 22.1739H133.015C132.988 22.1729 132.963 22.1613 132.944 22.1415C132.925 22.1216 132.914 22.0951 132.914 22.0675C132.915 22.0405 132.926 22.0148 132.945 21.9957C132.964 21.9766 132.989 21.9655 133.015 21.9646H134.981C135.008 21.9655 135.033 21.9766 135.051 21.9957C135.07 22.0148 135.081 22.0405 135.082 22.0675C135.082 22.0951 135.072 22.1216 135.053 22.1415C135.034 22.1613 135.008 22.1729 134.981 22.1739H134.099V24.8412C134.099 24.8685 134.089 24.8946 134.07 24.9139C134.051 24.9332 134.025 24.944 133.998 24.944C133.971 24.944 133.946 24.9332 133.927 24.9139C133.908 24.8946 133.897 24.8685 133.897 24.8412V22.1739Z"/><path fill="#A6A6A6" d="M137.32 24.2702C137.32 24.181 137.298 24.0932 137.257 24.0145C137.216 23.9359 137.156 23.869 137.083 23.8197C136.977 23.7483 136.858 23.6977 136.734 23.6707H136.713H136.016V24.8483C136.012 24.8728 135.999 24.8949 135.98 24.9108C135.961 24.9267 135.938 24.9354 135.913 24.9354C135.889 24.9354 135.865 24.9267 135.846 24.9108C135.828 24.8949 135.815 24.8728 135.811 24.8483V22.0746C135.812 22.0495 135.822 22.0256 135.838 22.0069C135.854 21.9882 135.877 21.9758 135.901 21.9717H136.738C136.927 21.9737 137.11 22.041 137.257 22.1626C137.404 22.2842 137.506 22.4528 137.546 22.641C137.586 22.8292 137.563 23.0258 137.479 23.1986C137.396 23.3715 137.257 23.5104 137.086 23.5927C137.099 23.6019 137.113 23.609 137.128 23.614C137.246 23.6786 137.345 23.7743 137.414 23.8909C137.483 24.0076 137.52 24.141 137.522 24.2773C137.516 24.3966 137.527 24.5162 137.557 24.6319C137.564 24.6589 137.579 24.6833 137.598 24.7029C137.622 24.7001 137.646 24.7051 137.667 24.7173C137.688 24.7294 137.704 24.748 137.713 24.7703C137.72 24.7976 137.717 24.8263 137.705 24.8516C137.693 24.8768 137.672 24.897 137.647 24.9086H137.588C137.547 24.9046 137.509 24.8897 137.475 24.8654C137.442 24.8411 137.416 24.8083 137.4 24.7703C137.332 24.6132 137.304 24.4411 137.32 24.2702ZM136.734 22.1739H136.013V23.4579H136.752C136.919 23.4556 137.078 23.3857 137.195 23.2636C137.312 23.1415 137.376 22.9773 137.374 22.807C137.371 22.6368 137.303 22.4744 137.183 22.3557C137.063 22.237 136.901 22.1716 136.734 22.1739Z"/><path fill="#A6A6A6" d="M140.066 24.1743H138.731L138.473 24.8837C138.466 24.9033 138.453 24.9203 138.436 24.9323C138.419 24.9444 138.399 24.9509 138.379 24.9511H138.341C138.315 24.9401 138.295 24.9196 138.284 24.8939C138.273 24.8682 138.272 24.8392 138.281 24.8128L139.295 22.0532C139.305 22.034 139.319 22.0178 139.337 22.0065C139.355 21.9952 139.375 21.9892 139.397 21.9894C139.418 21.9883 139.439 21.9939 139.457 22.0053C139.475 22.0167 139.489 22.0334 139.498 22.0532L140.512 24.8128C140.522 24.8383 140.522 24.8666 140.512 24.8922C140.502 24.9178 140.484 24.9388 140.459 24.9511H140.421C140.4 24.9507 140.38 24.9441 140.363 24.9321C140.345 24.9202 140.332 24.9033 140.324 24.8837L140.066 24.1743ZM138.808 23.965H139.992L139.4 22.3654L138.808 23.965Z"/><path fill="#A6A6A6" d="M142.39 21.9224C142.732 21.9225 143.065 22.0386 143.335 22.2522C143.346 22.2606 143.355 22.2711 143.362 22.2833C143.369 22.2954 143.374 22.3089 143.375 22.3229C143.377 22.3368 143.376 22.351 143.372 22.3645C143.368 22.3779 143.361 22.3904 143.352 22.4012C143.344 22.4123 143.334 22.4216 143.323 22.4287C143.311 22.4358 143.299 22.4404 143.285 22.4424C143.272 22.4444 143.258 22.4436 143.245 22.4402C143.232 22.4368 143.22 22.4308 143.209 22.4225C142.977 22.234 142.688 22.1314 142.39 22.1316C142.051 22.1316 141.726 22.2688 141.486 22.5129C141.246 22.757 141.111 23.0881 141.111 23.4334C141.111 23.7786 141.246 24.1097 141.486 24.3538C141.726 24.5979 142.051 24.7351 142.39 24.7351C142.686 24.7396 142.973 24.6379 143.202 24.4478C143.213 24.4386 143.226 24.4318 143.239 24.428C143.253 24.4242 143.267 24.4235 143.281 24.4259C143.295 24.4282 143.308 24.4336 143.32 24.4417C143.332 24.4498 143.342 24.4603 143.349 24.4726C143.359 24.4819 143.368 24.4934 143.373 24.5062C143.379 24.5191 143.382 24.533 143.382 24.5471C143.382 24.5612 143.379 24.5751 143.373 24.588C143.368 24.6008 143.359 24.6123 143.349 24.6216C143.077 24.8317 142.745 24.9451 142.404 24.9444C142.209 24.9444 142.016 24.9053 141.836 24.8293C141.656 24.7534 141.492 24.6421 141.355 24.5018C141.217 24.3615 141.107 24.1949 141.033 24.0116C140.958 23.8283 140.92 23.6318 140.92 23.4334C140.92 23.2349 140.958 23.0384 141.033 22.8551C141.107 22.6718 141.217 22.5052 141.355 22.3649C141.492 22.2246 141.656 22.1133 141.836 22.0374C142.016 21.9614 142.209 21.9224 142.404 21.9224H142.39Z"/><path fill="#A6A6A6" d="M144.987 22.1739H144.105C144.078 22.1729 144.052 22.1613 144.033 22.1415C144.014 22.1216 144.004 22.0951 144.004 22.0675C144.005 22.0405 144.016 22.0148 144.034 21.9957C144.053 21.9766 144.078 21.9655 144.105 21.9646H146.071C146.097 21.9655 146.122 21.9766 146.141 21.9957C146.16 22.0148 146.171 22.0405 146.172 22.0675C146.172 22.0813 146.17 22.095 146.165 22.1079C146.16 22.1208 146.153 22.1326 146.143 22.1425C146.134 22.1524 146.123 22.1603 146.11 22.1657C146.098 22.1711 146.084 22.1739 146.071 22.1739H145.189V24.8412C145.189 24.8685 145.178 24.8946 145.159 24.9139C145.14 24.9332 145.115 24.944 145.088 24.944C145.061 24.944 145.035 24.9332 145.016 24.9139C144.997 24.8946 144.987 24.8685 144.987 24.8412V22.1739Z"/><path fill="#EBEBEB" d="M82.9483 112.018H151.992L153.428 83.1885H81.5125L82.9483 112.018Z"/><path fill="#DBDBDB" d="M148.719 96.3872H119.852L119.312 86.3777H149.35L148.719 96.3872ZM120.183 96.0325H148.392L148.977 86.7324H119.681L120.183 96.0325Z"/><path fill="#DBDBDB" d="M148.186 107.9H120.985L120.542 98.8658H148.74L148.186 107.9ZM121.316 107.545H147.859L148.371 99.2205H120.908L121.316 107.545Z"/><path fill="#DBDBDB" d="M137.065 92.46H132.214L131.911 90.0446H137.372L137.065 92.46ZM132.534 92.1053H136.772L136.988 90.3992H132.318L132.534 92.1053Z"/><path fill="#DBDBDB" d="M137.065 104.591H132.214L131.911 102.175H137.372L137.065 104.591ZM132.534 104.236H136.772L136.988 102.53H132.318L132.534 104.236Z"/><path fill="#DBDBDB" d="M114.767 96.3872H85.9001L85.3599 86.3777H115.398L114.767 96.3872ZM86.2311 96.0325H114.44L115.015 86.7324H85.7397L86.2311 96.0325Z"/><path fill="#DBDBDB" d="M114.234 107.9H87.0327L86.5901 98.8658H114.788L114.234 107.9ZM87.3638 107.545H113.906L114.419 99.2205H86.956L87.3638 107.545Z"/><path fill="#DBDBDB" d="M103.113 92.46H98.2617L97.9585 90.0446H103.42L103.113 92.46ZM98.5823 92.1053H102.817L103.033 90.3992H98.3628L98.5823 92.1053Z"/><path fill="#DBDBDB" d="M103.113 104.591H98.2617L97.9585 102.175H103.42L103.113 104.591ZM98.5823 104.236H102.817L103.033 102.53H98.3628L98.5823 104.236Z"/><path fill="#EBEBEB" d="M89.1413 112.018L88.7056 115.16L87.8344 121.47H86.1301V112.018H89.1413Z"/><path fill="#DBDBDB" d="M89.1413 112.018L88.7056 115.16H86.1301V112.018H89.1413Z"/><path fill="#EBEBEB" d="M145.799 112.018L146.231 115.16L147.106 121.47H148.81V112.018H145.799Z"/><path fill="#DBDBDB" d="M145.799 112.018L146.231 115.16H148.81V112.018H145.799Z"/><path fill="#EBEBEB" d="M80.5124 149.888C115.243 149.888 143.398 146.155 143.398 141.55C143.398 136.944 115.243 133.211 80.5124 133.211C45.7817 133.211 17.627 136.944 17.627 141.55C17.627 146.155 45.7817 149.888 80.5124 149.888Z"/><path fill="#EBEBEB" d="M22.8266 132.423C33.2243 132.423 41.6532 130.368 41.6532 127.834C41.6532 125.299 33.2243 123.244 22.8266 123.244C12.429 123.244 4 125.299 4 127.834C4 130.368 12.429 132.423 22.8266 132.423Z"/><path fill="#263238" d="M5.02466 121.471L23.8966 121.386L42.7685 121.354L80.5123 121.297L118.256 121.354L137.128 121.386L156 121.471L137.128 121.56L118.256 121.591L80.5123 121.648L42.7685 121.591L23.8966 121.56L5.02466 121.471Z"/><path fill="#3EBB7F" d="M23.3808 60.0445C23.3808 60.0445 14.0094 58.7108 16.198 47.1939C16.198 47.1939 26.6708 49.5881 23.3808 60.0445Z"/><path fill="#000" d="M23.3808 60.0445C23.3808 60.0445 14.0094 58.7108 16.198 47.1939C16.198 47.1939 26.6708 49.5881 23.3808 60.0445Z" opacity=".1"/><path fill="#263238" d="M22.9068 57.6396C22.7238 57.0576 22.5109 56.4857 22.2691 55.9264C22.2691 55.8519 22.2691 55.7774 22.2447 55.7065C22.2447 55.5469 22.2168 55.3908 22.2063 55.2312C22.1785 54.8765 22.1575 54.5431 22.1366 54.199C22.0983 53.5109 22.0565 52.8228 22.046 52.1347C22.046 52.0957 21.9868 52.0992 21.9868 52.1347C21.9868 52.8264 21.9868 53.5145 21.9868 54.2026C21.9868 54.5573 22.0216 54.8907 22.0425 55.2347C22.0425 55.3128 22.0425 55.3873 22.0425 55.4653C21.5158 54.3184 20.8858 53.2236 20.1606 52.195C19.855 51.7366 19.5258 51.295 19.1743 50.872C18.8014 50.4357 18.4076 50.0207 18.0277 49.5916C18.0033 49.5632 17.9649 49.5916 17.9893 49.6341C18.6623 50.3917 19.2665 51.2096 19.7946 52.078C20.0804 52.5142 20.3488 52.9647 20.6067 53.4223L20.5195 53.3903L20.171 53.252L19.4043 52.9576C18.9024 52.7661 18.4006 52.5816 17.8987 52.3866C17.8674 52.3866 17.8465 52.4291 17.8778 52.4398C18.3762 52.6419 18.8676 52.8547 19.3625 53.0711L20.0874 53.3903L20.4533 53.5429C20.5318 53.5829 20.615 53.6127 20.7008 53.6315C20.889 53.9862 21.0772 54.3232 21.2514 54.6779C21.6861 55.5701 22.0678 56.4881 22.3945 57.4268C22.4189 57.4906 22.4398 57.558 22.4642 57.6254C22.2167 57.4804 21.9593 57.3536 21.694 57.2459L20.7252 56.799C20.0665 56.4904 19.4148 56.1782 18.784 55.8164C18.7775 55.8127 18.7698 55.8117 18.7626 55.8137C18.7554 55.8157 18.7493 55.8205 18.7456 55.8271C18.7419 55.8337 18.7409 55.8415 18.7429 55.8488C18.7449 55.8561 18.7496 55.8623 18.7561 55.8661C19.4008 56.2208 20.0316 56.6074 20.6764 56.9621C21.0005 57.1395 21.3246 57.3168 21.6557 57.4764C21.9281 57.6412 22.2246 57.7609 22.5339 57.8311C22.8484 58.7039 23.0556 59.6129 23.1508 60.5374C23.2554 61.8392 23.2449 63.1515 23.2763 64.4568H23.3076C23.4017 63.2721 23.454 62.0768 23.461 60.8886C23.4473 59.7825 23.2602 58.6857 22.9068 57.6396Z"/><path fill="#263238" d="M21.464 50.8692C21.3735 51.5425 21.342 52.2226 21.3699 52.9016C21.3699 52.9193 21.3978 52.9193 21.3978 52.9016C21.4361 52.2277 21.4431 51.5537 21.5198 50.8834C21.5233 50.8479 21.4675 50.8337 21.464 50.8692Z"/><path fill="#263238" d="M18.7841 51.4464C18.3651 51.2829 17.9615 51.0811 17.5783 50.8434C17.5469 50.8222 17.519 50.8754 17.5504 50.8931C17.9258 51.151 18.3369 51.3507 18.7702 51.4854C18.7911 51.4925 18.8259 51.4571 18.7841 51.4464Z"/><path fill="#263238" d="M23.6807 78.3255C23.6807 77.2614 23.6529 76.2186 23.6424 75.1652C23.6215 71.6643 23.5936 68.1635 23.5309 64.6627C23.4821 61.8819 23.4182 59.1034 23.3392 56.3274C23.339 56.3201 23.3369 56.3131 23.3333 56.3069C23.3296 56.3007 23.3244 56.2955 23.3183 56.2919C23.3183 55.5329 23.3183 54.7738 23.3183 54.0148C23.3183 53.9935 23.2974 53.9864 23.273 53.9864C23.2486 53.9864 23.2277 53.9864 23.2312 54.0148C23.2312 54.7762 23.2312 55.5364 23.2312 56.2954C23.2312 56.2954 23.2068 56.3132 23.2068 56.3274C23.0708 61.2931 22.9489 66.2198 22.9175 71.1678C22.9175 72.1751 22.9175 73.1789 22.9175 74.1862C22.8826 77.4092 22.8699 80.6346 22.8792 83.8623C22.8792 84.373 22.8792 84.8873 22.8792 85.4016C22.8792 88.3527 22.9105 91.3038 22.9105 94.269C22.9105 94.4251 23.0848 94.5066 23.259 94.5137C23.4333 94.5208 23.6947 94.4357 23.6947 94.2548C23.6947 91.0023 23.7156 87.7462 23.7156 84.4936C23.7051 82.4293 23.7051 80.3756 23.6807 78.3255Z"/><path fill="#3EBB7F" d="M19.7669 75.1229C19.7669 75.1229 15.2572 71.7249 10.9809 74.0163C6.70468 76.3076 6.02856 85.1678 6.02856 85.1678C6.02856 85.1678 12.3018 86.083 16.2678 82.2487C20.0806 78.5599 19.7669 75.1229 19.7669 75.1229Z"/><path fill="#263238" d="M20.9935 75.3318C20.1656 74.9959 19.2687 74.874 18.3832 74.9771C18.2013 74.9441 18.0172 74.9252 17.8325 74.9203L17.1948 74.8707L15.8809 74.7784C14.9922 74.711 14.1 74.6543 13.2113 74.5621C13.2051 74.5643 13.1998 74.5683 13.196 74.5737C13.1922 74.5791 13.1902 74.5856 13.1902 74.5922C13.1902 74.5988 13.1922 74.6053 13.196 74.6107C13.1998 74.6161 13.2051 74.6202 13.2113 74.6224C14.0895 74.7359 14.9538 74.8636 15.8425 74.9522C16.2956 74.9983 16.7487 75.048 17.2052 75.0799L17.5328 75.1118C17.4004 75.1438 17.2645 75.1757 17.132 75.2147C16.4247 75.4243 15.7404 75.7072 15.0898 76.0589C14.7412 76.1227 14.3927 76.2256 14.0442 76.3072C13.4866 76.4419 12.9325 76.5874 12.3783 76.7364C11.284 77.0272 10.2001 77.3571 9.11278 77.6798C9.07792 77.6798 9.09535 77.7437 9.11278 77.733C10.1966 77.4635 11.291 77.2152 12.3783 76.9527L13.9606 76.5661L14.3753 76.4668C13.1657 77.2325 12.0843 78.1905 11.1725 79.3043C10.2949 80.4036 9.54853 81.605 8.94897 82.8832C8.94897 82.9151 8.97686 82.947 8.99777 82.9151C9.73994 81.6086 10.6455 80.4056 11.6918 79.3363C11.6709 79.3966 11.6534 79.4604 11.6325 79.5207L11.3816 80.3294C11.2143 80.8721 11.0331 81.4112 10.8867 81.9539C10.8867 81.9894 10.932 82 10.9425 81.9539C11.1341 81.429 11.3154 80.8898 11.4966 80.3755C11.5837 80.1166 11.6743 79.8612 11.7615 79.6023C11.8103 79.4675 11.8556 79.3327 11.8974 79.1979C11.8974 79.1589 11.9288 79.1163 11.9427 79.0738C12.4451 78.5773 12.9783 78.1141 13.5389 77.6869C14.2833 77.1327 15.0864 76.6651 15.9332 76.293C15.9332 76.371 15.9053 76.4526 15.8878 76.5271C15.8425 76.7363 15.7972 76.9456 15.7554 77.1549C15.6683 77.5876 15.5846 78.0239 15.501 78.4602C15.3302 79.3469 15.2257 80.2336 15.0619 81.1346C15.0619 81.1736 15.1107 81.1878 15.1176 81.1346C15.3198 80.2407 15.5812 79.3611 15.7763 78.4672C15.8739 78.0203 15.9715 77.5734 16.0656 77.1265L16.1911 76.4951C16.212 76.3781 16.2398 76.2611 16.2538 76.1405L16.4977 76.0376C17.6792 75.5907 18.9861 75.2679 20.2477 75.5162C20.8445 75.6287 21.4047 75.8896 21.8783 76.2758C22.352 76.662 22.7245 77.1613 22.9626 77.7295C23.0045 77.8288 23.1578 77.765 23.1334 77.6621C22.8894 76.5767 21.9868 75.7574 20.9935 75.3318Z"/><path fill="#263238" d="M14.093 79.1135C13.9675 79.6952 13.8385 80.2769 13.7131 80.8586C13.5707 81.4158 13.4659 81.9823 13.3994 82.554C13.3994 82.5789 13.4273 82.5789 13.4343 82.554C13.6002 81.9949 13.7283 81.4249 13.8176 80.848C13.9292 80.2734 14.0407 79.6987 14.1487 79.1241C14.1557 79.0922 14.0999 79.078 14.093 79.1135Z"/><path fill="#263238" d="M9.73316 80.5924C9.15811 80.8868 8.60398 81.2238 7.9906 81.4685C7.98716 81.4699 7.98404 81.472 7.98139 81.4746C7.97874 81.4773 7.97663 81.4804 7.97518 81.4839C7.97372 81.4873 7.97295 81.491 7.9729 81.4948C7.97286 81.4986 7.97354 81.5023 7.97491 81.5058C7.97629 81.5093 7.97832 81.5125 7.9809 81.5152C7.98349 81.5178 7.98656 81.52 7.98996 81.5215C7.99336 81.523 7.99701 81.5237 8.00071 81.5238C8.0044 81.5238 8.00808 81.5231 8.01151 81.5217C8.61144 81.2513 9.19663 80.9482 9.76452 80.6137C9.76452 80.6137 9.76452 80.5854 9.73316 80.5924Z"/><path fill="#3EBB7F" d="M20.781 68.8797C20.781 68.8797 15.271 69.2344 12.706 65.542C10.1409 61.8497 10.7195 56.5612 10.7195 56.5612C10.7195 56.5612 16.5083 57.2705 18.805 59.9343C21.1016 62.5981 20.781 68.8797 20.781 68.8797Z"/><path fill="#263238" d="M23.3563 74.4136C23.1647 73.8142 22.9277 73.2218 22.7046 72.6401C22.4816 72.0584 22.262 71.5122 22.0076 70.9589C21.5169 69.8288 20.9666 68.7264 20.3591 67.6567C19.9688 66.9757 19.5506 66.3124 19.1219 65.6598C19.1219 65.5604 19.094 65.4611 19.0801 65.3618C19.0557 65.188 19.0313 65.0071 19.0034 64.8404C18.9477 64.4857 18.8884 64.131 18.8292 63.7763C18.7037 62.9995 18.5469 62.2299 18.4249 61.4566C18.4249 61.4212 18.3622 61.4212 18.3691 61.4566C18.4772 62.2228 18.5538 62.9925 18.6584 63.7586C18.7107 64.1346 18.7595 64.5105 18.8152 64.8865L18.878 65.2944C18.0376 64.0426 17.1276 62.8405 16.1526 61.6943L15.7727 61.2474C15.7727 61.2048 15.7379 61.1622 15.7204 61.1197C15.6786 61.0133 15.6403 60.9069 15.6019 60.7969C15.5183 60.577 15.4416 60.3535 15.3615 60.1301C15.2081 59.6903 15.0687 59.2469 14.9502 58.7964C14.9502 58.761 14.8875 58.7787 14.898 58.7964C15.0095 59.2575 15.1245 59.7151 15.2465 60.1691C15.3127 60.389 15.3824 60.6054 15.4591 60.8217C15.4591 60.8572 15.4835 60.8927 15.4974 60.9281C14.8004 60.1478 14.058 59.3959 13.3157 58.651C13.2913 58.6262 13.253 58.651 13.2774 58.6936C14.7011 60.2097 16.0062 61.8368 17.1807 63.56C17.0471 63.5169 16.9109 63.4826 16.7729 63.4571C16.3478 63.372 15.9226 63.3117 15.4939 63.2549C14.5947 63.1379 13.6991 63.0244 12.8069 62.879C12.7685 62.879 12.7546 62.9286 12.8069 62.9357C13.6607 63.106 14.5041 63.2904 15.3545 63.5032C15.7553 63.5954 16.1561 63.6735 16.5569 63.755C16.8856 63.8263 17.2093 63.9199 17.5257 64.0353C17.6129 64.1665 17.707 64.2942 17.7941 64.4254C18.1984 65.0213 18.5852 65.6349 18.9651 66.2485L18.404 66.1386C17.9788 66.0535 17.5501 65.9754 17.1249 65.9045C16.285 65.7626 15.4416 65.6136 14.6122 65.4221C14.5773 65.4221 14.5634 65.4718 14.6122 65.4789C15.4556 65.681 16.2885 65.9151 17.1249 66.1421C17.5292 66.2521 17.937 66.3514 18.3447 66.4436L18.9546 66.5784C19.0368 66.6004 19.1208 66.6146 19.2056 66.621C20.0106 67.9475 20.7634 69.3096 21.4639 70.6964C21.7706 71.3065 22.0668 71.9237 22.3526 72.5408C22.6384 73.158 22.8998 73.8284 23.1716 74.4739C23.21 74.6087 23.4086 74.5555 23.3563 74.4136Z"/><path fill="#263238" d="M17.7246 61.5276C17.6201 60.992 17.5086 60.4635 17.3761 59.9243C17.3761 59.8889 17.3134 59.9066 17.3204 59.9243C17.4249 60.4493 17.526 60.9884 17.6201 61.5027C17.697 62.0316 17.8005 62.556 17.9303 63.074C17.8974 62.5543 17.8287 62.0375 17.7246 61.5276Z"/><path fill="#263238" d="M14.5111 61.3715C14.2567 61.2403 13.9848 61.1374 13.72 61.0168L13.3018 60.8501L13.0892 60.765C13.0077 60.7383 12.9294 60.7027 12.8557 60.6586C12.8138 60.6302 12.7895 60.7011 12.8313 60.7082C12.913 60.7309 12.9915 60.7643 13.0648 60.8076L13.2739 60.9033L13.6782 61.0842C13.9422 61.2103 14.2134 61.3204 14.4902 61.4141C14.5216 61.4389 14.5425 61.3857 14.5111 61.3715Z"/><path fill="#3EBB7F" d="M26.4199 64.4713C26.4199 64.4713 29.7552 58.1329 34.826 57.1504C39.8969 56.1679 43.0056 61.4812 43.0056 61.4812C43.0056 61.4812 39.3044 66.2908 34.6413 67.1315C29.9782 67.9721 26.4199 64.4713 26.4199 64.4713Z"/><path fill="#263238" d="M38.2274 59.9915C36.9055 59.8092 35.5645 59.8259 34.2474 60.0412L34.4739 59.917L35.5996 59.3282C36.373 58.893 37.1675 58.4976 37.9799 58.1436C38.0183 58.1258 37.9799 58.0726 37.959 58.0904C37.1644 58.4663 36.3419 58.7997 35.5473 59.1544C35.1465 59.3389 34.7562 59.534 34.3694 59.7432C34.1184 59.878 33.8431 60.0057 33.5957 60.1689C32.4814 60.3963 31.3987 60.762 30.3719 61.2578L31.0062 60.5484C31.4767 60.0199 31.9437 59.4666 32.463 58.9877C32.4909 58.9629 32.463 58.9239 32.4212 58.9487C31.8914 59.4382 31.3303 59.8922 30.8145 60.403C30.5671 60.6512 30.3266 60.9066 30.0931 61.1726C29.9781 61.3039 29.8596 61.4387 29.7446 61.5806C28.0024 62.5299 26.4887 63.8604 25.3124 65.4765C24.136 67.0926 23.3264 68.954 22.9417 70.9267C22.9417 70.9622 22.987 70.9799 22.9974 70.9445C23.7119 68.528 24.9915 66.3238 26.7265 64.521C28.5963 62.5887 30.9483 61.2116 33.5294 60.5377C35.0606 60.1407 36.6441 59.9946 38.2204 60.105C38.2352 60.106 38.2498 60.1009 38.2609 60.0909C38.272 60.0809 38.2787 60.0669 38.2797 60.0518C38.2806 60.0368 38.2756 60.022 38.2658 60.0106C38.256 59.9993 38.2422 59.9925 38.2274 59.9915Z"/><path fill="#000" d="M43.0055 61.4816C43.0055 61.4816 39.3043 66.2912 34.6412 67.1318C31.0899 67.7703 28.1694 65.8869 26.974 64.9576L26.7161 64.5284C26.7161 64.5284 29.1173 62.4711 33.6619 61.2829C38.2065 60.0947 43.0055 61.4816 43.0055 61.4816Z" opacity=".1"/><path fill="#263238" d="M35.2792 57.7323C34.891 57.9634 34.5152 58.2156 34.1535 58.4878C33.8011 58.7614 33.4734 59.0664 33.1742 59.3993C33.1703 59.4057 33.1687 59.4131 33.1697 59.4205C33.1707 59.4279 33.1741 59.4347 33.1795 59.4398C33.1849 59.4448 33.1918 59.4478 33.1991 59.4482C33.2065 59.4486 33.2137 59.4464 33.2195 59.4419C33.568 59.144 33.8922 58.846 34.2442 58.5658C34.5832 58.2821 34.9393 58.0202 35.3106 57.7819C35.3138 57.7798 35.3166 57.7771 35.3187 57.7739C35.3209 57.7708 35.3225 57.7672 35.3233 57.7634C35.3241 57.7596 35.3241 57.7557 35.3235 57.7519C35.3228 57.7481 35.3214 57.7444 35.3193 57.7412C35.3173 57.7379 35.3146 57.7351 35.3115 57.7329C35.3083 57.7307 35.3048 57.7291 35.3011 57.7283C35.2974 57.7275 35.2935 57.7274 35.2898 57.7281C35.286 57.7288 35.2824 57.7302 35.2792 57.7323Z"/><path fill="#263238" d="M38.0636 58.8038C37.8754 58.8854 37.6837 58.9528 37.4955 59.0344L36.9309 59.272C36.8926 59.272 36.91 59.3572 36.9519 59.3394L37.5164 59.1053C37.7081 59.0273 37.8928 58.9386 38.081 58.8606C38.1159 58.8464 38.0985 58.7896 38.0636 58.8038Z"/><path fill="#3EBB7F" d="M25.7542 72.4482C25.7542 72.4482 26.6463 78.737 31.292 80.9361C35.9377 83.1352 41.601 80.9361 41.601 80.9361C41.601 80.9361 39.3879 67.3335 25.7542 72.4482Z"/><path fill="#263238" d="M38.3982 76.8533C37.973 76.8037 37.5444 76.7292 37.1227 76.6512L36.4953 76.5306L36.1712 76.4632C36.0458 76.3461 35.9238 76.2255 35.7948 76.1085C34.9125 75.3219 33.9605 74.6201 32.951 74.0122C32.4021 73.6812 31.8341 73.3839 31.2502 73.122H31.3374L32.8673 73.1893C33.885 73.239 34.9061 73.2603 35.9238 73.3277C35.9621 73.3277 35.9586 73.2745 35.9238 73.2709C34.8992 73.2 33.8815 73.0865 32.8604 72.9978L31.3757 72.863L30.609 72.7956L30.4138 72.7743C30.1489 72.6715 29.8841 72.5757 29.6122 72.4906C28.3459 72.0482 26.9838 71.9721 25.6775 72.2707C24.51 72.5757 23.3425 73.3561 23.0393 74.6081C23.0393 74.6507 23.0951 74.6826 23.1125 74.64C23.5481 73.576 24.6913 73.0616 25.7228 72.8453C26.4126 72.7121 27.1195 72.6977 27.8139 72.8027C27.8608 73.1266 27.939 73.4451 28.0474 73.7533C28.1764 74.1967 28.3018 74.64 28.4343 75.0799C28.6991 75.963 28.9884 76.8533 29.2463 77.7223C29.2463 77.7299 29.2492 77.7371 29.2545 77.7424C29.2597 77.7477 29.2668 77.7507 29.2742 77.7507C29.2816 77.7507 29.2887 77.7477 29.2939 77.7424C29.2991 77.7371 29.3021 77.7299 29.3021 77.7223C29.086 76.8391 28.9013 75.9489 28.6922 75.0621C28.5911 74.6294 28.4831 74.1967 28.3785 73.7639C28.3178 73.4616 28.2398 73.1632 28.145 72.8701C28.552 72.9423 28.9546 73.0383 29.3509 73.1574C30.0636 73.3746 30.762 73.6376 31.4419 73.9448C31.5081 74.3917 31.6092 74.8351 31.7103 75.2785C31.8357 75.8318 31.9786 76.3816 32.1494 76.9243C32.1514 76.9297 32.155 76.9344 32.1596 76.9377C32.1643 76.941 32.1699 76.9428 32.1755 76.9428C32.1812 76.9428 32.1868 76.941 32.1915 76.9377C32.1961 76.9344 32.1997 76.9297 32.2017 76.9243L32.1808 76.8214C32.0762 76.3071 31.9647 75.7928 31.8567 75.2785C31.773 74.8635 31.6929 74.4485 31.6057 74.0371C32.1844 74.2987 32.7497 74.5899 33.2995 74.9096C33.2995 75.0373 33.3413 75.1685 33.3587 75.2856C33.3936 75.4984 33.4319 75.7148 33.4703 75.9311C33.5574 76.4135 33.6515 76.8994 33.7665 77.3783C33.9768 78.3058 34.2433 79.2191 34.5646 80.113C34.5606 80.118 34.5585 80.1243 34.5585 80.1307C34.5585 80.1371 34.5606 80.1434 34.5646 80.1484L34.5925 80.1804C34.6134 80.2052 34.6448 80.1804 34.6378 80.152C34.4252 79.2191 34.1777 78.2934 33.9756 77.3605C33.878 76.8923 33.777 76.4241 33.6829 75.9418C33.6376 75.7077 33.5957 75.4736 33.5504 75.2324L33.5191 75.0231C34.1448 75.3962 34.7487 75.806 35.3278 76.2503C36.3307 77.0146 37.2585 77.8758 38.0985 78.8219C38.1299 78.8609 38.1961 78.8219 38.1647 78.7651C37.8198 78.2886 37.4511 77.8304 37.0599 77.3925C36.8264 77.1371 36.5825 76.8888 36.335 76.6476H36.4117C36.6313 76.6866 36.8473 76.7186 37.0669 76.7469C37.4956 76.8072 37.9277 76.8498 38.3599 76.8994C38.4226 76.9065 38.4366 76.8533 38.3982 76.8533Z"/><path fill="#263238" d="M35.1363 78.9819C35.1363 78.9287 35.1363 78.872 35.1084 78.8188C35.0805 78.7656 35.0631 78.684 35.0527 78.613C34.9586 78.191 34.8784 77.7689 34.8017 77.3432C34.8017 77.3149 34.7529 77.322 34.7529 77.3432C34.7812 77.9062 34.8989 78.4608 35.1014 78.9855C35.1014 79.0032 35.1398 78.9855 35.1363 78.9855V78.9819Z"/><path fill="#263238" d="M31.2466 78.8791C31.2466 78.8791 31.2466 78.8508 31.2187 78.8508C31.0863 78.2939 30.9608 77.737 30.8493 77.1766C30.79 76.8822 30.7308 76.5878 30.675 76.2934C30.6437 76.1338 30.6158 75.9742 30.5879 75.8146C30.5757 75.674 30.5416 75.5363 30.4868 75.4067C30.4849 75.4013 30.4813 75.3966 30.4766 75.3933C30.4719 75.39 30.4664 75.3882 30.4607 75.3882C30.455 75.3882 30.4495 75.39 30.4448 75.3933C30.4401 75.3966 30.4365 75.4013 30.4346 75.4067C30.4309 75.6926 30.4709 75.9774 30.5531 76.2509C30.6088 76.5559 30.6681 76.8645 30.7343 77.1695C30.8702 77.7902 31.0201 78.4074 31.1943 79.0175C31.1965 79.0237 31.2005 79.0292 31.2058 79.033C31.2111 79.0368 31.2174 79.0389 31.2239 79.0389C31.2304 79.0389 31.2368 79.0368 31.2421 79.033C31.2474 79.0292 31.2514 79.0237 31.2536 79.0175L31.2466 78.8791Z"/><path fill="#263238" d="M37.9938 75.0341C37.1434 74.9171 36.2965 74.7929 35.4461 74.6794C35.4113 74.6794 35.3973 74.7326 35.4461 74.7362C36.293 74.8639 37.1434 74.9703 37.9938 75.0909C37.9938 75.098 38.0112 75.0412 37.9938 75.0341Z"/><path fill="#3EBB7F" d="M23.3738 57.7C23.3738 57.7 20.53 45.009 33.9303 39.8695C33.9303 39.8695 37.6454 56.5792 23.3738 57.7Z"/><path fill="#263238" d="M26.2665 50.5036L26.4094 50.4149L27.1691 49.9822L28.7235 49.099C29.7446 48.5138 30.7553 47.9108 31.7834 47.3255C31.8183 47.3255 31.7834 47.2582 31.7555 47.2759C30.71 47.8469 29.6645 48.3825 28.6364 48.9394L27.0994 49.7658L26.4721 50.1205C26.9182 49.2586 27.3957 48.4145 27.9219 47.5987C28.6189 46.5098 29.3892 45.4705 30.1872 44.4632C30.1956 44.4542 30.2001 44.4423 30.1997 44.43C30.1994 44.4177 30.1943 44.406 30.1855 44.3975C30.1767 44.3891 30.165 44.3845 30.1529 44.3848C30.1408 44.3852 30.1293 44.3904 30.121 44.3993C28.9443 45.5613 27.9046 46.8587 27.0228 48.2655C27.0228 48.2194 27.0228 48.1733 27.0228 48.1307C27.0228 47.815 27.0472 47.4994 27.0506 47.1837C27.0506 46.563 27.0297 45.9422 27.0506 45.3251C27.0506 45.2861 26.9949 45.2896 26.9914 45.3251C26.967 45.9351 26.8938 46.5452 26.859 47.1553C26.859 47.4568 26.8311 47.7618 26.8206 48.0669C26.8206 48.23 26.8206 48.4216 26.8206 48.5989C26.5465 49.0458 26.2828 49.4986 26.0295 49.9574C25.5804 50.7849 25.1801 51.6388 24.8306 52.5147C24.8306 52.199 24.7993 51.8834 24.7818 51.5677C24.74 50.8583 24.6599 50.1808 24.6285 49.4856C24.6285 49.4781 24.6255 49.4709 24.6203 49.4656C24.6151 49.4602 24.608 49.4573 24.6006 49.4573C24.5932 49.4573 24.5861 49.4602 24.5809 49.4656C24.5757 49.4709 24.5727 49.4781 24.5727 49.4856C24.5727 50.195 24.5727 50.876 24.5727 51.5712C24.5727 51.9259 24.5936 52.2806 24.6145 52.614C24.6145 52.7417 24.6145 52.873 24.6389 53.0007C24.2129 54.1354 23.8749 55.3023 23.6283 56.4908C23.3958 57.7591 23.2295 59.039 23.1299 60.3251C23.1299 60.3251 23.1299 60.3251 23.1299 60.3251C23.265 59.1682 23.4982 58.0254 23.8269 56.9094C23.9907 56.31 24.1754 55.7141 24.3566 55.1359C24.9143 54.8699 25.4475 54.5365 25.9842 54.2314L27.6675 53.2951C28.7862 52.6708 29.9015 52.0359 31.055 51.4861C31.0864 51.4861 31.055 51.4187 31.0237 51.4365C29.8562 51.972 28.6782 52.5005 27.5386 53.0716C26.967 53.366 26.4059 53.6781 25.8483 53.9973C25.3848 54.2634 24.9038 54.5294 24.4542 54.838C24.5832 54.4407 24.7191 54.047 24.869 53.6604C25.2802 52.584 25.7467 51.5302 26.2665 50.5036Z"/><path fill="#263238" d="M25.1374 47.5982C25.1352 47.592 25.1312 47.5865 25.1259 47.5827C25.1206 47.5788 25.1143 47.5768 25.1077 47.5768C25.1012 47.5768 25.0949 47.5788 25.0896 47.5827C25.0843 47.5865 25.0803 47.592 25.0781 47.5982C25.1269 48.3076 25.1513 49.0454 25.228 49.7689C25.228 49.7774 25.2313 49.7855 25.2372 49.7915C25.2431 49.7975 25.251 49.8009 25.2593 49.8009C25.2677 49.8009 25.2756 49.7975 25.2815 49.7915C25.2874 49.7855 25.2907 49.7774 25.2907 49.7689C25.2663 49.0454 25.1896 48.3253 25.1374 47.5982Z"/><path fill="#263238" d="M31.5605 50.0238C30.7241 50.3785 29.8772 50.6942 29.0408 51.0489C29.0199 51.0489 29.0408 51.0985 29.0408 51.0879C29.8877 50.7651 30.7206 50.414 31.564 50.0806C31.6128 50.0664 31.5954 50.0096 31.5605 50.0238Z"/><path fill="#263238" d="M32.8361 44.1683C32.0157 44.5515 31.2195 44.9862 30.4523 45.4701C30.4467 45.4763 30.4433 45.4842 30.4425 45.4926C30.4418 45.501 30.4437 45.5094 30.448 45.5166C30.4523 45.5237 30.4588 45.5293 30.4665 45.5324C30.4741 45.5356 30.4826 45.5361 30.4906 45.5339C31.2678 45.0693 32.0589 44.6259 32.864 44.218C32.8988 44.2216 32.8675 44.1542 32.8361 44.1683Z"/><path fill="#455A64" d="M32.6304 85.1495H13.3054V105.881H32.6304V85.1495Z"/><path fill="#263238" d="M12.9673 92.489H11.9775V128.001H12.9673V92.489Z"/><path fill="#263238" d="M33.8606 92.489H32.8708V128.001H33.8606V92.489Z"/><path fill="#263238" d="M23.9383 92.489H22.9485V128.001H23.9383V92.489Z"/><path fill="#263238" d="M33.3659 104.555H12.4727V107.425H33.3659V104.555Z"/><path fill="#AD6359" d="M110.355 116.402C110.355 116.402 110.355 131.679 110.355 131.689C110.355 134.609 110.331 137.17 110.188 138.493C110.19 138.496 110.191 138.499 110.191 138.503C110.191 138.507 110.19 138.511 110.188 138.514C110.188 138.828 110.117 139.137 109.979 139.418L109.962 139.436C109.111 140.028 86.1792 140.83 85.3706 140.582C84.5621 140.333 85.1859 137.971 86.0676 137.216C86.9494 136.46 95.582 132.161 95.582 132.161L95.7249 116.892L110.355 116.402Z"/><path fill="#C7C7C7" d="M110.352 128.55V131.689C110.352 134.608 110.328 137.169 110.185 138.492C110.187 138.496 110.188 138.499 110.188 138.503C110.188 138.507 110.187 138.51 110.185 138.514C110.149 138.822 110.078 139.126 109.976 139.418L109.958 139.436C109.108 140.028 86.1757 140.83 85.3672 140.581C84.5587 140.333 85.1825 137.971 86.0642 137.215C86.946 136.46 95.5786 132.161 95.5786 132.161L95.5368 128.969L110.352 128.55Z"/><path fill="#263238" d="M85.3669 140.581C86.1755 140.83 109.108 140.032 109.961 139.436C110.289 139.216 110.369 135.807 110.352 131.689V131.558L95.5504 131.913L95.5679 132.168C95.5679 132.168 86.9248 136.47 86.0535 137.226C85.1822 137.981 84.5549 140.344 85.3669 140.581Z"/><path fill="#455A64" d="M85.5936 139.67C89.4586 139.436 105.058 138.875 108.892 138.961C108.923 138.961 108.923 138.982 108.892 138.985C105.058 139.298 89.4655 139.734 85.597 139.748C85.5169 139.734 85.5134 139.673 85.5936 139.67Z"/><path fill="#455A64" d="M94.3203 132.25C95.8328 131.895 97.7008 132.079 98.8997 133.143C98.9485 133.186 98.8997 133.25 98.8405 133.236C97.3703 132.809 95.8597 132.544 94.3342 132.445C94.3114 132.442 94.2901 132.432 94.2742 132.415C94.2582 132.398 94.2485 132.376 94.2468 132.353C94.2452 132.33 94.2516 132.307 94.265 132.288C94.2785 132.269 94.298 132.255 94.3203 132.25Z"/><path fill="#455A64" d="M93.2469 132.962C94.756 132.608 96.6275 132.792 97.8263 133.856C97.8717 133.895 97.8263 133.962 97.7636 133.948C96.2936 133.522 94.7829 133.256 93.2574 133.157C93.2347 133.154 93.2138 133.143 93.1982 133.126C93.1827 133.109 93.1735 133.087 93.1723 133.064C93.171 133.041 93.1778 133.018 93.1915 132.999C93.2051 132.981 93.2247 132.968 93.2469 132.962Z"/><path fill="#455A64" d="M92.1699 133.672C93.6824 133.318 95.5504 133.506 96.7493 134.566C96.7981 134.609 96.7493 134.676 96.6901 134.662C95.22 134.235 93.7094 133.968 92.1838 133.867C92.161 133.865 92.1397 133.854 92.1238 133.838C92.1078 133.821 92.0981 133.799 92.0964 133.776C92.0948 133.752 92.1012 133.729 92.1147 133.71C92.1281 133.691 92.1476 133.678 92.1699 133.672Z"/><path fill="#455A64" d="M111.669 59.7675L111.655 60.7783L111.094 105.42L111.091 105.59L110.759 132.331L94.707 132.004L97.8053 59.8207L97.8471 58.8559L98.004 50.4816H111.561L111.669 59.7675Z"/><path fill="#263238" d="M95.3796 129.281C97.8854 129.256 97.164 129.228 99.6698 129.235C100.897 129.235 108.958 129.267 110.101 129.473C110.125 129.473 110.125 129.522 110.101 129.526C108.951 129.703 100.893 129.526 99.6663 129.505C97.1605 129.451 97.8819 129.437 95.3761 129.356C95.3684 129.353 95.3618 129.348 95.3573 129.341C95.3527 129.334 95.3505 129.325 95.3509 129.317C95.3513 129.309 95.3543 129.301 95.3594 129.294C95.3646 129.288 95.3717 129.283 95.3796 129.281Z"/><path fill="#263238" d="M102.57 64.4637C102.57 64.4562 102.567 64.4489 102.561 64.4436C102.556 64.4383 102.549 64.4353 102.542 64.4353C102.534 64.4353 102.527 64.4383 102.522 64.4436C102.517 64.4489 102.514 64.4562 102.514 64.4637C102.514 68.7377 102.343 71.1319 102.242 75.4024C102.141 79.673 102.019 83.9435 101.893 88.2104C101.667 96.7479 101.329 105.278 101.019 113.812C100.844 118.598 100.627 123.382 100.367 128.163C100.367 128.17 100.37 128.176 100.374 128.181C100.379 128.185 100.385 128.188 100.391 128.188C100.398 128.188 100.404 128.185 100.409 128.181C100.413 128.176 100.416 128.17 100.416 128.163C101.026 119.651 101.608 111.11 101.942 102.572C102.277 94.0345 102.514 85.5006 102.552 76.9631C102.587 72.1712 102.559 69.2556 102.57 64.4637Z"/><path fill="#263238" d="M111.666 59.7675L111.094 105.42L100.335 50.4816H111.558L111.666 59.7675Z"/><path fill="#AD6359" d="M128.359 115.575C128.359 115.575 130.381 130.71 130.381 130.721C130.785 133.615 131.078 136.158 131.12 137.488C131.12 137.488 131.12 137.488 131.12 137.509C131.16 137.819 131.132 138.135 131.036 138.432C131.036 138.439 131.036 138.446 131.036 138.453C130.269 139.162 107.651 143.099 106.818 142.965C105.985 142.83 106.292 140.404 107.048 139.535C107.804 138.666 115.806 133.221 115.806 133.221L113.924 118.072L128.359 115.575Z"/><path fill="#C7C7C7" d="M129.966 127.613C129.966 127.613 130.381 130.71 130.381 130.721C130.785 133.615 131.078 136.158 131.12 137.488C131.12 137.488 131.12 137.488 131.12 137.509C131.126 137.819 131.098 138.128 131.036 138.432C131.036 138.439 131.036 138.446 131.036 138.453C130.269 139.162 107.651 143.099 106.818 142.965C105.985 142.83 106.292 140.404 107.048 139.535C107.804 138.666 115.806 133.221 115.806 133.221L115.329 130.057L129.966 127.613Z"/><path fill="#263238" d="M106.804 142.965C107.64 143.1 130.255 139.159 131.022 138.453C131.318 138.187 130.945 134.803 130.381 130.721L130.36 130.593L115.743 132.97L115.792 133.221C115.792 133.221 107.797 138.669 107.034 139.538C106.271 140.407 105.954 142.826 106.804 142.965Z"/><path fill="#455A64" d="M106.909 142.028C110.708 141.269 126.077 138.57 129.911 138.127C129.942 138.127 129.945 138.144 129.911 138.151C126.164 138.988 110.763 141.56 106.93 142.106C106.839 142.117 106.829 142.046 106.909 142.028Z"/><path fill="#455A64" d="M114.572 133.48C116.026 132.934 117.901 132.849 119.229 133.735C119.281 133.771 119.229 133.845 119.18 133.838C117.667 133.616 116.135 133.56 114.611 133.672C114.588 133.672 114.566 133.664 114.548 133.65C114.53 133.635 114.518 133.615 114.513 133.592C114.508 133.569 114.512 133.546 114.523 133.525C114.534 133.505 114.551 133.489 114.572 133.48Z"/><path fill="#455A64" d="M113.6 134.332C115.053 133.786 116.928 133.701 118.256 134.591C118.308 134.623 118.256 134.697 118.207 134.69C116.694 134.47 115.163 134.414 113.638 134.524C113.615 134.524 113.593 134.516 113.575 134.502C113.557 134.487 113.545 134.467 113.541 134.444C113.536 134.421 113.539 134.398 113.55 134.377C113.561 134.357 113.579 134.341 113.6 134.332Z"/><path fill="#455A64" d="M112.631 135.187C114.084 134.641 115.956 134.556 117.287 135.442C117.339 135.478 117.287 135.552 117.238 135.545C115.726 135.321 114.194 135.266 112.669 135.379C112.646 135.379 112.624 135.371 112.606 135.357C112.588 135.342 112.576 135.322 112.572 135.299C112.567 135.276 112.57 135.253 112.581 135.232C112.592 135.212 112.61 135.196 112.631 135.187Z"/><path fill="#455A64" d="M99.3843 50.4675C99.4435 50.7513 100.391 55.2275 101.374 59.0724C102.089 61.8816 102.824 64.3503 103.246 64.6056C103.723 64.8929 106.051 65.9428 106.832 66.2727L110.397 100.972L115.217 133.101L130.977 130.618L119.762 60.3032L117.936 50.4675H99.3843Z"/><path fill="#263238" d="M115.311 129.876C117.786 129.472 117.054 129.55 119.549 129.167C120.762 128.983 128.736 127.78 129.897 127.812C129.921 127.812 129.928 127.855 129.897 127.862C128.788 128.216 120.793 129.281 119.577 129.437C117.092 129.763 117.803 129.642 115.315 129.944C115.309 129.941 115.304 129.936 115.3 129.93C115.296 129.925 115.294 129.918 115.294 129.911C115.294 129.904 115.295 129.897 115.298 129.891C115.301 129.885 115.306 129.88 115.311 129.876Z"/><path fill="#263238" d="M124.425 120.282C124.031 118.055 123.641 115.827 123.236 113.6C122.43 109.145 121.617 104.691 120.797 100.238C119.152 91.3261 117.525 82.4067 115.918 73.4803C115.019 68.4436 115.039 68.9154 114.255 63.8539C114.255 63.8219 114.193 63.8255 114.2 63.8539C114.952 68.3514 114.597 67.3653 115.308 71.87C116.019 76.3746 116.765 80.7834 117.549 85.2277C119.124 94.1625 120.776 103.083 122.445 112C122.91 114.502 123.385 117 123.871 119.495C124.359 122.041 124.916 124.574 125.432 127.114C125.432 127.17 125.533 127.167 125.523 127.114C125.16 124.84 124.833 122.556 124.425 120.282Z"/><path fill="#263238" d="M120.093 64.1874C119.675 64.0775 119.225 64.042 118.8 63.9746C118.451 63.9178 118.103 63.854 117.754 63.7795C117.098 63.6601 116.477 63.3936 115.935 62.9992C115.343 62.531 115.039 61.8181 114.754 61.1335C114.582 60.7291 114.407 60.3248 114.231 59.9204L113.969 59.3352C113.848 59.1055 113.739 58.8686 113.645 58.6258C113.645 58.5903 113.579 58.6258 113.593 58.6258C113.652 58.7916 113.701 58.961 113.739 59.133C113.799 59.3281 113.851 59.5232 113.91 59.7183C114.018 60.073 114.123 60.4277 114.234 60.7824C114.404 61.4223 114.648 62.0391 114.963 62.6197C115.597 63.6412 116.726 64.0562 117.855 64.2016C118.179 64.2406 118.507 64.2654 118.835 64.2832C119.245 64.3204 119.658 64.3204 120.068 64.2832C120.078 64.2806 120.087 64.2755 120.094 64.2683C120.101 64.2612 120.106 64.2523 120.108 64.2426C120.111 64.2328 120.11 64.2226 120.108 64.2129C120.105 64.2032 120.1 64.1944 120.093 64.1874Z"/><path fill="#263238" d="M102.009 63.9926C103.671 64.6071 105.277 65.3691 106.808 66.2698C106.821 66.2759 106.831 66.287 106.836 66.3006C106.84 66.3143 106.84 66.3293 106.834 66.3425C106.828 66.3557 106.817 66.3659 106.804 66.3709C106.79 66.3758 106.775 66.3752 106.762 66.3691C105.145 65.6597 103.497 64.9858 101.922 64.1913C101.9 64.1771 101.884 64.1554 101.876 64.1302C101.869 64.1049 101.87 64.0778 101.881 64.0537C101.892 64.0296 101.91 64.0102 101.934 63.999C101.957 63.9878 101.984 63.9855 102.009 63.9926Z"/><path fill="#263238" d="M101.521 52.7339C101.521 52.6772 101.625 52.663 101.625 52.7339C101.624 54.57 101.715 56.405 101.897 58.2317C101.97 59.0794 102.639 63.7614 104.086 63.4209C104.326 63.3641 104.434 63.1194 104.486 62.7505C104.481 62.2654 104.417 61.7829 104.295 61.314C104.134 60.3315 104.006 59.349 103.925 58.3594C103.755 56.5156 103.775 54.6587 103.985 52.8191C103.985 52.8068 103.989 52.7951 103.998 52.7865C104.006 52.7778 104.018 52.773 104.03 52.773C104.042 52.773 104.053 52.7778 104.062 52.7865C104.07 52.7951 104.075 52.8068 104.075 52.8191C104.035 55.3769 104.182 57.9342 104.514 60.4698C104.696 61.6864 105.298 63.5202 104.047 63.7082C102.796 63.8962 101.956 60.8281 101.792 59.9874C101.393 57.5918 101.302 55.1535 101.521 52.7339Z"/><path fill="#263238" d="M104.047 63.5285C104.175 63.8455 104.283 64.17 104.371 64.5004C104.465 64.7556 104.511 65.0262 104.507 65.2984C104.505 65.3095 104.5 65.3197 104.492 65.3278C104.485 65.3358 104.475 65.3413 104.464 65.3436C104.453 65.3459 104.442 65.3448 104.432 65.3406C104.421 65.3363 104.413 65.3291 104.406 65.3197C104.251 65.081 104.133 64.8189 104.058 64.5429C103.946 64.245 103.831 63.9435 103.73 63.642C103.715 63.5992 103.718 63.5522 103.737 63.5113C103.757 63.4704 103.791 63.4389 103.833 63.4239C103.875 63.4088 103.921 63.4114 103.961 63.431C104.002 63.4506 104.033 63.4857 104.047 63.5285Z"/><path fill="#263238" d="M119.925 61.3351C118.016 61.2074 97.8472 58.8522 97.8472 58.8522L98.004 50.4779H99.3981H117.949L119.776 60.3136L119.925 61.3351Z"/><path fill="#AD6359" d="M105.8 31.2471C103.493 38.5964 99.5864 46.1833 98.4572 47.6766C95.4286 51.6917 86.329 55.6465 83.5513 56.1573C82.349 56.3772 79.4668 48.4853 80.2126 47.3999C80.9584 46.3145 92.2676 41.9163 92.8217 41.3311C93.2051 40.9232 97.9762 34.6664 101.186 30.8924C105.197 26.1998 106.407 29.3247 105.8 31.2471Z"/><path fill="#EBEBEB" d="M82.6277 45.8676L87.0956 55.0896C87.0956 55.0896 96.5926 50.9007 98.8544 47.9106C101.116 44.9205 105.215 34.7869 105.825 31.5592C106.435 28.3315 105.382 26.026 101.134 30.7434C96.8853 35.4608 93.3653 40.1605 92.6056 40.948C91.8458 41.7354 82.6277 45.8676 82.6277 45.8676Z"/><path fill="#37474F" d="M83.0044 45.3989L88.3575 54.9544C88.3575 54.9544 96.7218 50.886 98.8547 48.2152C100.988 45.5444 104.504 37.3438 105.605 32.9172C106.707 28.4907 106.062 25.3516 101.137 30.7678C96.213 36.184 93.4284 40.1175 92.4247 41.0007C91.9472 41.3838 83.0044 45.3989 83.0044 45.3989Z"/><path fill="#263238" d="M85.259 46.2828C85.5304 46.2828 85.7504 46.0589 85.7504 45.7827C85.7504 45.5065 85.5304 45.2826 85.259 45.2826C84.9876 45.2826 84.7676 45.5065 84.7676 45.7827C84.7676 46.0589 84.9876 46.2828 85.259 46.2828Z"/><path fill="#263238" d="M87.5766 45.197C87.848 45.197 88.068 44.973 88.068 44.6968C88.068 44.4206 87.848 44.1967 87.5766 44.1967C87.3052 44.1967 87.0852 44.4206 87.0852 44.6968C87.0852 44.973 87.3052 45.197 87.5766 45.197Z"/><path fill="#263238" d="M105.605 32.9039C104.504 37.3305 100.991 45.5168 98.8544 48.2019C97.9413 49.3475 95.899 50.745 93.8533 51.9723L104.633 27.9453C106.302 27.4842 106.354 29.8961 105.605 32.9039Z"/><path fill="#EBEBEB" d="M120.978 57.8204C120.922 57.8843 96.8121 57.9588 96.582 57.7069C96.2719 57.3522 101.719 30.7502 104.194 27.4835C104.72 26.7741 106.466 26.5861 107.951 26.7741C108.338 26.8185 108.72 26.8981 109.094 27.0117H109.135C109.437 27.1021 109.721 27.2436 109.975 27.4302C114.102 30.7857 117.58 42.5154 118.392 46.0375C119.751 51.8509 121.177 57.5899 120.978 57.8204Z"/><path fill="#37474F" d="M109.906 27.1179C109.906 27.1179 107.944 38.007 107.602 40.8375C107.261 43.668 107.763 58.6183 107.763 58.6183L122.902 59.7569C122.902 59.7569 119.629 49.8609 119.591 49.2331C119.591 49.2331 116.873 37.3792 114.325 32.4277C113.212 30.3772 111.71 28.5723 109.906 27.1179Z"/><path fill="#263238" d="M122.902 59.7572L116.036 59.2393L111.136 28.2142V28.2355L114.21 32.2436C114.245 32.3074 114.28 32.3713 114.311 32.4351C116.859 37.4008 119.577 49.2405 119.577 49.2405C119.629 49.8612 122.902 59.7572 122.902 59.7572Z"/><path fill="#37474F" d="M104.047 27.3557C104.047 27.3557 102.441 38.3832 102.266 39.2947C102.092 40.2063 99.6594 58.1893 99.6594 58.1893L95.8711 58.3099L97.8471 50.0881C97.8471 50.0881 102.242 29.7038 104.047 27.3557Z"/><path fill="#263238" d="M106.26 33.4069L105.187 31.2787L103.8 32.8181L104.141 34.3504L105.508 34.5313L106.26 33.4069Z"/><path fill="#263238" d="M105.507 34.5311L106.163 50.1873L103.28 55.3659L101.782 49.5382L104.141 34.3502L105.507 34.5311Z"/><path fill="#3EBB7F" d="M104.904 77.802L104.885 96.1893L134.703 96.2211L134.722 77.8338L104.904 77.802Z"/><path fill="#000" d="M104.902 77.8047L104.893 86.4628L134.712 86.4945L134.721 77.8365L104.902 77.8047Z" opacity=".1"/><path fill="#3EBB7F" d="M104.192 83.6761L135.422 83.7094L135.431 75.1293L104.201 75.096L104.192 83.6761Z"/><path fill="#263238" d="M113.245 70.2134L113.238 75.1046L115.499 75.1082L115.503 72.3238L124.129 72.3344L124.125 75.1188H126.387L126.39 70.224L113.245 70.2134Z"/><path fill="#263238" d="M129.096 85.7479L131.132 85.7501L131.136 81.6498L129.101 81.6476L129.096 85.7479Z"/><path fill="#263238" d="M108.475 85.7307L110.51 85.7328L110.514 81.6326L108.479 81.6304L108.475 85.7307Z"/><path fill="#AD6359" d="M113.238 30.388C119.964 36.5987 124.233 45.4696 124.523 47.2608C125.22 51.5916 126.101 59.1821 125.951 62.5127C125.896 63.747 116.705 62.2502 116.723 60.9307C116.782 56.8021 116.242 47.7219 116.217 47.5623C116.054 46.4521 114.053 41.4616 112.035 36.0489C110.017 30.6363 110.408 27.781 113.238 30.388Z"/><path fill="#AD6359" d="M115.754 73.871C116.022 73.9951 116.321 74.0327 116.611 73.9788C116.9 73.9249 117.167 73.7821 117.375 73.5695C117.637 74.003 118.04 74.3293 118.514 74.4917C119.361 74.74 120.114 73.495 120.114 73.495C120.479 73.8872 120.951 74.159 121.47 74.2753C122.302 74.4279 123.24 73.2822 123.24 73.2822C123.77 73.4521 124.342 73.4244 124.854 73.2042C125.721 72.7892 126.457 70.2567 126.638 68.7989C126.819 67.3411 125.986 63.0315 125.91 62.1945L116.723 60.9388C116.723 60.9388 114.088 67.2453 114.116 68.9904C114.14 70.4695 114.743 73.3602 115.754 73.871Z"/><path fill="#263238" d="M117.235 73.4843C116.841 71.9271 116.921 70.3346 116.914 68.7455C116.914 68.738 116.917 68.7308 116.923 68.7255C116.928 68.7202 116.935 68.7172 116.942 68.7172C116.95 68.7172 116.957 68.7202 116.962 68.7255C116.967 68.7308 116.97 68.738 116.97 68.7455C116.97 70.3275 117.256 71.8917 117.319 73.4736C117.32 73.4849 117.317 73.4963 117.31 73.5053C117.303 73.5142 117.293 73.5201 117.282 73.5215C117.271 73.5229 117.26 73.5198 117.251 73.5128C117.242 73.5058 117.236 73.4955 117.235 73.4843Z"/><path fill="#263238" d="M119.999 73.4488C119.942 73.0863 119.933 72.7178 119.971 72.3528C119.971 71.9662 120.013 71.5761 120.044 71.1894C120.104 70.4138 120.182 69.6406 120.277 68.8697C120.277 68.8343 120.333 68.8343 120.33 68.8697C120.274 69.643 120.229 70.4162 120.201 71.1894C120.201 71.5796 120.18 71.9662 120.173 72.3528C120.188 72.7197 120.165 73.0871 120.103 73.4488C120.099 73.4597 120.092 73.4691 120.083 73.4757C120.073 73.4823 120.062 73.4858 120.051 73.4858C120.04 73.4858 120.028 73.4823 120.019 73.4757C120.01 73.4691 120.003 73.4597 119.999 73.4488Z"/><path fill="#263238" d="M123.24 73.2499C123.195 72.9207 123.205 72.5863 123.268 72.2603C123.303 71.9056 123.334 71.5509 123.365 71.1962C123.428 70.4868 123.487 69.7774 123.522 69.068C123.522 69.0326 123.578 69.0326 123.578 69.068C123.543 69.7774 123.519 70.5081 123.48 71.2281L123.418 72.2922C123.425 72.6163 123.377 72.9392 123.275 73.2463C123.273 73.2495 123.271 73.2522 123.268 73.2542C123.265 73.2561 123.262 73.2574 123.258 73.2577C123.255 73.2581 123.251 73.2575 123.248 73.2562C123.245 73.2548 123.242 73.2526 123.24 73.2499Z"/><path fill="#37474F" d="M116.273 60.9806L126.46 61.541C126.46 61.541 125.707 50.1908 124.899 47.0376C124.09 43.8844 117.19 33.3748 113.116 29.5654C109.282 25.9794 109.282 28.9624 110.735 33.1655C112.189 37.3686 115.785 47.5271 115.907 48.2684C116.029 49.0097 116.273 60.9806 116.273 60.9806Z"/><path fill="#263238" d="M116.73 58.8877C117.12 58.8522 117.514 58.8877 117.904 58.8877C118.294 58.8877 118.685 58.9054 119.075 58.9232C119.828 58.9551 120.581 59.0012 121.333 59.0509L123.588 59.2034C124.366 59.2566 125.16 59.2708 125.93 59.3878C125.936 59.3898 125.94 59.3935 125.944 59.3982C125.947 59.403 125.949 59.4086 125.949 59.4144C125.949 59.4202 125.947 59.4259 125.944 59.4306C125.94 59.4354 125.936 59.439 125.93 59.441C125.153 59.473 124.362 59.402 123.585 59.3736L121.285 59.2779C120.518 59.2424 119.751 59.2034 118.985 59.1537C118.608 59.1325 118.232 59.1041 117.859 59.0615C117.486 59.0189 117.096 59.0154 116.726 58.9409C116.691 58.9338 116.702 58.8913 116.73 58.8877Z"/><path fill="#AD6359" d="M105.55 30.9955C105.947 30.9777 108.585 28.8673 109.383 27.2428C109.439 27.1293 109.233 25.973 109.052 24.5578C108.944 23.6994 108.843 22.7382 108.815 21.855C108.815 21.6741 108.216 22.0288 108.216 22.0288L107.1 22.3409L103.42 23.3837C103.767 24.4773 103.98 25.6102 104.054 26.7569C104.058 26.8756 104.05 26.9945 104.03 27.1116C104.032 27.1316 104.032 27.1518 104.03 27.1719C103.95 27.8706 104.908 31.0203 105.55 30.9955Z"/><path fill="#263238" d="M104.044 27.1181C104.045 27.1381 104.045 27.1583 104.044 27.1784C104.23 27.1964 104.418 27.1964 104.605 27.1784C108.264 26.9726 108.568 22.2126 108.568 22.2126L107.121 22.3261L103.441 23.369C103.788 24.4626 104.001 25.5955 104.075 26.7421C104.078 26.8682 104.068 26.9943 104.044 27.1181Z"/><path fill="#AD6359" d="M108.679 14.3706C109.557 16.2185 109.411 21.9859 108.243 23.4508C106.557 25.5789 103.364 26.2564 101.482 24.0892C99.6595 21.993 99.9836 14.4805 101.325 13.0937C103.301 11.079 107.383 11.6394 108.679 14.3706Z"/><path fill="#263238" d="M103.821 18.5775C103.821 18.5775 103.849 18.5775 103.849 18.613C103.828 18.9996 103.869 19.4501 104.197 19.5848C104.197 19.5848 104.197 19.6097 104.197 19.6061C103.789 19.5387 103.741 18.9428 103.821 18.5775Z"/><path fill="#263238" d="M104.169 18.1799C104.782 18.1444 104.807 19.4 104.235 19.4319C103.664 19.4639 103.653 18.2083 104.169 18.1799Z"/><path fill="#263238" d="M101.611 18.6835C101.611 18.6835 101.583 18.7013 101.583 18.719C101.601 19.1056 101.559 19.5561 101.214 19.6909V19.7121C101.639 19.6412 101.691 19.0382 101.611 18.6835Z"/><path fill="#263238" d="M101.263 18.2789C100.649 18.2435 100.621 19.4991 101.193 19.531C101.765 19.5629 101.772 18.3286 101.263 18.2789Z"/><path fill="#263238" d="M104.647 17.5985C104.476 17.5559 104.326 17.4921 104.166 17.4353C103.988 17.4031 103.826 17.3106 103.706 17.1728C103.676 17.123 103.663 17.0644 103.67 17.0064C103.677 16.9485 103.703 16.8946 103.744 16.8536C103.835 16.7825 103.943 16.7374 104.057 16.7231C104.171 16.7088 104.287 16.7257 104.392 16.772C104.62 16.8334 104.818 16.9788 104.946 17.1799C104.973 17.2274 104.986 17.2818 104.983 17.3365C104.98 17.3911 104.961 17.4438 104.93 17.488C104.898 17.5322 104.855 17.5662 104.804 17.5858C104.754 17.6054 104.699 17.6098 104.647 17.5985Z"/><path fill="#263238" d="M100.775 17.6591C100.94 17.6221 101.103 17.5759 101.263 17.5207C101.441 17.4955 101.606 17.4121 101.733 17.2831C101.765 17.2346 101.781 17.1765 101.777 17.118C101.773 17.0595 101.751 17.004 101.712 16.9603C101.625 16.8842 101.518 16.8335 101.405 16.8136C101.292 16.7936 101.175 16.8051 101.067 16.8468C100.837 16.8964 100.633 17.0317 100.496 17.2263C100.467 17.2724 100.452 17.326 100.452 17.3807C100.453 17.4353 100.468 17.4887 100.498 17.5344C100.527 17.5801 100.569 17.6162 100.618 17.6383C100.667 17.6604 100.722 17.6676 100.775 17.6591Z"/><path fill="#263238" d="M102.66 21.4996C102.824 21.7107 103.039 21.8746 103.284 21.9749C103.419 22.0262 103.566 22.0336 103.706 21.9962C104.012 21.9075 104.012 21.6415 103.953 21.379C103.919 21.2556 103.871 21.1366 103.81 21.0243C103.486 21.303 103.083 21.4695 102.66 21.4996Z"/><path fill="#FF9ABB" d="M103.284 21.9756C103.419 22.0269 103.566 22.0343 103.706 21.9969C104.012 21.9082 104.012 21.6422 103.953 21.3797C103.792 21.3893 103.639 21.4531 103.518 21.561C103.397 21.6689 103.315 21.8147 103.284 21.9756Z"/><path fill="#263238" d="M100.545 15.0236C100.743 14.527 100.977 14.0269 101.266 13.9205C101.555 13.8141 101.761 14.5377 102.427 14.5696C103.322 14.6157 103.741 13.7715 104.992 13.658C106.787 13.4949 107.606 15.0094 107.7 17.6058C107.78 19.9219 109.163 20.1135 109.163 20.1135C109.163 20.1135 109.902 14.9846 108.466 13.3175C107.03 11.6505 103.754 10.9659 101.601 12.6081C100.803 13.2289 100.545 15.0236 100.545 15.0236Z"/><path fill="#AD6359" d="M107.996 19.2231C107.996 19.2231 109.003 17.2332 109.875 17.5737C110.746 17.9143 110.157 20.6809 109.251 21.1739C109.139 21.2448 109.014 21.292 108.884 21.3125C108.754 21.3331 108.621 21.3266 108.493 21.2935C108.366 21.2603 108.246 21.2012 108.141 21.1197C108.037 21.0382 107.949 20.936 107.885 20.8192L107.996 19.2231Z"/><path fill="#263238" d="M109.686 18.3643C109.686 18.3643 109.707 18.382 109.686 18.3891C109.055 18.7438 108.787 19.4319 108.641 20.12C108.67 20.0462 108.715 19.9799 108.772 19.9256C108.829 19.8713 108.897 19.8304 108.972 19.8057C109.046 19.781 109.125 19.7732 109.203 19.7828C109.28 19.7923 109.355 19.8191 109.421 19.8611C109.439 19.8611 109.421 19.9001 109.421 19.9001C109.299 19.8779 109.173 19.8951 109.06 19.9491C108.948 20.0031 108.855 20.0913 108.794 20.2016C108.692 20.3858 108.61 20.5809 108.55 20.7833C108.529 20.8507 108.414 20.8329 108.428 20.7584C108.282 19.8788 108.783 18.5771 109.686 18.3643Z"/><path fill="#EBEBEB" d="M104.026 27.2531L105.34 30.5376L109.327 26.3876L110.463 27.7142C110.463 27.7142 106.567 34.2902 106.543 34.0029L105.211 31.1866L103.305 33.1516L103.448 28.2249L104.026 27.2531Z"/><path fill="#263238" d="M103.239 30.7154C103.291 29.9032 103.319 29.0803 103.406 28.2716C103.406 28.2432 103.455 28.2326 103.462 28.2716C103.622 29.0555 103.413 32.1732 103.416 32.9075C103.497 32.8223 105.183 31.1801 105.201 31.2049C105.49 31.6518 106.466 33.6878 106.532 33.8899C107.149 32.8436 109.508 29.0413 110.24 28.0517C110.245 28.0477 110.25 28.0453 110.256 28.0448C110.262 28.0443 110.268 28.0458 110.273 28.0489C110.278 28.0521 110.282 28.0568 110.284 28.0624C110.287 28.068 110.287 28.0742 110.286 28.0801C109.752 29.1654 106.63 34.2908 106.581 34.2908C106.067 33.3223 105.602 32.3279 105.187 31.3113C104.901 31.666 103.197 33.5282 103.19 33.4076C103.16 32.5099 103.177 31.6113 103.239 30.7154Z"/><path fill="#EB9481" d="M59.009 30.6373C63.3933 39.4444 67.8473 60.6303 68.262 63.4643C68.5443 65.3903 58.5943 67.1318 58.5943 65.7982C58.5943 64.0885 56.5868 44.0909 56.7785 36.1883C56.8831 31.8291 58.1029 28.8177 59.009 30.6373Z"/><path fill="#EB9481" d="M58.5558 64.9531C58.3955 66.113 58.7754 70.1317 59.5212 73.1111C59.8697 74.5654 61.3613 78.6266 62.48 78.4315C63.5988 78.2364 63.2677 77.0127 63.2677 77.0127C63.2677 77.0127 64.1459 78.6301 65.2507 78.3287C66.3555 78.0272 65.7874 76.1331 65.7874 76.1331C65.7874 76.1331 66.8051 77.7328 67.8785 77.3497C68.9519 76.9666 68.0702 75.1612 68.0702 75.1612C68.0702 75.1612 68.938 76.6687 69.6977 75.9699C70.6143 75.1293 68.7114 72.54 68.3908 70.912C68.3176 70.5573 67.4289 63.3145 67.4289 63.3145L58.5558 64.9531Z"/><path fill="#263238" d="M68.0843 75.1375C66.6903 73.2292 66.4045 72.1474 66.2302 69.8171C66.2278 69.8091 66.2229 69.8022 66.2163 69.7973C66.2098 69.7923 66.2018 69.7897 66.1936 69.7897C66.1855 69.7897 66.1775 69.7923 66.1709 69.7973C66.1643 69.8022 66.1595 69.8091 66.157 69.8171C66.1257 72.119 66.293 73.5272 67.9972 75.2191C68.0808 75.2935 68.1505 75.2261 68.0843 75.1375Z"/><path fill="#263238" d="M65.8155 76.2365C64.5364 74.126 64.2158 72.9556 63.8533 70.5259C63.8533 70.4904 63.7906 70.494 63.7941 70.5259C63.9509 72.9414 64.1426 74.3424 65.7004 76.2826C65.7701 76.3748 65.8747 76.3322 65.8155 76.2365Z"/><path fill="#263238" d="M63.1668 76.8541C62.076 74.7259 61.6717 73.4526 61.6195 71.0477C61.6168 71.0381 61.611 71.0296 61.6032 71.0236C61.5953 71.0175 61.5857 71.0143 61.5759 71.0143C61.566 71.0143 61.5565 71.0175 61.5486 71.0236C61.5407 71.0296 61.535 71.0381 61.5323 71.0477C61.3511 73.5058 61.846 75.0912 63.1006 76.886C63.1878 76.9889 63.2366 76.9747 63.1668 76.8541Z"/><path fill="#EB9481" d="M68.1993 62.9603C68.1993 62.9603 69.8025 65.4432 70.2695 66.7094C70.7365 67.9757 70.7888 73.2855 69.6596 73.3635C68.2028 73.4628 67.5685 70.3947 67.464 68.8518C67.464 68.8518 64.0904 69.0823 63.1773 66.979C62.2642 64.8757 68.1993 62.9603 68.1993 62.9603Z"/><path fill="#263238" d="M69.2518 73.2533C67.8577 72.3701 67.8368 70.3342 67.6172 68.8444C67.615 68.8223 67.6075 68.801 67.5954 68.7824C67.5834 68.7638 67.567 68.7484 67.5479 68.7376C67.5287 68.7268 67.5073 68.7209 67.4854 68.7203C67.4635 68.7198 67.4417 68.7246 67.4221 68.7345C66.0036 68.7345 63.9997 68.3159 63.1424 67.0674C63.1405 67.0626 63.1377 67.0583 63.1341 67.0547C63.1305 67.0511 63.1261 67.0483 63.1213 67.0466C63.1165 67.0449 63.1115 67.0443 63.1064 67.0448C63.1014 67.0453 63.0965 67.0469 63.0921 67.0495C63.0878 67.0521 63.084 67.0557 63.0811 67.0599C63.0783 67.0642 63.0763 67.069 63.0755 67.0741C63.0746 67.0792 63.0748 67.0844 63.0762 67.0893C63.0775 67.0943 63.0799 67.0989 63.0831 67.1029C63.822 68.5713 65.7597 69.1459 67.314 69.0431C67.5162 70.5718 67.6242 72.6148 69.2413 73.2675C69.2518 73.271 69.2587 73.2604 69.2518 73.2533Z"/><path fill="#3EBB7F" d="M69.2169 62.364L57.9147 64.1374C57.9147 64.1374 56.1129 42.7813 56.0467 35.6129C55.9805 28.4445 58.5107 26.6888 61.2256 34.0203C63.9405 41.3519 69.2169 62.364 69.2169 62.364Z"/><path fill="#263238" d="M57.8588 62.3389C62.4836 61.2748 67.4987 60.8811 68.3699 60.7499C68.4118 60.7499 68.4153 60.8102 68.3699 60.8137C67.5126 60.8988 61.8249 61.9878 57.8588 62.4098C57.8275 62.4134 57.824 62.346 57.8588 62.3389Z"/><path fill="#EB9481" d="M82.91 140.564C82.1259 140.823 59.1415 140.472 58.2981 139.908C58.1971 139.844 58.1831 137.73 58.211 134.832L57.0923 117.619L71.6357 117.661L72.7858 132.558C72.7858 132.558 76.0478 134.091 78.7384 135.432C79.9156 135.976 81.0596 136.592 82.1642 137.276C83.032 138.014 83.6942 140.309 82.91 140.564Z"/><path fill="#263238" d="M82.9101 140.563C82.126 140.822 59.1416 140.471 58.2982 139.907C58.1971 139.843 58.1832 137.729 58.2111 134.831C63.8883 136.119 79.0277 138.204 79.4703 136.995C79.6481 136.509 79.2856 135.959 78.7454 135.452C79.9226 135.996 81.0666 136.612 82.1713 137.296C83.0321 138.013 83.6943 140.308 82.9101 140.563Z"/><path fill="#37474F" d="M50.9514 54.9685C50.9514 54.9685 55.0708 99.4542 55.1614 99.9934C55.1614 100.064 55.2067 100.887 55.2451 102.224C55.4751 109.563 56.0397 132.448 56.0397 132.448H73.3189C73.3189 132.448 72.1932 105.342 71.545 99.0215C70.719 90.9522 65.6412 54.9685 65.6412 54.9685H50.9514Z"/><path fill="#263238" d="M57.2214 101.497C56.6893 92.2612 55.8889 83.0392 54.8201 73.8313C54.2137 68.6528 53.4818 63.492 52.7569 58.3276C52.7569 58.2815 52.6802 58.2851 52.6872 58.3276C54.0255 67.5178 54.97 76.7717 55.7855 86.0328C56.601 95.2939 57.1795 104.534 57.528 113.805C57.7406 119.055 57.9009 124.311 58.0647 129.564C58.069 129.587 58.0809 129.608 58.0984 129.622C58.1159 129.637 58.1379 129.645 58.1606 129.645C58.1833 129.645 58.2053 129.637 58.2228 129.622C58.2403 129.608 58.2522 129.587 58.2564 129.564C58.0264 120.215 57.7615 110.851 57.2214 101.497Z"/><path fill="#263238" d="M72.2282 129.614C71.7751 129.554 71.2837 129.572 70.8342 129.557C70.3184 129.557 69.7886 129.533 69.2798 129.515C68.2796 129.476 67.2759 129.447 66.2756 129.433C64.2577 129.398 62.2364 129.412 60.222 129.476L58.5561 129.536C57.9636 129.557 57.3712 129.614 56.7787 129.611C56.7369 129.611 56.7369 129.664 56.7787 129.664C57.7928 129.664 58.821 129.753 59.8386 129.792C60.8563 129.831 61.8391 129.845 62.8393 129.859C64.8572 129.887 66.882 129.859 68.8964 129.795C69.4506 129.774 70.0047 129.767 70.5588 129.749L71.451 129.703C71.7159 129.703 71.9773 129.703 72.2421 129.678C72.277 129.678 72.2735 129.621 72.2282 129.614Z"/><path fill="#263238" d="M63.4351 54.9685L55.5413 112.911C55.4298 108.591 55.3183 104.597 55.2451 102.224C55.2067 100.887 55.1754 100.064 55.1614 99.9934C55.0639 99.4542 50.9514 54.9685 50.9514 54.9685H63.4351Z"/><path fill="#EB9481" d="M53.9628 143.649C53.1403 143.582 32.0553 134.26 31.4907 133.409C31.421 133.313 32.1877 131.355 33.3274 128.692L37.9765 112.021L51.4291 117.515L47.6338 132.317C47.6338 132.317 50.0734 135.009 52.0459 137.282C52.927 138.247 53.7509 139.265 54.5134 140.329C55.0397 141.34 54.7818 143.72 53.9628 143.649Z"/><path fill="#263238" d="M53.9628 143.65C53.1403 143.582 32.0553 134.261 31.4907 133.41C31.421 133.314 32.1877 131.356 33.3274 128.692C38.0846 132.104 51.2688 139.95 52.147 139.007C52.4955 138.631 52.3666 137.978 52.0599 137.297C52.9409 138.262 53.7649 139.28 54.5274 140.344C55.0397 141.341 54.7818 143.721 53.9628 143.65Z"/><path fill="#37474F" d="M31.8149 126.975L48.6725 132.295C48.6725 132.295 56.9043 102.909 57.5351 96.0065C58.1589 89.1644 58.7619 75.1859 59.0302 65.0452C59.0302 65.0452 61.8462 63.3498 62.5607 62.424C63.2751 61.4983 63.9164 58.1677 65.3243 54.9755H44.6994C39.7715 64.7189 43.4796 69.0533 43.4796 71.1779C43.4796 81.4356 41.9566 95.0523 41.4722 97.0706C40.4615 101.277 31.8149 126.975 31.8149 126.975Z"/><path fill="#263238" d="M48.634 128.542C48.2123 128.365 47.7348 128.255 47.2957 128.117C46.7973 127.964 46.2955 127.822 45.8006 127.666C44.8457 127.365 43.8838 127.077 42.9219 126.801C40.9818 126.238 39.0278 125.72 37.0599 125.247L35.4358 124.868C34.8608 124.733 34.2718 124.63 33.6933 124.474C33.648 124.474 33.6375 124.513 33.6933 124.527C34.6761 124.79 35.6449 125.148 36.6173 125.453C37.5896 125.758 38.5376 126.031 39.4995 126.311C41.4407 126.868 43.3993 127.375 45.3649 127.84C45.9086 127.964 46.4453 128.103 46.9855 128.234L47.8533 128.429C48.1112 128.489 48.3621 128.574 48.6235 128.613C48.6328 128.615 48.6422 128.612 48.6497 128.607C48.6572 128.601 48.6622 128.593 48.6636 128.583C48.665 128.574 48.6626 128.564 48.6571 128.556C48.6515 128.549 48.6432 128.544 48.634 128.542Z"/><path fill="#263238" d="M63.0413 62.1939C62.0571 62.6543 61.1227 63.2177 60.2532 63.8752C59.3297 64.5207 58.4793 65.262 57.5906 65.9537C57.5558 65.9821 57.5906 66.0388 57.6255 66.014C58.563 65.4039 59.5458 64.8683 60.4728 64.2405C61.4036 63.6658 62.2809 63.0057 63.0936 62.2684C63.118 62.24 63.0866 62.1762 63.0413 62.1939Z"/><path fill="#263238" d="M63.1703 56.2818C63.0518 56.9345 62.895 57.5835 62.7556 58.2326C62.6162 58.8817 62.5291 59.4634 62.3722 60.0664C62.2426 60.6497 61.9511 61.1827 61.5323 61.6022C61.2988 61.8257 61.0374 62.0208 60.7865 62.2265C60.6541 62.3364 60.5077 62.4393 60.3683 62.5528C60.3857 62.4641 60.3997 62.379 60.4136 62.2868C60.4589 62.042 60.5007 61.7938 60.5391 61.5455C60.6297 60.9957 60.7168 60.4424 60.8004 59.8926C60.9642 58.8072 61.1141 57.7112 61.3371 56.6365C61.3395 56.6271 61.338 56.6171 61.3331 56.6088C61.3282 56.6005 61.3203 56.5945 61.311 56.5922C61.3018 56.5898 61.292 56.5913 61.2838 56.5963C61.2756 56.6013 61.2698 56.6094 61.2674 56.6188C61.0026 57.6829 60.7098 58.7469 60.4798 59.811C60.3648 60.336 59.9605 62.9323 59.9431 63.1168C59.9257 63.3012 59.9083 63.4963 59.9013 63.6878C59.8786 63.8822 59.8786 64.0787 59.9013 64.2731C59.9013 64.3192 59.971 64.3121 59.9884 64.2731C60.0665 64.093 60.1215 63.9035 60.1522 63.7091C60.1975 63.5247 60.2393 63.3367 60.2707 63.1487C60.2707 63.0813 60.2916 63.0104 60.3021 62.9394C60.553 62.7834 60.7865 62.5847 61.0235 62.4074C61.2605 62.23 61.5323 62.0527 61.7728 61.8328C62.2159 61.4522 62.5355 60.9439 62.6894 60.375C62.8442 59.7622 62.9457 59.1367 62.9926 58.5057C63.0727 57.768 63.132 57.0267 63.2331 56.2925C63.2435 56.2818 63.1773 56.2463 63.1703 56.2818Z"/><path fill="#263238" d="M62.738 27.9976C62.407 32.1653 61.9957 36.45 61.0408 40.5219C60.295 43.6928 58.6012 46.1579 55.2206 46.4878C52.084 46.7928 47.7451 46.1331 45.4449 43.7176C44.3715 42.5933 44.138 41.1816 44.4203 39.6777C44.8141 37.5885 48.0099 26.2809 48.9823 22.7481C49.5748 20.5987 50.1603 18.4173 51.1221 16.3956C53.1365 12.1392 55.3043 12.4939 55.604 12.4407C55.8863 12.3059 57.6428 11.7881 59.9012 12.8805C60.4954 13.1628 61.0242 13.5698 61.4531 14.0747C61.8819 14.5796 62.2011 15.1711 62.3895 15.8103C63.5884 19.6126 63.0587 24.096 62.738 27.9976Z"/><path fill="#263238" d="M54.8583 12.9623C52.0946 13.8348 51.0839 16.6369 50.1081 19.1339C48.7489 22.6135 47.4454 26.1179 46.3093 29.6826C45.7656 31.3957 45.2638 33.1231 44.8002 34.8611C44.3646 36.5282 43.7965 38.291 43.678 40.0183C43.4829 42.8559 45.8527 44.5159 48.2644 45.2643C48.2885 45.2723 48.3146 45.2702 48.3372 45.2586C48.3597 45.2469 48.3768 45.2267 48.3847 45.2022C48.3925 45.1777 48.3905 45.1511 48.3791 45.1282C48.3677 45.1052 48.3477 45.0878 48.3237 45.0798C46.9575 44.601 45.5809 44.0157 44.6783 42.7991C43.5177 41.2527 43.915 39.5005 44.3088 37.7554C44.9849 34.7831 45.8249 31.8568 46.7484 28.9625C47.672 26.0682 48.7384 23.2023 49.8258 20.3612C50.8713 17.6549 51.8367 14.037 54.8513 13.0084C54.8966 13.0084 54.8862 12.9516 54.8583 12.9623Z"/><path fill="#263238" d="M63.1598 18.9992C62.9576 16.7682 62.1351 14.5052 59.9848 13.5653C62.752 14.9061 63.0238 18.2224 63.0447 20.9607C63.068 23.8479 62.9878 26.7304 62.8043 29.6081C62.63 32.3783 62.393 35.1626 61.9713 37.9044C61.5148 40.8626 60.6121 43.5795 58.5629 45.7751C58.5583 45.7793 58.5546 45.7843 58.5519 45.79C58.5493 45.7957 58.5478 45.8018 58.5474 45.808C58.5471 45.8143 58.548 45.8206 58.55 45.8265C58.5521 45.8324 58.5553 45.8378 58.5594 45.8425C58.5635 45.8471 58.5685 45.8509 58.5741 45.8536C58.5796 45.8563 58.5856 45.8579 58.5918 45.8582C58.5979 45.8585 58.6041 45.8576 58.6099 45.8555C58.6157 45.8534 58.621 45.8502 58.6256 45.846C60.5877 44.1045 61.5183 41.4585 61.9957 38.9259C62.5718 35.5639 62.9292 32.1668 63.0657 28.7569C63.2469 25.5469 63.4525 22.2305 63.1598 18.9992Z"/><path fill="#EB9481" d="M54.6945 28.5658C54.8269 28.9205 56.8588 31.0841 58.5037 30.7897C59.037 30.6904 58.6431 27.6932 58.6431 27.6932L58.664 27.4662L58.9498 24.274L55.0709 22.4083L54.5168 22.1671C54.5168 22.1671 54.4924 23.0468 54.4784 24.1392C54.4784 24.1924 54.4784 24.2421 54.4784 24.2953C54.475 24.3555 54.475 24.4159 54.4784 24.4762C54.4784 24.6393 54.4784 24.806 54.4784 24.9727C54.4784 25.1395 54.4784 25.221 54.4784 25.3523C54.4784 25.4835 54.4784 25.6183 54.4784 25.7495C54.4876 26.6922 54.5598 27.6331 54.6945 28.5658Z"/><path fill="#263238" d="M54.4785 24.1392C54.8968 24.9693 55.4875 25.6969 56.2096 26.2714C56.9318 26.8459 57.7682 27.2536 58.6607 27.4662L58.9464 24.274L55.071 22.4083L54.5169 22.1671C54.5169 22.1671 54.4925 23.0468 54.4785 24.1392Z"/><path fill="#EB9481" d="M62.9368 19.5737C63.376 25.1779 60.1278 26.0788 58.9394 26.1746C57.859 26.2597 54.1753 26.4158 53.1715 20.8825C52.1678 15.3493 54.59 13.363 57.047 13.0438C59.504 12.7246 62.5012 13.966 62.9368 19.5737Z"/><path fill="#263238" d="M62.0097 18.3815C61.884 18.3627 61.7595 18.3366 61.6367 18.3035C61.5005 18.2951 61.3708 18.2415 61.2673 18.1509C61.241 18.1158 61.2268 18.0728 61.2268 18.0286C61.2268 17.9844 61.241 17.9414 61.2673 17.9062C61.3295 17.8452 61.4063 17.8019 61.4902 17.7807C61.574 17.7595 61.6618 17.7612 61.7448 17.7856C61.9224 17.8083 62.0847 17.8998 62.1978 18.041C62.2226 18.074 62.2372 18.1137 62.24 18.1552C62.2428 18.1966 62.2337 18.238 62.2137 18.2742C62.1937 18.3104 62.1637 18.3398 62.1274 18.3589C62.0912 18.378 62.0502 18.3858 62.0097 18.3815Z"/><path fill="#263238" d="M58.3432 18.4603C58.4721 18.4426 58.5872 18.4071 58.7161 18.3787C58.8458 18.3639 58.9677 18.3081 59.0646 18.2191C59.0915 18.1842 59.1061 18.1411 59.1061 18.0968C59.1061 18.0524 59.0915 18.0093 59.0646 17.9744C59.0016 17.9136 58.9238 17.8711 58.8393 17.8512C58.7548 17.8312 58.6665 17.8346 58.5837 17.8609C58.4083 17.8895 58.2495 17.983 58.1376 18.1234C58.1123 18.1576 58.0978 18.1989 58.0959 18.2417C58.0941 18.2846 58.105 18.327 58.1272 18.3634C58.1494 18.3998 58.1819 18.4286 58.2205 18.4458C58.259 18.4631 58.3018 18.4682 58.3432 18.4603Z"/><path fill="#263238" d="M59.204 19.8754C59.204 19.8754 59.1761 19.8754 59.1761 19.9073C59.2005 20.2904 59.1761 20.7338 58.8276 20.8721C58.8276 20.8721 58.8276 20.8969 58.8276 20.8934C59.2528 20.8118 59.2877 20.2337 59.204 19.8754Z"/><path fill="#263238" d="M58.8558 19.485C58.2494 19.4602 58.2425 20.6945 58.8036 20.7193C59.3647 20.7442 59.3647 19.5063 58.8558 19.485Z"/><path fill="#263238" d="M58.6188 19.5493C58.5108 19.6202 58.4062 19.7408 58.2703 19.755C58.1344 19.7692 58.0124 19.6379 57.9218 19.5138H57.9009C57.9009 19.7479 57.981 19.9926 58.2494 20.0281C58.5177 20.0636 58.6432 19.8543 58.7025 19.6167C58.699 19.5883 58.6606 19.5209 58.6188 19.5493Z"/><path fill="#263238" d="M61.2953 19.7902C61.2953 19.7902 61.3232 19.7902 61.3232 19.8221C61.3057 20.2052 61.3476 20.6486 61.6891 20.7798C61.6891 20.7798 61.6891 20.8046 61.6891 20.8011C61.2709 20.7373 61.2186 20.1485 61.2953 19.7902Z"/><path fill="#263238" d="M61.6366 19.3926C62.2396 19.3571 62.2709 20.5915 61.7098 20.6269C61.1487 20.6624 61.1278 19.4245 61.6366 19.3926Z"/><path fill="#263238" d="M61.8911 19.471C61.9887 19.5313 62.0863 19.6484 62.2013 19.6555C62.3163 19.6626 62.4278 19.5242 62.5115 19.393H62.5289C62.5289 19.6271 62.4696 19.8754 62.2501 19.925C62.0305 19.9747 61.9016 19.7725 61.8319 19.542C61.8214 19.5101 61.8528 19.4427 61.8911 19.471Z"/><path fill="#263238" d="M60.7444 21.521C60.7444 21.521 60.8246 22.0921 60.8246 22.3617C60.8246 22.39 60.7618 22.4007 60.6712 22.4078C60.4439 22.4515 60.2091 22.4307 59.9927 22.3474C59.7762 22.2642 59.5866 22.1219 59.4445 21.936C59.4394 21.9304 59.4367 21.9229 59.437 21.9153C59.4374 21.9076 59.4407 21.9004 59.4462 21.8952C59.4518 21.8901 59.4591 21.8873 59.4666 21.8877C59.4741 21.888 59.4812 21.8914 59.4863 21.897C59.8243 22.1312 60.228 22.247 60.6364 22.2269C60.6538 22.1524 60.4656 21.2515 60.5074 21.2479C60.7135 21.2647 60.9163 21.3101 61.1104 21.3827C60.9779 20.1874 60.6573 19.024 60.5388 17.8358C60.5388 17.8264 60.5425 17.8173 60.549 17.8107C60.5555 17.804 60.5644 17.8003 60.5736 17.8003C60.5829 17.8003 60.5918 17.804 60.5983 17.8107C60.6048 17.8173 60.6085 17.8264 60.6085 17.8358C60.9906 19.0727 61.251 20.3452 61.3857 21.6345C61.3961 21.7551 60.849 21.5565 60.7444 21.521Z"/><path fill="#263238" d="M61.1697 20.1632C61.086 19.2481 61.5007 18.4607 62.0932 18.3897C62.6857 18.3188 63.2398 19.0282 63.3235 19.9433C63.4071 20.8584 62.975 21.6458 62.3999 21.7168C61.8249 21.7877 61.2533 21.0783 61.1697 20.1632ZM61.3892 20.1419C61.4624 20.9329 61.905 21.5394 62.379 21.4968C62.853 21.4543 63.1806 20.7697 63.1074 19.9787C63.0342 19.1878 62.5881 18.5813 62.1141 18.6238C61.6402 18.6664 61.316 19.3509 61.3892 20.1419Z"/><path fill="#263238" d="M57.0747 20.5568C57.0672 20.2537 57.1469 19.9549 57.304 19.6972C57.461 19.4395 57.6886 19.2341 57.9588 19.1061C58.2289 18.9782 58.5299 18.9334 58.8248 18.9771C59.1196 19.0208 59.3955 19.1512 59.6186 19.3523C59.8416 19.5533 60.0021 19.8163 60.0804 20.1089C60.1587 20.4015 60.1513 20.711 60.0592 20.9994C59.967 21.2878 59.7942 21.5425 59.5618 21.7323C59.3294 21.9221 59.0476 22.0387 58.751 22.0678C58.3322 22.0921 57.921 21.9469 57.607 21.6639C57.2929 21.3808 57.1016 20.9829 57.0747 20.5568ZM57.2943 20.5356C57.3386 20.7906 57.455 21.027 57.6292 21.2158C57.8034 21.4046 58.0278 21.5378 58.2751 21.5989C58.5224 21.6601 58.7818 21.6467 59.0217 21.5603C59.2616 21.4739 59.4716 21.3183 59.6261 21.1124C59.7805 20.9066 59.8727 20.6594 59.8914 20.4011C59.9102 20.1428 59.8546 19.8846 59.7315 19.6579C59.6084 19.4312 59.4231 19.2459 59.1982 19.1246C58.9734 19.0033 58.7187 18.9513 58.4653 18.9749C58.1068 19.0243 57.7823 19.2163 57.5628 19.5089C57.3433 19.8014 57.2467 20.1707 57.2943 20.5356Z"/><path fill="#263238" d="M60.0301 20.1205C60.8177 19.7658 61.2115 19.9893 61.215 19.9928L61.3335 19.8048C61.3161 19.8048 60.8491 19.4927 59.9395 19.9183L60.0301 20.1205Z"/><path fill="#263238" d="M57.1622 20.4L57.1831 20.1765C57.0367 20.1765 53.6561 19.8573 53.2937 19.8715C52.9312 19.8857 52.0704 20.478 51.9763 20.5454L52.1018 20.7299C52.4598 20.4543 52.8602 20.241 53.2867 20.0985H53.3285C53.5934 20.102 55.9598 20.29 57.1622 20.4Z"/><path fill="#263238" d="M53.3283 20.482C53.9242 20.4466 55.4786 18.7689 55.5274 15.832C55.5274 15.832 55.3043 18.4674 55.1126 18.854C54.921 19.2406 55.9804 17.9105 56.0501 15.5447C56.7843 16.0777 57.5893 16.5017 58.4409 16.8039C59.5387 17.116 60.2114 17.1053 60.2915 17.0238C60.3717 16.9422 58.7511 16.4243 58.312 15.9136C58.312 15.9136 61.2395 17.2933 62.5847 17.3997C62.7416 17.3997 62.9332 14.1472 60.8422 12.7639C58.7511 11.3806 55.4577 12.8774 54.569 13.7499C54.569 13.7499 53.5234 13.8989 52.3977 15.4702C51.272 17.0415 52.687 20.521 53.3283 20.482Z"/><path fill="#EB9481" d="M54.0809 21.2442C54.0809 21.2442 52.8855 19.4707 52.1014 19.9106C51.3172 20.3504 52.2025 22.8935 53.119 23.2482C53.2336 23.302 53.3576 23.3316 53.4836 23.3355C53.6096 23.3393 53.7352 23.3172 53.8526 23.2705C53.9701 23.2238 54.0771 23.1535 54.1672 23.0637C54.2573 22.974 54.3287 22.8666 54.3772 22.7481L54.0809 21.2442Z"/><path fill="#263238" d="M52.3735 20.6344V20.6592C53.0148 20.9323 53.3494 21.5424 53.5829 22.1738C53.5463 22.1075 53.4959 22.0502 53.4353 22.0058C53.3747 21.9614 53.3052 21.931 53.2318 21.9169C53.1585 21.9027 53.0829 21.905 53.0105 21.9236C52.9381 21.9423 52.8706 21.9768 52.8127 22.0248C52.8127 22.0248 52.8127 22.0638 52.8301 22.0603C52.9436 22.024 53.0653 22.0247 53.1784 22.0622C53.2914 22.0997 53.3902 22.1722 53.4609 22.2695C53.5787 22.432 53.6792 22.6068 53.7606 22.7909C53.7885 22.8512 53.893 22.8193 53.8721 22.7519C53.8861 21.9007 53.2553 20.7266 52.3735 20.6344Z"/><path fill="#fff" d="M53.8896 23.1207C53.8903 23.2022 53.8672 23.2821 53.8232 23.3502C53.7792 23.4183 53.7163 23.4716 53.6424 23.5033C53.5686 23.535 53.4873 23.5437 53.4086 23.5282C53.33 23.5127 53.2576 23.4738 53.2007 23.4164C53.1438 23.359 53.105 23.2857 53.0891 23.2058C53.0732 23.1259 53.081 23.043 53.1115 22.9676C53.142 22.8922 53.1938 22.8277 53.2603 22.7824C53.3269 22.737 53.4052 22.7128 53.4853 22.7128C53.5919 22.7128 53.6942 22.7556 53.7699 22.832C53.8457 22.9084 53.8887 23.0122 53.8896 23.1207Z"/><path fill="#3EBB7F" d="M66.2233 56.8663C66.2233 56.8663 47.6615 57.1466 43.0542 56.8167C43.0542 56.8167 46.8112 35.1449 51.767 29.6684C51.9516 29.4627 52.147 29.2673 52.3525 29.0832C52.6557 28.8242 52.6139 26.7564 52.7568 26.6003C52.8997 26.4442 58.9219 27.2494 58.9986 27.3984C59.0753 27.5473 59.3855 29.4981 59.3855 29.4981C60.7516 31.2716 65.1464 37.4007 65.6587 39.9297C66.171 42.4587 64.5574 45.2501 64.5574 45.2501L66.2233 56.8663Z"/><path fill="#EB9481" d="M50.3485 33.5346C49.2507 38.9188 49.9024 50.5599 52.4395 52.6881C56.6217 56.1712 66.6728 57.1891 69.4783 57.5261C70.6876 57.6715 73.0958 49.6164 72.2664 48.5772C71.4369 47.5379 59.0822 45.9205 58.4932 45.3849C58.0854 45.0018 56.1651 37.9683 54.5097 34.0028C52.2827 28.6363 50.7493 31.5483 50.3485 33.5346Z"/><path fill="#EB9481" d="M70.1753 47.9287C70.1753 47.9287 73.8835 47.8897 76.3091 47.9819C77.6648 48.0315 79.9754 48.3366 80.9548 48.8331C82.415 49.5815 88.0609 53.6605 87.1164 55.0758C86.2626 56.3562 84.5828 54.6714 84.5828 54.6714C84.5828 54.6714 86.5902 56.3349 85.3599 57.3423C84.1297 58.3496 82.1397 55.9448 82.1397 55.9448C82.1397 55.9448 84.3911 57.5622 82.9761 58.5056C81.7494 59.3285 79.1739 56.8031 79.1739 56.8031C79.1739 56.8031 81.7215 58.2219 80.5435 59.2044C79.2436 60.2685 74.915 56.9769 74.915 56.9769C71.8133 57.6863 69.8581 57.6863 67.5789 57.3068C67.1607 57.2358 70.1753 47.9287 70.1753 47.9287Z"/><path fill="#263238" d="M82.7601 56.5042L82.2548 55.9615C81.942 55.6018 81.6092 55.2607 81.258 54.94C80.9095 54.6349 80.561 54.3441 80.1776 54.0674C79.7943 53.7907 79.3621 53.5141 78.9788 53.2126C78.9474 53.1878 78.9125 53.2339 78.9474 53.2552C79.328 53.5539 79.6933 53.8723 80.0417 54.2093C80.3902 54.5285 80.7387 54.8548 81.0872 55.1776C81.4358 55.5004 81.7843 55.7877 82.1328 56.0963C82.3036 56.2488 82.4813 56.4084 82.6381 56.568C82.7867 56.7319 82.9488 56.8826 83.1226 57.0185C83.14 57.0185 83.1609 57.0185 83.1504 56.9901C83.0377 56.8144 82.9069 56.6515 82.7601 56.5042Z"/><path fill="#263238" d="M84.9941 55.0255C84.4349 54.3379 83.8293 53.6908 83.1818 53.0889C82.5262 52.491 81.8127 51.9621 81.0524 51.5105C81.0245 51.5105 80.9966 51.5318 81.0176 51.5531C81.6728 52.1525 82.3384 52.7413 83.0041 53.3265C83.3282 53.6138 84.7641 54.9688 84.9313 55.1C84.9697 55.1213 85.0185 55.0645 84.9941 55.0255Z"/><path fill="#263238" d="M80.6935 57.952C80.1511 57.3174 79.5691 56.7191 78.9509 56.1608C78.2708 55.651 77.5544 55.1933 76.8076 54.7917C76.7797 54.7917 76.7518 54.8201 76.7762 54.8378C77.4523 55.3486 78.1354 55.8416 78.7871 56.3843C79.1077 56.6503 80.3136 57.7782 80.6412 58.0017C80.676 58.023 80.7144 57.9804 80.6935 57.952Z"/><path fill="#3EBB7F" d="M66.6971 57.8597L71.1198 47.3643C71.1198 47.3643 59.0055 45.3248 58.6326 45.0765C58.2597 44.8282 56.0501 36.6419 54.6317 33.4283C53.2132 30.2148 50.7771 28.3278 49.8361 35.2266C48.8952 42.1254 50.2578 50.5494 51.6205 52.3016C53.2725 54.4227 59.814 57.1077 66.6971 57.8597Z"/><path fill="#263238" d="M60.473 56.5337C58.6607 56.0336 56.8938 55.161 55.1617 54.4055C53.6735 53.7706 52.154 52.9868 51.328 51.5006C50.943 50.7439 50.6738 49.9317 50.53 49.0922C50.3383 48.1558 50.1814 47.2088 50.049 46.2547C49.8887 45.1669 49.7446 44.0768 49.6169 42.9844C49.5541 42.424 49.4914 41.8636 49.4356 41.3031C49.3799 40.7427 49.2788 40.1823 49.2579 39.6183C49.2579 39.6108 49.2549 39.6036 49.2497 39.5983C49.2445 39.593 49.2374 39.59 49.23 39.59C49.2226 39.59 49.2155 39.593 49.2103 39.5983C49.2051 39.6036 49.2021 39.6108 49.2021 39.6183C49.2405 40.1362 49.2021 40.6576 49.2439 41.179C49.2439 41.5337 49.2858 41.86 49.3102 42.2005L49.2126 41.9842C49.1052 41.7357 49.0235 41.4765 48.9686 41.2109C48.9686 41.179 48.9094 41.1932 48.9163 41.2109C48.9791 41.4769 49.0418 41.7465 49.115 42.009C49.1498 42.1367 49.1917 42.2644 49.2405 42.392C49.2696 42.4778 49.3034 42.5619 49.3415 42.6439C49.4252 43.663 49.5332 44.6775 49.6656 45.6872C49.7946 46.6661 49.9445 47.638 50.1152 48.6098C50.2416 49.4694 50.4662 50.311 50.7844 51.1175C51.1008 51.8778 51.585 52.5538 52.1993 53.0932C52.836 53.6251 53.5391 54.0688 54.2904 54.4126C55.989 55.2113 57.7448 55.8777 59.5425 56.406C61.6928 57.0941 62.348 57.048 60.473 56.5337Z"/><path fill="#263238" d="M65.0209 46.2717C64.5748 46.2114 59.3018 45.0835 59.0962 45.0232C58.9933 44.9912 58.9003 44.9326 58.8263 44.853C58.7524 44.7734 58.7001 44.6756 58.6745 44.5692C58.5107 44.1365 58.3678 43.6931 58.2145 43.2568C57.9496 42.5049 57.6801 41.7565 57.4059 41.0116C57.4059 40.8449 57.3746 40.6569 57.3571 40.5115C57.3397 40.3661 57.3049 40.1142 57.2735 39.9156C57.2038 39.4864 57.0783 39.0643 57.0261 38.6351C57.0261 38.5926 56.9598 38.6068 56.9703 38.6351C57.0765 39.0578 57.1396 39.4904 57.1585 39.9262C57.1759 40.0965 57.1864 40.2809 57.1968 40.4405C57.0365 40.0043 56.8727 39.568 56.7019 39.1353C56.5033 38.6316 56.2768 38.1244 56.1164 37.6065C56.1164 37.5711 56.0537 37.5888 56.0642 37.6065C56.2454 38.0712 56.3743 38.5642 56.5172 39.0253C56.6601 39.4864 56.8135 39.983 56.9668 40.4618C57.2665 41.4018 57.5837 42.3346 57.9043 43.271C58.0577 43.7215 58.2075 44.179 58.3713 44.6259C58.4163 44.7933 58.5048 44.9452 58.6274 45.0657C58.7501 45.1861 58.9024 45.2707 59.0683 45.3105C59.9849 45.5623 64.4668 46.3178 65.0105 46.3391C65.0662 46.3746 65.0802 46.2788 65.0209 46.2717Z"/><path fill="#263238" d="M68.879 47.5279C68.182 49.0353 67.4849 50.5321 66.8541 52.0715C66.216 53.5859 65.6565 55.1333 65.1778 56.7073C65.175 56.7144 65.1751 56.7223 65.1781 56.7293C65.181 56.7363 65.1865 56.7418 65.1935 56.7446C65.2004 56.7474 65.2082 56.7473 65.215 56.7443C65.2219 56.7413 65.2273 56.7357 65.2301 56.7286C65.9271 55.2495 66.537 53.7137 67.1539 52.1921C67.7707 50.6704 68.3318 49.1062 68.9557 47.5811C68.987 47.5172 68.9069 47.4676 68.879 47.5279Z"/><path fill="#AD6359" d="M81.9063 46.3289C81.3731 46.634 78.3202 45.7756 77.0829 46.7191C76.2639 47.3433 75.4624 48.8473 75.2881 50.8087C75.1104 52.834 76.6821 52.7312 77.2642 51.8728C77.9733 50.7428 78.5922 49.5567 79.1148 48.3259C79.6744 48.4393 80.2263 48.5898 80.7667 48.7763L81.9063 46.3289Z"/><path fill="#AD6359" d="M78.1631 53.3978C77.2187 52.3904 72.4998 56.0828 73.981 57.7605C75.4622 59.4382 79.2296 54.5399 78.1631 53.3978Z"/><path fill="#AD6359" d="M79.7383 54.8416C78.7939 53.8343 74.075 57.5266 75.5562 59.2044C77.0374 60.8821 80.8048 55.9837 79.7383 54.8416Z"/><path fill="#AD6359" d="M80.9791 55.352C79.9859 54.5681 76.201 58.5939 77.7868 59.9063C79.3725 61.2186 82.1048 56.2387 80.9791 55.352Z"/><path fill="#AD6359" d="M82.3281 55.5721C81.1885 55.1287 78.7873 59.9525 80.6239 60.7151C82.4606 61.4777 83.6211 56.058 82.3281 55.5721Z"/><path fill="#263238" d="M78.0241 55.0571C77.762 55.2357 77.5148 55.4362 77.2853 55.6565C77.0308 55.8835 76.7799 56.114 76.5499 56.3659C76.3256 56.604 76.115 56.855 75.9191 57.1178C75.7135 57.4016 75.5427 57.7102 75.3336 57.9868C75.3298 57.9893 75.3267 57.9927 75.3245 57.9967C75.3222 58.0006 75.321 58.0051 75.3208 58.0097C75.3207 58.0142 75.3216 58.0188 75.3235 58.0229C75.3255 58.0271 75.3284 58.0306 75.332 58.0334C75.3356 58.0361 75.3397 58.038 75.3442 58.0387C75.3486 58.0394 75.3532 58.0391 75.3574 58.0376C75.3617 58.0362 75.3656 58.0337 75.3687 58.0304C75.3718 58.0271 75.3741 58.0231 75.3754 58.0187C75.582 57.7512 75.8067 57.4988 76.048 57.2633C76.2746 57.0221 76.4872 56.7702 76.7137 56.5255C76.9402 56.2807 77.1424 56.0431 77.3654 55.8161C77.5885 55.5891 77.8394 55.355 78.0624 55.1067C78.0729 55.0748 78.0485 55.0429 78.0241 55.0571Z"/><path fill="#263238" d="M79.8989 55.5084C79.6968 55.8241 78.9893 57.0478 78.7732 57.3564C78.5571 57.665 78.3306 57.9735 78.1006 58.275C77.8706 58.5765 77.6475 58.9064 77.3861 59.1901C77.3652 59.215 77.4036 59.254 77.428 59.2292C77.6894 58.9454 77.9751 58.6865 78.2226 58.3885C78.47 58.0906 78.6966 57.7891 78.9196 57.4734C79.3067 56.8478 79.6559 56.1987 79.9651 55.5297C79.9651 55.4978 79.9163 55.48 79.8989 55.5084Z"/><path fill="#263238" d="M81.2095 56.1958C81.0003 56.664 80.8191 57.1499 80.6065 57.6146C80.502 57.8451 80.3939 58.0757 80.2894 58.324L80.143 58.6609C80.097 58.7951 80.0387 58.9245 79.9687 59.0475C79.9478 59.0759 80.0036 59.1078 80.0175 59.0688C80.0876 58.9284 80.1692 58.7943 80.2615 58.668C80.3207 58.5616 80.3835 58.4552 80.4392 58.3488C80.5577 58.1123 80.6658 57.8818 80.7634 57.6571C80.967 57.1976 81.137 56.7234 81.2722 56.2384C81.2777 56.2299 81.2797 56.2195 81.2778 56.2096C81.2758 56.1996 81.27 56.1908 81.2617 56.1852C81.2534 56.1795 81.2432 56.1775 81.2334 56.1795C81.2236 56.1815 81.215 56.1873 81.2095 56.1958Z"/><path fill="#fff" d="M84.2865 15.8817C84.1198 17.502 83.5141 19.0432 82.537 20.3336C81.5598 21.6239 80.2497 22.6126 78.7527 23.1894C77.2556 23.7662 75.6306 23.9083 74.0588 23.6C72.487 23.2917 71.0303 22.545 69.8512 21.4433L65.5261 22.0889L67.6904 18.2865C67.128 16.8799 66.9331 15.3491 67.1248 13.843C67.3165 12.337 67.8881 10.9072 68.7841 9.69281C69.68 8.47844 70.8698 7.52093 72.2373 6.91355C73.6049 6.30617 75.1038 6.06962 76.5879 6.22694C78.8663 6.46931 80.957 7.62236 82.4006 9.43271C83.8441 11.2431 84.5225 13.5626 84.2865 15.8817Z"/><path fill="#263238" d="M84.2866 15.8816C84.1188 17.5013 83.5159 19.0427 82.5441 20.3366C82.3037 20.6597 82.043 20.9666 81.7634 21.2553C81.4753 21.5356 81.1704 21.7974 80.8503 22.0391C80.2125 22.5328 79.5083 22.9305 78.7593 23.2203C78.0145 23.519 77.2318 23.7089 76.4347 23.7842C76.0362 23.8226 75.6355 23.8309 75.2358 23.8091C74.8346 23.7987 74.4349 23.756 74.0404 23.6814C72.4485 23.3897 70.9678 22.6528 69.7642 21.5532L69.8687 21.5851L65.5541 22.2307L65.2405 22.2803L65.3973 22.0001L67.5476 18.1907V18.3397C67.0434 17.0829 66.8284 15.7254 66.919 14.371C67.0096 13.0167 67.4035 11.7014 68.0704 10.5258C68.7429 9.35283 69.6674 8.35 70.7748 7.59244C72.1512 6.65462 73.7617 6.1355 75.4176 6.09595C77.0735 6.05639 78.7062 6.49804 80.1243 7.36911C81.5423 8.24019 82.6871 9.50461 83.4243 11.0142C84.1615 12.5237 84.4606 14.2159 84.2866 15.8923V15.8816ZM84.2866 15.8816C84.4244 14.5576 84.2618 13.219 83.8112 11.9689C83.3606 10.7189 82.6342 9.59081 81.6878 8.6715C80.7414 7.75219 79.6003 7.06619 78.3525 6.66635C77.1046 6.2665 75.7832 6.16348 74.49 6.3652C73.2101 6.55652 71.9897 7.04169 70.9212 7.78398C69.866 8.53836 68.9847 9.51753 68.3388 10.6535C67.7004 11.793 67.325 13.0653 67.2409 14.3742C67.1617 15.6799 67.3689 16.9872 67.8474 18.2013L67.8787 18.2794L67.8369 18.3539L65.6622 22.1491L65.5088 21.915L69.8339 21.2978H69.8931L69.9384 21.3368C71.092 22.4362 72.523 23.1877 74.0718 23.5076C74.4591 23.5861 74.8517 23.6347 75.2463 23.653C75.6396 23.6813 76.0344 23.6813 76.4277 23.653C77.2168 23.5909 77.9934 23.4166 78.7349 23.1351C79.4839 22.8626 80.1887 22.4777 80.8259 21.993C81.4742 21.5259 82.0468 20.9587 82.5232 20.3118C83.4984 19.0272 84.1083 17.4948 84.2866 15.8816Z"/><path fill="#3EBB7F" d="M74.6816 19.9814L70.9944 16.1791L72.2316 14.9341L74.3889 17.1545L78.8673 10.0074L80.3345 10.9615L74.6816 19.9814Z"/></g><defs><filter id="filter0_d_111_801" width="160" height="156.497" x="0" y="1.391" color-interpolation-filters="sRGB" filterUnits="userSpaceOnUse"><feFlood flood-opacity="0" result="BackgroundImageFix"/><feColorMatrix in="SourceAlpha" result="hardAlpha" type="matrix" values="0 0 0 0 0 0 0 0 0 0 0 0 0 0 0 0 0 0 127 0"/><feOffset dy="4"/><feGaussianBlur stdDeviation="2"/><feComposite in2="hardAlpha" operator="out"/><feColorMatrix type="matrix" values="0 0 0 0 0 0 0 0 0 0 0 0 0 0 0 0 0 0 0.25 0"/><feBlend in2="BackgroundImageFix" mode="normal" result="effect1_dropShadow_111_801"/><feBlend in="SourceGraphic" in2="effect1_dropShadow_111_801" mode="normal" result="shape"/></filter></defs></svg>