<svg width="160" height="154" viewBox="0 0 160 154" fill="none" xmlns="http://www.w3.org/2000/svg">
<g filter="url(#filter0_d_111_627)">
<path d="M35.8075 25.7904C35.8075 25.8073 35.4953 25.682 34.9181 25.55C34.0999 25.3716 33.257 25.3395 32.4278 25.4552C31.1961 25.6167 30.0337 26.122 29.0716 26.9143C27.8987 27.8838 27.0734 29.2146 26.7223 30.7026V30.7432L26.6551 31.014L26.5511 30.7567C25.9759 29.3435 24.9879 28.1403 23.7185 27.307C22.6757 26.6239 21.4757 26.224 20.2347 26.1458C19.4046 26.0855 18.5703 26.1621 17.7646 26.3727C17.194 26.525 16.892 26.657 16.8853 26.6401C16.9538 26.5991 17.0257 26.564 17.1001 26.5352C17.3098 26.4448 17.5251 26.3679 17.7444 26.3049C18.7542 26.0063 19.8156 25.9288 20.8576 26.0777C21.8995 26.2266 22.8978 26.5984 23.7856 27.1682C25.0905 28.0131 26.1063 29.2422 26.6954 30.689H26.5242V30.6484C26.89 29.1195 27.7466 27.7555 28.9608 26.7687C29.9493 25.9673 31.1415 25.4628 32.4009 25.313C33.2434 25.2078 34.098 25.2606 34.9214 25.4688C35.1498 25.5229 35.3741 25.593 35.5927 25.6787C35.6684 25.7072 35.7405 25.7447 35.8075 25.7904Z" fill="#C7C7C7"/>
<path d="M61.9157 11.7142C61.9157 11.7142 61.7378 11.6635 61.4223 11.5958C60.9736 11.5041 60.5126 11.4915 60.0597 11.5585C59.3853 11.6471 58.7492 11.9251 58.2239 12.3609C57.5832 12.8876 57.1317 13.6119 56.9384 14.4226V14.4463L56.8713 14.7171L56.7673 14.4598C56.4472 13.6878 55.9017 13.0325 55.2033 12.5809C54.6394 12.2074 53.99 11.986 53.3171 11.9377C52.8666 11.9031 52.4135 11.9408 51.9746 12.0494C51.6592 12.1273 51.4913 12.195 51.488 12.1814C51.4846 12.1679 51.5249 12.1543 51.6021 12.1171C51.7155 12.0618 51.8334 12.0165 51.9545 11.9817C52.4013 11.8406 52.8698 11.7821 53.3373 11.809C54.0363 11.8411 54.7146 12.0582 55.304 12.4387C56.0293 12.9068 56.5941 13.5888 56.9217 14.3921H56.7505V14.3684C56.9542 13.5184 57.4324 12.761 58.1098 12.2153C58.5688 11.8483 59.106 11.594 59.6792 11.4724C60.2523 11.3508 60.8456 11.3652 61.4123 11.5145C61.5355 11.5473 61.6566 11.588 61.7747 11.6364C61.8586 11.6872 61.9157 11.7075 61.9157 11.7142Z" fill="#C7C7C7"/>
<path d="M44.3729 6.11078C44.2234 6.30166 44.0643 6.48471 43.8963 6.65921C43.4643 7.15155 43.0737 7.67922 42.7283 8.2368C41.5835 10.0934 40.9831 12.2389 40.9965 14.4253V14.5031H40.8187C40.6404 13.3289 40.2611 12.1948 39.6977 11.1516C39.2383 10.3 38.6633 9.5172 37.9894 8.82586C37.5359 8.35858 37.0404 7.93472 36.5093 7.55972C36.13 7.29566 35.9119 7.16363 35.922 7.15009C35.9799 7.17015 36.0352 7.19745 36.0864 7.23134C36.2444 7.31328 36.3978 7.40369 36.5462 7.50217C37.1031 7.86364 37.6196 8.28474 38.0867 8.75815C39.6483 10.3094 40.6713 12.328 41.0032 14.5133H40.8254V14.432C40.8084 12.2135 41.4361 10.0385 42.631 8.17586C42.988 7.61444 43.3971 7.08847 43.8527 6.60504C44.0104 6.43239 44.1514 6.3139 44.2386 6.22927C44.279 6.18501 44.324 6.14529 44.3729 6.11078Z" fill="#C7C7C7"/>
<path fill-rule="evenodd" clip-rule="evenodd" d="M77.6428 84.713V84.5912V80.8469C77.7709 80.765 77.8773 80.6528 77.9527 80.5201C78.0281 80.3874 78.0704 80.2381 78.0757 80.0852C78.072 79.8618 77.9954 79.6458 77.8576 79.4707C77.7199 79.2957 77.5288 79.1713 77.3139 79.117V76.0701V75.9517C77.3139 75.8738 77.3139 75.7993 77.3139 75.7282V74.4926H77.73C77.8636 74.4926 77.9916 74.4391 78.086 74.3438C78.1804 74.2486 78.2335 74.1194 78.2335 73.9848C78.2335 73.8501 78.1804 73.7209 78.086 73.6257C77.9916 73.5304 77.8636 73.477 77.73 73.477H77.1662C77.6318 72.1659 77.6008 70.7275 77.0789 69.4382C76.66 68.6177 76.0635 67.9027 75.3337 67.346C74.6406 66.7815 73.9019 66.2764 73.1253 65.8361C73.1634 65.7108 73.186 65.5812 73.1925 65.4502C73.2041 65.2531 73.1696 65.0559 73.0918 64.8747C72.9715 64.6493 72.8016 64.4547 72.5951 64.3059C72.4188 64.1701 72.2325 64.0479 72.0379 63.9403V63.6018C72.0812 63.5682 72.1167 63.5254 72.142 63.4765C72.1717 63.419 72.1878 63.3552 72.189 63.2903C72.1894 63.2231 72.1731 63.1568 72.1414 63.0976C72.1097 63.0384 72.0637 62.9883 72.0077 62.9518V62.6505C72.0388 62.6225 72.0649 62.5892 72.0849 62.5523C72.1092 62.5065 72.1219 62.4553 72.1218 62.4034C72.1217 62.3452 72.1066 62.2881 72.0782 62.2375C72.0532 62.1982 72.0214 62.1638 71.9842 62.1359L71.9675 61.7974L71.8601 59.343C71.8592 59.3292 71.8532 59.3163 71.8432 59.3068C71.8332 59.2974 71.82 59.2922 71.8064 59.2922C71.7918 59.2912 71.7773 59.296 71.7661 59.3054C71.7549 59.3149 71.7476 59.3283 71.7459 59.343L71.6385 61.7974L71.6218 62.1359C71.5865 62.1648 71.5559 62.199 71.5311 62.2375C71.5015 62.2878 71.4854 62.3449 71.4842 62.4034C71.4835 62.4558 71.4975 62.5074 71.5244 62.5523C71.5423 62.5916 71.5701 62.6254 71.605 62.6505L71.5882 62.9518C71.5319 62.9877 71.4859 63.0379 71.4547 63.0972C71.4235 63.1566 71.4082 63.2232 71.4103 63.2903C71.4099 63.3554 71.4261 63.4196 71.4573 63.4765C71.4813 63.5262 71.5171 63.5692 71.5614 63.6018V63.9403C71.3652 64.047 71.1778 64.1692 71.0009 64.3059C70.7943 64.4547 70.6244 64.6493 70.5042 64.8747C70.4278 65.0588 70.3934 65.2577 70.4035 65.457C70.4125 65.5879 70.4362 65.7173 70.4739 65.8429C69.6962 66.2831 68.9564 66.7882 68.2622 67.3528C67.5321 67.9082 66.9365 68.6236 66.5204 69.445C65.9985 70.7343 65.9674 72.1727 66.4331 73.4837H65.9532C65.8196 73.4837 65.6916 73.5372 65.5972 73.6325C65.5028 73.7277 65.4497 73.8568 65.4497 73.9915C65.4497 74.1262 65.5028 74.2554 65.5972 74.3506C65.6916 74.4458 65.8196 74.4993 65.9532 74.4993H66.3525V79.1407C66.1402 79.1948 65.9517 79.3186 65.8168 79.4927C65.6819 79.6668 65.6082 79.8812 65.6075 80.1021C65.6125 80.2551 65.6546 80.4045 65.7301 80.5373C65.8056 80.67 65.9121 80.7822 66.0404 80.8638V84.6081H63.9999V79.635H61.1773V78.4128H61.4089C61.4737 78.4184 61.5389 78.4103 61.6005 78.3891C61.662 78.3678 61.7186 78.334 61.7665 78.2896C61.8144 78.2452 61.8526 78.1912 61.8787 78.1312C61.9049 78.0711 61.9184 78.0062 61.9184 77.9406C61.9184 77.875 61.9049 77.8101 61.8787 77.75C61.8526 77.6899 61.8144 77.636 61.7665 77.5916C61.7186 77.5472 61.662 77.5133 61.6005 77.4921C61.5389 77.4709 61.4737 77.4628 61.4089 77.4683H61.1605C61.6304 76.3478 62.8386 72.854 61.2713 69.2858C60.6672 67.8945 59.4388 66.5775 58.056 65.4231C56.7728 64.3823 55.408 63.4482 53.9749 62.6302C54.0426 62.3998 54.0843 62.1625 54.0991 61.9226C54.1189 61.5573 54.0546 61.1923 53.9111 60.8562C53.6929 60.4379 53.3802 60.0773 52.9982 59.8034C52.671 59.5518 52.3255 59.3255 51.9645 59.1263L51.9343 58.4729C52.0119 58.4104 52.0769 58.3334 52.1256 58.2461C52.1794 58.1414 52.2082 58.0255 52.2095 57.9076C52.2098 57.7755 52.175 57.6458 52.1089 57.5318C52.0526 57.4356 51.9743 57.3543 51.8806 57.2948L51.8571 56.7329C51.9158 56.6838 51.9647 56.6241 52.0015 56.5568C52.0471 56.4703 52.0713 56.3739 52.0719 56.2758C52.0711 56.1796 52.0472 56.0849 52.0022 56C51.9572 55.9151 51.8924 55.8425 51.8135 55.7883L51.79 55.1959L51.5853 50.6595C51.5809 50.6353 51.5683 50.6134 51.5496 50.5977C51.5309 50.5819 51.5073 50.5733 51.4829 50.5733C51.4586 50.5733 51.435 50.5819 51.4163 50.5977C51.3976 50.6134 51.3849 50.6353 51.3806 50.6595L51.1792 55.1959L51.1523 55.7883C51.0826 55.8382 51.0233 55.9015 50.9778 55.9745C50.9258 56.0663 50.898 56.1701 50.8973 56.2758C50.8967 56.3736 50.9198 56.47 50.9644 56.5568C51.0013 56.625 51.0515 56.6849 51.1121 56.7329L51.0852 57.2948C50.9923 57.3553 50.9142 57.4364 50.857 57.5318C50.7909 57.6458 50.7561 57.7755 50.7563 57.9076C50.7577 58.0255 50.7864 58.1414 50.8402 58.2461C50.889 58.3334 50.9539 58.4104 51.0315 58.4729L51.0047 59.1263C50.6421 59.3246 50.2954 59.551 49.9676 59.8034C49.5865 60.0782 49.274 60.4386 49.0547 60.8562C48.9124 61.195 48.8481 61.562 48.8668 61.9294C48.8792 62.1698 48.922 62.4076 48.9943 62.637C47.5602 63.4534 46.1952 64.3875 44.9132 65.4299C43.5271 66.5809 42.2987 67.9012 41.6912 69.2926C40.1373 72.8608 41.3388 76.3545 41.8053 77.4751H41.557C41.4922 77.4695 41.4269 77.4776 41.3654 77.4989C41.3038 77.5201 41.2473 77.5539 41.1994 77.5983C41.1515 77.6427 41.1133 77.6967 41.0871 77.7568C41.0609 77.8168 41.0474 77.8817 41.0474 77.9473C41.0474 78.013 41.0609 78.0779 41.0871 78.1379C41.1133 78.198 41.1515 78.2519 41.1994 78.2963C41.2473 78.3407 41.3038 78.3746 41.3654 78.3958C41.4269 78.417 41.4922 78.4251 41.557 78.4196H41.6711V79.6417H40.3286V104.609L77.683 104.731L77.6428 84.713Z" fill="#F5F5F5"/>
<path fill-rule="evenodd" clip-rule="evenodd" d="M74.3705 91.2304H69.4302V75.9962C69.4297 75.6688 69.4933 75.3446 69.6173 75.0421C69.7413 74.7396 69.9232 74.4648 70.1527 74.2333C70.3821 74.0019 70.6546 73.8183 70.9545 73.6933C71.2544 73.5682 71.5758 73.5041 71.9003 73.5045C72.2247 73.5045 72.5459 73.569 72.8456 73.6942C73.1453 73.8194 73.4176 74.0029 73.647 74.2343C73.8764 74.4657 74.0583 74.7404 74.1825 75.0427C74.3066 75.345 74.3705 75.669 74.3705 75.9962V91.2304Z" fill="#FAFAFA"/>
<path fill-rule="evenodd" clip-rule="evenodd" d="M55.4114 85.8943H47.615V79.0084C47.615 78.4923 47.7158 77.9812 47.9116 77.5043C48.1074 77.0275 48.3944 76.5942 48.7563 76.2292C49.1181 75.8642 49.5476 75.5747 50.0204 75.3772C50.4931 75.1797 50.9998 75.078 51.5115 75.078C52.0232 75.078 52.5299 75.1797 53.0027 75.3772C53.4754 75.5747 53.905 75.8642 54.2668 76.2292C54.6286 76.5942 54.9156 77.0275 55.1115 77.5043C55.3073 77.9812 55.4081 78.4923 55.4081 79.0084L55.4114 85.8943Z" fill="#FAFAFA"/>
<path d="M65.0367 104.43C64.9864 104.43 64.9495 100.029 64.9495 94.5851C64.9495 89.1414 64.9864 84.7371 65.0367 84.7371C65.0871 84.7371 65.124 89.1381 65.124 94.5851C65.124 100.032 65.0837 104.43 65.0367 104.43Z" fill="#F5F5F5"/>
<path fill-rule="evenodd" clip-rule="evenodd" d="M76.4278 120.46V94.5649C76.0706 94.1763 75.6871 93.8132 75.28 93.4782C74.3979 92.759 73.4583 92.1147 72.4709 91.5519C72.5189 91.3934 72.5482 91.2298 72.5581 91.0644C72.5705 90.8126 72.5257 90.5614 72.4272 90.3297C72.277 90.0421 72.062 89.794 71.7996 89.6053C71.5726 89.4326 71.3337 89.2765 71.0848 89.1381L71.0646 88.6912C71.1196 88.6488 71.1643 88.5944 71.1955 88.5321C71.2382 88.4569 71.2606 88.3717 71.2606 88.285C71.2606 88.1983 71.2382 88.1131 71.1955 88.0378C71.1566 87.9708 71.1025 87.914 71.0378 87.872V87.486C71.0773 87.4517 71.1103 87.4104 71.1351 87.3642C71.1664 87.3047 71.1825 87.2384 71.1821 87.1712C71.1823 87.0984 71.1625 87.0269 71.125 86.9647C71.095 86.9141 71.055 86.8703 71.0076 86.836L70.9908 86.4264L70.8498 83.3051C70.8491 83.287 70.8419 83.2699 70.8295 83.2568C70.8172 83.2437 70.8005 83.2356 70.7827 83.234C70.7732 83.2335 70.7636 83.235 70.7547 83.2384C70.7458 83.2418 70.7376 83.2469 70.7307 83.2536C70.7238 83.2602 70.7183 83.2682 70.7145 83.2771C70.7108 83.2859 70.7089 83.2954 70.7089 83.3051L70.5679 86.4264L70.5511 86.836C70.5019 86.8693 70.4606 86.9133 70.4303 86.9647C70.3943 87.0275 70.3747 87.0986 70.3732 87.1712C70.374 87.2387 70.3913 87.305 70.4236 87.3642C70.4473 87.4112 70.4804 87.4527 70.5209 87.486V87.872C70.4578 87.9159 70.4041 87.9724 70.3632 88.0378C70.3172 88.1157 70.2929 88.2045 70.2927 88.2951C70.2937 88.3779 70.3144 88.4592 70.3531 88.5321C70.3854 88.5937 70.4299 88.6479 70.484 88.6912L70.4639 89.1381C70.216 89.2766 69.9782 89.4327 69.7523 89.6053C69.4887 89.7926 69.2734 90.041 69.1247 90.3297C69.0243 90.562 68.9795 90.8148 68.9939 91.0678C69.0022 91.2334 69.0315 91.3972 69.0811 91.5553C68.0931 92.1188 67.1524 92.7631 66.2686 93.4815C65.3155 94.2737 64.4697 95.1742 64.0502 96.1424C62.9796 98.6002 63.8052 101.007 64.1307 101.779H63.9294C63.8596 101.8 63.7984 101.842 63.7548 101.901C63.7113 101.96 63.6877 102.031 63.6877 102.104C63.6877 102.177 63.7113 102.249 63.7548 102.307C63.7984 102.366 63.8596 102.409 63.9294 102.429H64.0065V103.269H62.1472V106.685H60.741V104.105C60.8294 104.049 60.9029 103.971 60.9549 103.88C61.007 103.788 61.0361 103.686 61.0397 103.58C61.0435 103.424 60.9934 103.271 60.8979 103.147C60.8024 103.024 60.6675 102.937 60.5161 102.903V100.797V100.716C60.5161 100.662 60.5161 100.611 60.5161 100.564V99.7106H60.8014C60.8931 99.7106 60.981 99.6739 61.0458 99.6085C61.1107 99.5431 61.1471 99.4544 61.1471 99.3619C61.1471 99.2695 61.1107 99.1808 61.0458 99.1154C60.981 99.05 60.8931 99.0133 60.8014 99.0133H60.4121C60.7329 98.1099 60.7114 97.1188 60.3517 96.2305C60.0647 95.666 59.6551 95.1742 59.1535 94.7917C58.6744 94.4031 58.1648 94.0543 57.6298 93.749C57.6552 93.663 57.6709 93.5744 57.6768 93.4849C57.6844 93.348 57.6603 93.2113 57.6063 93.0854C57.5261 92.931 57.4111 92.7977 57.2707 92.6961C57.1477 92.6031 57.0187 92.5182 56.8847 92.4422V92.2019C56.9125 92.1763 56.9363 92.1467 56.9552 92.1138C56.9743 92.0736 56.9846 92.0298 56.9854 91.9852C56.9855 91.9364 56.9728 91.8885 56.9485 91.8464C56.925 91.812 56.8968 91.7812 56.8646 91.755V91.5485C56.8868 91.5298 56.9051 91.5068 56.9183 91.4808C56.9347 91.4496 56.9428 91.4146 56.9418 91.3792C56.942 91.3392 56.9328 91.2998 56.9149 91.2641C56.8958 91.2384 56.8732 91.2156 56.8478 91.1964V90.973L56.7739 89.2803C56.7732 89.2707 56.769 89.2616 56.7623 89.2548C56.7555 89.248 56.7466 89.2438 56.737 89.243C56.7267 89.2435 56.7168 89.2475 56.709 89.2542C56.7011 89.2609 56.6956 89.2701 56.6934 89.2803L56.6196 90.973V91.1964C56.5932 91.2145 56.5704 91.2375 56.5524 91.2641C56.5335 91.2995 56.5231 91.339 56.5222 91.3792C56.5224 91.4148 56.5316 91.4498 56.5491 91.4808C56.5612 91.5074 56.5797 91.5307 56.6028 91.5485V91.755C56.5697 91.7803 56.5414 91.8112 56.5189 91.8464C56.4946 91.8885 56.4818 91.9364 56.482 91.9852C56.4812 92.03 56.4916 92.0742 56.5122 92.1138C56.5288 92.1482 56.5529 92.1782 56.5826 92.2019V92.4422C56.4482 92.5175 56.3192 92.6023 56.1967 92.6961C56.0565 92.798 55.9416 92.9313 55.8611 93.0854C55.8095 93.2131 55.7866 93.3507 55.7939 93.4883C55.7964 93.5782 55.8123 93.6672 55.8409 93.7524C55.3049 94.0561 54.7952 94.4049 54.3172 94.7951C53.8156 95.1785 53.4051 95.67 53.1157 96.2339C52.7575 97.1225 52.736 98.113 53.0553 99.0166H52.7197C52.628 99.0166 52.5401 99.0534 52.4752 99.1188C52.4104 99.1842 52.374 99.2729 52.374 99.3653C52.374 99.4578 52.4104 99.5465 52.4752 99.6119C52.5401 99.6773 52.628 99.714 52.7197 99.714H52.9949V102.91C52.8453 102.946 52.7127 103.033 52.6192 103.157C52.5258 103.28 52.4771 103.432 52.4814 103.587C52.4858 103.692 52.5153 103.795 52.5672 103.886C52.6192 103.977 52.6922 104.055 52.7801 104.112V106.691H50.1388C51.3201 103.509 53.2097 96.4133 50.0414 89.1381C48.6687 85.9931 45.8965 83.0106 42.7686 80.414C39.8729 78.0607 36.7905 75.9513 33.5524 74.107C33.7107 73.588 33.8053 73.0513 33.8344 72.5091C33.8827 71.6825 33.7391 70.856 33.4148 70.0953C33.0322 69.2219 32.2301 68.4026 31.3541 67.7256C30.6111 67.1565 29.8256 66.6461 29.0048 66.1988L28.941 64.7295C29.1165 64.5878 29.2615 64.4116 29.3673 64.2115C29.5011 63.9606 29.5681 63.679 29.5616 63.3941C29.5552 63.1093 29.4755 62.831 29.3304 62.5865C29.2024 62.3699 29.0281 62.1849 28.8202 62.0449L28.7632 60.7821C28.8983 60.6708 29.0121 60.5354 29.0988 60.3827C29.2047 60.1791 29.2575 59.9518 29.2522 59.722C29.2469 59.4922 29.1837 59.2675 29.0686 59.0691C28.9707 58.9023 28.8378 58.759 28.6793 58.6493L28.6188 57.2952L28.0953 47.1695C29.0509 47.2382 30.006 47.029 30.8474 46.5669C31.7272 46.0568 32.4382 45.296 32.8913 44.38C32.4727 44.9382 31.9362 45.3954 31.3206 45.7185C30.7051 46.0416 30.026 46.2224 29.3326 46.2478C28.6392 46.2733 27.9488 46.1427 27.3117 45.8656C26.6745 45.5885 26.1064 45.1718 25.6487 44.6458C25.191 44.1197 24.8552 43.4975 24.6655 42.8242C24.4758 42.151 24.4371 41.4436 24.5521 40.7534C24.6671 40.0631 24.933 39.4074 25.3305 38.8337C25.728 38.26 26.2471 37.7827 26.8501 37.4365C27.3844 37.1235 27.9756 36.922 28.5886 36.8441C27.2352 36.7162 25.8868 37.1358 24.8401 38.0106C23.7934 38.8855 23.1341 40.144 23.0073 41.5092C22.8804 42.8744 23.2964 44.2345 24.1638 45.2903C25.0311 46.3461 26.2787 47.0111 27.6321 47.1391L27.179 57.2749L27.1186 58.629C26.9411 58.752 26.796 58.9167 26.696 59.1091C26.596 59.3014 26.5441 59.5155 26.5447 59.7327C26.5456 59.952 26.5986 60.1679 26.6991 60.3624C26.785 60.5157 26.8988 60.6512 27.0347 60.7618L26.9743 62.0246C26.7664 62.1645 26.5921 62.3496 26.4642 62.5662C26.319 62.8107 26.2394 63.089 26.2329 63.3738C26.2264 63.6587 26.2934 63.9403 26.4272 64.1912C26.5352 64.3907 26.6812 64.5667 26.8568 64.7092L26.7897 66.1784C25.9689 66.6258 25.1835 67.1362 24.4404 67.7052C23.5678 68.3823 22.7623 69.2084 22.383 70.075C22.0534 70.8378 21.9073 71.6684 21.9568 72.4989C21.9858 73.0412 22.0805 73.5778 22.2387 74.0968C18.9986 75.9386 15.914 78.0458 13.0159 80.397C9.88793 82.9936 7.11571 85.9762 5.74639 89.1212C2.57478 96.3964 4.46432 103.495 5.6457 106.674V121.143L76.4278 120.46Z" fill="#C7C7C7"/>
<path fill-rule="evenodd" clip-rule="evenodd" d="M13.1969 106.352H9.7937V98.2001C9.79326 97.9744 9.83695 97.7509 9.92227 97.5422C10.0076 97.3336 10.1328 97.144 10.2909 96.9843C10.449 96.8245 10.6367 96.6978 10.8433 96.6113C11.05 96.5248 11.2716 96.4803 11.4953 96.4803C11.719 96.4803 11.9406 96.5248 12.1472 96.6113C12.3539 96.6978 12.5416 96.8245 12.6997 96.9843C12.8577 97.144 12.983 97.3336 13.0683 97.5422C13.1536 97.7509 13.1973 97.9744 13.1969 98.2001V106.352Z" fill="#F5F5F5"/>
<path fill-rule="evenodd" clip-rule="evenodd" d="M58.3951 113.837H54.9919V103.366C54.9919 102.911 55.1712 102.475 55.4903 102.153C55.8094 101.831 56.2422 101.65 56.6935 101.65C57.1448 101.65 57.5776 101.831 57.8967 102.153C58.2158 102.475 58.3951 102.911 58.3951 103.366V113.837Z" fill="#F5F5F5"/>
<path d="M70.3934 101.633H71.501C71.6523 101.632 71.8022 101.661 71.9423 101.719C72.0823 101.777 72.2096 101.862 72.3169 101.97C72.4242 102.077 72.5094 102.205 72.5675 102.346C72.6256 102.487 72.6555 102.638 72.6555 102.791V106.356H69.2456V102.791C69.2456 102.484 69.3665 102.189 69.5818 101.972C69.7971 101.755 70.089 101.633 70.3934 101.633Z" fill="#F5F5F5"/>
<path fill-rule="evenodd" clip-rule="evenodd" d="M18.587 106.352H15.1838V98.2001C15.1834 97.9744 15.2271 97.7509 15.3124 97.5422C15.3977 97.3336 15.523 97.144 15.681 96.9843C15.8391 96.8245 16.0268 96.6978 16.2335 96.6113C16.4402 96.5248 16.6617 96.4803 16.8854 96.4803C17.1092 96.4803 17.3307 96.5248 17.5374 96.6113C17.744 96.6978 17.9318 96.8245 18.0898 96.9843C18.2479 97.144 18.3731 97.3336 18.4585 97.5422C18.5438 97.7509 18.5875 97.9744 18.587 98.2001V106.352Z" fill="#F5F5F5"/>
<path fill-rule="evenodd" clip-rule="evenodd" d="M23.9906 106.352H20.574V98.2002C20.5735 97.9745 20.6172 97.7509 20.7025 97.5423C20.7879 97.3337 20.9131 97.1441 21.0712 96.9843C21.2292 96.8246 21.417 96.6978 21.6236 96.6114C21.8303 96.5249 22.0518 96.4804 22.2756 96.4804C22.5004 96.4786 22.7234 96.5218 22.9316 96.6075C23.1399 96.6931 23.3292 96.8196 23.4887 96.9795C23.6481 97.1394 23.7746 97.3296 23.8608 97.5392C23.9469 97.7487 23.991 97.9733 23.9906 98.2002V106.352Z" fill="#F5F5F5"/>
<path fill-rule="evenodd" clip-rule="evenodd" d="M29.3606 106.352H25.9641V98.2001C25.9637 97.9744 26.0074 97.7509 26.0927 97.5422C26.178 97.3336 26.3033 97.144 26.4613 96.9843C26.6194 96.8245 26.8071 96.6978 27.0138 96.6113C27.2204 96.5248 27.442 96.4803 27.6657 96.4803C27.8894 96.4803 28.111 96.5248 28.3177 96.6113C28.5243 96.6978 28.712 96.8245 28.8701 96.9843C29.0282 97.144 29.1534 97.3336 29.2387 97.5422C29.324 97.7509 29.3677 97.9744 29.3673 98.2001L29.3606 106.352Z" fill="#F5F5F5"/>
<path fill-rule="evenodd" clip-rule="evenodd" d="M34.7571 106.352H31.3506V98.2001C31.3501 97.9744 31.3938 97.7509 31.4792 97.5422C31.5645 97.3336 31.6897 97.144 31.8478 96.9843C32.0058 96.8245 32.1936 96.6978 32.4002 96.6113C32.6069 96.5249 32.8284 96.4803 33.0522 96.4804C33.2762 96.4799 33.4981 96.5241 33.7052 96.6103C33.9122 96.6966 34.1003 96.8233 34.2587 96.9831C34.4172 97.1428 34.5427 97.3326 34.6282 97.5415C34.7138 97.7503 34.7576 97.9742 34.7571 98.2001V106.352Z" fill="#F5F5F5"/>
<path fill-rule="evenodd" clip-rule="evenodd" d="M40.1442 106.352H36.7444V98.2001C36.7439 97.9744 36.7876 97.7509 36.8729 97.5422C36.9583 97.3336 37.0835 97.144 37.2416 96.9843C37.3996 96.8245 37.5874 96.6978 37.794 96.6113C38.0007 96.5248 38.2222 96.4803 38.446 96.4803C38.6697 96.4803 38.8913 96.5248 39.0979 96.6113C39.3046 96.6978 39.4923 96.8245 39.6504 96.9843C39.8084 97.144 39.9337 97.3336 40.019 97.5422C40.1043 97.7509 40.148 97.9744 40.1476 98.2001L40.1442 106.352Z" fill="#F5F5F5"/>
<path d="M43.2787 96.4803H44.3862C44.6906 96.4803 44.9826 96.6023 45.1979 96.8195C45.4131 97.0366 45.534 97.3311 45.534 97.6381V106.352H42.1309V97.6415C42.1304 97.4892 42.1598 97.3383 42.2173 97.1974C42.2748 97.0566 42.3592 96.9285 42.4659 96.8207C42.5725 96.7128 42.6992 96.6272 42.8387 96.5688C42.9781 96.5104 43.1277 96.4803 43.2787 96.4803Z" fill="#F5F5F5"/>
<path d="M51.3133 120.581C51.2428 120.581 51.1858 117.561 51.1858 113.837C51.1858 110.113 51.2428 107.093 51.3133 107.093C51.3838 107.093 51.4442 110.113 51.4442 113.837C51.4442 117.561 51.3872 120.581 51.3133 120.581Z" fill="#EBEBEB"/>
<path d="M61.6875 120.581C61.6171 120.581 61.5566 117.561 61.5566 113.837C61.5566 110.113 61.6171 107.093 61.6875 107.093C61.758 107.093 61.8184 110.113 61.8184 113.837C61.8184 117.561 61.758 120.581 61.6875 120.581Z" fill="#EBEBEB"/>
<path fill-rule="evenodd" clip-rule="evenodd" d="M148.764 100.394V100.272V96.5244C148.892 96.443 148.998 96.3315 149.074 96.1993C149.149 96.0672 149.192 95.9185 149.197 95.7661C149.197 95.5417 149.122 95.324 148.983 95.1482C148.845 94.9725 148.652 94.849 148.435 94.7979V91.751L148.452 91.6325C148.452 91.5547 148.452 91.4802 148.435 91.4091V90.1633H148.841C148.975 90.1633 149.103 90.1098 149.197 90.0145C149.292 89.9193 149.345 89.7901 149.345 89.6555C149.345 89.5208 149.292 89.3916 149.197 89.2964C149.103 89.2012 148.975 89.1477 148.841 89.1477H148.278C148.741 87.8375 148.71 86.4008 148.19 85.1123C147.771 84.2918 147.175 83.5768 146.445 83.0201C145.751 82.4545 145.011 81.9483 144.233 81.5069C144.271 81.3825 144.295 81.2541 144.304 81.1243C144.316 80.926 144.281 80.7277 144.203 80.5454C144.085 80.3187 143.914 80.1237 143.706 79.9767C143.53 79.8395 143.342 79.7172 143.146 79.611V79.2725C143.193 79.2357 143.231 79.1884 143.256 79.1344C143.282 79.0803 143.295 79.021 143.294 78.9611C143.294 78.8897 143.275 78.8196 143.24 78.7579C143.208 78.7061 143.165 78.6612 143.116 78.6259V78.328C143.147 78.3001 143.173 78.2669 143.193 78.2298C143.219 78.1833 143.231 78.1307 143.23 78.0775C143.23 78.0208 143.216 77.9649 143.19 77.915C143.164 77.8764 143.132 77.8422 143.096 77.8134L143.079 77.4918L142.968 75.034C142.967 75.0208 142.962 75.0083 142.952 74.999C142.943 74.9896 142.931 74.984 142.918 74.9832C142.903 74.983 142.889 74.988 142.878 74.9973C142.867 75.0067 142.86 75.0197 142.857 75.034L142.75 77.4918V77.8134C142.713 77.8407 142.682 77.8753 142.659 77.915C142.628 77.9633 142.612 78.0198 142.612 78.0775C142.613 78.1305 142.625 78.1826 142.649 78.2298C142.67 78.267 142.698 78.3002 142.73 78.328V78.6259C142.68 78.6612 142.638 78.7061 142.606 78.7579C142.569 78.8194 142.549 78.8895 142.549 78.9611C142.547 79.0267 142.565 79.0914 142.599 79.1472C142.622 79.1966 142.657 79.2395 142.7 79.2725L142.683 79.611C142.487 79.7173 142.301 79.8396 142.126 79.9767C141.918 80.1237 141.747 80.3187 141.629 80.5454C141.552 80.7294 141.518 80.9284 141.528 81.1277C141.534 81.2576 141.557 81.3861 141.595 81.5102C140.819 81.9526 140.081 82.4587 139.387 83.0235C138.656 83.5784 138.061 84.2939 137.645 85.1157C137.122 86.4035 137.091 87.8414 137.558 89.1511H137.078C136.944 89.1511 136.816 89.2045 136.722 89.2998C136.628 89.395 136.575 89.5242 136.575 89.6589C136.575 89.7935 136.628 89.9227 136.722 90.0179C136.816 90.1132 136.944 90.1667 137.078 90.1667H137.43V94.8046C137.218 94.8614 137.031 94.9863 136.896 95.1604C136.761 95.3345 136.686 95.5484 136.682 95.7695C136.688 95.9222 136.73 96.0712 136.806 96.2035C136.882 96.3357 136.99 96.447 137.118 96.5278V100.275H135.081V95.3158H132.258V94.0937H132.49C132.607 94.0837 132.717 94.0296 132.796 93.9421C132.876 93.8547 132.92 93.7402 132.92 93.6214C132.92 93.5027 132.876 93.3882 132.796 93.3008C132.717 93.2133 132.607 93.1592 132.49 93.1492H132.242C132.708 92.0286 133.92 88.5349 132.352 84.9667C131.745 83.5719 130.52 82.2584 129.134 81.104C127.848 80.0623 126.48 79.1293 125.043 78.3144C125.113 78.0848 125.155 77.8471 125.167 77.6069C125.19 77.2406 125.127 76.8739 124.982 76.5371C124.765 76.1191 124.452 75.7593 124.069 75.4876C123.743 75.2348 123.397 75.0084 123.036 74.8106L122.999 74.1504C123.076 74.0875 123.14 74.0091 123.187 73.9202C123.247 73.8096 123.277 73.6851 123.274 73.5591C123.271 73.4331 123.235 73.3101 123.17 73.2025C123.114 73.1062 123.037 73.024 122.945 72.9622L122.922 72.4036C122.98 72.3532 123.029 72.2924 123.066 72.2241C123.111 72.1387 123.134 72.0433 123.133 71.9465C123.133 71.8407 123.105 71.7367 123.052 71.6452C123.009 71.5708 122.949 71.5072 122.878 71.459L122.851 70.8632L122.663 66.3302C122.659 66.306 122.646 66.2841 122.627 66.2684C122.609 66.2526 122.585 66.244 122.561 66.244C122.536 66.244 122.513 66.2526 122.494 66.2684C122.475 66.2841 122.463 66.306 122.458 66.3302L122.257 70.8632L122.227 71.459C122.158 71.5091 122.1 71.5724 122.056 71.6452C122 71.7358 121.971 71.8402 121.972 71.9465C121.972 72.0436 121.996 72.139 122.042 72.2241C122.079 72.2924 122.128 72.3532 122.187 72.4036L122.163 72.9622C122.07 73.0239 121.992 73.1061 121.935 73.2025C121.87 73.3101 121.834 73.4331 121.831 73.5591C121.828 73.6851 121.858 73.8096 121.918 73.9202C121.966 74.0092 122.031 74.0875 122.109 74.1504L122.079 74.8004C121.718 74.9998 121.373 75.2261 121.045 75.4775C120.664 75.7501 120.351 76.1096 120.133 76.527C119.987 76.8659 119.922 77.2347 119.945 77.6035C119.958 77.8435 120 78.081 120.069 78.3111C118.636 79.1284 117.273 80.0625 115.991 81.104C114.605 82.255 113.377 83.5719 112.769 84.9667C111.215 88.5349 112.413 92.0286 112.883 93.1492H112.631C112.514 93.1592 112.405 93.2133 112.325 93.3008C112.245 93.3882 112.201 93.5027 112.201 93.6214C112.201 93.7402 112.245 93.8547 112.325 93.9421C112.405 94.0296 112.514 94.0837 112.631 94.0937H112.746V95.3158H111.403V120.293L148.761 120.415L148.764 100.394Z" fill="#C7C7C7"/>
<path fill-rule="evenodd" clip-rule="evenodd" d="M145.485 106.908H140.548V91.6736C140.549 91.013 140.81 90.3798 141.273 89.9127C141.736 89.4456 142.363 89.1828 143.018 89.1819C143.674 89.1819 144.302 89.4443 144.766 89.9115C145.23 90.3787 145.491 91.0124 145.492 91.6736L145.485 106.908Z" fill="#F5F5F5"/>
<path fill-rule="evenodd" clip-rule="evenodd" d="M126.532 101.576H118.736V94.6902C118.735 94.1737 118.836 93.6623 119.031 93.185C119.227 92.7078 119.514 92.2741 119.876 91.9087C120.238 91.5434 120.667 91.2536 121.14 91.0559C121.613 90.8581 122.12 90.7563 122.632 90.7563C123.667 90.7563 124.659 91.1708 125.39 91.9085C126.121 92.6463 126.532 93.6468 126.532 94.6902V101.576Z" fill="#F5F5F5"/>
<path d="M136.155 120.111C136.108 120.111 136.067 115.71 136.067 110.263C136.067 104.815 136.108 100.414 136.155 100.414C136.202 100.414 136.245 104.815 136.245 110.263C136.245 115.71 136.205 120.111 136.155 120.111Z" fill="#F5F5F5"/>
<path d="M156 120.405C156 120.453 122.391 120.493 80.9388 120.493C39.4864 120.493 5.86743 120.453 5.86743 120.405C5.86743 120.358 39.4696 120.317 80.932 120.317C122.394 120.317 156 120.358 156 120.405Z" fill="#C7C7C7"/>
<path d="M79.6698 32.2735C79.9416 30.2727 77.1426 28.6274 75.0382 28.4548C74.0314 28.3735 72.991 28.5293 72.0412 28.1941C69.9805 27.4696 69.1582 24.785 67.1512 23.9319C65.6476 23.2921 63.9192 23.8608 62.4525 24.609C60.9859 25.3572 59.5561 26.2814 57.9284 26.3863C56.512 26.4777 54.9749 25.9462 53.7365 26.6436C52.8135 27.1649 52.3302 28.2381 51.4811 28.8712C50.632 29.5042 49.5614 29.6194 48.531 29.6769C47.5007 29.7345 46.43 29.7446 45.4903 30.1779C44.5506 30.6113 43.7719 31.6133 43.9666 32.6391L79.6698 32.2735Z" fill="#F5F5F5"/>
<path d="M25.4102 15.0351C25.5411 14.077 24.202 13.2916 23.1985 13.2104C22.7185 13.1698 22.2218 13.2442 21.7687 13.0851C20.7854 12.7466 20.3927 11.4568 19.4194 11.0539C18.7012 10.7492 17.8756 11.02 17.1808 11.3721C16.4861 11.7242 15.7981 12.1711 15.0194 12.2218C14.3482 12.2625 13.6098 12.012 13.0057 12.3437C12.5627 12.5909 12.3345 13.1054 11.9284 13.4067C11.505 13.6692 11.0156 13.8032 10.5188 13.7927C10.0237 13.7795 9.53057 13.8611 9.06554 14.033C8.83478 14.1231 8.63929 14.2864 8.50854 14.4982C8.37778 14.7101 8.31884 14.9591 8.34061 15.2078L25.4102 15.0351Z" fill="#F5F5F5"/>
<path d="M139.41 34.5581C139.514 33.8066 138.464 33.204 137.672 33.1261C137.294 33.1414 136.917 33.1084 136.547 33.0279C135.776 32.7571 135.467 31.7483 134.712 31.4267C134.148 31.1863 133.497 31.403 132.953 31.6772C132.409 31.9514 131.866 32.3069 131.255 32.3543C130.721 32.3881 130.144 32.1918 129.681 32.4524C129.345 32.6488 129.154 33.0516 128.835 33.2886C128.502 33.4938 128.118 33.5984 127.727 33.5899C127.338 33.5823 126.95 33.6466 126.583 33.7795C126.402 33.8506 126.248 33.979 126.145 34.1457C126.042 34.3123 125.996 34.5081 126.012 34.7037L139.41 34.5581Z" fill="#EBEBEB"/>
<path d="M140.534 14.6696C140.749 13.0886 138.538 11.7853 136.876 11.6498C136.081 11.5855 135.259 11.7074 134.507 11.4433C132.879 10.8712 132.231 8.75195 130.64 8.07487C129.456 7.57045 128.09 8.02071 126.949 8.60638C125.807 9.19205 124.66 9.92329 123.374 10.0079C122.253 10.079 121.042 9.66939 120.062 10.2144C119.333 10.6241 118.951 11.4704 118.28 11.9714C117.608 12.4725 116.763 12.5639 115.93 12.6079C115.098 12.6519 114.272 12.6621 113.527 13.004C112.782 13.3459 112.185 14.1415 112.326 14.9506L140.534 14.6696Z" fill="#EBEBEB"/>
<path d="M154.609 145.346C154.609 145.39 122.288 145.429 82.4277 145.429C42.5674 145.429 10.2402 145.39 10.2402 145.346C10.2402 145.301 42.5548 145.263 82.4277 145.263C122.301 145.263 154.609 145.298 154.609 145.346Z" fill="#263238"/>
<path d="M49.2576 132.229C49.2994 129.909 50.1868 127.685 51.7504 125.982C52.5037 129.117 49.2576 132.229 49.2576 132.229Z" fill="#FFBE9D"/>
<path d="M52.8774 130.463C55.0045 129.575 57.3807 129.508 59.5537 130.274C57.0033 132.223 52.8774 130.463 52.8774 130.463Z" fill="#FFBE9D"/>
<path d="M53.2886 128.43C52.9463 126.636 53.2697 124.778 54.1971 123.209C55.2897 125.497 53.2886 128.43 53.2886 128.43Z" fill="#FFBE9D"/>
<path d="M39.2891 121.101C44.5823 122.522 47.4201 127.162 47.4201 127.162C42.8974 127.165 39.2891 121.101 39.2891 121.101Z" fill="#FFBE9D"/>
<path d="M47.7422 123.288C47.4547 117.534 53.0412 111.023 53.0412 111.023C52.1987 118.166 47.7422 123.288 47.7422 123.288Z" fill="#FFBE9D"/>
<path d="M47.7132 106.901C47.8211 109.784 47.1238 112.64 45.7006 115.143C44.9099 111.44 47.7132 106.901 47.7132 106.901Z" fill="#FFBE9D"/>
<path d="M45.5657 118.591C41.3938 118.139 39.1252 113.951 39.1252 113.951C44.1683 115.378 45.5657 118.591 45.5657 118.591Z" fill="#FFBE9D"/>
<path d="M36.572 136.182C38.5292 134.96 40.8634 134.507 43.1304 134.909C40.9251 137.246 36.572 136.182 36.572 136.182Z" fill="#FFBE9D"/>
<path d="M47.377 138.07C46.8475 139.435 45.8539 140.566 44.5737 141.26C44.752 139.314 47.377 138.07 47.377 138.07Z" fill="#FFBE9D"/>
<path d="M46.8393 137.452C44.4673 138.926 41.8508 138.349 41.8508 138.349C43.4724 136.661 46.8393 137.452 46.8393 137.452Z" fill="#FFBE9D"/>
<path d="M48.9727 145.195C48.9691 145.168 48.9691 145.139 48.9727 145.111C48.9727 145.042 48.9727 144.961 48.9727 144.859V143.896C48.9727 143.476 48.9727 142.965 48.9727 142.371C48.9727 141.776 48.9727 141.1 48.9296 140.341C48.8922 138.844 48.7887 137.066 48.6421 135.094C48.4954 133.122 48.2366 130.961 47.9089 128.714C47.2505 124.195 46.3505 120.155 45.626 117.255C45.2608 115.805 44.9532 114.645 44.7289 113.827C44.6225 113.435 44.542 113.125 44.4788 112.896C44.4558 112.797 44.4356 112.719 44.4184 112.652C44.4152 112.624 44.4152 112.596 44.4184 112.568C44.4184 112.568 44.4184 112.594 44.4529 112.646L44.5305 112.884L44.818 113.807C45.0653 114.607 45.3931 115.773 45.7726 117.22C46.7489 120.997 47.5168 124.825 48.0728 128.688C48.4005 130.95 48.6478 133.116 48.7944 135.091C48.9411 137.066 49.0273 138.861 49.0475 140.349C49.0705 141.097 49.0475 141.776 49.0475 142.379C49.0475 142.983 49.0475 143.487 49.0245 143.905C49.0015 144.323 48.9986 144.633 48.99 144.871C48.99 144.969 48.99 145.053 48.99 145.12C48.9867 145.146 48.9809 145.171 48.9727 145.195Z" fill="#263238"/>
<path d="M41.3187 133.018C41.3475 132.974 43.0438 134.088 45.0824 135.506C47.1209 136.924 48.7712 138.116 48.7425 138.151C48.7137 138.186 47.0174 137.078 44.976 135.663C42.9346 134.247 41.29 133.061 41.3187 133.018Z" fill="#263238"/>
<path d="M48.7427 133.618C48.8164 133.511 48.9033 133.413 49.0014 133.328L49.7519 132.597L52.259 130.225L54.7662 127.855L55.5253 127.136C55.6108 127.042 55.7073 126.959 55.8128 126.889C55.7444 126.996 55.6633 127.093 55.5713 127.179C55.4074 127.365 55.1601 127.623 54.8525 127.942C54.2343 128.574 53.3631 129.43 52.3798 130.355C51.3965 131.28 50.4965 132.095 49.8352 132.675C49.5046 132.965 49.2343 133.203 49.0446 133.36C48.9567 133.46 48.855 133.547 48.7427 133.618Z" fill="#263238"/>
<path d="M35.9626 130.292C35.9626 130.292 40.2754 130.207 42.0954 133.63C40.886 133.594 39.7016 133.273 38.6368 132.694C37.572 132.114 36.6563 131.292 35.9626 130.292Z" fill="#FFBE9D"/>
<path d="M41.8509 128.546C41.8509 128.546 45.3586 131.072 44.8008 134.926C43.8495 134.169 43.0872 133.197 42.5749 132.089C42.0626 130.981 41.8147 129.768 41.8509 128.546Z" fill="#FFBE9D"/>
<path d="M60.3357 122.325C60.3357 122.325 58.9498 127.191 54.5508 128.064C55.0047 126.719 55.7643 125.499 56.7687 124.503C57.7731 123.506 58.9946 122.76 60.3357 122.325Z" fill="#FFBE9D"/>
<path d="M39.936 104.23C39.936 104.23 45.4334 107.85 44.8239 113.734C43.3312 112.644 42.1118 111.217 41.2632 109.567C40.4145 107.917 39.96 106.089 39.936 104.23Z" fill="#FFBE9D"/>
<path d="M58.1963 136.631C58.0868 136.74 57.9664 136.837 57.8369 136.921C57.6011 137.092 57.2619 137.353 56.8507 137.681C54.7082 139.393 52.8688 141.459 51.4108 143.792C51.1233 144.238 50.9134 144.607 50.7668 144.862C50.6988 145 50.6159 145.13 50.5195 145.25C50.5657 145.103 50.6274 144.961 50.7035 144.827C50.8301 144.56 51.0313 144.18 51.2987 143.722C52.7013 141.33 54.5576 139.241 56.7616 137.574C57.1842 137.257 57.5379 137.014 57.788 136.86C57.9145 136.767 58.0515 136.69 58.1963 136.631Z" fill="#263238"/>
<path d="M53.4091 140.245C53.0128 137.953 53.4672 135.594 54.6857 133.618C55.2608 137.757 53.4091 140.245 53.4091 140.245Z" fill="#FFBE9D"/>
<path d="M57.1099 138.209C58.5654 137.374 60.2741 137.108 61.9114 137.461C59.2548 138.879 57.1099 138.209 57.1099 138.209Z" fill="#FFBE9D"/>
<path d="M130.695 130.007C131.043 130.175 131.354 130.412 131.609 130.704C131.865 130.996 132.059 131.337 132.181 131.706C132.421 132.447 132.489 133.233 132.379 134.003C132.21 135.497 131.37 137.002 130.465 138.194C129.22 137.098 128.932 135.187 128.849 134.206C128.714 132.658 129.404 129.778 130.695 130.007Z" fill="#FFBE9D"/>
<path d="M131.914 140.66C131.828 140.233 131.856 139.791 131.995 139.379C132.134 138.967 132.379 138.599 132.704 138.314C133.034 138.034 133.415 137.823 133.827 137.694C134.238 137.564 134.671 137.519 135.099 137.56C135.299 137.557 135.496 137.597 135.678 137.68C135.86 137.762 136.022 137.883 136.152 138.035C136.248 138.197 136.3 138.381 136.302 138.569C136.305 138.757 136.258 138.942 136.166 139.106C135.977 139.43 135.707 139.699 135.381 139.883C134.303 140.567 133.133 141.028 131.914 140.66Z" fill="#FFBE9D"/>
<path d="M130.303 145.233C130.312 145.131 130.327 145.029 130.349 144.929C130.387 144.711 130.439 144.433 130.499 144.099C130.638 143.176 130.924 142.282 131.347 141.451C131.784 140.617 132.435 139.917 133.23 139.421C133.472 139.277 133.73 139.162 133.998 139.079C134.093 139.047 134.168 139.035 134.219 139.021H134.297C133.94 139.146 133.596 139.306 133.271 139.499C132.503 140 131.873 140.69 131.442 141.503C131.028 142.325 130.737 143.205 130.579 144.114C130.505 144.462 130.441 144.743 130.395 144.937C130.375 145.039 130.344 145.138 130.303 145.233Z" fill="#263238"/>
<path d="M130.364 132.25C130.373 132.294 130.378 132.338 130.378 132.383C130.378 132.482 130.378 132.609 130.401 132.769C130.419 133.102 130.439 133.587 130.456 134.184C130.496 135.379 130.525 137.032 130.516 138.856C130.508 140.681 130.465 142.337 130.416 143.531C130.393 144.129 130.37 144.61 130.347 144.947C130.347 145.103 130.338 145.231 130.321 145.33C130.32 145.374 130.315 145.419 130.306 145.463C130.3 145.419 130.3 145.374 130.306 145.33C130.306 145.228 130.306 145.1 130.306 144.944C130.306 144.596 130.327 144.114 130.341 143.529C130.37 142.334 130.401 140.681 130.41 138.856C130.419 137.032 130.41 135.376 130.381 134.184C130.381 133.604 130.364 133.117 130.358 132.769C130.358 132.612 130.358 132.479 130.358 132.383C130.353 132.339 130.355 132.294 130.364 132.25Z" fill="#263238"/>
<path d="M129.757 141.568C129.608 140.663 129.246 139.808 128.703 139.072C128.16 138.337 127.451 137.743 126.635 137.339C126.218 137.139 125.674 137.006 125.332 137.319C124.99 137.632 125.065 138.189 125.234 138.627C125.6 139.528 126.222 140.299 127.022 140.844C127.821 141.389 128.763 141.683 129.728 141.689" fill="#FFBE9D"/>
<path d="M126.836 138.755C126.927 138.785 127.016 138.824 127.1 138.871C127.2 138.919 127.296 138.973 127.388 139.033C127.519 139.106 127.645 139.187 127.768 139.274C127.918 139.374 128.063 139.484 128.202 139.601C128.364 139.735 128.518 139.877 128.665 140.028C129.003 140.37 129.302 140.749 129.556 141.159C129.798 141.576 129.991 142.019 130.131 142.481C130.188 142.696 130.246 142.899 130.278 143.093C130.312 143.274 130.337 143.456 130.352 143.639C130.367 143.789 130.374 143.94 130.372 144.091C130.38 144.205 130.38 144.319 130.372 144.433C130.374 144.531 130.363 144.628 130.341 144.723C130.318 144.723 130.361 144.308 130.286 143.65C130.268 143.47 130.239 143.291 130.2 143.114C130.161 142.911 130.11 142.71 130.048 142.513C129.903 142.061 129.71 141.627 129.473 141.217C129.226 140.812 128.936 140.435 128.61 140.092C128.455 139.935 128.308 139.802 128.159 139.665C128.009 139.529 127.871 139.43 127.739 139.329C127.201 138.949 126.824 138.775 126.836 138.755Z" fill="#263238"/>
<path d="M85.373 50.736C85.1374 50.7924 84.891 50.7823 84.6607 50.7067C84.5459 50.6688 84.4401 50.6076 84.3497 50.5269C84.2592 50.4462 84.1862 50.3477 84.1349 50.2374C84.0862 50.1263 84.0683 50.004 84.0833 49.8834C84.0982 49.7629 84.1454 49.6487 84.2197 49.5531C84.1305 49.546 84.0435 49.5213 83.9637 49.4803C83.8839 49.4394 83.8129 49.3829 83.7548 49.3143C83.6966 49.2456 83.6524 49.1661 83.6247 49.0802C83.597 48.9944 83.5864 48.9038 83.5934 48.8138C83.6004 48.7238 83.6249 48.636 83.6655 48.5555C83.7061 48.4751 83.7621 48.4035 83.8301 48.3448C83.8982 48.2861 83.9771 48.2416 84.0622 48.2136C84.1473 48.1857 84.2371 48.175 84.3263 48.182C84.2826 47.7626 84.3565 47.3392 84.5395 46.96L86.4852 47.7641L85.373 50.736Z" fill="#263238"/>
<path d="M95.4669 48.6795C95.7941 48.6814 96.1127 48.5738 96.3727 48.3734C96.6327 48.173 96.8194 47.8913 96.9037 47.5724C96.9578 47.3812 96.9467 47.1772 96.8722 46.9931C96.8334 46.9021 96.7687 46.8248 96.6863 46.7708C96.604 46.7169 96.5076 46.6888 96.4094 46.6901C96.531 46.5872 96.6306 46.4605 96.7022 46.3177C96.7739 46.1749 96.816 46.0189 96.8261 45.8591C96.8335 45.6992 96.8 45.5401 96.7287 45.3971C96.6574 45.2542 96.5508 45.1321 96.4191 45.0428C96.2851 44.9572 96.128 44.9157 95.9696 44.924C95.8111 44.9323 95.6592 44.9901 95.5347 45.0893C95.5032 44.7471 94.8078 44.4318 94.4953 44.3218L93.5867 44.8106L95.4669 48.6795Z" fill="#263238"/>
<path d="M94.1971 59.7926L93.9548 57.8374C93.9548 57.8374 96.7944 57.0308 96.4795 54.1078C96.3292 52.6952 95.7817 49.8137 95.2559 47.2108C94.9843 45.8611 94.2186 44.6641 93.1113 43.8583C92.004 43.0526 90.6364 42.6972 89.2809 42.863L89.0023 42.8972C86.0124 43.4397 84.8009 46.3188 85.4212 49.3053L87.0809 60.7702L91.7233 63.2362L94.1971 59.7926Z" fill="#C8877F"/>
<path d="M93.9769 57.8374C92.6331 58.002 91.2707 57.7738 90.0518 57.18C90.0518 57.18 91.1954 59.1743 94.052 58.5584L93.9769 57.8374Z" fill="#A06763"/>
<path d="M94.9656 49.9367C94.922 49.9978 94.5804 49.8023 94.1345 49.8585C93.6887 49.9147 93.3907 50.1762 93.3374 50.1274C93.2841 50.0785 93.3519 50.0027 93.4803 49.883C93.6566 49.7242 93.8778 49.625 94.1127 49.5995C94.3436 49.5709 94.5775 49.6162 94.7815 49.729C94.9196 49.817 94.9777 49.9099 94.9656 49.9367Z" fill="#263238"/>
<path d="M90.6041 50.4272C90.5605 50.4883 90.2188 50.2928 89.773 50.349C89.3272 50.4052 89.0292 50.6692 88.9759 50.6178C88.9226 50.5665 88.988 50.4932 89.1188 50.3734C89.2957 50.2156 89.5165 50.1166 89.7512 50.0899C89.9824 50.0609 90.2167 50.1071 90.4199 50.2219C90.5677 50.3074 90.6259 50.4003 90.6041 50.4272Z" fill="#263238"/>
<path d="M92.4575 52.4607C92.6824 52.3577 92.9193 52.2838 93.1626 52.2408C93.2765 52.2163 93.3806 52.1797 93.3903 52.099C93.3853 51.9797 93.3448 51.8648 93.274 51.7691L92.8331 50.9381C92.2176 49.7528 91.7573 48.7727 91.8057 48.7385C91.8542 48.7043 92.3897 49.655 93.0051 50.8403C93.1553 51.1312 93.2958 51.4122 93.4315 51.6786C93.5192 51.8083 93.5594 51.9647 93.5454 52.121C93.5331 52.1632 93.5117 52.2021 93.4828 52.235C93.4539 52.268 93.4182 52.2941 93.3782 52.3116C93.3173 52.3353 93.2539 52.3517 93.1892 52.3605C92.9509 52.4268 92.7048 52.4605 92.4575 52.4607Z" fill="#263238"/>
<path d="M91.1857 52.9498C91.256 52.9352 91.3166 53.4215 91.7697 53.7173C92.2227 54.013 92.7388 53.8981 92.7388 53.9617C92.7388 53.991 92.6371 54.0716 92.419 54.1034C92.1368 54.1417 91.8503 54.0785 91.6097 53.925C91.3797 53.7766 91.2149 53.5447 91.1494 53.2773C91.113 53.0696 91.1518 52.9498 91.1857 52.9498Z" fill="#263238"/>
<path d="M90.3473 47.5733C90.3182 47.7004 89.8627 47.698 89.3539 47.8177C88.8451 47.9375 88.4332 48.1379 88.3508 48.0377C88.3145 47.9888 88.375 47.8666 88.5301 47.7273C88.7401 47.5548 88.9862 47.4328 89.2498 47.3706C89.5135 47.3083 89.7877 47.3075 90.0517 47.368C90.2528 47.4242 90.3618 47.5098 90.3473 47.5733Z" fill="#263238"/>
<path d="M94.4807 47.4463C94.4128 47.5563 94.0954 47.4878 93.7247 47.5294C93.354 47.5709 93.0536 47.6809 92.9688 47.5831C92.93 47.5343 92.9688 47.4267 93.0923 47.3143C93.2601 47.1723 93.4677 47.0869 93.686 47.0699C93.9029 47.0458 94.1219 47.092 94.3111 47.2019C94.4589 47.2923 94.5146 47.3925 94.4807 47.4463Z" fill="#263238"/>
<path d="M94.8176 45.9156C94.8176 45.9156 93.8364 44.1779 92.9108 43.8577C91.7914 43.4716 91.4764 44.6985 90.4321 44.5372C89.3879 44.3759 88.3218 44.0019 87.3841 44.916C86.3592 45.9131 86.9601 46.4533 87.0449 47.7559C87.3938 53.0423 86.6209 54.6456 86.0539 52.204C85.9909 51.9352 85.2204 51.8105 84.9709 50.6789C84.651 49.2125 84.3772 47.4162 84.5808 46.3213C84.7504 45.3999 85.1792 44.7254 85.9982 43.9384C87.292 42.6968 89.2401 42.4378 90.5824 42.4109C91.9247 42.384 94.665 43.6109 94.8176 45.9156Z" fill="#263238"/>
<path d="M86.2286 52.1014C86.2121 51.9948 86.1743 51.8926 86.1175 51.8011C86.0608 51.7095 85.9862 51.6305 85.8984 51.5689C85.8105 51.5072 85.7112 51.4641 85.6064 51.4422C85.5015 51.4204 85.3934 51.4201 85.2885 51.4416C84.7555 51.5589 84.1909 51.9304 84.3605 53.0619C84.6634 55.0514 86.5799 54.3353 86.5751 54.2839C86.5702 54.2326 86.3619 52.9324 86.2286 52.1014Z" fill="#C8877F"/>
<path d="M86.0319 53.5949C86.0319 53.5949 86.0004 53.6243 85.9471 53.6609C85.8713 53.7086 85.7799 53.7244 85.6927 53.7049C85.4722 53.6609 85.2469 53.3554 85.1815 52.9962C85.1506 52.8264 85.1581 52.6518 85.2033 52.4854C85.212 52.4203 85.2365 52.3584 85.2745 52.3052C85.3126 52.2519 85.363 52.2089 85.4213 52.1799C85.459 52.1636 85.5011 52.1611 85.5404 52.1727C85.5798 52.1842 85.6139 52.2093 85.637 52.2434C85.6733 52.2947 85.6661 52.3363 85.6757 52.3387C85.6854 52.3412 85.7145 52.2996 85.6757 52.219C85.6567 52.1717 85.6226 52.1321 85.5788 52.1065C85.549 52.0904 85.5163 52.0804 85.4826 52.077C85.449 52.0736 85.4149 52.077 85.3826 52.087C85.3043 52.1175 85.2353 52.168 85.1822 52.2336C85.1291 52.2991 85.0938 52.3775 85.0797 52.4609C85.0232 52.6469 85.0116 52.8438 85.0458 53.0353C85.1185 53.4336 85.3777 53.7685 85.6757 53.8149C85.7312 53.8224 85.7876 53.8172 85.8408 53.7999C85.8941 53.7826 85.9428 53.7535 85.9835 53.7147C86.0368 53.6438 86.0392 53.5974 86.0319 53.5949Z" fill="#A06763"/>
<path d="M86.4534 48.2822C86.7193 48.4522 87.0236 48.5514 87.3378 48.5705C87.4945 48.5747 87.6475 48.522 87.7689 48.4219C87.8903 48.3219 87.972 48.1812 87.9993 48.0255C87.9993 47.8838 87.9532 47.7274 88.0308 47.6076C88.1083 47.4879 88.3264 47.483 88.496 47.4805C88.7894 47.4695 89.0701 47.3567 89.2908 47.1613C89.5115 46.9659 89.6586 46.6997 89.7074 46.4076C89.8085 46.4978 89.9398 46.5459 90.0747 46.5423C90.2096 46.5386 90.3381 46.4835 90.4343 46.3881C90.6205 46.1956 90.7787 45.9776 90.9044 45.7404C90.9685 45.6227 91.06 45.5226 91.171 45.4485C91.282 45.3744 91.4092 45.3286 91.5416 45.3151C91.6875 45.3453 91.8361 45.36 91.985 45.3591C92.2418 45.3029 92.3315 44.9803 92.3387 44.7164C92.346 44.4524 92.3387 44.1445 92.5447 43.9832C92.7506 43.8219 93.0075 43.8707 93.2497 43.8756C93.492 43.8805 93.7973 43.7876 93.8288 43.5457C93.8311 43.4812 93.8207 43.4169 93.7983 43.3565C93.7758 43.2961 93.7417 43.2408 93.698 43.1937C93.5079 42.9722 93.2495 42.8215 92.9642 42.7661C92.679 42.7107 92.3836 42.7537 92.1255 42.8882C91.9881 42.5679 91.7596 42.2958 91.4689 42.1065C91.1782 41.9171 90.8384 41.819 90.4924 41.8245C90.1464 41.83 89.8098 41.9389 89.5252 42.1374C89.2405 42.3358 89.0206 42.615 88.8933 42.9396C88.6603 42.7729 88.3908 42.6655 88.1078 42.6263C87.8247 42.5871 87.5365 42.6174 87.2676 42.7145C86.9986 42.8117 86.7569 42.9728 86.5628 43.1843C86.3688 43.3958 86.2282 43.6514 86.153 43.9294C85.9035 43.8966 85.65 43.9382 85.4236 44.049C85.1973 44.1599 85.0081 44.3351 84.8793 44.5531C84.7505 44.7711 84.6877 45.0224 84.6988 45.2759C84.7099 45.5294 84.7942 45.7742 84.9415 45.9799C84.7681 46.0938 84.6264 46.2507 84.5302 46.4355C84.4339 46.6204 84.3861 46.827 84.3915 47.0357C84.4327 47.4512 84.8761 47.8129 85.2638 47.6565C85.2028 47.829 85.2094 48.0184 85.2822 48.1861C85.355 48.3539 85.4886 48.4872 85.6556 48.559C85.8226 48.6307 86.0104 48.6354 86.1808 48.5722C86.3512 48.5089 86.4911 48.3825 86.5722 48.2186" fill="#263238"/>
<path d="M89.4705 57.2763C90.8983 57.8574 92.4518 58.052 93.9771 57.8408C93.9771 57.8408 96.9331 57.0123 96.48 54.1186C96.48 54.1186 96.5018 56.6164 94.4641 56.7312C93.2939 56.7972 93.0273 54.9056 93.0273 54.9056L92.5427 54.9545L92.315 56.0372C91.9516 56.9781 90.6771 56.7264 89.8678 56.4673C88.7097 56.0934 87.4449 55.1695 86.9167 51.9141L86.3667 52.2978L86.5266 53.4294C86.6407 54.2744 86.9727 55.0743 87.4893 55.7494C88.0059 56.4244 88.689 56.9509 89.4705 57.2763Z" fill="#263238"/>
<path d="M84.3046 47.8783C84.3046 47.8783 84.0623 43.9386 86.4852 42.5724C88.6101 41.3748 91.0137 41.172 92.671 42.0005C94.1756 42.7532 95.0745 44.5936 95.0745 44.5936L84.3046 47.8783Z" fill="#455A64"/>
<path d="M93.0826 132.984L91.2194 139.602C91.2194 139.602 97.2622 143.732 97.0344 144.991L84.1929 141.814L86.674 131.383L93.0826 132.984Z" fill="#455A64"/>
<path d="M87.384 138.055C87.2509 138.063 87.1252 138.119 87.0309 138.214C86.9366 138.31 86.8803 138.436 86.8728 138.571C86.8758 138.705 86.9294 138.832 87.0226 138.928C87.1158 139.023 87.2416 139.079 87.3743 139.084C87.5152 139.076 87.648 139.015 87.7473 138.914C87.8465 138.813 87.9053 138.679 87.9122 138.536C87.8952 138.397 87.8255 138.27 87.7176 138.181C87.6097 138.092 87.472 138.049 87.3332 138.06" fill="#E0E0E0"/>
<g opacity="0.6">
<path opacity="0.6" d="M84.1882 141.809L84.479 140.768L96.6905 144.206C96.6905 144.206 97.2018 144.6 97.037 144.991L84.1882 141.809Z" fill="white"/>
</g>
<path d="M91.4449 139.586C91.428 139.65 91.1057 139.601 90.7495 139.728C90.3934 139.855 90.1608 140.08 90.1099 140.041C90.059 140.002 90.2407 139.657 90.6768 139.513C91.113 139.369 91.4716 139.533 91.4449 139.586Z" fill="#263238"/>
<path d="M92.6559 140.484C92.6559 140.548 92.3579 140.589 92.0793 140.805C91.8006 141.02 91.6698 141.293 91.6092 141.269C91.5487 141.244 91.5923 140.883 91.9436 140.621C92.2949 140.36 92.668 140.423 92.6559 140.484Z" fill="#263238"/>
<path d="M93.0274 142.299C92.9668 142.299 92.9571 141.96 93.2018 141.654C93.4466 141.349 93.7761 141.283 93.7882 141.341C93.8003 141.4 93.575 141.542 93.3787 141.796C93.1825 142.05 93.0904 142.309 93.0274 142.299Z" fill="#263238"/>
<path d="M91.7039 138.03C91.6627 138.082 91.3962 137.923 91.0352 137.859C90.6742 137.796 90.3713 137.842 90.3519 137.779C90.3325 137.715 90.6524 137.556 91.0788 137.637C91.5052 137.718 91.7451 138.001 91.7039 138.03Z" fill="#263238"/>
<path d="M88.5883 134.699L88.3193 141.574C88.3193 141.574 95.1568 144.158 95.2295 145.431L81.9979 145.387L81.9785 134.66L88.5883 134.699Z" fill="#455A64"/>
<path d="M84.2296 140.98C84.1026 141.019 83.9941 141.104 83.9249 141.218C83.8557 141.333 83.8305 141.469 83.8541 141.601C83.8874 141.731 83.9692 141.843 84.0824 141.914C84.1957 141.985 84.3317 142.009 84.4622 141.982C84.597 141.94 84.7118 141.85 84.7843 141.728C84.8568 141.606 84.8819 141.462 84.8548 141.322C84.806 141.19 84.7086 141.083 84.583 141.022C84.4574 140.962 84.3133 140.953 84.1812 140.997" fill="#E0E0E0"/>
<g opacity="0.6">
<path opacity="0.6" d="M81.9976 145.387L82.0387 144.304L94.7082 144.754C94.7082 144.754 95.297 145.013 95.2292 145.431L81.9976 145.387Z" fill="white"/>
</g>
<path d="M88.535 141.506C88.535 141.572 88.2079 141.598 87.8905 141.809C87.5731 142.019 87.4059 142.297 87.3429 142.263C87.2799 142.229 87.3793 141.862 87.7694 141.616C88.1595 141.369 88.5496 141.447 88.535 141.506Z" fill="#263238"/>
<path d="M89.921 142.09C89.9355 142.153 89.6545 142.263 89.4364 142.537C89.2184 142.811 89.1529 143.104 89.0875 143.102C89.0221 143.099 88.9833 142.73 89.2644 142.393C89.5454 142.056 89.9186 142.029 89.921 142.09Z" fill="#263238"/>
<path d="M90.7035 143.769C90.6429 143.769 90.5557 143.456 90.7229 143.099C90.8901 142.742 91.1929 142.61 91.2075 142.657C91.222 142.703 91.0475 142.901 90.9143 143.194C90.781 143.488 90.7665 143.761 90.7035 143.769Z" fill="#263238"/>
<path d="M88.4232 139.932C88.3966 139.993 88.0986 139.9 87.7351 139.932C87.3717 139.964 87.0834 140.071 87.0494 140.015C87.0155 139.959 87.2917 139.727 87.723 139.705C88.1543 139.683 88.4547 139.881 88.4232 139.932Z" fill="#263238"/>
<path d="M88.3191 139.607C88.2905 139.784 88.2783 139.963 88.2828 140.142C88.2828 140.487 88.2634 140.978 88.2561 141.575V141.616L88.2997 141.633C88.9806 141.907 89.8116 142.239 90.696 142.626C91.8469 143.114 92.8645 143.628 93.5914 144.014L94.4443 144.483C94.5442 144.55 94.6515 144.605 94.7641 144.647C94.6772 144.563 94.5803 144.491 94.4758 144.432C94.2844 144.302 93.9912 144.126 93.6447 143.918C92.7093 143.385 91.7451 142.906 90.7566 142.481C89.8698 142.095 89.0314 141.768 88.3336 141.504L88.3748 141.565C88.3748 140.969 88.3579 140.477 88.3458 140.133C88.3543 139.957 88.3454 139.781 88.3191 139.607Z" fill="#263238"/>
<path d="M81.075 84.4533L80.2537 88.1853L80.0308 108.932C80.0308 108.932 80.7576 118.55 80.2343 124.349C79.7764 129.386 80.2343 139.118 80.2343 139.118L89.1555 139.607L92.0824 109.937L93.873 91.6925L97.0906 83.3829L81.075 84.4533Z" fill="#263238"/>
<path d="M99.2204 85.4164L100.929 113.141L95.4673 135.958L95.0821 137.293L87.0815 135.421L90.5948 83.075L99.2204 85.4164Z" fill="#263238"/>
<path d="M93.851 91.9044C93.8536 91.9451 93.8536 91.9859 93.851 92.0266C93.851 92.117 93.851 92.2368 93.851 92.3883C93.851 92.7134 93.8292 93.1777 93.8146 93.7716C93.7856 94.9741 93.708 96.7044 93.5966 98.8625C93.3543 103.157 92.9133 109.086 92.2034 115.609C91.4935 122.132 90.7254 128.029 90.156 132.292C89.8677 134.415 89.6327 136.136 89.4703 137.336C89.3879 137.925 89.3225 138.387 89.2765 138.707C89.2547 138.859 89.2353 138.976 89.2232 139.064C89.2182 139.104 89.2101 139.144 89.199 139.184C89.1957 139.143 89.1957 139.102 89.199 139.061C89.199 138.973 89.2208 138.856 89.2377 138.705C89.2765 138.382 89.3322 137.92 89.4025 137.329C89.5551 136.129 89.7708 134.396 90.0397 132.277C90.58 128.01 91.3408 122.117 92.0386 115.592C92.7364 109.066 93.2137 103.147 93.4778 98.8552C93.6038 96.7093 93.6983 94.9716 93.7468 93.7692C93.7734 93.1753 93.7977 92.7109 93.8122 92.3859C93.8122 92.2344 93.8292 92.117 93.834 92.0266C93.836 91.9855 93.8417 91.9446 93.851 91.9044Z" fill="#455A64"/>
<path d="M98.7502 78.3384L98.0233 67.4528L96.0244 61.1864L94.6966 60.3945L94.2678 58.7546L86.4853 57.9407L85.9716 59.3656L84.9782 59.8177L81.1621 66.4165L80.932 80.6284L80.2899 84.9494C80.2027 85.294 80.1057 85.6557 80.0064 86.0223C79.4879 87.8993 77.0504 106.474 77.0504 106.474H77.1401L73.9297 130.914C73.9297 130.914 80.7866 133.707 84.2708 132.737C84.2708 132.737 89.0778 130.765 90.6794 131.183C92.281 131.6 94.7233 133.602 96.853 133.893C98.9828 134.184 99.809 132.727 101.161 132.402C102.513 132.077 104.778 133.267 104.778 133.267L98.7502 78.3384Z" fill="#455A64"/>
<path opacity="0.3" d="M90.6792 131.172L94.9654 86.8552L93.1385 132.343L92.5327 132.006C92.5327 132.006 91.0499 131.226 90.6792 131.172Z" fill="black"/>
<path d="M94.701 60.3938C94.5851 60.3964 94.4692 60.3891 94.3545 60.3718L93.4168 60.2716L90.33 59.8977L87.2456 59.514L86.3104 59.404C86.0899 59.3747 85.9712 59.3771 85.9663 59.3649C86.3969 59.3408 86.8288 59.3613 87.2553 59.426C88.0476 59.4993 89.1403 59.6215 90.347 59.773C91.5536 59.9246 92.6415 60.0687 93.4289 60.1812L94.3593 60.3229C94.4753 60.3348 94.5898 60.3585 94.701 60.3938Z" fill="#263238"/>
<path d="M80.7888 105.894C80.8227 105.894 80.1612 111.026 79.3084 117.344C78.4555 123.662 77.7383 128.779 77.7044 128.777C77.6705 128.774 78.3319 123.644 79.1848 117.327C80.0377 111.009 80.7548 105.889 80.7888 105.894Z" fill="#263238"/>
<path d="M89.2131 123.74C89.2112 123.718 89.2112 123.696 89.2131 123.674V123.484C89.2131 123.305 89.2131 123.058 89.2131 122.75C89.2131 122.1 89.2301 121.181 89.2422 120.047C89.264 117.765 89.2689 114.612 89.2664 111.129C89.264 107.646 89.2664 104.491 89.3197 102.209C89.3415 101.067 89.3658 100.146 89.3876 99.5079C89.4021 99.1951 89.4118 98.9507 89.4191 98.7747C89.4191 98.6965 89.4191 98.6354 89.4191 98.5841C89.4159 98.5622 89.4159 98.54 89.4191 98.5181C89.4228 98.54 89.4228 98.5623 89.4191 98.5841C89.4191 98.6354 89.4191 98.6965 89.4191 98.7747C89.4191 98.9532 89.4191 99.2 89.4191 99.5079C89.4191 100.156 89.4021 101.077 89.39 102.211C89.3924 104.491 89.3924 107.644 89.3924 111.117C89.3924 114.59 89.3779 117.755 89.3319 120.035C89.31 121.176 89.2858 122.1 89.2616 122.738C89.2495 123.051 89.2398 123.295 89.2325 123.471C89.2325 123.55 89.2325 123.611 89.2204 123.662C89.2224 123.688 89.22 123.715 89.2131 123.74Z" fill="#263238"/>
<path d="M89.4362 127.509C89.4362 127.509 89.4095 127.543 89.3538 127.595L89.0945 127.82C88.9589 127.94 88.8156 128.051 88.6657 128.152C88.475 128.295 88.2769 128.428 88.0721 128.55L87.7159 128.765C87.5923 128.839 87.4542 128.9 87.3161 128.973C87.0399 129.122 86.7297 129.242 86.4075 129.376C84.9811 129.922 83.454 130.148 81.9324 130.039C81.5835 130.002 81.2515 129.978 80.9462 129.914C80.7936 129.885 80.6458 129.865 80.5052 129.831L80.1006 129.731C79.8702 129.672 79.643 129.601 79.4198 129.518C79.2483 129.465 79.0808 129.399 78.9182 129.323L78.6081 129.183C78.5714 129.169 78.5365 129.15 78.5039 129.127C78.5433 129.132 78.5817 129.143 78.6178 129.159L78.9352 129.276C79.1061 129.344 79.2809 129.401 79.4585 129.447C79.6596 129.506 79.8826 129.587 80.1418 129.638L80.5416 129.731C80.6821 129.763 80.8299 129.78 80.9801 129.804C81.283 129.863 81.6125 129.885 81.9493 129.917C83.4541 130.014 84.9623 129.791 86.376 129.262C86.6958 129.132 87.006 129.017 87.2798 128.873C87.4179 128.805 87.5535 128.746 87.6795 128.675L88.0357 128.47C88.278 128.345 88.4597 128.203 88.6342 128.089C88.7851 127.992 88.9307 127.888 89.0703 127.776L89.3417 127.57C89.3708 127.547 89.4025 127.526 89.4362 127.509Z" fill="#263238"/>
<path d="M92.8016 126.282C92.6681 126.223 92.5386 126.154 92.414 126.077C92.1035 125.92 91.7681 125.819 91.423 125.779C91.0776 125.741 90.7283 125.765 90.3908 125.847C90.2517 125.894 90.1102 125.933 89.9668 125.965C90.0826 125.868 90.2184 125.799 90.3642 125.762C90.7103 125.65 91.076 125.614 91.437 125.657C91.7979 125.699 92.1458 125.818 92.4576 126.006C92.5905 126.072 92.7078 126.167 92.8016 126.282Z" fill="#263238"/>
<path d="M74.4165 127.191C74.4165 127.191 74.4456 127.142 74.5158 127.066C74.6173 126.962 74.7322 126.871 74.8575 126.798C75.0443 126.687 75.2483 126.61 75.4608 126.568C75.7228 126.52 75.9911 126.52 76.2531 126.568C76.7291 126.662 77.1605 126.913 77.4791 127.281C77.5752 127.391 77.6566 127.512 77.7214 127.643C77.7674 127.736 77.7892 127.787 77.782 127.792C77.7747 127.797 77.6584 127.599 77.4161 127.343C77.0956 127.01 76.6824 126.783 76.2313 126.692C75.9843 126.65 75.732 126.65 75.485 126.692C75.2821 126.726 75.0858 126.792 74.9035 126.888C74.5885 127.042 74.4359 127.211 74.4165 127.191Z" fill="#263238"/>
<g opacity="0.3">
<path opacity="0.3" d="M81.055 79.9464L80.7764 81.6425C81.7189 83.781 84.2412 84.7781 86.4969 85.3232C88.3117 85.7631 90.2379 86.0417 92.0284 85.5138C93.819 84.9859 95.4375 83.473 95.578 81.6034C90.6038 82.1435 85.7361 81.7476 81.055 79.9464Z" fill="black"/>
</g>
<path d="M98.8422 52.4899C98.8422 52.4899 97.4175 55.2809 97.2722 56.283C97.2476 56.4447 97.2371 56.6082 97.2407 56.7718C97.2458 57.2309 97.3564 57.6825 97.5636 58.0913C97.7708 58.5 98.0692 58.8548 98.4352 59.1278L98.4691 59.1522L100.892 58.3872L100.63 56.5909L99.2299 52.5827L98.8422 52.4899Z" fill="#E0E0E0"/>
<path d="M108.9 51.7405C108.921 51.701 108.95 51.6663 108.986 51.6386C109.021 51.6109 109.061 51.5908 109.104 51.5795C109.148 51.5683 109.193 51.5662 109.237 51.5733C109.281 51.5803 109.323 51.5965 109.36 51.6208C109.434 51.674 109.494 51.7456 109.532 51.8286C109.571 51.9117 109.588 52.0034 109.581 52.0949C109.565 52.2767 109.518 52.4545 109.443 52.6204L108.789 54.3092C108.747 54.4627 108.654 54.5967 108.524 54.688C108.384 54.7613 108.166 54.6709 108.18 54.5145" fill="#FFBE9D"/>
<path d="M99.4841 51.3045C99.4841 51.3045 100.01 53.8071 101.442 54.5159C102.874 55.2247 107.102 55.4617 107.102 55.4617L107.843 57.1725L100.332 57.7566C100.184 57.2633 99.9808 56.7886 99.7264 56.3416C99.2418 55.4568 99.2708 54.7505 99.2175 53.9856C99.1642 53.2206 99.2175 50.9794 99.2175 50.9794L99.4841 51.3045Z" fill="#FFBE9D"/>
<path d="M99.5423 46.5318C99.5423 46.5318 98.8808 46.8373 99.1061 48.9758C99.2176 50.0536 99.3751 51.1265 99.5011 51.9282C99.6371 52.7798 100.002 53.5777 100.555 54.2353L101.711 55.6137C101.808 55.7293 101.931 55.8188 102.071 55.8743C102.21 55.9297 102.361 55.9494 102.51 55.9314L105.832 55.5355C106.35 55.4735 106.872 55.6048 107.3 55.9045C107.712 55.4474 108.051 54.9289 108.306 54.3673C108.626 53.573 109.093 50.4569 109.093 50.4569L99.5423 46.5318Z" fill="#E0E0E0"/>
<path d="M98.6481 50.1361C98.6481 50.1361 98.6093 48.9727 99.1061 48.9752C99.6948 48.9752 99.7118 49.4175 99.7191 50.4416C99.7191 51.6122 99.4768 52.3968 99.2224 52.563C98.9679 52.7291 98.6675 52.5458 98.6094 51.8982C98.5835 51.3106 98.5965 50.7219 98.6481 50.1361Z" fill="#FFBE9D"/>
<path d="M108.728 45.3735C108.455 44.887 108.094 44.456 107.664 44.1026C106.905 43.4875 105.993 43.0949 105.028 42.9677C104.062 42.8406 103.081 42.9838 102.191 43.3817C101.471 43.7401 100.833 44.2453 100.317 44.8655C99.8013 45.4856 99.4187 46.207 99.1936 46.9841C100.627 48.4327 102.32 49.5937 104.182 50.4057C105.767 51.0363 107.538 51.3344 109.072 50.5866L109.147 50.3422C109.318 49.5669 109.392 48.7727 109.365 47.9788C109.374 47.0701 109.154 46.1739 108.728 45.3735Z" fill="#3EBB7F"/>
<path d="M98.5996 58.1182C98.5385 58.0807 98.4844 58.0327 98.4397 57.9764C98.3088 57.83 98.1995 57.6654 98.115 57.4876C97.8482 56.8885 97.7744 56.22 97.9042 55.5764C98.0391 54.9439 98.2738 54.3374 98.5996 53.7801C98.7191 53.542 98.8611 53.3161 99.0236 53.1055C98.9242 53.3514 98.8093 53.5906 98.6795 53.8216C98.3832 54.3813 98.164 54.979 98.0278 55.5984C97.9036 56.2186 97.9626 56.8618 98.1974 57.4485C98.3087 57.6848 98.4435 57.9092 98.5996 58.1182Z" fill="#FAFAFA"/>
<path d="M103.952 54.9925C103.877 54.944 103.81 54.8857 103.751 54.819C103.58 54.6517 103.418 54.4755 103.266 54.2911C102.75 53.6831 102.313 53.0113 101.965 52.2919C101.619 51.5726 101.363 50.8122 101.204 50.0288C101.156 49.7921 101.12 49.5531 101.095 49.3127C101.083 49.2243 101.083 49.1347 101.095 49.0463C101.117 49.0463 101.163 49.4178 101.301 50.0092C101.661 51.5537 102.359 52.9975 103.344 54.2349C103.702 54.709 103.966 54.9779 103.952 54.9925Z" fill="#FAFAFA"/>
<path d="M104.621 54.8217C104.452 54.7097 104.301 54.573 104.173 54.416C103.853 54.0451 103.582 53.6344 103.366 53.194C103.144 52.7589 102.977 52.2974 102.869 51.8205C102.817 51.6311 102.791 51.4354 102.792 51.2388C102.96 51.8971 103.189 52.5378 103.477 53.1525C103.805 53.7445 104.188 54.3035 104.621 54.8217Z" fill="#FAFAFA"/>
<path d="M106.096 54.5997C105.828 54.4696 105.593 54.277 105.413 54.0378C105.233 53.7985 105.112 53.5195 105.059 53.2237C105.095 53.2115 105.226 53.583 105.515 53.9569C105.803 54.3308 106.111 54.5679 106.096 54.5997Z" fill="#FAFAFA"/>
<path d="M107.586 54.0224C107.462 54.1082 107.31 54.1424 107.162 54.1177C106.993 54.1023 106.833 54.0378 106.699 53.932C106.531 53.7935 106.418 53.5981 106.382 53.3821L106.491 53.4065C106.449 53.4797 106.422 53.5606 106.411 53.6445C106.4 53.7284 106.406 53.8137 106.428 53.8953C106.472 54.0581 106.535 54.2149 106.617 54.3621L106.712 54.5503L106.532 54.4428C106.206 54.2493 105.929 53.9805 105.725 53.6582C105.638 53.5359 105.576 53.3971 105.544 53.2501C105.561 53.2501 105.629 53.3943 105.786 53.6142C106 53.9129 106.274 54.1627 106.59 54.3474L106.506 54.4281C106.416 54.2749 106.347 54.1106 106.3 53.9393C106.273 53.8404 106.266 53.7369 106.281 53.6355C106.296 53.534 106.332 53.4369 106.387 53.3503L106.474 53.2256L106.496 53.3747C106.526 53.5639 106.62 53.7367 106.762 53.8635C106.877 53.964 107.017 54.0293 107.167 54.0517C107.307 54.0613 107.448 54.0514 107.586 54.0224Z" fill="#FAFAFA"/>
<path d="M109.178 50.2124C109.145 50.2316 109.111 50.2472 109.074 50.2589C108.975 50.3015 108.873 50.3375 108.769 50.3664C108.388 50.4804 107.995 50.5493 107.599 50.5717C106.282 50.6181 104.973 50.3607 103.77 49.8189C102.567 49.2913 101.455 48.5718 100.478 47.6878C100.181 47.4204 99.8989 47.1373 99.6321 46.8397C99.5352 46.7346 99.4673 46.6491 99.4213 46.5953C99.3753 46.5415 99.351 46.5073 99.3534 46.5024C99.4646 46.5976 99.5698 46.6996 99.6684 46.8079C99.8647 47.0059 100.153 47.2967 100.536 47.6145C101.522 48.4681 102.628 49.169 103.819 49.6943C105.006 50.2282 106.294 50.4942 107.594 50.4739C108.13 50.4452 108.661 50.3575 109.178 50.2124Z" fill="#FAFAFA"/>
<path d="M109.343 49.8363C109.311 49.8559 109.277 49.8715 109.241 49.8827C109.141 49.9246 109.04 49.9605 108.936 49.9902C108.554 50.1054 108.161 50.1743 107.763 50.1955C106.445 50.2439 105.134 49.9864 103.93 49.4428C102.728 48.9145 101.617 48.1958 100.64 47.3141C100.349 47.0487 100.072 46.768 99.811 46.4733C99.7141 46.3707 99.6463 46.2827 99.5978 46.2289C99.5494 46.1751 99.5276 46.1409 99.5324 46.1385C99.6428 46.2327 99.7472 46.334 99.845 46.4415C100.044 46.6395 100.33 46.9303 100.715 47.2481C101.7 48.1022 102.807 48.8032 103.998 49.3279C105.184 49.8617 106.472 50.1278 107.77 50.1075C108.303 50.0766 108.83 49.9856 109.343 49.8363Z" fill="#FAFAFA"/>
<path d="M115.863 135.317L116.505 145.328L111.158 145.788L110.494 135.757L115.863 135.317Z" fill="#3EBB7F"/>
<path d="M113.84 145.176C113.794 145.176 113.646 142.989 113.506 140.288C113.365 137.588 113.288 135.4 113.334 135.386C113.38 135.371 113.527 137.585 113.668 140.274C113.808 142.962 113.884 145.176 113.84 145.176Z" fill="#263238"/>
<path d="M110.957 142.582C110.986 142.499 111.029 142.423 111.083 142.354C111.413 141.868 111.849 141.464 112.357 141.171C112.735 140.957 113.155 140.832 113.588 140.805C113.98 140.779 114.373 140.836 114.742 140.971C115.111 141.106 115.448 141.318 115.732 141.592C115.901 141.758 116.046 141.948 116.161 142.156C116.209 142.231 116.242 142.314 116.26 142.401C116.079 142.144 115.876 141.904 115.655 141.682C115.088 141.182 114.349 140.927 113.598 140.973C112.849 141.043 112.146 141.37 111.608 141.9C111.17 142.291 110.969 142.599 110.957 142.582Z" fill="#263238"/>
<path d="M110.683 138.612L110.756 139.714L116.115 139.232L116.06 138.401L110.683 138.612Z" fill="black"/>
<path d="M100.095 135.484L100.337 141.875C100.337 141.875 93.9816 144.275 93.9114 145.46L106.213 145.419L106.23 135.447L100.095 135.484Z" fill="#3EBB7F"/>
<path d="M104.146 141.323C104.264 141.359 104.365 141.438 104.429 141.544C104.494 141.651 104.517 141.777 104.495 141.9C104.463 142.02 104.387 142.124 104.282 142.19C104.177 142.256 104.052 142.279 103.93 142.254C103.805 142.217 103.697 142.134 103.63 142.02C103.562 141.907 103.539 141.773 103.565 141.643C103.609 141.52 103.7 141.42 103.817 141.363C103.935 141.306 104.069 141.298 104.192 141.34" fill="#E0E0E0"/>
<path d="M106.22 145.419V144.382L94.403 144.83C94.403 144.83 93.8554 145.074 93.9184 145.46L106.22 145.419Z" fill="#E0E0E0"/>
<path d="M100.143 141.811C100.143 141.872 100.446 141.899 100.741 142.092C101.037 142.285 101.197 142.54 101.253 142.515C101.308 142.491 101.216 142.141 100.855 141.914C100.494 141.687 100.131 141.755 100.143 141.811Z" fill="#263238"/>
<path d="M98.8568 142.354C98.8423 142.413 99.0991 142.515 99.3075 142.772C99.5158 143.028 99.5716 143.297 99.6321 143.295C99.6927 143.292 99.729 142.948 99.4674 142.635C99.2057 142.322 98.8568 142.298 98.8568 142.354Z" fill="#263238"/>
<path d="M98.127 143.913C98.1827 143.928 98.2651 143.625 98.11 143.292C97.9549 142.96 97.6739 142.83 97.6472 142.882C97.6206 142.933 97.7974 143.109 97.921 143.37C98.0446 143.632 98.0688 143.908 98.127 143.913Z" fill="#263238"/>
<path d="M100.247 140.349C100.272 140.403 100.548 140.32 100.887 140.349C101.226 140.378 101.493 140.479 101.524 140.425C101.556 140.371 101.299 140.159 100.899 140.137C100.499 140.115 100.218 140.3 100.247 140.349Z" fill="#263238"/>
<path d="M107.901 88.4972L107.884 92.63L108.09 111.92C108.09 111.92 107.412 120.861 107.901 126.252C108.328 130.935 107.901 139.982 107.901 139.982L99.6077 140.444L96.8867 112.849L95.2222 95.8878L95.6922 88.2332L107.901 88.4972Z" fill="#263238"/>
<path d="M112.454 87.6544L114.235 93.4198L115.832 111.518C115.832 111.518 115.916 120.971 116.406 126.362C116.832 131.045 117.496 139.983 117.496 139.983L109.202 140.445L106.687 111.486L102.658 95.3774L102.256 87.6544H112.454Z" fill="#263238"/>
<path d="M111.158 145.788L111.09 144.742L116.442 144.354L116.505 145.329L111.158 145.788Z" fill="#E0E0E0"/>
<path d="M94.9652 86.8552L118.174 96.8243L119.786 106.356L122.969 128.97C122.969 128.97 116.115 134.521 112.631 133.521C112.631 133.521 107.821 131.492 106.22 131.923C104.618 132.353 102.178 134.435 100.053 134.733C97.9284 135.031 97.0949 133.531 95.7429 133.198C94.3909 132.866 92.5422 131.571 92.5422 131.571L94.9652 86.8552Z" fill="#3EBB7F"/>
<path d="M93.9963 104.518C94.0375 103.396 94.3137 98.7206 94.6311 89.9149C94.8127 85.5856 95.2887 81.2741 96.0558 77.0106L97.7519 58.9934L99.8211 57.9303L100.853 56.5714C100.853 56.5714 104.73 56.3906 105.457 56.3759C106.315 56.3588 107.533 56.3759 107.533 56.3759L108.26 57.9156C109.491 58.5511 113.038 61.0488 113.038 61.0488C113.038 61.0488 114.884 63.8863 115.119 65.3038C115.354 66.7213 116.447 86.354 116.447 86.354L120.045 108.299L93.9963 104.518Z" fill="#3EBB7F"/>
<path d="M108.146 57.7664C108.041 57.7765 107.935 57.7765 107.829 57.7664L106.966 57.7224C106.24 57.6906 105.234 57.6589 104.124 57.676C103.015 57.6931 102.007 57.7493 101.282 57.8031L100.422 57.8715C100.317 57.8833 100.21 57.8833 100.105 57.8715C100.206 57.8413 100.31 57.8209 100.415 57.8104C100.618 57.7811 100.912 57.742 101.273 57.7053C101.999 57.6271 103.007 57.5538 104.122 57.5367C105.237 57.5196 106.244 57.566 106.971 57.6247C107.337 57.6515 107.63 57.6809 107.834 57.7053C107.94 57.7146 108.045 57.7351 108.146 57.7664Z" fill="#263238"/>
<path d="M98.4713 58.6787C98.4713 58.6787 94.6746 60.2966 93.1724 61.9512C91.9028 63.3468 90.6622 70.8376 90.6622 70.8376L89.6034 75.7256L81.9978 76.9721C81.9978 77.1407 81.9373 82.2144 81.9373 82.2144C81.9373 82.2144 88.9153 84.458 91.8955 84.2332C94.8757 84.0083 96.8431 81.056 97.1242 79.1277C97.4222 77.082 98.2823 68.4327 98.2823 68.4327L98.4713 58.6787Z" fill="#3EBB7F"/>
<path d="M99.1064 67.5113C99.1081 67.5744 99.1033 67.6374 99.0919 67.6995C99.075 67.8363 99.0531 68.0148 99.0265 68.2396C98.9635 68.7284 98.8738 69.3956 98.7648 70.2217C98.5346 71.8958 98.2172 74.203 97.8465 76.7545C97.6268 77.9504 97.2892 79.1212 96.8386 80.2494C96.7368 80.5109 96.6326 80.7627 96.5212 81.0022C96.4094 81.2363 96.2806 81.4617 96.1359 81.6767C95.8754 82.0586 95.5775 82.4131 95.2467 82.735C94.7739 83.2096 94.2155 83.5887 93.6016 83.8519C93.3769 83.9496 93.1394 84.0138 92.8965 84.0425C93.1297 83.9749 93.3586 83.8932 93.5822 83.7981C94.1803 83.521 94.7231 83.1358 95.1837 82.6617C95.506 82.3403 95.7957 81.9875 96.0487 81.6083C96.3295 81.1663 96.5588 80.6931 96.732 80.1981C97.1704 79.0747 97.5022 77.9118 97.723 76.7252C98.0937 74.1834 98.4305 71.8812 98.6752 70.1997C98.8012 69.3736 98.9053 68.704 98.978 68.2225C99.0144 68.0001 99.0459 67.8217 99.0677 67.6873C99.0754 67.6276 99.0884 67.5687 99.1064 67.5113Z" fill="#263238"/>
<path opacity="0.3" d="M117.605 93.5224L111.858 71.5582L111.877 72.1227L112.754 97.5159L118.172 96.8242L117.605 93.5224Z" fill="black"/>
<path d="M80.2172 75.4564C80.2172 75.4564 79.6018 76.5635 79.5606 77.2112C79.5194 77.8588 79.8368 80.0486 79.8368 80.0486L81.998 81.3415V78.7338L80.2172 75.4564Z" fill="#FFBE9D"/>
<path d="M108.27 57.9209C108.27 57.9209 110.935 60.6508 111.579 67.9951C112.224 75.3393 113.157 94.4098 113.157 94.4098L120.055 93.7646C120.055 93.7646 117.719 70.9108 116.687 67.8973C115.655 64.8839 114.354 61.1005 113.052 60.4431C111.751 59.7857 108.27 57.9209 108.27 57.9209Z" fill="#E0E0E0"/>
<path d="M119.757 91.1052C119.67 91.1273 119.58 91.138 119.49 91.137C119.321 91.1492 119.071 91.159 118.763 91.1688C118.148 91.1908 117.31 91.203 116.365 91.2055C115.42 91.2079 114.582 91.2054 113.969 91.1786C113.637 91.1876 113.305 91.1631 112.978 91.1052C112.978 91.1052 113.07 91.1052 113.244 91.1052H113.971H116.367H118.763H119.49C119.579 91.0955 119.668 91.0955 119.757 91.1052Z" fill="#263238"/>
<path d="M119.401 87.2832C119.316 87.3052 119.229 87.3159 119.141 87.315C118.974 87.315 118.734 87.337 118.434 87.3467C117.835 87.3687 117.009 87.3809 116.096 87.3834C115.182 87.3858 114.358 87.3834 113.76 87.3565C113.435 87.3658 113.11 87.3412 112.791 87.2832C112.791 87.2832 112.88 87.2832 113.05 87.2832H113.758H116.093H118.431H119.139C119.226 87.2727 119.314 87.2727 119.401 87.2832Z" fill="#263238"/>
<path d="M119.723 90.3718C119.723 90.406 118.228 90.4353 116.386 90.4353C114.545 90.4353 113.052 90.406 113.052 90.3718C113.052 90.3376 114.545 90.3082 116.386 90.3082C118.228 90.3082 119.723 90.3424 119.723 90.3718Z" fill="#263238"/>
<path d="M119.437 89.6364C119.437 89.6706 117.998 89.6999 116.22 89.6999C114.441 89.6999 113.002 89.6706 113.002 89.6364C113.002 89.6021 114.444 89.5728 116.22 89.5728C117.996 89.5728 119.437 89.6095 119.437 89.6364Z" fill="#263238"/>
<path d="M119.003 84.8195C119.003 84.8537 117.603 84.883 115.875 84.883C114.148 84.883 112.747 84.8537 112.747 84.8195C112.747 84.7852 114.148 84.7559 115.875 84.7559C117.603 84.7559 119.003 84.7828 119.003 84.8195Z" fill="#263238"/>
<path d="M119.003 84.328C119.003 84.3622 117.603 84.3916 115.875 84.3916C114.148 84.3916 112.747 84.3622 112.747 84.328C112.747 84.2938 114.148 84.2645 115.875 84.2645C117.603 84.2645 119.003 84.2913 119.003 84.328Z" fill="#263238"/>
<path d="M119.003 83.7906C119.003 83.8273 117.603 83.8541 115.875 83.8541C114.148 83.8541 112.747 83.8273 112.747 83.7906C112.747 83.7539 114.148 83.7271 115.875 83.7271C117.603 83.7271 119.003 83.7564 119.003 83.7906Z" fill="#263238"/>
<path d="M119.437 87.9258C119.366 88.0656 119.285 88.1996 119.194 88.3266L118.501 89.3824L118.468 89.4338L118.426 89.3873L116.919 87.6936H117.014L116.217 88.5661L115.526 89.3164L115.475 89.3702L115.432 89.314L114.128 87.6838H114.208L113.328 88.9058L113.086 89.2407C113.028 89.3164 112.994 89.3555 112.992 89.3507C113.009 89.305 113.032 89.2622 113.062 89.2236L113.29 88.8741L114.133 87.6203L114.172 87.5641L114.213 87.6154L115.536 89.2333H115.441L116.129 88.4806C116.408 88.18 116.677 87.8867 116.931 87.6081L116.977 87.5592L117.023 87.6105C117.581 88.2533 118.087 88.8325 118.511 89.3213H118.436L119.163 88.29C119.245 88.1619 119.337 88.0401 119.437 87.9258Z" fill="#263238"/>
<path d="M119.057 85.3742C118.985 85.5135 118.904 85.6474 118.814 85.775L118.131 86.8309L118.1 86.8822L118.058 86.8357L116.571 85.142H116.663L115.875 86.017L115.197 86.7673L115.146 86.8211L115.102 86.7649L113.818 85.1323H113.898C113.547 85.6333 113.251 86.0488 113.031 86.3543L112.789 86.6891C112.762 86.7305 112.73 86.7682 112.694 86.8015C112.711 86.755 112.735 86.7113 112.764 86.672L112.987 86.3225L113.818 85.0687L113.857 85.0125L113.901 85.0663L115.202 86.6842H115.107L115.786 85.9339C116.057 85.6309 116.324 85.34 116.576 85.0614L116.622 85.0101L116.665 85.0614L118.131 86.7722H118.056L118.783 85.7384C118.863 85.6089 118.955 85.487 119.057 85.3742Z" fill="#263238"/>
<path d="M99.1328 110.384C99.1691 110.384 98.8493 115.272 98.4204 121.274C97.9916 127.277 97.616 132.16 97.5821 132.157C97.5482 132.155 97.8656 127.269 98.2944 121.265C98.7233 115.26 99.0988 110.384 99.1328 110.384Z" fill="#263238"/>
<path d="M107.08 102.446C107.114 102.446 107.143 108.084 107.143 115.038C107.143 121.991 107.114 127.629 107.08 127.629C107.046 127.629 107.017 121.993 107.017 115.038C107.017 108.082 107.046 102.446 107.08 102.446Z" fill="#263238"/>
<path d="M109.261 130.199C109.227 130.199 109.043 126.265 108.851 121.413C108.66 116.562 108.532 112.615 108.565 112.615C108.599 112.615 108.784 116.547 108.977 121.413C109.171 126.279 109.307 130.197 109.261 130.199Z" fill="#263238"/>
<g opacity="0.3">
<path opacity="0.3" d="M94.9072 85.6653C96.3174 84.3895 97.2914 82.185 97.7251 80.2054C98.1588 78.2257 98.1782 76.1679 98.1152 74.132C98.1152 74.132 97.4537 80.9117 95.2222 82.686L94.9072 85.6653Z" fill="black"/>
</g>
<path opacity="0.3" d="M107.461 103.272L107.095 129.88C107.089 130.222 107.208 130.555 107.428 130.815C107.649 131.075 107.956 131.246 108.292 131.295C108.582 131.336 108.764 131.199 108.924 131.192C109.503 131.158 109.261 128.438 109.261 128.438L107.461 103.272Z" fill="black"/>
<g opacity="0.3">
<path opacity="0.3" d="M98.9364 67.8926C98.5127 67.891 98.0936 67.9819 97.708 68.159C97.3885 68.3696 97.1074 68.6342 96.877 68.9411C95.6413 70.3562 94.0906 71.4486 92.6804 72.6878C90.5839 74.5322 88.7983 76.708 87.3936 79.1301L86.8557 81.5741C88.1645 81.5649 89.4472 81.2047 90.5725 80.5306C91.7258 79.8365 92.6635 78.8393 93.5866 77.8568L99.0527 72.0303C99.4695 71.5855 99.9129 71.0747 99.908 70.4637C99.908 70.1973 99.8184 69.9138 99.9395 69.6768C100.037 69.5255 100.174 69.4038 100.334 69.3248L103.16 67.614L98.9364 67.8926Z" fill="black"/>
</g>
<path d="M96.8239 66.7075C96.8239 66.7075 97.1849 64.7645 97.6598 64.3466L100.713 62.2423C100.713 62.2423 101.129 62.1494 100.897 62.8142C100.681 63.4227 99.9276 63.8798 99.9276 63.8798L99.4261 64.613L100.206 64.5079L102.363 63.2321C102.363 63.2321 103.894 62.2789 103.94 62.6089C103.986 62.9388 103.657 63.3421 102.997 63.7576L101.498 64.6912C101.498 64.6912 101.255 64.8671 101.818 64.7401C102.38 64.613 104.18 63.4032 104.468 63.2908C104.757 63.1783 105.35 62.6969 105.612 63.0464C105.873 63.3959 104.979 63.8651 104.979 63.8651L102.351 65.681C102.351 65.681 103.562 65.1311 103.783 65.0431C104.003 64.9551 104.592 64.5787 104.97 64.4321C105.348 64.2855 105.641 64.3221 105.755 64.481C105.809 64.5532 105.835 64.6431 105.827 64.7334C105.82 64.8236 105.779 64.9078 105.714 64.9698L103.276 66.3042C103.276 66.3042 102.12 66.8663 102.079 66.9372C102.038 67.0081 102.779 66.9494 102.779 66.9494L103.661 66.6195C103.661 66.6195 104.778 65.9987 105.028 66.2236C105.277 66.4484 105.098 66.6293 105.098 66.6293L103.046 67.7486L100.463 68.7262L98.3842 69.325L97.4465 69.8529C97.3811 69.8529 96.1866 67.734 96.0388 66.8712L96.8239 66.7075Z" fill="#C8877F"/>
<path d="M85.5013 59.6292C84.9465 59.7221 80.9583 61.6846 79.5942 63.261C78.0702 65.0182 77.6728 68.3934 79.1096 72.7071C80.0909 75.6692 83.1802 82.0358 85.826 82.0456C88.8498 82.0456 99.4235 70.1824 99.4235 70.1824L95.8133 65.0182L87.6238 72.3845L85.5013 59.6292Z" fill="#455A64"/>
<path d="M95.8135 65.0176C95.7691 65.0631 95.7204 65.104 95.6681 65.1398C95.5736 65.218 95.4258 65.3402 95.2586 65.4942L93.771 66.8262L88.8766 71.2254C88.489 71.5651 88.111 71.8999 87.7451 72.225C87.3793 72.55 87.0183 72.858 86.6451 73.1366L86.5846 73.1806L86.5603 73.1024C85.9861 71.3329 85.4942 69.8128 85.1381 68.7179L84.7407 67.4494C84.6971 67.3101 84.6632 67.205 84.6389 67.1097C84.623 67.0716 84.6131 67.0312 84.6099 66.9899C84.6293 67.0259 84.6455 67.0635 84.6583 67.1024C84.6874 67.1904 84.7286 67.3003 84.777 67.4372C84.8837 67.7427 85.0193 68.1704 85.2108 68.6934C85.5742 69.7834 86.083 71.3012 86.6645 73.0633L86.5797 73.0315C86.9286 72.7725 87.2872 72.445 87.6555 72.1297L88.7846 71.1301C90.7035 69.4193 92.4359 67.8649 93.7055 66.7529C94.3379 66.1981 94.8564 65.7533 95.2199 65.4527C95.404 65.3036 95.5445 65.1887 95.6463 65.1154C95.6992 65.0781 95.7551 65.0454 95.8135 65.0176Z" fill="#263238"/>
<path d="M84.2151 64.6031C83.9211 64.1358 83.5897 63.6936 83.2241 63.2809C82.827 62.899 82.4 62.55 81.9473 62.2373C82.1062 62.2805 82.2563 62.3517 82.3907 62.4475C83.0703 62.8677 83.6317 63.4568 84.0213 64.1583C84.1116 64.2938 84.1772 64.4444 84.2151 64.6031Z" fill="#263238"/>
<path d="M86.3686 76.5905C86.2545 76.4449 86.1682 76.2792 86.1142 76.1017C85.9633 75.6716 85.9031 75.2145 85.9373 74.7596C85.9715 74.3047 86.0994 73.862 86.3129 73.4598C86.3928 73.289 86.5038 73.1348 86.64 73.0052C86.6569 73.0199 86.5334 73.1934 86.3977 73.494C86.214 73.8946 86.1024 74.3249 86.0682 74.7649C86.0355 75.2046 86.0814 75.6467 86.2039 76.07C86.2935 76.3901 86.388 76.5808 86.3686 76.5905Z" fill="#263238"/>
<path d="M117.028 70.1311C117.028 70.1311 118.426 67.5014 118.371 65.9128C118.315 64.3242 117.513 63.3564 116.306 62.6794C115.1 62.0024 114.542 63.5006 114.542 63.5006L117.028 70.1311Z" fill="#455A64"/>
<path d="M115.803 63.1803L115.56 62.7746C115.1 61.9966 114.41 61.3825 113.588 61.0174C113.453 60.9456 113.302 60.9118 113.15 60.9196C113.074 60.9255 113.002 60.9573 112.947 61.0097C112.891 61.0621 112.855 61.1321 112.844 61.208C112.844 61.4035 113.041 61.5306 113.196 61.6504C113.536 61.9396 113.831 62.2781 114.073 62.6549C113.608 62.6549 112.827 62.5155 112.365 62.5229C112.241 62.5229 111.904 62.4813 111.863 62.7673C111.864 62.8836 111.892 62.9981 111.945 63.1014C111.998 63.2047 112.074 63.2937 112.168 63.3612C112.784 63.6716 114.482 63.8158 114.349 64.1286C114.429 64.351 113.271 64.2874 112.844 64.3143C112.714 64.3119 112.586 64.3403 112.469 64.3974C112.41 64.4271 112.364 64.4759 112.336 64.5358C112.309 64.5958 112.303 64.6633 112.319 64.7274C112.338 64.7795 112.371 64.8256 112.413 64.8615C112.456 64.8974 112.507 64.9219 112.561 64.9327C113.404 65.1062 115.098 65.2088 114.855 65.5437C114.451 65.5901 114.225 65.7636 113.719 65.9616C113.641 65.9925 113.573 66.0431 113.52 66.1087C113.467 66.1742 113.432 66.2523 113.419 66.3355C113.377 66.6044 113.673 66.8243 113.942 66.8243C114.209 66.798 114.472 66.7414 114.727 66.6557C114.855 66.6132 114.994 66.611 115.123 66.6494C115.253 66.6878 115.368 66.765 115.454 66.8708C115.503 66.9826 115.52 67.1063 115.503 67.2275C115.485 67.3487 115.434 67.4623 115.354 67.5551C115.212 67.753 115.015 67.907 114.87 68.1099C114.794 68.2051 114.749 68.3214 114.74 68.4432C114.732 68.565 114.76 68.6866 114.821 68.7917C114.913 68.8856 115.034 68.9431 115.164 68.9539C115.294 68.9647 115.424 68.9279 115.529 68.8504C115.735 68.6887 115.897 68.4779 116.001 68.2369L116.631 67.0614C116.929 66.5845 117.132 66.0542 117.23 65.4997C117.273 65.0094 117.157 64.5183 116.899 64.1001C116.642 63.682 116.257 63.3592 115.803 63.1803Z" fill="#C8877F"/>
</g>
<defs>
<filter id="filter0_d_111_627" x="0" y="6.11078" width="160" height="147.677" filterUnits="userSpaceOnUse" color-interpolation-filters="sRGB">
<feFlood flood-opacity="0" result="BackgroundImageFix"/>
<feColorMatrix in="SourceAlpha" type="matrix" values="0 0 0 0 0 0 0 0 0 0 0 0 0 0 0 0 0 0 127 0" result="hardAlpha"/>
<feOffset dy="4"/>
<feGaussianBlur stdDeviation="2"/>
<feComposite in2="hardAlpha" operator="out"/>
<feColorMatrix type="matrix" values="0 0 0 0 0 0 0 0 0 0 0 0 0 0 0 0 0 0 0.25 0"/>
<feBlend mode="normal" in2="BackgroundImageFix" result="effect1_dropShadow_111_627"/>
<feBlend mode="normal" in="SourceGraphic" in2="effect1_dropShadow_111_627" result="shape"/>
</filter>
</defs>
</svg>
