<svg width="528" height="513" viewBox="0 0 528 513" fill="none" xmlns="http://www.w3.org/2000/svg">
<g filter="url(#filter0_d_127_1927)">
<path d="M264 504.285C407.594 504.285 524 437.078 524 354.174C524 271.269 407.594 204.062 264 204.062C120.406 204.062 4 271.269 4 354.174C4 437.078 120.406 504.285 264 504.285Z" fill="#F0F0F0"/>
<path d="M413.318 406.26C396.269 396.416 396.269 380.459 413.318 370.616C430.368 360.773 458.011 360.773 475.06 370.616C492.109 380.459 492.109 396.416 475.06 406.26C458.011 416.103 430.368 416.103 413.318 406.26Z" fill="#E0E0E0"/>
<path d="M66.5475 407.628L21.7005 381.74C19.1734 380.283 19.1734 377.911 21.7005 376.454L282.561 225.846C283.979 225.127 285.546 224.753 287.135 224.753C288.725 224.753 290.292 225.127 291.709 225.846L336.567 251.734C339.094 253.191 339.094 255.563 336.567 257.02L75.7067 407.628C74.287 408.347 72.7182 408.721 71.1271 408.721C69.5359 408.721 67.9671 408.347 66.5475 407.628Z" fill="#E0E0E0"/>
<path d="M227.747 361.479L266.304 339.188C270.277 336.893 272.263 333.891 272.263 330.878C272.263 327.866 272.263 325.515 272.263 325.515L232.272 302.959C231.154 302.237 230.224 301.26 229.557 300.11C228.889 298.959 228.504 297.667 228.431 296.338V248.788L161.117 287.698V335.226C161.194 336.553 161.582 337.844 162.249 338.994C162.916 340.144 163.844 341.121 164.957 341.847L198.989 361.446C206.913 366.07 219.802 366.07 227.747 361.479Z" fill="#46D490"/>
<g opacity="0.6">
<path opacity="0.6" d="M227.747 361.479L266.304 339.188C270.277 336.893 272.263 333.891 272.263 330.878C272.263 327.866 272.263 325.515 272.263 325.515L232.272 302.959C231.154 302.237 230.224 301.26 229.557 300.11C228.889 298.959 228.504 297.667 228.431 296.338V248.788L161.117 287.698V335.226C161.194 336.553 161.582 337.844 162.249 338.994C162.916 340.144 163.844 341.121 164.957 341.847L198.989 361.446C206.913 366.07 219.802 366.07 227.747 361.479Z" fill="black"/>
</g>
<path opacity="0.3" d="M177.262 343.646V348.987L164.924 341.869C163.811 341.144 162.885 340.166 162.219 339.016C161.554 337.866 161.169 336.575 161.095 335.248V287.698L173.918 280.293C174.183 283.548 174.47 286.914 174.746 290.225L165.73 295.411V332.545C165.801 333.873 166.187 335.166 166.854 336.317C167.522 337.468 168.453 338.444 169.57 339.166L177.262 343.646Z" fill="black"/>
<path d="M165.729 332.556C165.805 333.883 166.192 335.175 166.859 336.325C167.526 337.475 168.455 338.452 169.569 339.177L198.945 356.105C206.89 360.685 219.779 360.696 227.736 356.105L266.359 333.814C274.315 329.223 274.315 321.786 266.359 317.195L236.961 300.267C235.849 299.54 234.923 298.562 234.258 297.412C233.593 296.262 233.207 294.972 233.132 293.646V256.501L165.817 295.412L165.729 332.556Z" fill="#46D490"/>
<path opacity="0.3" d="M165.729 332.556C165.805 333.883 166.192 335.175 166.859 336.325C167.526 337.475 168.455 338.452 169.569 339.177L198.945 356.105C206.89 360.685 219.779 360.696 227.736 356.105L266.359 333.814C274.315 329.223 274.315 321.786 266.359 317.195L236.961 300.267C235.849 299.54 234.923 298.562 234.258 297.412C233.593 296.262 233.207 294.972 233.132 293.646V256.501L165.817 295.412L165.729 332.556Z" fill="black"/>
<path opacity="0.5" d="M244.743 304.802L236.919 300.289C235.807 299.562 234.881 298.584 234.216 297.434C233.551 296.284 233.165 294.994 233.09 293.668V256.501L165.775 295.411V332.556C165.851 333.883 166.238 335.175 166.905 336.325C167.572 337.475 168.501 338.452 169.615 339.177L177.34 343.591L244.743 304.802Z" fill="black"/>
<path d="M272.275 325.526V330.889C272.275 333.902 270.278 336.892 266.316 339.198L227.693 361.479C223.466 363.735 218.745 364.906 213.954 364.888V359.547C218.745 359.565 223.466 358.394 227.693 356.137L266.316 333.835C270.278 331.551 272.275 328.538 272.275 325.526Z" fill="#46D490"/>
<path opacity="0.5" d="M272.275 325.526V330.889C272.275 333.902 270.278 336.892 266.316 339.198L227.693 361.479C223.466 363.735 218.745 364.906 213.954 364.888V359.547C218.745 359.565 223.466 358.394 227.693 356.137L266.316 333.835C270.278 331.551 272.275 328.538 272.275 325.526Z" fill="black"/>
<path d="M57.585 378.716C59.0402 379.419 60.6402 379.77 62.256 379.741C63.8718 379.712 65.4583 379.305 66.8876 378.55L327.318 228.196C328.714 227.285 329.877 226.058 330.711 224.615C331.545 223.171 332.027 221.551 332.118 219.886V9.20264C332.068 7.58309 331.637 5.99823 330.858 4.57722C330.079 3.15622 328.976 1.93927 327.638 1.02557C326.185 0.321916 324.586 -0.0288271 322.971 0.00185266C321.357 0.0325324 319.772 0.443769 318.346 1.20213L57.916 151.601C56.5245 152.517 55.3692 153.75 54.5446 155.198C53.72 156.646 53.2493 158.268 53.1709 159.932V370.583C53.2201 372.189 53.645 373.762 54.4116 375.174C55.1781 376.586 56.265 377.799 57.585 378.716Z" fill="#46D490"/>
<path d="M66.9214 378.539L327.352 228.185C328.75 227.276 329.914 226.05 330.748 224.606C331.582 223.162 332.063 221.541 332.152 219.875V9.20276C332.152 6.14601 330 4.89904 327.352 6.43293L66.9214 156.787C65.5244 157.697 64.3616 158.924 63.5276 160.368C62.6935 161.812 62.2116 163.432 62.1211 165.097V375.77C62.1211 378.826 64.273 380.073 66.9214 378.539Z" fill="#46D490"/>
<path opacity="0.5" d="M66.9214 378.539L327.352 228.185C328.75 227.276 329.914 226.05 330.748 224.606C331.582 223.162 332.063 221.541 332.152 219.875V9.20276C332.152 6.14601 330 4.89904 327.352 6.43293L66.9214 156.787C65.5244 157.697 64.3616 158.924 63.5276 160.368C62.6935 161.812 62.2116 163.432 62.1211 165.097V375.77C62.1211 378.826 64.273 380.073 66.9214 378.539Z" fill="black"/>
<path d="M66.2145 384.013C64.8488 384.609 63.3701 384.902 61.8804 384.872C60.3906 384.841 58.9251 384.488 57.585 383.837C56.262 382.918 55.1734 381.701 54.4067 380.285C53.64 378.868 53.2167 377.292 53.1709 375.682V356.502L62.1646 361.711V380.89C62.1094 383.682 63.8861 384.951 66.2145 384.013Z" fill="#46D490"/>
<path opacity="0.5" d="M66.2145 384.013C64.8488 384.609 63.3701 384.902 61.8804 384.872C60.3906 384.841 58.9251 384.488 57.585 383.837C56.262 382.918 55.1734 381.701 54.4067 380.285C53.64 378.868 53.2167 377.292 53.1709 375.682V356.502L62.1646 361.711V380.89C62.1094 383.682 63.8861 384.951 66.2145 384.013Z" fill="black"/>
<path d="M62.1094 361.711V380.89C62.1094 383.947 64.3164 385.182 66.9097 383.66L327.34 233.305C328.731 232.399 329.889 231.179 330.723 229.743C331.557 228.308 332.042 226.697 332.14 225.04V205.772L62.1094 361.711Z" fill="#46D490"/>
<path opacity="0.3" d="M62.1211 361.667V380.89C62.1211 383.947 64.3281 385.182 66.9214 383.66L327.352 233.305C328.74 232.398 329.897 231.177 330.729 229.742C331.56 228.306 332.044 226.696 332.141 225.04V205.772L62.1211 361.667Z" fill="black"/>
<path d="M71.1147 337.599V168.087C71.1661 167.089 71.4528 166.116 71.9514 165.25C72.45 164.383 73.1464 163.646 73.9839 163.099L320.223 20.889C321.812 19.9731 323.103 20.7125 323.103 22.5443V192.144C323.05 193.144 322.761 194.116 322.261 194.983C321.76 195.85 321.062 196.586 320.223 197.132L73.9949 339.309C72.4059 340.225 71.1147 339.475 71.1147 337.599Z" fill="#46D490"/>
<path d="M71.1147 337.599V168.087C71.1661 167.089 71.4528 166.116 71.9514 165.25C72.45 164.383 73.1464 163.646 73.9839 163.099L320.223 20.889C321.812 19.9731 323.103 20.7125 323.103 22.5443V192.144C323.05 193.144 322.761 194.116 322.261 194.983C321.76 195.85 321.062 196.586 320.223 197.132L73.9949 339.309C72.4059 340.225 71.1147 339.475 71.1147 337.599Z" fill="#263238"/>
<path d="M197.125 289.849C195.815 290.702 194.724 291.852 193.941 293.205C193.159 294.559 192.707 296.079 192.623 297.64C192.623 300.509 194.642 301.679 197.125 300.244C198.438 299.391 199.53 298.239 200.312 296.883C201.094 295.527 201.545 294.006 201.628 292.442C201.628 289.573 199.608 288.415 197.125 289.849Z" fill="#46D490"/>
<path opacity="0.7" d="M63.5329 160.351C62.6777 161.789 62.1889 163.415 62.1094 165.086V361.711L53.1709 356.502V159.932C53.2288 158.256 53.7151 156.622 54.5834 155.187L63.5329 160.351Z" fill="black"/>
<path opacity="0.3" d="M332.095 8.40852C331.753 5.93664 329.756 5.09797 327.339 6.43322L66.9086 156.788C65.4966 157.671 64.3311 158.897 63.5208 160.352L54.5161 155.154C55.3318 153.7 56.5007 152.474 57.9149 151.59L318.345 1.24669C319.773 0.488218 321.359 0.0769629 322.976 0.0462858C324.592 0.0156087 326.193 0.366374 327.648 1.07012C328.871 1.90367 329.901 2.9902 330.669 4.25623C331.436 5.52226 331.922 6.93827 332.095 8.40852Z" fill="black"/>
<path d="M346.146 34.342C345.76 34.1479 345.327 34.0628 344.895 34.0958C344.464 34.1289 344.049 34.2788 343.697 34.5296L97.965 176.486C96.9954 177.128 96.1905 177.988 95.6153 178.999C95.0402 180.009 94.711 181.141 94.6545 182.302V350.776C94.6201 351.345 94.733 351.913 94.9824 352.425C95.2318 352.937 95.6092 353.377 96.078 353.7C96.6188 353.998 99.51 355.676 100.371 356.139C100.675 356.294 101.016 356.366 101.357 356.346C101.698 356.327 102.028 356.217 102.313 356.029L347.989 214.072C348.959 213.431 349.764 212.57 350.339 211.56C350.914 210.549 351.243 209.418 351.3 208.257V38.9106C351.349 38.4826 351.278 38.0494 351.095 37.6596C350.912 37.2697 350.624 36.9386 350.263 36.7035C349.711 36.3394 346.764 34.7062 346.146 34.342Z" fill="#46D490"/>
<path d="M102.257 178.869L348 36.9678C349.854 35.8643 351.31 36.7692 351.31 38.91V208.256C351.254 209.417 350.925 210.549 350.35 211.559C349.774 212.569 348.969 213.43 348 214.071L102.257 356.028C100.403 357.132 98.9468 355.355 98.9468 353.214V184.685C99.005 183.524 99.3349 182.393 99.9099 181.383C100.485 180.373 101.289 179.512 102.257 178.869Z" fill="#FAFAFA"/>
<path d="M349.501 37.6084C350.152 37.6084 350.251 38.425 350.251 38.9106V208.256C350.192 209.229 349.906 210.174 349.418 211.017C348.929 211.86 348.251 212.577 347.437 213.112L101.728 355.069C101.563 355.176 101.372 355.236 101.176 355.245C100.558 355.245 100.072 354.296 100.072 353.215V184.685C100.126 183.713 100.402 182.767 100.881 181.919C101.359 181.071 102.027 180.345 102.831 179.797L348.552 37.9174C348.836 37.7339 349.163 37.6275 349.501 37.6084ZM349.501 36.5049C348.969 36.5275 348.452 36.6872 348 36.9684L102.257 178.87C101.289 179.513 100.485 180.374 99.9099 181.384C99.3349 182.394 99.005 183.525 98.9468 184.685V353.215C98.9468 354.914 99.8958 356.349 101.154 356.349C101.543 356.341 101.924 356.231 102.257 356.029L347.989 214.072C348.958 213.431 349.763 212.57 350.339 211.56C350.914 210.549 351.243 209.418 351.299 208.256V38.9106C351.299 37.3877 350.549 36.5049 349.445 36.5049H349.501Z" fill="#E0E0E0"/>
<path d="M96.0118 353.7C96.3759 353.888 98.9913 355.378 100.139 356.04C99.7268 355.698 99.4004 355.264 99.1858 354.774C98.9712 354.283 98.8744 353.749 98.903 353.215V195.687L94.5993 193.171V350.776C94.5636 351.344 94.6749 351.911 94.9223 352.423C95.1697 352.935 95.5449 353.375 96.0118 353.7Z" fill="#F0F0F0"/>
<path d="M351.355 38.8774C351.355 36.7586 349.843 35.8979 348.044 36.9683L102.257 178.87C101.289 179.512 100.485 180.373 99.9099 181.384C99.3349 182.394 99.005 183.524 98.9468 184.685V195.72L351.355 49.9126V38.8774Z" fill="#46D490"/>
<g opacity="0.4">
<path opacity="0.4" d="M347.998 36.9685L102.256 178.859C101.269 179.481 100.457 180.343 99.8941 181.364L95.6235 178.881C96.1854 177.896 96.9909 177.071 97.963 176.486L343.695 34.5297C344.046 34.2772 344.46 34.1253 344.892 34.0903C345.323 34.0553 345.756 34.1386 346.144 34.3311C346.74 34.7063 349.532 36.2843 350.249 36.6706C349.878 36.533 349.479 36.4882 349.087 36.5401C348.694 36.592 348.321 36.7391 347.998 36.9685Z" fill="white"/>
</g>
<path opacity="0.15" d="M94.5996 193.182V182.247C94.6449 181.055 94.9985 179.895 95.6259 178.881L99.9075 181.353C99.2892 182.35 98.9429 183.491 98.9033 184.663V195.698L94.5996 193.182Z" fill="black"/>
<path d="M299.534 165.914L152.357 250.885C151.642 251.349 151.046 251.976 150.618 252.715C150.19 253.453 149.943 254.282 149.896 255.134V297.332C149.943 298.184 150.19 299.013 150.618 299.751C151.046 300.489 151.642 301.116 152.357 301.581L156.65 304.053C157.413 304.438 158.256 304.64 159.111 304.64C159.966 304.64 160.809 304.438 161.572 304.053L308.726 219.082C309.442 218.615 310.038 217.986 310.465 217.246C310.893 216.506 311.14 215.675 311.187 214.822V172.612C311.14 171.761 310.893 170.932 310.465 170.193C310.038 169.455 309.442 168.828 308.726 168.364L304.422 165.892C303.663 165.512 302.824 165.317 301.975 165.32C301.126 165.324 300.29 165.528 299.534 165.914Z" fill="#46D490"/>
<path opacity="0.5" d="M311.187 172.237C311.011 170.968 309.985 170.505 308.749 171.222L161.572 256.193C160.847 256.644 160.25 257.275 159.84 258.025L150.625 252.706C151.038 251.968 151.63 251.345 152.347 250.896L299.534 165.925C300.295 165.538 301.136 165.337 301.99 165.337C302.843 165.337 303.684 165.538 304.445 165.925L308.749 168.397C309.405 168.827 309.962 169.392 310.382 170.054C310.803 170.716 311.077 171.461 311.187 172.237Z" fill="white"/>
<path d="M161.152 304.262C160.432 304.546 159.659 304.675 158.886 304.641C158.112 304.607 157.354 304.41 156.661 304.063L152.357 301.591C151.643 301.126 151.048 300.499 150.62 299.761C150.193 299.023 149.945 298.194 149.896 297.343V255.144C149.93 254.283 150.18 253.444 150.625 252.706L159.839 258.025C159.391 258.754 159.14 259.586 159.111 260.441V302.651C159.111 304.052 159.994 304.703 161.152 304.262Z" fill="#263238"/>
<path d="M161.571 256.193L308.747 171.222C310.104 170.439 311.208 171.068 311.208 172.635V214.844C311.161 215.698 310.914 216.528 310.486 217.268C310.059 218.008 309.463 218.637 308.747 219.104L161.593 304.075C160.235 304.858 159.132 304.218 159.132 302.651V260.453C159.176 259.601 159.42 258.772 159.844 258.032C160.267 257.292 160.859 256.662 161.571 256.193Z" fill="#46D490"/>
<path d="M260.513 188.448L152.368 250.896C151.651 251.345 151.059 251.968 150.646 252.706L159.861 258.025C160.271 257.275 160.868 256.644 161.593 256.193L269.738 193.756L260.513 188.448Z" fill="#455A64"/>
<path d="M269.716 193.755L161.571 256.192C160.855 256.659 160.259 257.288 159.831 258.028C159.404 258.768 159.157 259.599 159.11 260.452V302.64C159.11 304.207 160.213 304.847 161.571 304.063L269.716 241.626V193.755Z" fill="#37474F"/>
<path d="M186.51 251.051L242.315 218.839C244.622 217.504 246.498 218.453 246.498 220.958C246.394 222.365 245.961 223.727 245.232 224.935C244.504 226.143 243.5 227.162 242.304 227.91L186.51 260.133C184.204 261.468 182.317 260.519 182.317 258.014C182.421 256.606 182.855 255.242 183.583 254.032C184.312 252.823 185.314 251.801 186.51 251.051Z" fill="#46D490"/>
<path d="M197.942 261.721C197.953 261.71 197.965 261.7 197.98 261.694C197.994 261.687 198.009 261.684 198.025 261.684C198.041 261.684 198.056 261.687 198.07 261.694C198.085 261.7 198.097 261.71 198.108 261.721C198.157 261.796 198.18 261.886 198.174 261.975V268.254C198.175 268.861 198.123 269.466 198.02 270.064C197.928 270.61 197.773 271.144 197.556 271.653C197.358 272.12 197.098 272.558 196.784 272.955C196.473 273.324 196.099 273.634 195.68 273.871C195.352 274.085 194.969 274.2 194.577 274.202C194.427 274.19 194.281 274.148 194.148 274.078C194.015 274.008 193.898 273.911 193.804 273.794C193.562 273.469 193.403 273.091 193.341 272.69C193.235 272.156 193.187 271.613 193.197 271.068V264.778C193.197 264.668 193.219 264.559 193.263 264.458C193.29 264.367 193.349 264.289 193.429 264.237L194.124 263.829C194.147 263.808 194.176 263.797 194.207 263.797C194.238 263.797 194.267 263.808 194.29 263.829C194.341 263.903 194.364 263.993 194.356 264.083V270.285C194.347 270.626 194.381 270.967 194.455 271.3C194.486 271.513 194.578 271.712 194.72 271.874C194.77 271.933 194.832 271.98 194.903 272.01C194.974 272.041 195.051 272.055 195.128 272.05C195.317 272.038 195.499 271.977 195.658 271.874C195.854 271.757 196.033 271.612 196.188 271.443C196.36 271.245 196.501 271.022 196.607 270.781C196.732 270.498 196.824 270.202 196.883 269.899C196.947 269.534 196.977 269.165 196.971 268.795V262.582C196.975 262.471 197.001 262.362 197.048 262.262C197.075 262.171 197.134 262.093 197.214 262.041L197.942 261.721Z" fill="#FAFAFA"/>
<path d="M202.268 267.659C202.274 267.577 202.255 267.497 202.213 267.427C202.187 267.398 202.154 267.376 202.118 267.363C202.081 267.349 202.042 267.345 202.003 267.35C201.868 267.331 201.731 267.331 201.595 267.35L200.955 267.471C200.749 267.522 200.533 267.522 200.326 267.471C200.164 267.419 200.024 267.314 199.929 267.173C199.821 266.994 199.75 266.795 199.719 266.588C199.612 265.997 199.612 265.391 199.719 264.8C199.802 264.462 199.92 264.132 200.072 263.818C200.223 263.505 200.408 263.209 200.624 262.936C200.833 262.675 201.087 262.454 201.374 262.284C201.607 262.143 201.866 262.053 202.136 262.02C202.332 261.999 202.529 262.042 202.699 262.141C202.861 262.24 202.988 262.386 203.063 262.56C203.152 262.766 203.201 262.987 203.206 263.211C203.218 263.322 203.195 263.434 203.14 263.531C203.113 263.622 203.054 263.701 202.975 263.752L202.312 264.138C202.282 264.156 202.248 264.165 202.213 264.165C202.178 264.165 202.144 264.156 202.114 264.138L201.97 264.028C201.913 263.983 201.844 263.956 201.772 263.951C201.63 263.967 201.494 264.016 201.374 264.094C201.201 264.199 201.048 264.333 200.922 264.491C200.788 264.665 200.718 264.879 200.723 265.098C200.708 265.182 200.708 265.268 200.723 265.352C200.745 265.383 200.772 265.409 200.805 265.429C200.837 265.448 200.874 265.459 200.911 265.463C201.032 265.483 201.155 265.483 201.275 265.463L201.893 265.352C202.412 265.253 202.765 265.352 202.997 265.639C203.24 266.048 203.352 266.522 203.317 266.996C203.314 267.324 203.269 267.651 203.184 267.968C203.097 268.312 202.971 268.645 202.809 268.961C202.647 269.287 202.443 269.592 202.202 269.866C201.973 270.134 201.701 270.361 201.397 270.539C201.154 270.694 200.878 270.788 200.591 270.815C200.384 270.822 200.179 270.764 200.006 270.649C199.836 270.533 199.705 270.367 199.631 270.175C199.542 269.965 199.497 269.74 199.498 269.512C199.488 269.398 199.511 269.283 199.565 269.181C199.592 269.09 199.65 269.012 199.73 268.961L200.392 268.574C200.481 268.574 200.547 268.519 200.591 268.574L200.734 268.729C200.764 268.762 200.799 268.789 200.839 268.808C200.879 268.826 200.922 268.837 200.966 268.839C201.121 268.84 201.273 268.79 201.397 268.696C201.596 268.583 201.775 268.437 201.926 268.266C202.001 268.175 202.064 268.075 202.114 267.968C202.192 267.88 202.245 267.773 202.268 267.659Z" fill="#FAFAFA"/>
<path d="M204.519 264.668C204.517 264.094 204.565 263.522 204.663 262.957C204.755 262.426 204.899 261.905 205.093 261.401C205.255 260.95 205.478 260.523 205.755 260.132C205.987 259.796 206.288 259.514 206.638 259.305C206.894 259.133 207.206 259.066 207.51 259.117C207.78 259.179 208.016 259.341 208.172 259.569C208.38 259.869 208.526 260.206 208.602 260.563C208.708 261.026 208.76 261.5 208.757 261.975V262.659C208.76 262.774 208.734 262.889 208.68 262.99C208.653 263.081 208.594 263.16 208.514 263.211L205.645 264.877C205.638 265.072 205.664 265.266 205.722 265.451C205.765 265.576 205.841 265.687 205.943 265.771C206.033 265.843 206.148 265.878 206.263 265.871C206.396 265.855 206.524 265.81 206.638 265.738C206.805 265.648 206.955 265.528 207.08 265.385C207.192 265.258 207.289 265.117 207.366 264.966C207.414 264.878 207.465 264.794 207.521 264.712C207.568 264.656 207.624 264.607 207.686 264.568L208.371 264.171C208.394 264.152 208.423 264.142 208.453 264.142C208.484 264.142 208.513 264.152 208.536 264.171C208.565 264.206 208.586 264.247 208.598 264.291C208.609 264.335 208.611 264.38 208.602 264.425C208.59 264.64 208.546 264.852 208.47 265.054C208.375 265.36 208.249 265.656 208.095 265.937C207.922 266.26 207.715 266.563 207.477 266.842C207.239 267.126 206.956 267.368 206.638 267.559C206.377 267.73 206.065 267.804 205.755 267.769C205.484 267.703 205.247 267.538 205.093 267.305C204.876 266.97 204.73 266.595 204.663 266.202C204.563 265.697 204.514 265.183 204.519 264.668ZM206.638 261.147C206.468 261.239 206.321 261.367 206.208 261.523C206.085 261.677 205.985 261.848 205.91 262.03C205.832 262.213 205.77 262.401 205.722 262.593C205.683 262.767 205.658 262.945 205.645 263.123L207.587 262.019C207.576 261.867 207.554 261.716 207.521 261.567C207.504 261.433 207.451 261.307 207.366 261.203C207.333 261.155 207.291 261.115 207.242 261.084C207.192 261.054 207.137 261.034 207.08 261.026C206.923 261.013 206.766 261.056 206.638 261.147Z" fill="#FAFAFA"/>
<path d="M212.223 258.069C211.888 258.26 211.625 258.554 211.472 258.907C211.301 259.373 211.222 259.868 211.241 260.364V264.348C211.242 264.462 211.22 264.574 211.174 264.679C211.147 264.77 211.089 264.848 211.009 264.9L210.358 265.275C210.347 265.286 210.335 265.296 210.32 265.302C210.306 265.309 210.291 265.312 210.275 265.312C210.259 265.312 210.244 265.309 210.23 265.302C210.215 265.296 210.203 265.286 210.192 265.275C210.143 265.2 210.12 265.111 210.126 265.021V257.881C210.127 257.768 210.149 257.655 210.192 257.55C210.223 257.461 210.281 257.384 210.358 257.329L211.009 256.954C211.031 256.933 211.061 256.922 211.092 256.922C211.122 256.922 211.152 256.933 211.174 256.954C211.226 257.024 211.249 257.111 211.241 257.197V257.55C211.372 257.254 211.535 256.973 211.726 256.711C211.901 256.47 212.127 256.27 212.388 256.127L212.786 255.895C212.806 255.875 212.834 255.863 212.863 255.863C212.892 255.863 212.919 255.875 212.94 255.895C212.993 255.968 213.021 256.058 213.017 256.149V257.153C213.015 257.267 212.989 257.38 212.94 257.484C212.912 257.571 212.858 257.648 212.786 257.705L212.223 258.069Z" fill="#FAFAFA"/>
<path d="M220.455 257.539C220.465 257.528 220.478 257.518 220.492 257.512C220.506 257.505 220.522 257.502 220.537 257.502C220.553 257.502 220.568 257.505 220.583 257.512C220.597 257.518 220.61 257.528 220.62 257.539C220.67 257.614 220.693 257.703 220.686 257.793V258.897C220.686 259.01 220.663 259.123 220.62 259.228C220.582 259.31 220.525 259.381 220.455 259.437L216.681 261.644C216.658 261.665 216.629 261.677 216.598 261.677C216.567 261.677 216.538 261.665 216.515 261.644C216.466 261.573 216.442 261.488 216.449 261.402V251.47C216.449 251.356 216.472 251.244 216.515 251.139C216.546 251.053 216.604 250.979 216.681 250.929L217.376 250.521C217.398 250.5 217.428 250.488 217.459 250.488C217.489 250.488 217.519 250.5 217.541 250.521C217.591 250.592 217.614 250.678 217.608 250.764V259.161L220.455 257.539Z" fill="#FAFAFA"/>
<path d="M223.842 249.373C224.091 249.201 224.39 249.119 224.692 249.141C224.95 249.162 225.191 249.28 225.365 249.472C225.571 249.708 225.721 249.987 225.806 250.289C225.924 250.68 225.991 251.084 226.005 251.492C226.005 251.58 226.005 251.701 226.005 251.845V252.695C226.005 252.827 226.005 252.948 226.005 253.048C225.983 253.527 225.917 254.004 225.806 254.471C225.704 254.926 225.556 255.37 225.365 255.795C225.19 256.191 224.964 256.562 224.692 256.899C224.459 257.204 224.171 257.462 223.842 257.66C223.587 257.826 223.286 257.907 222.981 257.892C222.727 257.87 222.49 257.752 222.319 257.561C222.108 257.333 221.956 257.056 221.878 256.755C221.76 256.365 221.693 255.96 221.679 255.553C221.679 255.464 221.679 255.354 221.679 255.211V254.361C221.679 254.217 221.679 254.096 221.679 254.008C221.692 253.524 221.755 253.044 221.867 252.573C221.974 252.115 222.126 251.667 222.319 251.238C222.495 250.845 222.717 250.474 222.981 250.134C223.215 249.826 223.508 249.568 223.842 249.373ZM224.879 252.22C224.879 251.976 224.838 251.733 224.758 251.503C224.717 251.362 224.632 251.238 224.515 251.15C224.421 251.086 224.308 251.059 224.195 251.072C224.069 251.096 223.949 251.145 223.842 251.216C223.712 251.287 223.593 251.376 223.489 251.481C223.362 251.612 223.255 251.761 223.169 251.922C223.058 252.123 222.976 252.338 222.926 252.562C222.854 252.844 222.809 253.132 222.794 253.423C222.794 253.511 222.794 253.61 222.794 253.732V254.515C222.794 254.637 222.794 254.736 222.794 254.802C222.804 255.046 222.849 255.288 222.926 255.52C222.966 255.661 223.052 255.785 223.169 255.873C223.215 255.905 223.267 255.928 223.322 255.939C223.377 255.951 223.434 255.95 223.489 255.939C223.614 255.918 223.734 255.873 223.842 255.806C223.97 255.733 224.089 255.644 224.195 255.542C224.318 255.407 224.426 255.259 224.515 255.1C224.621 254.897 224.703 254.682 224.758 254.46C224.83 254.179 224.871 253.89 224.879 253.599C224.886 253.497 224.886 253.393 224.879 253.29V252.518C224.886 252.419 224.886 252.319 224.879 252.22Z" fill="#FAFAFA"/>
<path d="M229.382 255.829C229.523 255.743 229.65 255.635 229.758 255.509C229.89 255.353 230.005 255.183 230.1 255.001C230.209 254.779 230.294 254.546 230.353 254.306C230.421 254.035 230.455 253.757 230.453 253.478V252.916C230.453 253.026 230.342 253.158 230.265 253.313C230.189 253.474 230.101 253.629 230 253.776C229.885 253.932 229.76 254.079 229.625 254.218C229.487 254.363 229.327 254.486 229.151 254.582C229.037 254.659 228.909 254.713 228.775 254.739C228.64 254.766 228.501 254.765 228.367 254.736C228.122 254.66 227.911 254.5 227.771 254.284C227.591 253.999 227.461 253.686 227.385 253.357C227.291 252.94 227.239 252.515 227.23 252.088C227.23 251.945 227.23 251.768 227.23 251.558C227.23 251.349 227.23 251.172 227.23 251.018C227.244 250.532 227.296 250.049 227.385 249.572C227.476 249.102 227.605 248.641 227.771 248.193C227.927 247.803 228.127 247.433 228.367 247.089C228.571 246.785 228.838 246.529 229.151 246.339C229.297 246.25 229.458 246.187 229.625 246.151C229.749 246.128 229.876 246.128 230 246.151C230.098 246.179 230.189 246.228 230.265 246.295C230.336 246.348 230.399 246.412 230.453 246.482V246.129C230.453 246.015 230.476 245.903 230.519 245.798C230.55 245.712 230.608 245.638 230.684 245.588L231.336 245.202C231.358 245.181 231.388 245.169 231.418 245.169C231.449 245.169 231.479 245.181 231.501 245.202C231.554 245.276 231.582 245.365 231.578 245.456V252.629C231.608 253.703 231.409 254.771 230.993 255.763C230.668 256.542 230.104 257.199 229.382 257.639C229.136 257.792 228.855 257.879 228.566 257.892C228.337 257.906 228.109 257.848 227.915 257.727C227.728 257.587 227.577 257.406 227.473 257.197C227.366 256.946 227.306 256.676 227.297 256.403C227.286 256.288 227.309 256.173 227.363 256.072C227.39 255.981 227.449 255.902 227.528 255.851L228.113 255.52C228.127 255.506 228.143 255.494 228.161 255.486C228.179 255.478 228.198 255.474 228.218 255.474C228.238 255.474 228.257 255.478 228.275 255.486C228.293 255.494 228.31 255.506 228.323 255.52C228.377 255.577 228.425 255.64 228.466 255.708C228.534 255.826 228.645 255.913 228.775 255.95C228.908 256.05 229.106 255.939 229.382 255.829ZM228.345 250.477C228.345 250.771 228.345 251.058 228.345 251.338C228.314 251.778 228.439 252.216 228.698 252.574C228.796 252.658 228.922 252.705 229.051 252.705C229.181 252.705 229.306 252.658 229.404 252.574C229.725 252.365 229.975 252.065 230.122 251.713C230.323 251.252 230.435 250.758 230.453 250.256C230.453 250.091 230.453 249.892 230.453 249.66C230.453 249.429 230.453 249.23 230.453 249.086C230.475 248.691 230.358 248.301 230.122 247.983C230.024 247.893 229.896 247.843 229.763 247.843C229.63 247.843 229.502 247.893 229.404 247.983C229.09 248.19 228.845 248.486 228.698 248.833C228.471 249.351 228.351 249.911 228.345 250.477Z" fill="#FAFAFA"/>
<path d="M234.15 240.677C234.172 240.659 234.199 240.649 234.227 240.649C234.255 240.649 234.283 240.659 234.304 240.677C234.362 240.749 234.39 240.84 234.382 240.931V242.134C234.382 242.249 234.356 242.362 234.304 242.465C234.273 242.548 234.22 242.62 234.15 242.675L233.41 243.105C233.4 243.117 233.387 243.126 233.373 243.132C233.359 243.139 233.343 243.142 233.328 243.142C233.312 243.142 233.297 243.139 233.282 243.132C233.268 243.126 233.255 243.117 233.245 243.105C233.216 243.072 233.194 243.033 233.181 242.992C233.168 242.95 233.163 242.906 233.168 242.862V241.659C233.167 241.544 233.193 241.431 233.245 241.328C233.276 241.242 233.334 241.169 233.41 241.119L234.15 240.677ZM234.337 251.039C234.338 251.149 234.315 251.258 234.271 251.359C234.236 251.446 234.179 251.522 234.106 251.58L233.444 251.955C233.434 251.967 233.422 251.976 233.409 251.982C233.396 251.989 233.381 251.992 233.366 251.992C233.351 251.992 233.337 251.989 233.323 251.982C233.31 251.976 233.298 251.967 233.289 251.955C233.231 251.884 233.204 251.793 233.212 251.701V244.562C233.211 244.447 233.238 244.333 233.289 244.23C233.32 244.145 233.373 244.068 233.444 244.01L234.106 243.635C234.128 243.614 234.158 243.602 234.188 243.602C234.219 243.602 234.249 243.614 234.271 243.635C234.321 243.705 234.344 243.791 234.337 243.877V251.039Z" fill="#FAFAFA"/>
<path d="M240.142 247.674C240.142 247.787 240.119 247.9 240.076 248.005C240.045 248.091 239.987 248.165 239.91 248.215L239.248 248.601C239.228 248.621 239.2 248.632 239.171 248.632C239.142 248.632 239.114 248.621 239.094 248.601C239.036 248.529 239.008 248.438 239.017 248.347V244.463C239.05 244.004 238.967 243.544 238.774 243.127C238.619 242.851 238.377 242.807 238.034 243.006C237.693 243.235 237.44 243.574 237.317 243.966C237.133 244.487 237.043 245.036 237.052 245.588V249.484C237.052 249.597 237.029 249.71 236.986 249.815C236.959 249.906 236.9 249.984 236.821 250.035L236.169 250.411C236.159 250.422 236.146 250.432 236.132 250.438C236.118 250.445 236.102 250.448 236.087 250.448C236.071 250.448 236.056 250.445 236.041 250.438C236.027 250.432 236.014 250.422 236.004 250.411C235.953 250.34 235.929 250.254 235.938 250.168V243.028C235.936 242.914 235.959 242.801 236.004 242.697C236.031 242.606 236.09 242.528 236.169 242.476L236.821 242.101C236.831 242.089 236.844 242.08 236.858 242.073C236.872 242.067 236.888 242.064 236.903 242.064C236.919 242.064 236.934 242.067 236.949 242.073C236.963 242.08 236.976 242.089 236.986 242.101C237.035 242.176 237.059 242.265 237.052 242.355V242.697C237.198 242.361 237.375 242.039 237.582 241.737C237.764 241.458 238.01 241.227 238.299 241.064C238.55 240.88 238.863 240.801 239.171 240.843C239.293 240.874 239.407 240.93 239.506 241.008C239.605 241.086 239.687 241.184 239.745 241.295C239.905 241.594 240.01 241.919 240.054 242.256C240.113 242.694 240.142 243.137 240.142 243.58V247.674Z" fill="#FAFAFA"/>
<path d="M295.803 215.55L285.087 221.73L286.754 206.7C285.463 206.016 284.646 204.35 284.646 201.955C284.646 197.684 287.25 192.73 290.45 190.92C293.651 189.11 296.244 191.03 296.244 195.334C296.178 197.866 295.455 200.338 294.147 202.507L295.803 215.55Z" fill="#455A64"/>
<path d="M295.815 215.55L286.379 210.11L285.088 221.741L295.815 215.55Z" fill="#37474F"/>
<path d="M290.43 190.887C288.097 192.463 286.356 194.774 285.486 197.453L294.127 202.441C295.435 200.271 296.157 197.8 296.224 195.268C296.246 190.997 293.652 189.044 290.43 190.887Z" fill="#37474F"/>
<path d="M238.343 140.842C234.668 138.723 229.603 139.021 223.997 142.255C212.808 148.721 203.737 164.424 203.737 177.346C203.737 183.835 206.032 188.382 209.718 190.478L216.858 194.628C220.521 196.746 225.586 196.437 231.203 193.204C242.393 186.748 251.464 171.034 251.464 158.112C251.464 151.657 249.191 147.077 245.527 145.013" fill="#46D490"/>
<path d="M231.192 146.415C220.003 152.881 210.932 168.595 210.932 181.507C210.932 194.418 220.003 199.671 231.192 193.204C242.382 186.737 251.464 171.034 251.453 158.112C251.442 145.19 242.371 139.959 231.192 146.415Z" fill="#46D490"/>
<path d="M242.371 175.084V176.563C239.69 181.348 235.845 185.379 231.192 188.282C226.833 190.787 222.894 191.063 220.002 189.463V186.417C220.15 183.249 221.055 180.161 222.641 177.414C224.227 174.667 226.448 172.339 229.118 170.626L232.064 168.927C234.668 167.426 237.206 167.227 239.193 168.386C241.179 169.545 242.371 171.983 242.371 175.084Z" fill="#46D490"/>
<path opacity="0.4" d="M238.343 140.842L245.516 145.013C241.852 142.884 236.787 143.182 231.17 146.415C223.843 150.652 217.42 158.851 213.867 167.636L206.683 163.475C210.247 154.647 216.615 146.492 223.986 142.255C229.614 139.032 234.679 138.723 238.343 140.842Z" fill="white"/>
<path opacity="0.2" d="M216.603 194.462L209.728 190.479C206.042 188.382 203.747 183.857 203.747 177.347L210.93 181.518C210.975 187.808 213.093 192.288 216.603 194.462Z" fill="black"/>
<path opacity="0.1" d="M206.706 163.475L213.89 167.635C212.049 172.033 211.06 176.74 210.976 181.507L203.792 177.335C203.881 172.573 204.869 167.87 206.706 163.475Z" fill="black"/>
<path d="M228.633 168.232C227.948 168.239 227.274 168.064 226.68 167.724C225.963 167.246 225.389 166.584 225.018 165.807C224.647 165.03 224.493 164.167 224.572 163.31C224.666 161.299 225.239 159.34 226.245 157.597C227.251 155.854 228.66 154.377 230.354 153.29C231.035 152.747 231.863 152.421 232.732 152.357C233.6 152.292 234.468 152.491 235.221 152.927C235.974 153.363 236.579 154.017 236.955 154.802C237.331 155.588 237.461 156.468 237.329 157.329C237.233 159.339 236.659 161.297 235.653 163.04C234.647 164.783 233.239 166.26 231.546 167.349C230.67 167.895 229.665 168.2 228.633 168.232Z" fill="white"/>
<path d="M239.193 168.375C237.206 167.216 234.668 167.415 232.064 168.915L229.118 170.615C226.446 172.329 224.224 174.658 222.639 177.408C221.053 180.157 220.149 183.246 220.002 186.417V189.474C222.894 191.074 226.833 190.798 231.192 188.293C235.845 185.39 239.69 181.359 242.371 176.574V175.095C242.371 171.983 241.223 169.544 239.193 168.375Z" fill="white"/>
<path d="M466.054 359.283C466.054 359.283 467.521 346.394 473.933 336.385C480.344 326.376 489.15 320.141 497.372 319.49C505.593 318.839 512.236 326.409 503.441 331.629C494.646 336.848 479.02 342.123 471.825 361.545L466.054 359.283Z" fill="#46D490"/>
<path opacity="0.1" d="M466.054 359.283C466.054 359.283 467.521 346.394 473.933 336.385C480.344 326.376 489.15 320.141 497.372 319.49C505.593 318.839 512.236 326.409 503.441 331.629C494.646 336.848 479.02 342.123 471.825 361.545L466.054 359.283Z" fill="black"/>
<path d="M468.471 355.928H468.383C468.275 355.884 468.188 355.799 468.143 355.692C468.097 355.584 468.096 355.463 468.14 355.355C476.814 334.002 493.322 325.074 500.848 323.353C500.905 323.34 500.963 323.338 501.02 323.347C501.078 323.357 501.132 323.378 501.182 323.408C501.231 323.439 501.273 323.479 501.307 323.527C501.341 323.574 501.365 323.627 501.378 323.684C501.391 323.74 501.393 323.799 501.383 323.856C501.374 323.913 501.353 323.968 501.322 324.017C501.291 324.066 501.251 324.109 501.204 324.143C501.157 324.176 501.103 324.2 501.047 324.213C493.675 325.913 477.487 334.675 468.957 355.697C468.914 355.785 468.843 355.856 468.754 355.898C468.666 355.94 468.566 355.951 468.471 355.928Z" fill="white"/>
<path d="M512.368 356.183C511.629 357.86 509.797 358.743 508.098 359.427C506.398 360.111 504.544 360.851 503.617 362.44C501.764 365.64 504.809 370.164 502.823 373.265C502.355 373.889 501.766 374.413 501.091 374.803C500.416 375.194 499.669 375.444 498.894 375.538C497.625 375.77 496.334 375.77 495.054 375.88C494.441 375.872 493.829 375.824 493.222 375.737C491.439 375.339 489.575 375.537 487.914 376.3C485.365 377.734 484.604 380.946 483.037 383.429C482.079 384.89 480.818 386.128 479.338 387.058C477.858 387.987 476.195 388.586 474.462 388.814C473.359 388.957 471.152 389.167 470.048 388.516C469.962 388.473 469.881 388.422 469.806 388.361C469.64 388.185 469.441 387.953 469.353 387.832C469.347 387.806 469.347 387.78 469.353 387.754C468.901 386.088 469.64 384.367 469.673 382.645V382.336C469.596 380.339 469.541 378.352 469.497 376.366C469.401 372.688 469.364 369.009 469.386 365.331C469.386 362.947 469.121 360.343 470.137 358.103C471.24 355.631 474.021 355.576 475.069 353.159C475.489 352.188 475.709 351.162 476.118 350.18C476.749 348.752 477.759 347.524 479.04 346.631C480.32 345.738 481.821 345.213 483.379 345.114C488.223 344.872 492.56 348.789 497.405 348.425C498.652 348.326 499.877 347.939 501.112 347.719C505.03 346.979 509.565 348.094 511.772 351.415C512.257 352.099 512.565 352.893 512.669 353.724C512.773 354.556 512.669 355.4 512.368 356.183Z" fill="#46D490"/>
<path d="M468.868 380.106C468.764 380.075 468.676 380.005 468.622 379.911C468.569 379.816 468.554 379.704 468.581 379.599C475.269 354.505 501.687 350.907 507.9 351.327C507.954 351.329 508.008 351.343 508.057 351.367C508.106 351.391 508.15 351.424 508.186 351.466C508.222 351.507 508.25 351.555 508.267 351.607C508.284 351.659 508.29 351.713 508.286 351.768C508.275 351.875 508.223 351.974 508.14 352.044C508.058 352.114 507.952 352.149 507.845 352.143C501.786 351.713 475.92 355.255 469.376 379.819C469.345 379.924 469.275 380.012 469.18 380.066C469.085 380.119 468.974 380.134 468.868 380.106Z" fill="white"/>
<path d="M498.255 367.394C498.172 367.382 498.094 367.343 498.035 367.283C495.592 365.167 492.713 363.615 489.602 362.74C486.49 361.864 483.224 361.686 480.036 362.218C479.929 362.228 479.822 362.198 479.736 362.132C479.65 362.067 479.592 361.971 479.573 361.865C479.557 361.757 479.584 361.647 479.648 361.558C479.711 361.47 479.807 361.41 479.915 361.391C483.24 360.837 486.646 361.026 489.889 361.944C493.133 362.862 496.133 364.485 498.675 366.699C498.714 366.737 498.745 366.782 498.766 366.832C498.787 366.883 498.798 366.937 498.798 366.991C498.798 367.046 498.787 367.1 498.766 367.15C498.745 367.2 498.714 367.245 498.675 367.283C498.625 367.343 498.558 367.386 498.483 367.405C498.408 367.425 498.328 367.421 498.255 367.394Z" fill="white"/>
<path d="M405.33 56.2013L408.839 57.5476V49.823C408.839 43.6874 413.728 42.2197 419.036 45.2875C424.355 48.3553 428.659 55.8041 428.659 61.9396V63.0431C429.398 62.8171 430.18 62.7613 430.944 62.8797C431.708 62.9982 432.436 63.288 433.073 63.7273C435.088 65.0415 436.765 66.8128 437.967 68.897C439.17 70.9813 439.863 73.3198 439.992 75.7226V76.2302L444.891 79.0552C446.217 79.9205 447.32 81.0856 448.112 82.4563C448.904 83.827 449.362 85.3648 449.449 86.9454C449.449 89.8586 447.407 91.0394 444.891 89.5828L405.33 66.7289C404.004 65.8657 402.9 64.7008 402.11 63.3295C401.32 61.9581 400.865 60.4193 400.784 58.8387C400.784 55.9365 402.803 54.7557 405.33 56.2013Z" fill="#E6E6E6"/>
<path d="M452.328 50.0879L458.696 53.7626C458.661 53.4844 458.642 53.2043 458.64 52.9239V51.0811C458.64 47.7705 460.936 46.4683 463.783 48.1126C465.006 48.8616 466.053 49.8668 466.851 51.059C467.314 46.9318 470.558 45.3979 474.487 47.6602C476.732 49.1209 478.601 51.09 479.943 53.408C481.285 55.7259 482.063 58.3274 482.212 61.0017V63.7605C482.24 64.8628 482.017 65.9571 481.561 66.9607L486.857 70.0064C487.683 70.5539 488.369 71.2873 488.859 72.1478C489.35 73.0084 489.632 73.9719 489.682 74.9612C489.682 76.782 488.402 77.5214 486.824 76.6165L452.328 56.7531C451.494 56.2095 450.8 55.4763 450.303 54.6132C449.807 53.7501 449.521 52.7818 449.47 51.7873C449.47 49.9224 450.75 49.183 452.328 50.0879Z" fill="#E6E6E6"/>
<path d="M427.673 217.57C423.038 225.404 418.58 232.213 415.446 235.48C409.498 238.238 395.527 242.498 390.065 243.204C389.105 243.326 388.134 243.099 387.328 242.564C385.176 241.152 383.51 240.92 381.248 240.136C379.471 239.53 378.72 238.68 378.389 239.033C378.047 239.434 377.876 239.952 377.911 240.478C377.946 241.004 378.185 241.495 378.577 241.847C379.426 242.653 380.367 243.357 381.38 243.944C378.957 244.545 376.429 244.59 373.986 244.076C369.252 242.829 367.023 245.102 370.223 250.245C371.327 252.077 375.873 255.023 385.011 254.228C388.27 254.053 391.516 253.684 394.733 253.125C403.494 251.249 413.239 249.439 419.231 247.607C421.46 246.731 423.454 245.348 425.057 243.568C435.132 232.081 438.476 223.893 442.89 216.455L442.515 204.316C435.364 204.073 431.546 211.015 427.673 217.57Z" fill="#FFA8A7"/>
<path d="M443.74 204.073C441.666 203.781 439.553 204.062 437.627 204.885C435.702 205.708 434.038 207.041 432.815 208.741C427.915 215.02 419.242 230.094 419.242 230.094C419.242 230.094 422.078 237.653 429.736 238.922L442.04 222.303C442.04 222.303 447.867 210.76 443.74 204.073Z" fill="#455A64"/>
<path d="M470.346 373.507H462.323V387.809H470.346V373.507Z" fill="#FFA8A7"/>
<path d="M442.537 372.746L434.525 373.033L434.117 357.893L442.537 357.606V372.746Z" fill="#FFA8A7"/>
<path d="M471.471 249.704C471.471 257.671 470.302 321.863 470.302 321.863C470.478 324.158 472.509 328.396 472.101 337.213C471.494 349.186 470.688 380.658 470.688 380.658C469.311 381.363 467.791 381.745 466.245 381.776C464.698 381.807 463.165 381.485 461.761 380.835C461.761 380.835 455.25 336.694 453.815 324.876C452.557 314.514 449.335 280.216 449.335 280.216L444.998 320.759C445.917 325.11 446.251 329.563 445.991 334.002C445.616 339.519 443.034 368.078 443.034 368.078C441.648 368.896 440.094 369.387 438.49 369.516C436.886 369.644 435.273 369.405 433.775 368.818C433.775 368.818 429.207 325.78 429.118 320.726C429.008 314.988 431.789 249.638 431.789 249.638L471.471 249.704Z" fill="#37474F"/>
<path d="M462.324 383.682V382.49C461.552 382.832 459.775 389.916 456.586 392.94C454.059 395.346 450.616 398.116 449.733 400.797C448.85 403.479 454.533 405.123 456.906 404.693C459.642 404.185 464.41 402.166 465.602 400.279C466.793 398.392 467.356 395.655 468.327 394.286C469.298 392.918 471.538 391.395 472.057 389.806C472.219 388.319 472.065 386.815 471.605 385.392C471.229 383.913 470.832 382.291 470.347 382.435V383.34C469.215 384.268 467.793 384.768 466.33 384.752C465.16 384.851 462.313 384.609 462.324 383.682Z" fill="#263238"/>
<path d="M434.436 370.45C434.017 370.45 433.675 371.079 432.759 372.117C431.397 373.549 429.804 374.743 428.047 375.648C425.046 377.215 419.219 379.621 416.559 380.868C414.904 381.64 414.981 383.715 416.692 384.895C418.402 386.076 422.518 386.926 427.462 385.778C430.155 385.149 433.664 382.556 435.893 382.699C438.122 382.843 442.26 382.799 443.905 381.596C445.549 380.393 444.887 377.899 444.423 375.747C443.916 373.386 443.32 369.711 442.536 369.876V370.704C441.576 372.227 436.599 372.845 434.481 371.73L434.436 370.45Z" fill="#263238"/>
<path d="M449.334 280.216C445.16 278.85 441.345 276.569 438.166 273.54C438.166 273.54 440.373 277.744 446.729 281.661L445.361 317.868L449.334 280.216Z" fill="#263238"/>
<path d="M466.99 205.243C466.99 205.243 473.611 206.766 473.137 218.728L471.757 237.764V266.345C465.865 273.032 439.755 272.547 430.762 265.815C430.762 265.815 431.777 231.992 432.384 218.971C432.814 209.723 434.944 205.067 444.037 204.051L455.216 204.537L466.99 205.243Z" fill="#46D490"/>
<path d="M458.559 180.392C458.597 181.993 458.318 183.586 457.737 185.079C457.157 186.572 456.286 187.936 455.176 189.091C454.066 190.246 452.739 191.17 451.27 191.809C449.801 192.449 448.221 192.792 446.619 192.817C439.998 192.817 436.113 187.101 434.679 180.392C432.03 168.11 440.02 167.955 446.619 167.955C449.851 168.022 452.925 169.369 455.164 171.701C457.403 174.034 458.624 177.159 458.559 180.392Z" fill="#263238"/>
<path d="M464.651 185.413C464.651 185.413 462.819 194.373 462.08 195.852C461.615 196.742 460.824 197.418 459.873 197.739L460.005 191.438L464.651 185.413Z" fill="#263238"/>
<path d="M462.344 172.578C462.344 172.578 463.658 172.247 465.059 174.432C466.251 176.297 466.527 180.491 464.651 185.468L461.197 185.887L462.344 172.578Z" fill="#263238"/>
<path d="M463.614 174.399L467.852 174.477C467.881 174.203 467.853 173.926 467.77 173.663C467.687 173.401 467.55 173.158 467.369 172.951C467.187 172.744 466.965 172.576 466.716 172.459C466.467 172.342 466.196 172.277 465.921 172.27C465.341 172.278 464.785 172.5 464.36 172.893C463.934 173.286 463.669 173.822 463.614 174.399Z" fill="#263238"/>
<path d="M464.133 173.395L467.267 170.383C467.087 170.17 466.864 169.997 466.613 169.874C466.362 169.752 466.089 169.683 465.81 169.671C465.531 169.66 465.252 169.706 464.992 169.808C464.732 169.909 464.496 170.064 464.299 170.261C463.883 170.668 463.635 171.215 463.605 171.796C463.574 172.377 463.763 172.947 464.133 173.395Z" fill="#263238"/>
<path d="M460.161 185.832C460.856 186.262 461.838 184.883 462.699 183.945C463.56 183.007 466.23 182.146 467.621 185.192C469.011 188.238 466.639 191.25 464.652 192.243C461.088 194.009 459.962 191.438 459.962 191.438L459.664 205.629C454.654 213.354 443.288 213.111 447.382 205.254V200.939C445.698 201.219 443.988 201.308 442.284 201.204C439.503 200.763 437.76 198.478 436.91 195.344C435.564 190.312 435.045 186.251 436.193 176.353C437.451 165.516 449.567 165.395 456.056 169.732C462.545 174.068 460.161 185.832 460.161 185.832Z" fill="#FFA8A7"/>
<path d="M445.063 174.664C447.954 174.377 450.812 173.782 453.714 173.561C454.34 173.485 454.974 173.515 455.59 173.649C457.797 174.256 457.532 176.838 457.886 178.637C458.492 181.749 458.989 187.013 460.159 187.035C460.512 187.035 461.836 184.751 462.697 183.934C463.17 183.23 463.438 182.409 463.469 181.561C463.69 180.281 463.8 178.968 463.9 177.666C463.988 176.562 464.098 175.459 464.098 174.355C464.149 173.108 464.049 171.86 463.8 170.637C463.524 169.596 462.993 168.64 462.255 167.856L462.035 167.613C460.58 166.092 458.815 164.903 456.859 164.126C454.046 163.072 451.095 162.429 448.097 162.217C445.104 162.005 442.124 161.636 439.17 161.113C439 161.064 438.821 161.064 438.651 161.113C438.531 161.18 438.43 161.275 438.357 161.391C438.284 161.506 438.241 161.639 438.232 161.775C438.111 162.461 438.186 163.167 438.45 163.812C438.714 164.456 439.155 165.013 439.722 165.417C437.724 165.571 435.429 164.534 433.509 164.004C433.353 163.939 433.186 163.905 433.018 163.905C432.849 163.905 432.682 163.939 432.527 164.004C432.334 164.139 432.197 164.339 432.14 164.567C432.001 165.086 431.982 165.629 432.085 166.156C432.261 167.753 432.855 169.276 433.807 170.57C435.294 172.507 437.395 173.88 439.766 174.466C441.511 174.802 443.297 174.869 445.063 174.664Z" fill="#263238"/>
<path d="M447.393 200.939C447.393 200.939 453.594 199.637 455.757 198.434C457.046 197.729 458.092 196.652 458.759 195.344C458.433 196.659 457.852 197.896 457.048 198.986C455.47 201.105 447.393 202.65 447.393 202.65V200.939Z" fill="#F28F8F"/>
<path d="M448.881 184.21C448.869 184.55 448.992 184.882 449.223 185.132C449.455 185.382 449.776 185.531 450.117 185.545C450.387 185.567 450.658 185.507 450.893 185.373C451.129 185.239 451.319 185.036 451.437 184.792C451.556 184.549 451.598 184.275 451.559 184.006C451.519 183.738 451.399 183.488 451.215 183.289C451.031 183.09 450.791 182.951 450.526 182.891C450.262 182.83 449.985 182.851 449.733 182.951C449.481 183.05 449.264 183.224 449.112 183.449C448.96 183.673 448.879 183.938 448.881 184.21Z" fill="#263238"/>
<path d="M450.868 178.858L453.528 180.391C453.721 180.013 453.765 179.576 453.651 179.167C453.536 178.758 453.271 178.407 452.91 178.184C452.733 178.085 452.538 178.024 452.337 178.005C452.136 177.985 451.933 178.008 451.741 178.071C451.549 178.135 451.372 178.237 451.222 178.373C451.071 178.508 450.951 178.673 450.868 178.858Z" fill="#263238"/>
<path d="M447.944 193.159L445.108 194.263C445.165 194.457 445.262 194.638 445.392 194.794C445.521 194.949 445.682 195.077 445.863 195.168C446.044 195.259 446.242 195.312 446.444 195.323C446.647 195.334 446.849 195.304 447.04 195.234C447.426 195.068 447.734 194.761 447.902 194.375C448.07 193.99 448.085 193.555 447.944 193.159Z" fill="#F28F8F"/>
<path d="M437.471 179.995L439.899 178.052C439.79 177.883 439.647 177.738 439.479 177.628C439.31 177.517 439.12 177.443 438.922 177.411C438.723 177.379 438.519 177.389 438.325 177.44C438.13 177.492 437.948 177.584 437.791 177.71C437.467 177.985 437.255 178.37 437.196 178.791C437.137 179.213 437.235 179.641 437.471 179.995Z" fill="#263238"/>
<path d="M438.542 183.846C438.561 184.087 438.65 184.318 438.798 184.509C438.947 184.701 439.147 184.845 439.376 184.925C439.605 185.004 439.852 185.015 440.087 184.956C440.322 184.897 440.535 184.772 440.7 184.594C440.864 184.416 440.973 184.194 441.014 183.956C441.055 183.717 441.025 183.471 440.928 183.249C440.832 183.027 440.672 182.838 440.47 182.705C440.268 182.572 440.031 182.5 439.789 182.5C439.618 182.505 439.45 182.545 439.295 182.616C439.14 182.686 439 182.787 438.884 182.913C438.768 183.038 438.678 183.185 438.62 183.345C438.561 183.505 438.534 183.675 438.542 183.846Z" fill="#263238"/>
<path d="M445.196 182.809L445.053 190.655L440.595 189.639L445.196 182.809Z" fill="#F28F8F"/>
<path d="M339.326 248.523L346.245 244.528L348.981 241.207L342.073 245.201L339.326 248.523Z" fill="#46D490"/>
<path opacity="0.4" d="M339.326 248.523L346.245 244.528L348.981 241.207L342.073 245.201L339.326 248.523Z" fill="black"/>
<path d="M358.14 259.382L365.059 255.387L370.83 250.278L363.922 254.262L358.14 259.382Z" fill="#46D490"/>
<path opacity="0.4" d="M358.14 259.382L365.059 255.387L370.83 250.278L363.922 254.262L358.14 259.382Z" fill="black"/>
<path d="M416.914 273.165C418.55 275.357 419.54 277.964 419.772 280.691C418.143 278.494 417.154 275.889 416.914 273.165ZM432.992 273.374C430.663 257.539 422.155 241.88 412.025 236.02C407.159 233.206 402.656 233.107 399.048 235.215L392.537 238.966L392.173 239.187C391.883 239.347 391.603 239.524 391.334 239.717C390.799 240.085 390.297 240.498 389.833 240.953L389.613 241.162C389.414 241.361 389.204 241.593 389.017 241.814C388.829 242.034 388.542 242.376 388.321 242.674C387.853 243.291 387.429 243.94 387.052 244.616C386.854 244.959 386.666 245.323 386.49 245.72L329.625 212.901L322.717 216.885V221.299L323.302 221.63L323.854 221.95V222.833L322.75 223.484V226.044L331.104 243.701L339.358 248.479L342.106 245.168L349.389 249.527L353.572 256.689L358.184 259.348L363.956 254.228L371.04 258.322L373.424 268.155L385.331 275.04C385.919 277.543 386.656 280.008 387.538 282.423C387.615 282.666 387.715 282.92 387.814 283.196C391.764 293.569 398.043 302.452 405.128 306.546C405.977 307.049 406.867 307.481 407.788 307.837C408.274 308.031 408.772 308.196 409.277 308.334C409.719 308.451 410.16 308.551 410.601 308.632C411.995 308.886 413.423 308.886 414.817 308.632L415.391 308.488C415.665 308.433 415.935 308.355 416.196 308.256L416.814 308.014C417.033 307.935 417.244 307.835 417.443 307.716C417.647 307.627 417.846 307.528 418.039 307.418L418.326 307.241C418.378 307.224 418.427 307.198 418.47 307.164C420.048 306.259 423.932 304.008 424.991 303.412C430.244 300.366 433.643 292.664 433.643 281.772C433.634 278.96 433.416 276.153 432.992 273.374Z" fill="#46D490"/>
<path d="M414.894 286.528C412.157 284.95 409.95 280.271 409.95 276.077C409.95 271.884 412.157 269.754 414.894 271.321C417.63 272.888 419.826 277.578 419.826 281.783C419.826 285.987 417.619 288.106 414.894 286.528ZM426.072 277.358C423.755 261.533 415.247 245.863 405.105 240.015C400.404 237.3 396.056 237.101 392.525 238.966L392.161 239.187C391.871 239.346 391.591 239.523 391.322 239.717C390.787 240.085 390.285 240.498 389.822 240.953L389.601 241.162C389.402 241.361 389.193 241.593 389.005 241.813C388.817 242.034 388.53 242.376 388.31 242.674C387.841 243.291 387.417 243.94 387.041 244.616C386.842 244.958 386.654 245.322 386.478 245.72C385.449 247.853 384.707 250.112 384.271 252.44L322.706 216.885V221.299L323.29 221.63L323.842 221.95V222.833L322.739 223.484V226.044L331.092 243.7L339.347 248.479L342.094 245.168L349.378 249.527L353.56 256.689L358.173 259.348L363.944 254.228L371.029 258.322L373.412 268.154L385.33 275.04C385.919 277.543 386.656 280.008 387.537 282.423C387.615 282.666 387.714 282.919 387.813 283.195C391.764 293.568 398.043 302.452 405.127 306.546C405.976 307.049 406.866 307.481 407.787 307.837C408.274 308.03 408.771 308.196 409.277 308.333C409.718 308.451 410.159 308.55 410.601 308.631C411.994 308.885 413.423 308.885 414.816 308.631L415.39 308.488C415.664 308.433 415.934 308.355 416.196 308.256L416.814 308.013C417.032 307.934 417.243 307.835 417.443 307.715C417.647 307.627 417.846 307.528 418.039 307.417L418.325 307.241C418.377 307.224 418.426 307.198 418.469 307.164C423.501 303.985 426.734 296.393 426.734 285.766C426.716 282.951 426.494 280.141 426.072 277.358Z" fill="#46D490"/>
<path opacity="0.4" d="M419.826 281.772C419.826 285.976 417.619 288.106 414.893 286.528C412.168 284.95 409.95 280.282 409.95 276.078C409.95 271.873 412.157 269.743 414.893 271.321C415.682 271.801 416.368 272.431 416.913 273.175C417.15 275.9 418.14 278.506 419.771 280.701C419.811 281.057 419.83 281.414 419.826 281.772Z" fill="black"/>
<path opacity="0.4" d="M433.62 281.761C433.62 292.653 430.221 300.355 424.968 303.401C423.865 303.997 420.025 306.248 418.447 307.153C423.479 303.975 426.712 296.382 426.712 285.756C426.7 282.945 426.486 280.138 426.072 277.358C423.755 261.533 415.246 245.863 405.105 240.015C400.404 237.3 396.056 237.101 392.525 238.966L399.036 235.214C402.644 233.107 407.147 233.206 412.013 236.02C422.154 241.88 430.663 257.539 432.98 273.374C433.4 276.15 433.614 278.953 433.62 281.761Z" fill="white"/>
<path d="M426.713 285.734C426.713 296.36 423.479 303.953 418.447 307.131C420.025 306.226 423.91 303.975 424.969 303.379C430.222 300.333 433.621 292.631 433.621 281.739C433.621 281.342 433.621 280.933 433.621 280.525L426.713 284.52C426.702 284.95 426.713 285.347 426.713 285.734Z" fill="#46D490"/>
<path opacity="0.1" d="M426.713 285.734C426.713 296.36 423.479 303.953 418.447 307.131C420.025 306.226 423.91 303.975 424.969 303.379C430.222 300.333 433.621 292.631 433.621 281.739C433.621 281.342 433.621 280.933 433.621 280.525L426.713 284.52C426.702 284.95 426.713 285.347 426.713 285.734Z" fill="black"/>
<path opacity="0.15" d="M384.536 256.954V259.194L322.717 223.506L323.854 222.844V221.917L384.536 256.954Z" fill="black"/>
<path opacity="0.15" d="M384.536 257.88V259.193L322.717 223.506L323.854 222.844V222.833L384.536 257.88Z" fill="black"/>
<path opacity="0.15" d="M411.417 303.389C409.074 303.329 406.789 302.647 404.796 301.414C394.721 295.599 386.521 278.295 386.521 262.846C386.521 253.83 389.247 247.099 394.003 244.351C397.314 242.431 401.231 242.674 405.348 245.046C415.412 250.862 423.611 268.22 423.611 283.67C423.611 292.674 420.885 299.417 416.129 302.153C414.694 302.973 413.069 303.399 411.417 303.389ZM398.782 244.186C397.311 244.177 395.864 244.558 394.588 245.289C390.251 247.794 387.658 254.36 387.658 262.835C387.658 277.931 395.603 294.837 405.381 300.443C409.122 302.65 412.664 302.849 415.61 301.149C419.947 298.644 422.54 292.089 422.54 283.614C422.54 268.507 414.595 251.612 404.829 245.995C403.004 244.885 400.918 244.276 398.782 244.23V244.186Z" fill="black"/>
<path opacity="0.4" d="M386.434 245.698C385.405 247.831 384.663 250.091 384.227 252.418L322.662 216.863L329.57 212.879L386.434 245.698Z" fill="white"/>
<path d="M466.451 249.152C469.673 243.05 473.359 229.344 475.191 222.425C477.795 212.603 473.58 206.424 468.79 206.17C465.8 206.633 455.945 242.465 455.945 242.465C454.842 243.336 439.867 250.94 435.056 252.849C434.195 253.174 433.246 253.174 432.385 252.849C430.079 252.01 428.501 252.165 426.239 251.944C424.462 251.767 423.568 251.138 423.336 251.513C423.126 251.979 423.099 252.507 423.26 252.992C423.422 253.477 423.76 253.883 424.208 254.129C425.182 254.696 426.219 255.148 427.298 255.475C425.364 256.062 423.348 256.334 421.328 256.281C416.693 256.181 415.027 258.19 418.624 262.902C420.831 265.837 424.484 266.764 432.639 263.95C434.979 263.134 438.157 261.556 441.125 260.485C447.239 258.278 448.85 258.013 453.507 256.435C460.293 254.14 465.016 251.867 466.451 249.152Z" fill="#FFA8A7"/>
<path d="M466.99 205.243C469.804 205.629 472.508 206.258 474.174 208.554C475.841 210.849 477.176 214.071 475.543 222.844C474.292 229.014 472.618 235.09 470.533 241.03C470.533 241.03 463.978 243.833 457.015 236.727L461.804 218.21C461.804 218.21 462.576 206.17 466.99 205.243Z" fill="#455A64"/>
</g>
<defs>
<filter id="filter0_d_127_1927" x="0" y="0" width="528" height="512.285" filterUnits="userSpaceOnUse" color-interpolation-filters="sRGB">
<feFlood flood-opacity="0" result="BackgroundImageFix"/>
<feColorMatrix in="SourceAlpha" type="matrix" values="0 0 0 0 0 0 0 0 0 0 0 0 0 0 0 0 0 0 127 0" result="hardAlpha"/>
<feOffset dy="4"/>
<feGaussianBlur stdDeviation="2"/>
<feComposite in2="hardAlpha" operator="out"/>
<feColorMatrix type="matrix" values="0 0 0 0 0 0 0 0 0 0 0 0 0 0 0 0 0 0 0.25 0"/>
<feBlend mode="normal" in2="BackgroundImageFix" result="effect1_dropShadow_127_1927"/>
<feBlend mode="normal" in="SourceGraphic" in2="effect1_dropShadow_127_1927" result="shape"/>
</filter>
</defs>
</svg>
